<svg xmlns="http://www.w3.org/2000/svg" xmlns:xlink="http://www.w3.org/1999/xlink" width="992.445" height="479.735" viewBox="0 0 992.445 479.735">
  <defs>
    <clipPath id="clip-path">
      <rect width="992.445" height="479.735" fill="none"/>
    </clipPath>
    <clipPath id="clip-path-2">
      <rect width="479.266" height="992.445" fill="none"/>
    </clipPath>
  </defs>
  <g id="重复网格_49" data-name="重复网格 49" clip-path="url(#clip-path)">
    <g transform="translate(-516.955 -366)">
      <path id="路径_433" data-name="路径 433" d="M132.5,0A132.5,132.5,0,1,1,0,132.5,132.5,132.5,0,0,1,132.5,0Z" transform="translate(615 366)" fill="rgba(255,195,0,0.65)"/>
      <g id="Layer_3" transform="translate(1550.9 293.421) rotate(90)">
        <line id="直线_1" data-name="直线 1" x2="0.875" y2="0.38" transform="translate(318.847 611.059)" fill="none" stroke="#650e0f" stroke-miterlimit="10" stroke-width="1"/>
        <path id="路径_6" data-name="路径 6" d="M446.46,409.68" transform="translate(-18.437 -19.263)" fill="none" stroke="#650e0f" stroke-miterlimit="10" stroke-width="1"/>
        <path id="路径_7" data-name="路径 7" d="M378.87,206.44" transform="translate(-15.109 -9.255)" fill="none" stroke="#121111" stroke-miterlimit="10" stroke-width="1"/>
        <path id="路径_8" data-name="路径 8" d="M243.88,204.77" transform="translate(-8.462 -9.173)" fill="none" stroke="#121111" stroke-miterlimit="10" stroke-width="1"/>
        <path id="路径_9" data-name="路径 9" d="M388.25,212.45" transform="translate(-15.571 -9.551)" fill="none" stroke="#121111" stroke-miterlimit="10" stroke-width="1"/>
        <path id="路径_10" data-name="路径 10" d="M233.15,210.84" transform="translate(-7.933 -9.471)" fill="none" stroke="#121111" stroke-miterlimit="10" stroke-width="1"/>
        <line id="直线_2" data-name="直线 2" transform="translate(431.503 383.21)" fill="none" stroke="#650e0f" stroke-miterlimit="10" stroke-width="1"/>
        <g id="重复网格_48" data-name="重复网格 48" transform="translate(73.048 41.5)" clip-path="url(#clip-path-2)">
          <g id="组_165" data-name="组 165">
            <g id="组_12" data-name="组 12" transform="translate(345.62 131.699)">
              <g id="组_11" data-name="组 11" transform="translate(0)">
                <path id="路径_11" data-name="路径 11" d="M516.631,394.766,517.5,157.02s-41.158,6.646-27.135,45.636c0,0-36.452.276-29.264,43.545,0,0-36.357,12.949-22.3,56.171,0,0,8.623,22.657,18.121,21.525,0,0,1.341,37.5,33.058,39.9C489.982,363.8,489.716,388.634,516.631,394.766Z" transform="translate(-435.569 -157.02)" fill="#4ca2d1"/>
              </g>
            </g>
            <g id="组_14" data-name="组 14" transform="translate(166.791 250.584)">
              <g id="组_13" data-name="组 13">
                <path id="路径_12" data-name="路径 12" d="M158.63,558.656s-43.231-13.91-37.355-74.91c0,0,10.221-63.254,43.535-45.408,0,0-6.494-61.058,39.266-57.407S257.6,438.243,257.6,438.243s27.914-14.689,40.54,56.1-28.247,79.7-28.247,79.7,51.921,7.682,42.318,70.936-42.28,41.424-45.38,43.117,38.059,58.367-16.429,67.218c0,0-31.584,7.254-28.722-68.588,0,0-4.545,42.185-44.011,16.885s-12.74-48.546-12.74-48.546S104.4,638.225,113.878,597.78,158.63,558.656,158.63,558.656Z" transform="translate(-112.871 -380.774)" fill="#92cff0"/>
              </g>
            </g>
            <g id="组_27" data-name="组 27" transform="translate(338.907 279.012)">
              <g id="组_16" data-name="组 16" transform="translate(19.36 4.628)">
                <g id="组_15" data-name="组 15">
                  <path id="路径_13" data-name="路径 13" d="M450.439,316.83l-1.4,14.014s-4.782,9.26,36.271,19.89c0,0,7.207-1.483,6.18-23.275A166.157,166.157,0,0,1,450.439,316.83Z" transform="translate(-448.87 -316.83)" fill="#bd6328"/>
                </g>
              </g>
              <g id="组_18" data-name="组 18" transform="translate(50.354 1.642)">
                <g id="组_17" data-name="组 17">
                  <circle id="椭圆_2" data-name="椭圆 2" cx="2.52" cy="2.52" r="2.52" fill="#f7cb9f"/>
                </g>
              </g>
              <g id="组_20" data-name="组 20" transform="translate(19.35 0.986)">
                <g id="组_19" data-name="组 19" transform="translate(1 0)">
                  <path id="路径_14" data-name="路径 14" d="M479.826,313s-2.092,1.883,2.8,6.551l-27.924,13.976-4.155,1.806-1.692-2.976.171-1.7Z" transform="translate(-448.86 -313)" fill="#cf6b28"/>
                </g>
              </g>
              <g id="组_22" data-name="组 22" transform="translate(55.811 14.24)">
                <g id="组_21" data-name="组 21">
                  <path id="路径_15" data-name="路径 15" d="M487.21,351.2s8.157-12.274,4.079-23.579l18.14-.685.333,23.74C509.753,350.68,493.228,356.157,487.21,351.2Z" transform="translate(-487.21 -326.94)" fill="#141033"/>
                </g>
              </g>
              <g id="组_24" data-name="组 24" transform="translate(3.992 1)">
                <g id="组_23" data-name="组 23">
                  <path id="路径_16" data-name="路径 16" d="M439.061,321.971c.523-.057.894-.513,1.255-.894a5.816,5.816,0,0,1,2.405-1.512,7.086,7.086,0,0,0,2.481-.97,5.536,5.536,0,0,1,.751-.666.712.712,0,0,1,.913.076,4.323,4.323,0,0,0-.618-2.957,3.055,3.055,0,0,0-1.5-.9,9.42,9.42,0,0,1-2.6-.761c-.637-.409-1.084-1.122-1.806-1.35a2.583,2.583,0,0,0-2.329.751c-.989.837-1.787,1.959-2.976,2.453-1.141.475-1.978.894-2.263,2.206a2.11,2.11,0,0,0,.609,2.139,6.509,6.509,0,0,0,2.947,1.5,4.6,4.6,0,0,1,1.417.38C438.167,321.677,438.547,322.019,439.061,321.971Z" transform="translate(-432.707 -311.963)" fill="#f7cb9f"/>
                </g>
              </g>
              <g id="组_26" data-name="组 26" transform="translate(0 3.917)">
                <g id="组_25" data-name="组 25" transform="translate(0 -1.232)">
                  <path id="路径_17" data-name="路径 17" d="M432.3,316.375a1.2,1.2,0,0,1,1.353-.153c.331.183.155.356.041.652a5.458,5.458,0,0,0-.238.9,1.971,1.971,0,0,0-.031.55,1.712,1.712,0,0,0,.093.4,2.314,2.314,0,0,0,.155.519,1.488,1.488,0,0,0,.351.316c.258.224.517.448.785.672a5.67,5.67,0,0,0,1.89,1.222,1.956,1.956,0,0,0,2.087-.489,1.1,1.1,0,0,0,1,.581,3.564,3.564,0,0,0,1.281-.336c1.312-.519,2.634-1.029,3.946-1.548a10.863,10.863,0,0,0,1.777-.835,9.873,9.873,0,0,1,1.539-.947,5.074,5.074,0,0,1,2.593-.061c.227.031.527.244.362.407-.134.01-.269.01-.4.02.083,1.212,1.074,2.281.961,3.483a9.436,9.436,0,0,1-.785,2.169,4.408,4.408,0,0,0,.083,3.127,3.694,3.694,0,0,1,.486,1.507,2.455,2.455,0,0,1-.155.672l-.486,1.5c-.289.122-.434.183-.733.316a4.6,4.6,0,0,0-4.411.224c-.9.56-1.426,1.548-2.211,2.251a4.545,4.545,0,0,1-4.525.845c-1.219-.458-2.221-1.436-3.5-1.7a9.542,9.542,0,0,1-5.062-2.353,7.435,7.435,0,0,1-2-4.991c-.01-.856.145-1.721.062-2.577-.083-.876-.3-1.976.434-2.475a2.087,2.087,0,0,0,.754-.957,6.025,6.025,0,0,1,.362-1.131c.393-.682,1.322-.866,1.849-1.446C432.115,316.589,432.2,316.467,432.3,316.375Z" transform="translate(-428.508 -316.083)" fill="#cd1f26"/>
                </g>
              </g>
            </g>
            <g id="组_41" data-name="组 41" transform="translate(350.611 338.142)">
              <g id="组_30" data-name="组 30" transform="translate(15.814 66.138)">
                <g id="组_29" data-name="组 29">
                  <g id="组_28" data-name="组 28">
                    <path id="路径_18" data-name="路径 18" d="M468.583,446.249h0s-1.265,5.952-4.858,7.663-5.315-.029-5.315-.029-3.328-.865,2.415-5.609c0,0-4.345-3.537.6-3.641l5.286-.913h0Z" transform="translate(-457.451 -443.72)" fill="#f7cb9f"/>
                  </g>
                </g>
              </g>
              <g id="组_40" data-name="组 40" transform="translate(0)">
                <g id="组_33" data-name="组 33" transform="translate(11.094 40.294)">
                  <g id="组_32" data-name="组 32">
                    <g id="组_31" data-name="组 31">
                      <path id="路径_19" data-name="路径 19" d="M456.188,432.855c-1.8-1.683-3.632-3.784-3.7-6.408a2.957,2.957,0,0,1,.1-.913,4.142,4.142,0,0,1,.542-1.036l2.139-3.2a.074.074,0,0,0-.019-.1,2.963,2.963,0,0,1-1.084-1.255,1.749,1.749,0,0,1,.171-1.73,1.777,1.777,0,0,1,1-.532c1.816-.437,3.689.162,5.467.751a10.7,10.7,0,0,1,2.187-1.569c.77-.475,2.348-.494,2.757.371a2.245,2.245,0,0,1-.086,1.588,4.707,4.707,0,0,1-1.179,2.263c-.39.333-.941.571-1.036,1.1a2,2,0,0,0,.209,1.017c.723,2.12-.447,4.44-1.787,6.142-1.512,1.921-3.565,3.66-5.838,3.442C456.008,432.494,456.217,433.15,456.188,432.855Z" transform="translate(-452.488 -416.537)" fill="#f7cb9f"/>
                    </g>
                  </g>
                </g>
                <g id="组_36" data-name="组 36" transform="translate(19.375)">
                  <g id="组_35" data-name="组 35">
                    <g id="组_34" data-name="组 34">
                      <path id="路径_20" data-name="路径 20" d="M470.3,444.9h0l12.655-10.686s1.921-1.959.029-4.906-6.218-11.514-6.218-11.514,18.673-14.9,24.244-11.352a172.63,172.63,0,0,1,14.176,10.791l2.453,2.2h0l3.337-41.348h0s-11.894-12.293-34.655,6.655l-22.771,18.949s-6,3.67,1.169,13.292,13.415,11.637.932,21.63h0l3.118,4.221Z" transform="translate(-461.197 -374.156)" fill="#c75627"/>
                    </g>
                  </g>
                </g>
                <g id="组_39" data-name="组 39" transform="translate(0 28.679)">
                  <g id="组_38" data-name="组 38">
                    <g id="组_37" data-name="组 37">
                      <path id="路径_21" data-name="路径 21" d="M454.729,420.673a1.649,1.649,0,0,1-.675-.675,2.282,2.282,0,0,1-.551-1.483,1.672,1.672,0,0,1,.162-.523,1.327,1.327,0,0,1,.409-.6,1.552,1.552,0,0,1,.428-.171,6.213,6.213,0,0,1,1.255-.228,5.913,5.913,0,0,1,1.626.247c.789.19,1.569.39,2.358.58a.832.832,0,0,0,.456.029,1.032,1.032,0,0,0,.371-.238,5.066,5.066,0,0,1,1.426-.865c.181-.076.409-.209.352-.4-.751-.589-.875-1.664-1.2-2.558-.133-.361-.285-.713-.4-1.084a8.6,8.6,0,0,1-.266-2.158,5.893,5.893,0,0,1,.162-2.082,5.529,5.529,0,0,1,.333-.77,15.23,15.23,0,0,1,2.377-3.375,2.6,2.6,0,0,0-1.131.875c-.4.447-.8.9-1.2,1.35a2.2,2.2,0,0,1-.637.551,2.049,2.049,0,0,1-.9.133.975.975,0,0,1-.494-.086,1.062,1.062,0,0,0-.228-.124.517.517,0,0,0-.209,0,13.077,13.077,0,0,0-1.35.276.536.536,0,0,0-.238.1.507.507,0,0,0-.143.3c-.247,1.188.124,2.424.029,3.641a.573.573,0,0,1-.057.219.448.448,0,0,1-.3.152,5.259,5.259,0,0,1-1.445.076,1.4,1.4,0,0,0-.97.114c-.352.247-.342.761-.3,1.188a9.146,9.146,0,0,0-4.906.019,1.175,1.175,0,0,0-.627.323c-.1.124-.152.285-.257.409-.228.266-.637.266-.979.323-1.559.228-2.615,1.787-4.126,2.234a2.313,2.313,0,0,0-.361.124,1.219,1.219,0,0,0-.456.475,5.948,5.948,0,0,0-.713,2.168,32.884,32.884,0,0,0-.513,6.693,3.98,3.98,0,0,0,.266,1.569,4.571,4.571,0,0,0,1.15,1.379c.646.352,1.607.894,2.253,1.245a3.034,3.034,0,0,1,1.4.694,8.651,8.651,0,0,1,.837,1.017,13.242,13.242,0,0,0,1.978,1.882,7.266,7.266,0,0,0,1.312.922,2.413,2.413,0,0,0,1.559.257,5.608,5.608,0,0,0,.941-.352c0-.323.333-.561.647-.608a3.3,3.3,0,0,1,.96.1,3.78,3.78,0,0,0,3.908-2.111c.029-.076-.01-.143-.01-.219a6.64,6.64,0,0,1-2.016.428,1.265,1.265,0,0,1-.865-.238,5.136,5.136,0,0,1-1.388-2.329,4.734,4.734,0,0,0-.257-.6c-.114-.2-.266-.371-.4-.561a4.222,4.222,0,0,1-.409-2.843,7.374,7.374,0,0,1,.447-1.978,8.272,8.272,0,0,1,.38-.77l.485-.913A3.938,3.938,0,0,1,454.729,420.673Z" transform="translate(-440.819 -404.32)" fill="#cd1f26"/>
                    </g>
                  </g>
                </g>
              </g>
            </g>
            <g id="组_48" data-name="组 48" transform="translate(333.898 326.631)">
              <g id="组_44" data-name="组 44" transform="translate(2.367)">
                <g id="组_43" data-name="组 43">
                  <g id="组_42" data-name="组 42">
                    <path id="路径_22" data-name="路径 22" d="M432.794,373.354a9.384,9.384,0,0,1,3.252.865c1.1.59,2.044,1.6,3.1,2.31a6.47,6.47,0,0,0,4.64,1.074.619.619,0,0,0,.39-.162,1.269,1.269,0,0,0,.238-.732,76.657,76.657,0,0,0,.751-10.848,6.961,6.961,0,0,0-.428-2.615c-.342-.78-1.027-1.36-1.692-1.16-.846.257-1.217,1.54-1.664,2.539-1.436,3.195-4.488,4.231-7.235,4.982l-8.414,2.31c.466-.124,2.1.732,2.738.846C429.913,372.993,431.358,373.155,432.794,373.354Z" transform="translate(-425.73 -362.048)" fill="#d71f27"/>
                  </g>
                </g>
              </g>
              <g id="组_47" data-name="组 47" transform="translate(0 2.435)">
                <g id="组_46" data-name="组 46">
                  <g id="组_45" data-name="组 45">
                    <path id="路径_23" data-name="路径 23" d="M440.991,376.352a10.92,10.92,0,0,0,.609-9.536,3.331,3.331,0,0,0-2.215-2.12,3.75,3.75,0,0,0-2.89.551,5.577,5.577,0,0,1-.894.589,12.439,12.439,0,0,1-1.7.257,5.611,5.611,0,0,0-2.215,1.7,6.875,6.875,0,0,1-3.138,1.683c-.96.228-1.949.247-2.909.466a3.49,3.49,0,0,0-2.4,1.483c.029,1.464,1.645,2.4,3.1,2.605s3,.019,4.335.628a13.867,13.867,0,0,1,2.757,2.158,8.579,8.579,0,0,0,5.895,1.844c.485-.523,1.721-1.711,1.531-2.453-.209-.818-1.74-1.217-2.415-1.379a5.027,5.027,0,0,1-2.681-1.169c-.276-.3-.485-.7-.856-.894a2.274,2.274,0,0,0-1.046-.133,7.805,7.805,0,0,1-1.873-.209,1.906,1.906,0,0,1-1.046-.532.747.747,0,0,1,.067-1.055,1.4,1.4,0,0,1,.865-.086,5.782,5.782,0,0,0,2.976-.941c.713-.38,1.436-.77,2.149-1.15,1.512-.808,3.156-1.645,4.849-1.379a1.442,1.442,0,0,1,.561.181,1.729,1.729,0,0,1,.551.618,6.02,6.02,0,0,1-1.949,8.167" transform="translate(-423.24 -364.609)" fill="#ece826"/>
                  </g>
                </g>
              </g>
            </g>
            <g id="组_123" data-name="组 123">
              <g id="组_51" data-name="组 51" transform="translate(327.965 303.149)">
                <g id="组_50" data-name="组 50" transform="translate(0)">
                  <g id="组_49" data-name="组 49">
                    <path id="路径_24" data-name="路径 24" d="M501.684,349.567l-.219,44.258L417.1,404.72l-.1-.837,83.619-10.8.219-42.784-83.505-12.122.114-.827Z" transform="translate(-417 -337.35)" fill="#650e0f"/>
                  </g>
                </g>
              </g>
              <g id="组_54" data-name="组 54" transform="translate(327.552 355.972)">
                <g id="组_53" data-name="组 53" transform="translate(0 0)">
                  <g id="组_52" data-name="组 52" transform="translate(0)">
                    <rect id="矩形_60" data-name="矩形 60" width="30.072" height="0.837" transform="translate(0 19.457) rotate(-40.315)" fill="#650e0f"/>
                  </g>
                </g>
              </g>
              <g id="组_57" data-name="组 57" transform="translate(327.112 296.15)">
                <g id="组_56" data-name="组 56" transform="translate(0 0)">
                  <g id="组_55" data-name="组 55" transform="translate(0)">
                    <rect id="矩形_61" data-name="矩形 61" width="0.837" height="29.93" transform="matrix(0.672, -0.741, 0.741, 0.672, 0, 0.62)" fill="#650e0f"/>
                  </g>
                </g>
              </g>
              <g id="组_60" data-name="组 60" transform="translate(348.483 315.803)">
                <g id="组_59" data-name="组 59">
                  <g id="组_58" data-name="组 58">
                    <path id="路径_25" data-name="路径 25" d="M453.1,351l-.209,42.09-14.309-.342.219-42.09Z" transform="translate(-438.58 -350.66)" fill="#650e0f"/>
                  </g>
                </g>
              </g>
              <g id="组_63" data-name="组 63" transform="translate(251.367 239.299)">
                <g id="组_62" data-name="组 62" transform="translate(0 0)">
                  <g id="组_61" data-name="组 61">
                    <rect id="矩形_62" data-name="矩形 62" width="0.846" height="166.744" transform="matrix(0.296, -0.955, 0.955, 0.296, 0, 0.808)" fill="#650e0f"/>
                  </g>
                </g>
              </g>
              <g id="组_66" data-name="组 66" transform="translate(221.043 382.889)">
                <g id="组_65" data-name="组 65" transform="translate(0)">
                  <g id="组_64" data-name="组 64">
                    <path id="路径_26" data-name="路径 26" d="M498.238,422.019,304.844,496.872l-.3-.789,185.711-71.877L329.612,468.2l-.228-.818,168.6-46.159Z" transform="translate(-304.54 -421.22)" fill="#650e0f"/>
                  </g>
                </g>
              </g>
              <g id="组_122" data-name="组 122">
                <g id="组_71" data-name="组 71" transform="translate(0 191.699)">
                  <g id="组_68" data-name="组 68" transform="translate(0.418 0.418)">
                    <g id="组_67" data-name="组 67">
                      <path id="路径_27" data-name="路径 27" d="M72.49,363.9A144.065,144.065,0,1,0,217.281,220.57,144.071,144.071,0,0,0,72.49,363.9Zm279.161,4.231q.029-5.049.048-10.1Q351.684,363.079,351.651,368.127Z" transform="translate(-72.488 -220.568)" fill="#df928e"/>
                    </g>
                  </g>
                  <g id="组_70" data-name="组 70">
                    <g id="组_69" data-name="组 69">
                      <path id="路径_28" data-name="路径 28" d="M361.014,365.348C360.6,445.012,295.459,509.5,215.795,509.093S71.641,443.538,72.05,363.875,137.6,219.721,217.269,220.13,361.413,285.684,361.014,365.348ZM72.887,363.884c-.4,79.207,63.71,143.973,142.908,144.372s143.973-63.71,144.372-142.908-63.71-143.973-142.908-144.372S73.286,284.677,72.887,363.884Zm279.637-5.733-.047,10.1h-.837l.048-10.1Z" transform="translate(-72.048 -220.128)" fill="#df928e"/>
                    </g>
                  </g>
                </g>
                <g id="组_97" data-name="组 97" transform="translate(280.209 293.546)">
                  <g id="组_76" data-name="组 76" transform="translate(7.15 2.558)">
                    <g id="组_73" data-name="组 73" transform="translate(0.019)">
                      <g id="组_72" data-name="组 72">
                        <path id="路径_29" data-name="路径 29" d="M374.738,413.245l32.8.162.428-83.3-33.657-.171Z" transform="translate(-374.31 -329.94)" fill="#df928e"/>
                      </g>
                    </g>
                    <g id="组_75" data-name="组 75">
                      <g id="组_74" data-name="组 74">
                        <path id="路径_30" data-name="路径 30" d="M408.8,330.111l-.428,84.142-33.657-.171-.428-84.142Zm-1.264,83.3.418-82.459-32.811-.171.428,82.459Z" transform="translate(-374.29 -329.94)" fill="#df928e"/>
                      </g>
                    </g>
                  </g>
                  <g id="组_81" data-name="组 81" transform="translate(8.405 0.038)">
                    <g id="组_78" data-name="组 78" transform="translate(0.011 0.006)">
                      <g id="组_77" data-name="组 77" transform="translate(0 0)">
                        <rect id="矩形_63" data-name="矩形 63" width="88.344" height="2.52" transform="translate(0 88.344) rotate(-89.708)" fill="#650e0f"/>
                      </g>
                    </g>
                    <g id="组_80" data-name="组 80">
                      <g id="组_79" data-name="组 79">
                        <path id="路径_31" data-name="路径 31" d="M379.432,327.309l-.456,89.19-3.366-.019.456-89.19Zm-1.284,88.344.447-87.508-1.683-.01-.447,87.508Z" transform="translate(-375.61 -327.29)" fill="#650e0f"/>
                      </g>
                    </g>
                  </g>
                  <g id="组_86" data-name="组 86" transform="translate(36.176 0.18)">
                    <g id="组_83" data-name="组 83" transform="translate(0.007 0)">
                      <g id="组_82" data-name="组 82" transform="translate(0)">
                        <rect id="矩形_64" data-name="矩形 64" width="88.344" height="2.52" transform="translate(0 88.344) rotate(-89.708)" fill="#650e0f"/>
                      </g>
                    </g>
                    <g id="组_85" data-name="组 85" transform="translate(0 0.001)">
                      <g id="组_84" data-name="组 84">
                        <path id="路径_32" data-name="路径 32" d="M408.642,327.459l-.456,89.19-3.366-.019.456-89.19ZM407.349,415.8,407.8,328.3l-1.683-.009-.447,87.508Z" transform="translate(-404.82 -327.44)" fill="#650e0f"/>
                      </g>
                    </g>
                  </g>
                  <g id="组_91" data-name="组 91" transform="translate(40.388 0.209)">
                    <g id="组_88" data-name="组 88" transform="translate(0.834 0.84)">
                      <g id="组_87" data-name="组 87" transform="translate(0 0)">
                        <rect id="矩形_65" data-name="矩形 65" width="88.344" height="6.731" transform="translate(7.182 0.034) rotate(90.292)" fill="#650e0f"/>
                      </g>
                    </g>
                    <g id="组_90" data-name="组 90">
                      <g id="组_89" data-name="组 89">
                        <path id="路径_33" data-name="路径 33" d="M417.274,327.508l-.456,89.191-7.568-.038.456-89.191Zm-1.293,88.335.447-87.508-5.885-.029-.447,87.508Z" transform="translate(-409.25 -327.47)" fill="#650e0f"/>
                      </g>
                    </g>
                  </g>
                  <g id="组_96" data-name="组 96" transform="translate(0)">
                    <g id="组_93" data-name="组 93" transform="translate(0.008 0.004)">
                      <g id="组_92" data-name="组 92" transform="translate(0 0)">
                        <rect id="矩形_66" data-name="矩形 66" width="88.344" height="6.731" transform="translate(0 88.344) rotate(-89.708)" fill="#650e0f"/>
                      </g>
                    </g>
                    <g id="组_95" data-name="组 95">
                      <g id="组_94" data-name="组 94">
                        <path id="路径_34" data-name="路径 34" d="M374.794,327.288l-.456,89.19-7.568-.038.456-89.19ZM373.5,415.632l.447-87.508-5.885-.029-.447,87.508Z" transform="translate(-366.77 -327.25)" fill="#650e0f"/>
                      </g>
                    </g>
                  </g>
                </g>
                <g id="组_119" data-name="组 119" transform="translate(409.759 287.761)">
                  <g id="组_100" data-name="组 100" transform="translate(10.115 3.122)">
                    <g id="组_99" data-name="组 99" transform="translate(0 0)">
                      <g id="组_98" data-name="组 98" transform="translate(0)">
                        <rect id="矩形_67" data-name="矩形 67" width="94.239" height="51.322" transform="translate(0 94.239) rotate(-89.708)" fill="#ffeac0"/>
                      </g>
                    </g>
                  </g>
                  <g id="组_105" data-name="组 105" transform="translate(0 1.393)">
                    <g id="组_102" data-name="组 102" transform="translate(0.851 0.008)">
                      <g id="组_101" data-name="组 101" transform="translate(0 0)">
                        <rect id="矩形_68" data-name="矩形 68" width="98.441" height="8.414" transform="translate(0 98.441) rotate(-89.708)" fill="#650e0f"/>
                      </g>
                    </g>
                    <g id="组_104" data-name="组 104">
                      <g id="组_103" data-name="组 103">
                        <path id="路径_35" data-name="路径 35" d="M512.785,322.678l-.5,99.288-9.251-.048.5-99.288Zm-1.341,98.441.5-97.995-8.214,97.956Z" transform="translate(-503.03 -322.63)" fill="#650e0f"/>
                      </g>
                    </g>
                  </g>
                  <g id="组_108" data-name="组 108" transform="translate(60.591 1.699)">
                    <g id="组_107" data-name="组 107" transform="translate(0 0)">
                      <g id="组_106" data-name="组 106" transform="translate(0)">
                        <rect id="矩形_69" data-name="矩形 69" width="98.441" height="8.414" transform="translate(0 98.441) rotate(-89.708)" fill="#650e0f"/>
                      </g>
                    </g>
                  </g>
                  <g id="组_113" data-name="组 113" transform="translate(8.097 1)">
                    <g id="组_110" data-name="组 110" transform="translate(0.827 0.433)">
                      <g id="组_109" data-name="组 109">
                        <path id="路径_36" data-name="路径 36" d="M515.042,321.686l-.086,16.648-.01.941-.076,15.193-.01,1.455-.076,15.155-.009.989-.076,15.516-.01,1.093-.076,14.946-.01,1.559-.086,16.039a8.334,8.334,0,0,0,1.093.076,8.865,8.865,0,0,0,3.87-16.866,8.863,8.863,0,0,0-.456-16.277,8.861,8.861,0,0,0-.057-16.553,8.862,8.862,0,0,0,.646-16.372,8.859,8.859,0,0,0-.542-16.4,8.864,8.864,0,0,0-2.947-17.209A10.207,10.207,0,0,0,515.042,321.686Z" transform="translate(-514.52 -321.62)" fill="#df928e"/>
                      </g>
                    </g>
                    <g id="组_112" data-name="组 112">
                      <g id="组_111" data-name="组 111">
                        <path id="路径_37" data-name="路径 37" d="M522.967,324.659a9.393,9.393,0,0,1-3.28,14.157,9.27,9.27,0,0,1,.4,16.391,9.271,9.271,0,0,1-.523,16.363,9.342,9.342,0,0,1,5.1,8.329,9.234,9.234,0,0,1-5.068,8.224,9.229,9.229,0,0,1,4.982,8.281,9.348,9.348,0,0,1-4.649,8,9.333,9.333,0,0,1,2.748,13.577,8.165,8.165,0,0,1-4.069,2.966,8.564,8.564,0,0,1-4.583.656l-.371-.048.513-100.267.371-.048a9.111,9.111,0,0,1,3.033.133A8.332,8.332,0,0,1,522.967,324.659ZM517.4,338.8l3.432-1.236a1.2,1.2,0,0,0,.485-.333c6.085-7.045,1.169-15.184-5.648-15.222-.209,0-.428.01-.666.029l-.5,98.765c1.807.171,2.624-.285,5.315-1.16a1.223,1.223,0,0,0,.418-.238c5.648-4.972,3.708-12.208-1.388-14.642l-.8-.38.808-.38c5.125-2.386,7.131-9.612,1.512-14.651a1.084,1.084,0,0,0-.361-.219l-2.577-1.027,2.7-1.046a1.219,1.219,0,0,0,.38-.238c5.771-5.324,3.328-12.8-2.139-14.87l-1.055-.4,2.881-1.055a1.306,1.306,0,0,0,.4-.238c5.543-5.125,3.546-12.312-1.6-14.68l-.837-.39.846-.38a8.437,8.437,0,0,0-.513-15.621Z" transform="translate(-513.65 -321.165)" fill="#df928e"/>
                      </g>
                    </g>
                  </g>
                  <g id="组_192" data-name="组 192" transform="translate(49.097 1)">
                    <g id="组_110-2" data-name="组 110" transform="translate(0.827 0.433)">
                      <g id="组_109-2" data-name="组 109">
                        <path id="路径_36-2" data-name="路径 36" d="M515.042,321.686l-.086,16.648-.01.941-.076,15.193-.01,1.455-.076,15.155-.009.989-.076,15.516-.01,1.093-.076,14.946-.01,1.559-.086,16.039a8.334,8.334,0,0,0,1.093.076,8.865,8.865,0,0,0,3.87-16.866,8.863,8.863,0,0,0-.456-16.277,8.861,8.861,0,0,0-.057-16.553,8.862,8.862,0,0,0,.646-16.372,8.859,8.859,0,0,0-.542-16.4,8.864,8.864,0,0,0-2.947-17.209A10.207,10.207,0,0,0,515.042,321.686Z" transform="translate(-514.52 -321.62)" fill="#df928e"/>
                      </g>
                    </g>
                    <g id="组_112-2" data-name="组 112">
                      <g id="组_111-2" data-name="组 111">
                        <path id="路径_37-2" data-name="路径 37" d="M522.967,324.659a9.393,9.393,0,0,1-3.28,14.157,9.27,9.27,0,0,1,.4,16.391,9.271,9.271,0,0,1-.523,16.363,9.342,9.342,0,0,1,5.1,8.329,9.234,9.234,0,0,1-5.068,8.224,9.229,9.229,0,0,1,4.982,8.281,9.348,9.348,0,0,1-4.649,8,9.333,9.333,0,0,1,2.748,13.577,8.165,8.165,0,0,1-4.069,2.966,8.564,8.564,0,0,1-4.583.656l-.371-.048.513-100.267.371-.048a9.111,9.111,0,0,1,3.033.133A8.332,8.332,0,0,1,522.967,324.659ZM517.4,338.8l3.432-1.236a1.2,1.2,0,0,0,.485-.333c6.085-7.045,1.169-15.184-5.648-15.222-.209,0-.428.01-.666.029l-.5,98.765c1.807.171,2.624-.285,5.315-1.16a1.223,1.223,0,0,0,.418-.238c5.648-4.972,3.708-12.208-1.388-14.642l-.8-.38.808-.38c5.125-2.386,7.131-9.612,1.512-14.651a1.084,1.084,0,0,0-.361-.219l-2.577-1.027,2.7-1.046a1.219,1.219,0,0,0,.38-.238c5.771-5.324,3.328-12.8-2.139-14.87l-1.055-.4,2.881-1.055a1.306,1.306,0,0,0,.4-.238c5.543-5.125,3.546-12.312-1.6-14.68l-.837-.39.846-.38a8.437,8.437,0,0,0-.513-15.621Z" transform="translate(-513.65 -321.165)" fill="#df928e"/>
                      </g>
                    </g>
                  </g>
                </g>
                <g id="组_121" data-name="组 121" transform="translate(427.31)">
                  <g id="组_120" data-name="组 120">
                    <path id="路径_40" data-name="路径 40" d="M521.49,18.5" transform="translate(-521.49 -18.5)" fill="#df928e" stroke="#df928e" stroke-miterlimit="10" stroke-width="1"/>
                  </g>
                </g>
              </g>
            </g>
            <g id="组_133" data-name="组 133" transform="translate(297.104 301.238)">
              <g id="组_126" data-name="组 126" transform="translate(0 61.419)">
                <g id="组_125" data-name="组 125">
                  <g id="组_124" data-name="组 124">
                    <circle id="椭圆_3" data-name="椭圆 3" cx="6.731" cy="6.731" r="6.731" fill="#650e0f"/>
                  </g>
                </g>
              </g>
              <g id="组_129" data-name="组 129" transform="translate(0.152 30.291)">
                <g id="组_128" data-name="组 128">
                  <g id="组_127" data-name="组 127">
                    <circle id="椭圆_4" data-name="椭圆 4" cx="6.731" cy="6.731" r="6.731" fill="#650e0f"/>
                  </g>
                </g>
              </g>
              <g id="组_132" data-name="组 132" transform="translate(0.314)">
                <g id="组_131" data-name="组 131">
                  <g id="组_130" data-name="组 130">
                    <circle id="椭圆_5" data-name="椭圆 5" cx="6.731" cy="6.731" r="6.731" fill="#650e0f"/>
                  </g>
                </g>
              </g>
            </g>
            <g id="组_137" data-name="组 137" transform="translate(0.106 299.954)">
              <g id="组_136" data-name="组 136">
                <g id="组_135" data-name="组 135">
                  <g id="组_134" data-name="组 134">
                    <path id="路径_41" data-name="路径 41" d="M352.5,369.206c-233.468-77.449-277.336-3.927-280.188,2.386H72.16c0-.913.029-.865.076-.761-.048.1-.076.152-.076-.076h.162c2.8,5.648,45.931,79.312,280.159,4.25Z" transform="translate(-72.16 -333.99)" fill="#fae2e0"/>
                  </g>
                </g>
              </g>
            </g>
            <g id="组_148" data-name="组 148" transform="translate(0.24 336.682)">
              <g id="组_142" data-name="组 142">
                <g id="组_139" data-name="组 139">
                  <g id="组_138" data-name="组 138">
                    <path id="路径_42" data-name="路径 42" d="M72.3,373.371s.01.143.038.428c-.01-.4-.029-.78-.038-1.179Z" transform="translate(-72.3 -372.62)" fill="#b6d98d"/>
                  </g>
                </g>
                <g id="组_141" data-name="组 141" transform="translate(0.01 0.019)">
                  <g id="组_140" data-name="组 140">
                    <path id="路径_43" data-name="路径 43" d="M73.185,373.819l-.837.048c-.029-.285-.038-.437-.038-.437v-.78l.846-.01c0,.219.01.428.019.647Z" transform="translate(-72.31 -372.64)" fill="#b6d98d"/>
                  </g>
                </g>
              </g>
              <g id="组_147" data-name="组 147" transform="translate(0.152 0.285)">
                <g id="组_144" data-name="组 144" transform="translate(0 0.028)">
                  <g id="组_143" data-name="组 143">
                    <path id="路径_44" data-name="路径 44" d="M72.46,372.95C77.043,568.121,351.469,411.2,351.469,411.2l.057-10.4C91.047,516.476,73.316,381.545,72.46,372.95Z" transform="translate(-72.46 -372.95)" fill="#fae2e0"/>
                  </g>
                </g>
                <g id="组_146" data-name="组 146" transform="translate(0.01)">
                  <g id="组_145" data-name="组 145">
                    <path id="路径_45" data-name="路径 45" d="M352.373,400.15l-.057,11.295-.209.124a611.683,611.683,0,0,1-89.885,40.36C233.3,462.054,206.983,468.281,184,470.43c-28.77,2.691-52.377-1.036-70.166-11.076-26.46-14.936-40.379-44-41.367-86.386l.837-.047c.39,3.889,4.811,38.62,39.979,59.08,21.078,12.255,49.069,17.047,83.182,14.223,42.527-3.518,94.781-18.92,155.306-45.807Zm-.9,10.81.048-9.508c-60.354,26.754-112.5,42.1-154.983,45.608-34.294,2.833-62.446-1.987-83.676-14.337A82.306,82.306,0,0,1,73.563,379.48c2.206,38.534,15.878,65.146,40.683,79.151,17.637,9.954,41.073,13.643,69.671,10.972,22.913-2.139,49.164-8.348,78.019-18.454A613.484,613.484,0,0,0,351.47,410.96Z" transform="translate(-72.47 -372.92)" fill="#fae2e0"/>
                  </g>
                </g>
              </g>
            </g>
            <g id="组_151" data-name="组 151" transform="translate(279.943 311.259)">
              <g id="组_150" data-name="组 150">
                <g id="组_149" data-name="组 149">
                  <path id="路径_46" data-name="路径 46" d="M366.49,345.88" transform="translate(-366.49 -345.88)" fill="none" stroke="#e63825" stroke-miterlimit="10" stroke-width="1"/>
                </g>
              </g>
            </g>
            <g id="组_154" data-name="组 154" transform="translate(31.805 262.475)">
              <g id="组_153" data-name="组 153">
                <g id="组_152" data-name="组 152">
                  <path id="路径_47" data-name="路径 47" d="M105.5,294.57" transform="translate(-105.5 -294.57)" fill="none" stroke="#e63825" stroke-miterlimit="10" stroke-width="1"/>
                </g>
              </g>
            </g>
            <g id="组_157" data-name="组 157" transform="translate(31.805 262.475)">
              <g id="组_156" data-name="组 156">
                <g id="组_155" data-name="组 155">
                  <path id="路径_48" data-name="路径 48" d="M105.5,294.57" transform="translate(-105.5 -294.57)" fill="none" stroke="#e63825" stroke-miterlimit="10" stroke-width="1"/>
                </g>
              </g>
            </g>
            <g id="组_162" data-name="组 162" transform="translate(0.401 238.215)">
              <g id="组_159" data-name="组 159" transform="translate(0 0.419)">
                <g id="组_158" data-name="组 158">
                  <path id="路径_49" data-name="路径 49" d="M72.47,366.448c6.57-195.114,279.389-35.406,279.389-35.406l-.057,10.4C92.512,223.122,73.411,357.872,72.47,366.448Z" transform="translate(-72.47 -269.493)" fill="#fae2e0"/>
                </g>
              </g>
              <g id="组_161" data-name="组 161" transform="translate(0.01)">
                <g id="组_160" data-name="组 160">
                  <path id="路径_50" data-name="路径 50" d="M352.7,330.783l-.057,11.3-.589-.266c-60.25-27.5-112.342-43.44-154.831-47.386-34.085-3.166-62.122,1.331-83.324,13.377-35.378,20.089-40.15,54.773-40.578,58.662l-.837-.057c1.426-42.375,15.64-71.3,42.252-85.958,17.884-9.859,41.529-13.349,70.27-10.363,22.961,2.386,49.211,8.88,78.029,19.3A612.81,612.81,0,0,1,352.5,330.659Zm-.894,9.992.047-9.508a612.436,612.436,0,0,0-89.133-41.092c-28.751-10.4-54.935-16.876-77.829-19.253-28.57-2.966-52.044.485-69.776,10.259C90.164,294.93,76.226,321.4,73.63,359.914a82.306,82.306,0,0,1,39.837-52.843c21.354-12.132,49.563-16.667,83.819-13.482C239.737,297.535,291.725,313.412,351.8,340.775Z" transform="translate(-72.48 -269.053)" fill="#fae2e0"/>
                </g>
              </g>
            </g>
            <g id="组_164" data-name="组 164" transform="translate(219.621 211.496)">
              <g id="组_163" data-name="组 163" transform="translate(0 0)">
                <rect id="矩形_70" data-name="矩形 70" width="0.846" height="204.004" transform="matrix(0.374, -0.928, 0.928, 0.374, 0, 0.785)" fill="#650e0f"/>
              </g>
            </g>
            <g id="组_188" data-name="组 188" transform="translate(380.692 698.783)">
              <g id="组_11-2" data-name="组 11" transform="translate(-214 -108)">
                <path id="路径_11-2" data-name="路径 11" d="M480.94,387.682l.484-230.662s-23.037,6.448-15.187,44.277c0,0-20.4.267-16.38,42.247,0,0-20.349,12.564-12.479,54.5,0,0,4.827,21.981,10.143,20.884,0,0,.75,36.381,18.5,38.714C466.024,357.639,465.875,381.733,480.94,387.682Z" transform="translate(-435.569 -157.02)" fill="#fff"/>
              </g>
            </g>
            <g id="组_189" data-name="组 189" transform="translate(260.692 869.783)">
              <g id="组_11-3" data-name="组 11" transform="translate(-214 -108)">
                <path id="路径_11-3" data-name="路径 11" d="M480.94,387.682l.484-230.662s-23.037,6.448-15.187,44.277c0,0-20.4.267-16.38,42.247,0,0-20.349,12.564-12.479,54.5,0,0,4.827,21.981,10.143,20.884,0,0,.75,36.381,18.5,38.714C466.024,357.639,465.875,381.733,480.94,387.682Z" transform="translate(-435.569 -157.02)" fill="#fff"/>
              </g>
            </g>
          </g>
        </g>
      </g>
    </g>
  </g>
</svg>
