<?xml version="1.0" standalone="no"?><!DOCTYPE svg PUBLIC "-//W3C//DTD SVG 1.1//EN" "http://www.w3.org/Graphics/SVG/1.1/DTD/svg11.dtd"><svg t="1583159952202" class="icon" viewBox="0 0 1024 1024" version="1.1" xmlns="http://www.w3.org/2000/svg" p-id="3551" xmlns:xlink="http://www.w3.org/1999/xlink" width="200" height="200"><defs><style type="text/css"></style></defs><path d="M512 512m-512 0a512 512 0 1 0 1024 0 512 512 0 1 0-1024 0Z" fill="#FFCE2E" p-id="3552"></path><path d="M344.855273 580.328727a18.618182 18.618182 0 0 0-13.963637 6.562909 19.781818 19.781818 0 0 0 1.582546 27.415273 266.565818 266.565818 0 0 0 359.563636 0.418909 19.735273 19.735273 0 0 0 1.675637-27.415273 18.618182 18.618182 0 0 0-26.251637-2.094545l-0.465454 0.418909a229.376 229.376 0 0 1-309.387637-0.418909 18.618182 18.618182 0 0 0-12.753454-4.887273z m12.613818-159.697454a18.990545 18.990545 0 0 1-18.944-19.037091V363.52a18.944 18.944 0 1 1 37.888 0v38.074182a18.990545 18.990545 0 0 1-18.944 19.037091z m309.387636 0a18.990545 18.990545 0 0 1-18.944-19.037091V363.52a18.944 18.944 0 1 1 37.888 0v38.074182a18.990545 18.990545 0 0 1-18.944 19.037091z" fill="" p-id="3553"></path></svg>