<svg xmlns="http://www.w3.org/2000/svg" viewBox="0 0 238.88 248.37"><defs><style>.cls-1{fill:#00825c;}.cls-2{fill:#fff;}.cls-3{fill:#005f2d;}.cls-4{fill:#007e88;}.cls-5{fill:#006a6b;}.cls-6{fill:#00945c;}.cls-7{fill:#cdcdcd;}.cls-8{fill:gray;}</style></defs><g id="Layer_4" data-name="Layer 4"><path class="cls-1" d="M197.9,91.41,208.33,47.6A2.11,2.11,0,0,1,211,46l23,7.49c.8.26-1.13,8.58-1.32,9.47l-6.57,29.52c-.24,1.3-4.33,7.93-5.51,7.59L203.5,95.67C202.36,95.35,197.6,92.65,197.9,91.41Z"/><ellipse class="cls-2" cx="219.52" cy="64.79" rx="8.9" ry="9.71"/><path class="cls-3" d="M221,67.41a3.64,3.64,0,0,0,.84-1.68c.22-1-.16-1.75-.88-1.93s-1.13.16-1.72,1.11c-.68,1.17-1.45,1.8-2.45,1.55s-1.73-1.48-1.42-3a3.79,3.79,0,0,1,.71-1.63l.7.46a3.31,3.31,0,0,0-.65,1.39c-.22,1.06.28,1.61.76,1.73.67.17,1.1-.22,1.7-1.2.74-1.2,1.46-1.73,2.51-1.46s1.87,1.39,1.49,3.23a4.29,4.29,0,0,1-.87,1.87Z"/><polygon class="cls-3" points="222.77 67.15 213.93 63.55 214.19 62.82 223.02 66.41 222.77 67.15"/><path class="cls-4" d="M85,108.92,65.76,131.53S41.19,107.36,37.83,94.74l39.83,7.91Z"/><path class="cls-4" d="M78.23,97.32l-40.56-6S24.39,69.6,36,42.8c0,0,3.11-10.49,6-13.42Z"/><path class="cls-4" d="M44.27,27.81s18,.24,27.28,10.32L66.08,66Z"/><path class="cls-4" d="M86.31,101.91l18.75-22S93.58,53,74.33,39.44L67.71,72.19Z"/><path class="cls-5" d="M73.34,163.79,62.76,194.56S32.87,181.41,25.9,170.41l38.79-9.6Z"/><path class="cls-5" d="M64.14,159,24.2,168.19S3.89,152.82,4.92,123.62c0,0-.93-10.9.73-14.7Z"/><path class="cls-5" d="M6.91,107.29s18.29-6.71,31.65-.21L44.27,137Z"/><path class="cls-5" d="M76.42,165l9.89-28.75S65.41,114.56,42,108.92l5.69,34.45Z"/><path class="cls-1" d="M147.5,70.37l18.71-41.86,23.56,11.56c.75.37-2.42,7.58-2.74,8.35L174.12,82.26Z"/><circle class="cls-2" cx="173.28" cy="48.42" r="8.9"/><rect class="cls-3" x="168.05" y="48.1" width="9.43" height="0.72" transform="translate(38.47 -70.54) rotate(25.88)"/><path class="cls-3" d="M174.36,51.12a3.36,3.36,0,0,0,1.08-1.38,1.31,1.31,0,0,0-.57-1.89c-.63-.26-1.14-.05-1.87.72-.84.94-1.7,1.39-2.65,1a2.11,2.11,0,0,1-.94-2.94,3.36,3.36,0,0,1,1-1.36l.61.53a3,3,0,0,0-.85,1.15,1.2,1.2,0,0,0,.49,1.7c.64.26,1.12,0,1.86-.81.91-1,1.7-1.32,2.7-.91s1.63,1.57,1,3.17A3.86,3.86,0,0,1,175,51.65Z"/><path class="cls-6" d="M168.69,83.17l17.44-28.94c.47-.8,4.82-7.82,5.67-7.48l24.25,9.8L194.38,97Z"/><path class="cls-7" d="M183.13,215.47h42.21s1.69-6.61-7.29-7.63v-92s15.25-2.71,5.42-9.66h-38.3s-3.56,8.3,5.76,8.47l.34,93.73S182.62,208.18,183.13,215.47Z"/><path class="cls-7" d="M139.43,215.47h42.2s1.69-6.61-7.29-7.63v-92s15.26-2.71,5.42-9.66h-38.3s-3.56,8.3,5.76,8.47l.34,93.73S138.92,208.18,139.43,215.47Z"/><path class="cls-7" d="M95.77,215.47H138s1.69-6.61-7.29-7.63v-92s15.25-2.71,5.42-9.66H97.8s-3.56,8.3,5.76,8.47l.34,93.73S95.26,208.18,95.77,215.47Z"/><path class="cls-7" d="M52.1,215.47H94.31S96,208.86,87,207.84v-92s15.25-2.71,5.42-9.66H54.14s-3.56,8.3,5.76,8.47l.34,93.73S51.6,208.18,52.1,215.47Z"/><rect class="cls-8" x="40.76" y="213.78" width="190.51" height="6.78" rx="1.93"/><rect class="cls-8" x="44.3" y="71.31" width="102.66" height="4.69" rx="1.93" transform="translate(214.72 93.35) rotate(151.79)"/><polygon class="cls-8" points="139.43 101.91 52.08 101.91 95.75 78.18 139.43 54.46 183.1 78.18 226.77 101.91 139.43 101.91"/><circle class="cls-2" cx="139.43" cy="78.18" r="8.9"/><rect class="cls-8" x="131.42" y="71.42" width="103.14" height="4.69" rx="1.93" transform="translate(56.6 -77.73) rotate(28.21)"/><circle class="cls-2" cx="199.2" cy="65.17" r="8.9"/><rect class="cls-3" x="193.96" y="64.81" width="9.43" height="0.72" transform="translate(59.2 -90.61) rotate(30)"/><path class="cls-3" d="M200.4,68.06a3.35,3.35,0,0,0,1.18-1.3,1.32,1.32,0,0,0-.43-1.93c-.61-.3-1.14-.13-1.92.59-.91.88-1.79,1.26-2.71.8a2.11,2.11,0,0,1-.73-3,3.32,3.32,0,0,1,1.05-1.29l.57.58a2.87,2.87,0,0,0-.93,1.09,1.18,1.18,0,0,0,.36,1.72c.62.3,1.12.06,1.91-.67,1-.9,1.8-1.19,2.76-.71s1.51,1.68.74,3.23A3.7,3.7,0,0,1,201,68.63Z"/></g></svg>