<svg xmlns="http://www.w3.org/2000/svg" viewBox="0 0 210 210"><defs><style>.cls-1{fill:#00825c;}.cls-2{fill:#fff;}.cls-3{fill:#005f2d;}.cls-4{fill:#007e88;}.cls-5{fill:#006a6b;}.cls-6{fill:#00945c;}.cls-7{fill:#cdcdcd;}.cls-8{fill:gray;}</style></defs><g id="Layer_4" data-name="Layer 4"><path class="cls-1" d="M172.8,71l9.1-45.45c.26-1.32,1.31-2.09,2.32-1.7l20.06,7.78c.7.27-1,8.9-1.14,9.82l-5.73,30.63c-.21,1.36-3.77,8.23-4.8,7.88l-14.93-4.53C176.69,75.08,172.55,72.28,172.8,71Z"/><ellipse class="cls-2" cx="191.64" cy="43.38" rx="7.76" ry="10.07"/><path class="cls-3" d="M192.88,46a4.17,4.17,0,0,0,.73-1.74c.19-1.07-.13-1.82-.76-2s-1,.16-1.5,1.15c-.59,1.21-1.26,1.87-2.14,1.61s-1.5-1.54-1.23-3.11a4.36,4.36,0,0,1,.62-1.69l.61.48a3.63,3.63,0,0,0-.57,1.44c-.19,1.1.24,1.67.67,1.8s.95-.24,1.48-1.25c.64-1.24,1.27-1.79,2.18-1.52s1.63,1.45,1.29,3.36a4.91,4.91,0,0,1-.75,1.94Z"/><polygon class="cls-3" points="194.47 45.82 186.78 42.09 187 41.33 194.69 45.06 194.47 45.82"/><path class="cls-4" d="M74.46,89.16,57.68,112.63S36.28,87.54,33.35,74.44l34.7,8.21Z"/><path class="cls-4" d="M68.54,77.13,33.21,70.91S21.64,48.36,31.77,20.55c0,0,2.71-10.88,5.28-13.92Z"/><path class="cls-4" d="M39,5s15.73.25,23.76,10.71L58,44.61Z"/><path class="cls-4" d="M75.58,81.89,91.92,59.05s-10-27.94-26.77-42l-5.77,34Z"/><path class="cls-5" d="M64.29,146.09,55.07,178S29,164.38,23,153l33.8-10Z"/><path class="cls-5" d="M56.27,141.07l-34.8,9.6s-17.69-16-16.79-46.25c0,0-.82-11.31.64-15.26Z"/><path class="cls-5" d="M6.41,87.47s15.94-7,27.57-.21l5,31Z"/><path class="cls-5" d="M67,147.36l8.61-29.83S57.38,95,37,89.16l5,35.74Z"/><path class="cls-1" d="M128.9,49.16,145.2,5.73l20.52,12c.65.39-2.11,7.86-2.38,8.66L152.09,61.5Z"/><ellipse class="cls-2" cx="151.36" cy="26.38" rx="7.76" ry="9.24"/><polygon class="cls-3" points="154.46 28.89 147.07 24.62 147.34 23.95 154.74 28.22 154.46 28.89"/><path class="cls-3" d="M152.25,29.16a3.37,3.37,0,0,0,.94-1.43c.32-.93.1-1.67-.5-2s-1,0-1.62.75c-.74,1-1.48,1.44-2.31,1s-1.29-1.69-.82-3.06a3.59,3.59,0,0,1,.82-1.41l.54.56a3,3,0,0,0-.74,1.19c-.33,1,0,1.56.42,1.76.56.27,1,0,1.62-.84.8-1,1.49-1.37,2.35-.94s1.42,1.63.85,3.29a3.9,3.9,0,0,1-1,1.6Z"/><path class="cls-6" d="M147.36,62.45l15.19-30c.41-.82,4.2-8.11,4.94-7.75l21.13,10.16L169.74,76.74Z"/><path class="cls-7" d="M159.94,199.72h36.77s1.47-6.85-6.35-7.91V96.31s13.29-2.81,4.72-10H161.71s-3.1,8.62,5,8.79l.3,97.26S159.5,192.16,159.94,199.72Z"/><path class="cls-7" d="M121.86,199.72h36.77s1.48-6.85-6.35-7.91V96.31s13.29-2.81,4.73-10H123.63s-3.1,8.62,5,8.79l.3,97.26S121.42,192.16,121.86,199.72Z"/><path class="cls-7" d="M83.82,199.72h36.77s1.48-6.85-6.35-7.91V96.31s13.29-2.81,4.73-10H85.59s-3.1,8.62,5,8.79l.29,97.26S83.38,192.16,83.82,199.72Z"/><path class="cls-7" d="M45.78,199.72H82.55s1.48-6.85-6.35-7.91V96.31s13.29-2.81,4.73-10H47.56s-3.1,8.62,5,8.79l.29,97.26S45.34,192.16,45.78,199.72Z"/><rect class="cls-8" x="35.9" y="197.97" width="165.97" height="7.03" rx="1.93"/><path class="cls-8" d="M44.82,74.65l75.85-48.46A1.56,1.56,0,0,1,123,27l.34.76a2.2,2.2,0,0,1-.69,2.71L46.75,78.94a1.56,1.56,0,0,1-2.28-.82l-.34-.76A2.2,2.2,0,0,1,44.82,74.65Z"/><polygon class="cls-8" points="121.86 81.89 45.77 81.89 83.81 57.27 121.86 32.65 159.91 57.27 197.96 81.89 121.86 81.89"/><ellipse class="cls-2" cx="121.86" cy="57.27" rx="7.76" ry="9.24"/><path class="cls-8" d="M198.89,74.88,122.67,26.19a1.56,1.56,0,0,0-2.28.82l-.34.76a2.2,2.2,0,0,0,.69,2.71L197,79.17a1.55,1.55,0,0,0,2.28-.82l.34-.75A2.22,2.22,0,0,0,198.89,74.88Z"/><ellipse class="cls-2" cx="173.94" cy="43.76" rx="7.76" ry="9.24"/><polygon class="cls-3" points="176.88 46.53 169.77 41.64 170.08 40.99 177.2 45.89 176.88 46.53"/><path class="cls-3" d="M174.93,46.76a3.22,3.22,0,0,0,1-1.35,1.51,1.51,0,0,0-.37-2c-.54-.31-1-.13-1.67.61-.8.91-1.57,1.31-2.37.83a2.41,2.41,0,0,1-.63-3.11,3.38,3.38,0,0,1,.91-1.34l.5.6a2.75,2.75,0,0,0-.81,1.13c-.39.93-.08,1.56.31,1.79s1,.06,1.67-.7c.85-.93,1.56-1.24,2.4-.74s1.32,1.75.65,3.36a3.9,3.9,0,0,1-1.09,1.51Z"/></g></svg>