<svg xmlns="http://www.w3.org/2000/svg" width="144.188" height="99.906" viewBox="0 0 144.188 99.906">
  <g id="Group_230" data-name="Group 230" transform="translate(-382.852 -542.247)">
    <path id="Path_583" data-name="Path 583" d="M383.335,564.482s6.56,45.6,66.02,38.892,77.5-29.952,77.5-29.952.409,16.541-10.251,25.034-44.287,18.328-44.287,18.328l-48.387-2.235s-25.834-5.365-34.445-21.9S383.335,564.482,383.335,564.482Z" transform="translate(0.18 25.368)" fill="#bb6260"/>
    <path id="Path_584" data-name="Path 584" d="M441.715,542.247s-44.178,5.975-55.835,32.861S399.99,619.52,399.99,619.52s12.041,15.626,41.724,11.865,67.026-10.071,76.769-20.926,12.959-16.83,0-35.948-46.706-29.872-53.455-29.872S441.715,542.247,441.715,542.247Z" transform="translate(0 0)" fill="#efd3c9"/>
    <path id="Path_585" data-name="Path 585" d="M412.01,567.787l40.059,16.32a2.034,2.034,0,0,1-.276,3.862c-6.568,1.589-17.155,3.837-24.494,3.837-11.351,0-34.653-1.792-32.264-4.779,1.845-2.306,9.384-13.154,12.73-17.984A3.531,3.531,0,0,1,412.01,567.787Z" transform="translate(13.705 28.838)" fill="#e89c98"/>
    <path id="Path_586" data-name="Path 586" d="M410.6,571.113h12.681s2.192-13.541,11.552-16.331,38.436,0,38.436,0,14.738,11.552,14.34,19.12-3.586,17.127-14.34,17.526-34.653-3.387-40.228-5.776c-4.057-1.738-16.541-8.639-23.047-12.272A1.212,1.212,0,0,1,410.6,571.113Z" transform="translate(30.265 12.888)" fill="#e89c98"/>
    <path id="Path_587" data-name="Path 587" d="M405.59,561.3s-1.792,5.575,3.188,4.978,14.935.443,16.53-2.466,3.982-8.288,2.19-9.283-6.174-2.987-8.962-1S405.59,561.3,405.59,561.3Z" transform="translate(25.584 11.904)" fill="#e89c98"/>
    <path id="Path_588" data-name="Path 588" d="M399.924,551.937s-12.944,6.172-8.365,11.351,8.962,7.767,17.127,6.175S419.642,559.3,419.642,559.3s-2.79-6.571-8.365-7.367A46.824,46.824,0,0,0,399.924,551.937Z" transform="translate(8.816 10.651)" fill="#fefbff"/>
    <path id="Path_589" data-name="Path 589" d="M396.082,554.9s14.01-3.385,14.971.8-4.218,7.568-5.412,7.568-11.948.4-12.944-1.792S396.082,554.9,396.082,554.9Z" transform="translate(11.065 12.958)" fill="#e89d95"/>
    <path id="Path_590" data-name="Path 590" d="M396.217,555.466s7.9-1.91,8.444.45-2.379,4.267-3.053,4.267-6.74.225-7.3-1.011S396.217,555.466,396.217,555.466Z" transform="translate(12.975 14.249)" fill="#a95965"/>
  </g>
</svg>
