<svg xmlns="http://www.w3.org/2000/svg" viewBox="0 0 1056.07 797.89"><defs><style>.cls-1{fill:#5a98a0;}.cls-2{fill:#e6e6e6;}.cls-3,.cls-4{fill:#aa9772;}.cls-3{stroke:#a38869;stroke-width:4px;}.cls-5{fill:#f15a24;}.cls-6{fill:#ccc;}.cls-12,.cls-18,.cls-20,.cls-24,.cls-29,.cls-46,.cls-47,.cls-49,.cls-50,.cls-7{fill:none;}.cls-24,.cls-7{stroke:#000;}.cls-12,.cls-18,.cls-20,.cls-24,.cls-27,.cls-29,.cls-46,.cls-47,.cls-49,.cls-50,.cls-7{stroke-miterlimit:10;}.cls-49,.cls-7{stroke-width:2px;}.cls-8{fill:#175158;}.cls-9{fill:#534741;}.cls-10{fill:#965e2e;}.cls-11{fill:#f9e4c1;}.cls-12{stroke:#447394;}.cls-13{fill:#49a365;}.cls-14{fill:#5a3737;}.cls-15{fill:#9f6c59;}.cls-16{fill:#5c6f88;}.cls-17{fill:#f2e7dd;}.cls-18{stroke:gray;}.cls-19{fill:#acca90;}.cls-20{stroke:#acca90;}.cls-21{fill:#f59b8c;}.cls-22{fill:#f3c7cf;}.cls-23{fill:#101d35;}.cls-25{fill:#a67c52;}.cls-26,.cls-27{fill:#f26a4b;}.cls-27{stroke:#f26a4b;}.cls-28{fill:#c7b299;}.cls-29{stroke:#c7b299;}.cls-30{fill:gray;}.cls-31{fill:#999;}.cls-32{fill:#242433;}.cls-33{fill:#507d5e;}.cls-34{fill:#92856c;}.cls-35{fill:#674f4b;}.cls-36{fill:#7e7560;}.cls-37{fill:#74b7b3;}.cls-38{fill:#8ac1bb;}.cls-39{fill:#6daaa5;}.cls-40{fill:#5c928d;}.cls-41{fill:#d9c7a2;}.cls-42{fill:#c9b897;}.cls-43{fill:#0f1d33;}.cls-44{fill:#402a0c;}.cls-45{fill:#141a2b;}.cls-46,.cls-47{stroke:#ccc;}.cls-47,.cls-50{stroke-width:0.25px;}.cls-48{fill:#ffb544;}.cls-49{stroke:#666;}.cls-50{stroke:#1b1464;}.cls-51{fill:#f2f2f2;}.cls-52{fill:#b3b3b3;}.cls-53{isolation:isolate;}.cls-54{fill:#4d4d4d;}.cls-55{fill:#73931b;}.cls-56{fill:#8dc3b6;}.cls-57{fill:#f8e1e1;}.cls-58{fill:#557964;}.cls-59{fill:#88779f;}.cls-60{fill:#9f8090;}.cls-61{fill:#b7a0c6;}.cls-62{fill:#d6ba5d;}.cls-63{fill:#d3a899;}.cls-64{fill:#886153;}.cls-65{fill:#418a90;}</style></defs><g id="BASIC"><path id="Path_377" data-name="Path 377" class="cls-1" d="M721,783,663.7,757.9l29.36-31.51,57.56,18Z"/><path id="Path_378" data-name="Path 378" class="cls-2" d="M720.38,775.88l26.52-34.45,3.12,1.93-29.23,37.82Z"/><g id="EBØKER_COMPONENT" data-name="EBØKER COMPONENT"><path id="Path_272" data-name="Path 272" class="cls-3" d="M2.11,503.4h1049"/><rect id="Rectangle_167" data-name="Rectangle 167" class="cls-4" x="8.45" y="216.85" width="1047.63" height="16.9"/><rect id="Rectangle_168" data-name="Rectangle 168" class="cls-4" x="2.82" y="402.72" width="1047.63" height="16.9"/><rect id="Rectangle_164" data-name="Rectangle 164" class="cls-4" y="1.41" width="25.35" height="504.1"/><rect id="Rectangle_159" data-name="Rectangle 159" class="cls-4" x="159.12" y="4.22" width="26.75" height="502.69"/><rect id="Rectangle_163" data-name="Rectangle 163" class="cls-4" x="901.18" y="1.41" width="26.75" height="505.51"/><rect id="Rectangle_165" data-name="Rectangle 165" class="cls-4" x="1029.32" y="5.63" width="26.75" height="501.28"/><rect id="Rectangle_162" data-name="Rectangle 162" class="cls-4" x="702.64" y="7.04" width="28.16" height="499.87"/><rect id="Rectangle_161" data-name="Rectangle 161" class="cls-4" x="525.22" y="4.22" width="25.35" height="437.92"/><rect id="Rectangle_160" data-name="Rectangle 160" class="cls-4" x="328.09" y="4.22" width="25.35" height="432.29"/><path id="Path_83" data-name="Path 83" class="cls-1" d="M474.33,235.39l-2.61-100.32,44.12,18.82,6.9,81Z"/><path id="Path_84" data-name="Path 84" class="cls-2" d="M478.27,224l45.81,13.69-.58,4.91H475.71Z"/><path id="Path_85" data-name="Path 85" class="cls-2" d="M475.71,233.55l-2.47-97.25,3.94-.1,1.1,78.74Z"/><path id="Path_86" data-name="Path 86" class="cls-1" d="M478.64,231l-1.58-96.71,45.73,15.29L524.11,230Z"/><path id="Path_88" data-name="Path 88" class="cls-1" d="M232.8,401.15,234.91,314l-35.64,16.36-5.56,70.32Z"/><path id="Path_89" data-name="Path 89" class="cls-2" d="M502.56,187.93l-30.35,7.61.38,2.75h31.66Z"/><path id="Path_90" data-name="Path 90" class="cls-2" d="M230.28,408l2-84.48-3.18-.08-.88,68.4Z"/><path id="Path_91" data-name="Path 91" class="cls-1" d="M225.09,402l1.29-84-36.94,13.28L188.37,401Z"/><rect id="Rectangle_100" data-name="Rectangle 100" class="cls-5" x="761.25" y="158.68" width="27.06" height="58.64"/><path id="Path_229" data-name="Path 229" class="cls-6" d="M790,150.67l26.58-4.41,13.9,64.34L803.87,215Z"/><path id="Path_230" data-name="Path 230" class="cls-5" d="M789.79,150.21l4.31-.71,14.25,66-4.31.71Z"/><path id="Path_231" data-name="Path 231" class="cls-5" d="M812.07,145.81l4.31-.72,14.25,66-4.3.72Z"/><rect id="Rectangle_104" data-name="Rectangle 104" class="cls-5" x="830.3" y="157.27" width="27.06" height="58.64"/><line id="Line_115" data-name="Line 115" class="cls-7" x1="830.43" y1="165.65" x2="847.9" y2="165.65"/><line id="Line_116" data-name="Line 116" class="cls-7" x1="830.43" y1="169.85" x2="850.85" y2="169.85"/><path id="Path_103" data-name="Path 103" class="cls-1" d="M862.07,216.12,860.46,173,887.7,181,892,215.9Z"/><path id="Path_104" data-name="Path 104" class="cls-2" d="M863.82,206.8,893,213.18l-.36,2.29H862.2Z"/><path id="Path_105" data-name="Path 105" class="cls-2" d="M862.92,215.31l-1.53-41.88,2.44,0,.66,33.89Z"/><path id="Path_106" data-name="Path 106" class="cls-8" d="M864.73,214.24l-1-41.63L892,179.2l.82,34.59Z"/><path id="Path_116" data-name="Path 116" class="cls-9" d="M679.43,438.57l-36.18-1.83L618.59,320.39l38.58-4.06Z"/><path id="Path_236" data-name="Path 236" class="cls-10" d="M563.47,324.63,595,305.55,636.9,415.16l-31.55,19.08Z"/><path id="Path_237" data-name="Path 237" class="cls-11" d="M562.9,323.13,568,320,611,432.44l-5.12,3.1Z"/><path id="Path_238" data-name="Path 238" class="cls-11" d="M589.41,307.3l5.12-3.1,42.94,112.4-5.12,3.11Z"/><g id="Group_113" data-name="Group 113"><rect id="Rectangle_148" data-name="Rectangle 148" class="cls-5" x="30.41" y="158.72" width="25.17" height="54.25"/><path id="Path_244" data-name="Path 244" class="cls-6" d="M55.77,151.36l24.73-4.09L93.43,206.8,68.7,210.89Z"/><path id="Path_245" data-name="Path 245" class="cls-5" d="M55.59,150.91l4-.66,13.26,61-4,.66Z"/><path id="Path_246" data-name="Path 246" class="cls-5" d="M76.33,146.84l4-.66,13.26,61-4,.66Z"/><rect id="Rectangle_152" data-name="Rectangle 152" class="cls-5" x="93.34" y="158.72" width="25.17" height="54.25"/><path id="Path_138" data-name="Path 138" class="cls-1" d="M125.52,214.42,124,174.47l25.36,7.5,4,32.24Z"/><path id="Path_139" data-name="Path 139" class="cls-2" d="M133,209.07l26.18,5.45-.34,1.95h-27.3Z"/><path id="Path_140" data-name="Path 140" class="cls-2" d="M126.32,213.66l-1.42-38.72,2.26,0,.63,31.36Z"/><path id="Path_141" data-name="Path 141" class="cls-1" d="M128,212.68l-.91-38.5,26.29,6.09.75,32Z"/><path id="Path_142" data-name="Path 142" class="cls-12" d="M131.92,179.61c-.26.47,1.08,1.95-.91,2.06"/></g><rect id="Rectangle_157" data-name="Rectangle 157" class="cls-13" x="352.64" y="374.46" width="17.17" height="53.41"/><path id="Path_260" data-name="Path 260" class="cls-14" d="M486.65,368.41l16.88-4,2.53,16.86L512.34,423l-16.87,4Z"/><path id="Path_261" data-name="Path 261" class="cls-15" d="M483.15,367.6l2.74-.65,9.05,60.1-2.75.65Z"/><path id="Path_262" data-name="Path 262" class="cls-15" d="M500.68,364.32l2.74-.66,9.05,60.1-2.75.65Z"/><rect id="Rectangle_158" data-name="Rectangle 158" class="cls-16" x="395.58" y="374.46" width="17.17" height="53.41"/><path id="Path_263" data-name="Path 263" class="cls-1" d="M509.71,204.93l-.84-25.6,14.41,4.8,2.24,20.66Z"/><path id="Path_264" data-name="Path 264" class="cls-2" d="M511,199.71l15,3.5-.19,1.25h-15.6Z"/><path id="Path_265" data-name="Path 265" class="cls-2" d="M510.17,204.46l-.81-24.82,1.28,0,.36,20.09Z"/><path id="Path_266" data-name="Path 266" class="cls-1" d="M511.12,203.93l-.52-24.68,14.94,3.9.43,20.5Z"/><ellipse id="Ellipse_29" data-name="Ellipse 29" class="cls-17" cx="516.08" cy="644.34" rx="176.25" ry="64.45"/><path id="Path_63" data-name="Path 63" class="cls-18" d="M1001.88,735c.65.74,4.09-.14,3,2.89"/><path id="Path_72" data-name="Path 72" class="cls-1" d="M721,776l-55.46-22.66,27.57-33.91,55.05,22.5Z"/><g id="Group_115" data-name="Group 115"><path id="Path_93" data-name="Path 93" class="cls-19" d="M267.26,588.92,210,563.86l29.37-31.52,57.55,18Z"/><path id="Path_94" data-name="Path 94" class="cls-2" d="M266.71,581.83l26.51-34.44,3.12,1.93-29.23,37.83Z"/><path id="Path_95" data-name="Path 95" class="cls-2" d="M267.11,587.15,211.42,563l1.43-3.33,53.86,22.21Z"/><path id="Path_96" data-name="Path 96" class="cls-19" d="M267.27,582l-55.46-22.67,27.57-33.91,55,22.5Z"/></g><path id="Path_97" data-name="Path 97" class="cls-20" d="M305.84,505.61c.64.76,4.08-.14,3,2.9"/><path id="Path_99" data-name="Path 99" class="cls-21" d="M488.1,638.37l-7.21,14.81,11.6,6.87,7.37-15.54-11.76-6.15"/><path id="Path_100" data-name="Path 100" class="cls-22" d="M477.75,658.17s-6.1,2.83-2.94,5.64,18.52,12.68,18.52,12.68,5.7,6.93,9.69,4.12-3-12.6-3-12.6l-10.9-6.17,2-2.57-8.81-5.53Z"/><path id="Path_101" data-name="Path 101" class="cls-21" d="M559.34,613.86l7.51,13.55-12.06,6.29-7.68-14.22,12.24-5.62"/><path id="Path_102" data-name="Path 102" class="cls-22" d="M569.8,631.67s6.32,2.57,3.06,5.15-19.26,11.61-19.26,11.61-5.93,6.32-10.09,3.74,3.17-11.53,3.17-11.53L558,635l-2.27-1.83L566,627.9Z"/><rect id="Rectangle_99" data-name="Rectangle 99" class="cls-23" x="463.88" y="456.15" width="88.1" height="6.19"/><path id="Path_232" data-name="Path 232" class="cls-10" d="M1082.2,184.25l-36.69,6.83Z"/><g id="Group_111" data-name="Group 111"><line id="Line_107" data-name="Line 107" class="cls-24" x1="815.65" y1="688.96" x2="815.65" y2="749.51"/><line id="Line_108" data-name="Line 108" class="cls-24" x1="878.08" y1="688.01" x2="878.08" y2="749.52"/><line id="Line_109" data-name="Line 109" class="cls-24" x1="904.3" y1="651.8" x2="904.3" y2="785.97"/><line id="Line_110" data-name="Line 110" class="cls-24" x1="786.47" y1="658.44" x2="786.47" y2="786.57"/><ellipse id="Ellipse_30" data-name="Ellipse 30" class="cls-25" cx="844.85" cy="658.44" rx="70.07" ry="34.19"/><ellipse id="Ellipse_31" data-name="Ellipse 31" class="cls-7" cx="844.85" cy="772.55" rx="70.07" ry="25.34"/><path id="Path_53" data-name="Path 53" class="cls-26" d="M851.16,689.78l-58-23.34,28.39-32.37,58.08,16.27Z"/><path id="Path_54" data-name="Path 54" class="cls-2" d="M850.39,682.72l25.44-35.21,3.19,1.83L851,688Z"/><path id="Path_55" data-name="Path 55" class="cls-2" d="M851,688l-56.41-22.53,1.32-3.37,54.52,20.6Z"/><path id="Path_56" data-name="Path 56" class="cls-26" d="M851,682.82l-56.13-21,26.52-34.71L877.06,648Z"/><path id="Path_57" data-name="Path 57" class="cls-27" d="M875.8,648c.66.74,4.07-.26,3,2.81"/><path id="Path_58" data-name="Path 58" class="cls-1" d="M857.49,681.9l-59.67-18.83,25.73-34.46,59.19,11.79Z"/><path id="Path_59" data-name="Path 59" class="cls-2" d="M856.15,674.92l22.58-37.06,3.31,1.58-24.9,40.7Z"/><path id="Path_60" data-name="Path 60" class="cls-2" d="M857.14,680.14l-58-18.12,1-3.47,56,16.37Z"/><path id="Path_61" data-name="Path 61" class="cls-1" d="M856.72,675,799.1,658.34l23.68-36.64L880,638.21Z"/><path id="Path_62" data-name="Path 62" class="cls-12" d="M878.68,638.34c.73.68,4.05-.58,3.27,2.57"/><path id="Path_74" data-name="Path 74" class="cls-28" d="M853.33,674l-57.25-25.07,29.36-31.51,57.56,18Z"/><path id="Path_75" data-name="Path 75" class="cls-2" d="M852.77,666.9l26.51-34.44,3.12,1.93-29.23,37.82Z"/><path id="Path_76" data-name="Path 76" class="cls-2" d="M853.18,672.21,797.48,648l1.43-3.34,53.86,22.22Z"/><path id="Path_77" data-name="Path 77" class="cls-28" d="M853.33,667l-55.46-22.67,27.57-33.91,55,22.5Z"/><path id="Path_78" data-name="Path 78" class="cls-29" d="M879.23,633c.64.76,4.08-.14,2.95,2.9"/><path id="Path_79" data-name="Path 79" class="cls-30" d="M853.67,663l-51.44-22.53,26.39-28.32,51.71,16.18Z"/><path id="Path_80" data-name="Path 80" class="cls-2" d="M853.17,656.59l23.83-31,2.81,1.74-26.28,34Z"/><path id="Path_81" data-name="Path 81" class="cls-2" d="M853.53,661.35l-50-21.74,1.28-3,48.41,20Z"/><path id="Path_82" data-name="Path 82" class="cls-30" d="M853.67,656.69l-49.84-20.37,24.78-30.47,49.46,20.22Z"/><ellipse id="Ellipse_32" data-name="Ellipse 32" class="cls-31" cx="894.62" cy="648.24" rx="8.78" ry="3.24"/><path id="Path_114" data-name="Path 114" class="cls-32" d="M885.89,647.84s10.26,7.12,17.5,0v22.67s-12.67,4.36-17.5,1.52S885.89,647.84,885.89,647.84Z"/><path id="Path_115" data-name="Path 115" class="cls-32" d="M901,653.05s5-6.08,7.24-1.64-3.32,9.36-7.24,5.79Z"/></g><g id="Group_112" data-name="Group 112"><g id="Group_110" data-name="Group 110"><path id="Path_143" data-name="Path 143" class="cls-33" d="M813.21,514.94h7.19s-4-25.46-1.74-35.92,5.17-28,5.17-28,10.36-44.4,14.1-48.08c0,0,18.13-2.26,30.79-11v-4.52l3.16,2.83,15.54-8.77-2.3-12.16,6.61,8.2,28.42-17.07V323.85s-19.88,2.26-44.24,15.64c0,0-19.57,11.88-28.77,31.71s-27,74.57-27.18,88.62l-3.49,23.75Z"/><path id="Path_144" data-name="Path 144" class="cls-33" d="M818.44,514.94h-6.52s3.83-40.35,0-51.66c0,0-3.26-27.53-4.28-30.22s-9.34-44.68-15-56.13c0,0-31.06-10.9-32.5-12.86l-.57-4.38-2.74,1.83L741.33,353l2.88-12.3-6.33,9.61L711.41,334S698.75,326,690,325.75l3.49-6.09-6.62,4.95s-12.21-4.52-17-8.06S652.19,298,652.19,298a145.89,145.89,0,0,1,28-2.57c15.25.14,25.17-.57,44.46,4.09a87,87,0,0,1,31.51,14.57s16,10.28,25.17,26.87,14.09,37.62,14.09,37.62a329.69,329.69,0,0,1,14.39,51.05c5.89,29.55,4.6,34.5,4.6,34.5Z"/><path id="Path_145" data-name="Path 145" class="cls-33" d="M818.44,517.92h-5.78s3.39-51.12,0-65.45c0,0-2.88-34.87-3.77-38.27s-8.28-56.61-13.24-71.14c0,0-27.5-13.8-28.77-16.28l-.5-5.56L764,323.55,750.21,312.8l2.54-15.58-5.6,12.17L723.7,288.63s-11.2-10-19-10.39l3.06-7.71-5.86,6.27s-10.83-5.73-15-10.21-15.69-23.47-15.69-23.47A92.07,92.07,0,0,1,696,239.89c13.5.19,22.29-.71,39.35,5.2a71.5,71.5,0,0,1,27.9,18.45,100,100,0,0,1,22.31,34c8.15,20.95,12.47,47.64,12.47,47.64a559.9,559.9,0,0,1,12.74,64.67c5.23,37.44,4.07,43.71,4.07,43.71Z"/><path id="Path_146" data-name="Path 146" class="cls-33" d="M819.6,514.93l-4.93.11s2.31-26.51-.77-33.86c0,0-2.88-18-3.68-19.71s-7.74-29.15-12.2-36.55c0,0-23.71-6.62-24.82-7.9l-.51-2.86-2,1.25-11.89-5.31,2-8.1-4.65,6.4-20.3-10.28s-9.7-5-16.35-5l2.53-4.05L717,392.41s-9.33-2.77-13-5-13.68-11.85-13.68-11.85a128,128,0,0,1,21.22-2.13c11.55-.16,19.06-.78,33.73,2a70.24,70.24,0,0,1,24.08,9s12.21,6.5,19.47,17.2A99.3,99.3,0,0,1,800.1,426a194.07,194.07,0,0,1,11.65,33.18c4.9,19.28,4,22.54,4,22.54Z"/><path id="Path_147" data-name="Path 147" class="cls-33" d="M814.57,503.41l3.86-.08s-3.18-40.29-1.16-51.61c0,0,1.31-27.54,1.85-30.24s4.52-44.75,7.59-56.27c0,0,18.15-11.28,19-13.28l.24-4.39,1.66,1.81,9-8.68-2-12.25,4,9.57,15.3-16.73s7.32-8.07,12.51-8.47l-2.18-6,4,4.85s7.14-4.67,9.87-8.28,10.06-18.72,10.06-18.72a53.09,53.09,0,0,0-16.67-2.19c-9,.35-14.92-.24-26.22,4.67a48.57,48.57,0,0,0-18.31,15,80.21,80.21,0,0,0-14.3,27.17c-5.08,16.65-7.5,37.76-7.5,37.76a510,510,0,0,0-7.37,51.17c-2.82,29.6-1.94,34.54-1.94,34.54Z"/><path id="Path_148" data-name="Path 148" class="cls-33" d="M811.29,503.19H817L815.6,437l.58-33.93,2-53.08s16.11-1.32,19.37-15.83l-4.89-6,7.39.47S844,312.7,844.56,308l-9.4-6.84,9.79,2.64s3.35-30.45,4.6-33.56,2.39-15.37,2.39-15.37l-9.68,5,9.68-10.46s-2.11-15.09-5.75-22.06-14.58-23.29-14.58-23.29-10.84,7.26-16.11,15.75-11.22,22-11.51,25.36-1,12.25-1,12.25l8.63.28-8.63,3.3.48,33.75,7.09.19L802.94,300v30.45s3.35,18.2,11.6,19.42l-.09,23.48-.39,30.54Z"/></g></g><path id="Path_149" data-name="Path 149" class="cls-34" d="M742.88,492.6l25.37,97.09s44.58,24.95,98.77,0l26.05-97.09S766.86,483.16,742.88,492.6Z"/><ellipse id="Ellipse_33" data-name="Ellipse 33" class="cls-35" cx="815.14" cy="496.82" rx="73.34" ry="6.59"/><path id="Path_150" data-name="Path 150" class="cls-36" d="M329.86,570.46,331.42,635l5.82,5.73h8.94l7-70.24Z"/><path id="Path_151" data-name="Path 151" class="cls-34" d="M338.76,571v66.8l8.15,2.28L354.67,571Z"/><path id="Path_152" data-name="Path 152" class="cls-36" d="M650.5,578.1l.9,49.32,3.35,4.38h5.15l4-53.7Z"/><path id="Path_153" data-name="Path 153" class="cls-34" d="M655.62,578.53v51.08l4.7,1.75,4.47-52.83Z"/><path id="Path_154" data-name="Path 154" class="cls-36" d="M393.7,597.62l1.92,79.13,7.14,7h11l8.57-86.16Z"/><path id="Path_155" data-name="Path 155" class="cls-34" d="M404.6,598.32v81.94l10,2.82,9.52-84.75Z"/><path id="Path_156" data-name="Path 156" class="cls-36" d="M684.58,583.09l1.91,79.13,7.15,7h11l8.57-86.16Z"/><path id="Path_157" data-name="Path 157" class="cls-34" d="M695.48,583.8v81.93l10,2.82L715,583.8Z"/><path id="Path_158" data-name="Path 158" class="cls-37" d="M322,369.78,305.36,268.64s-33.34-38.39,2.38-51.5S475.86,205,475.86,205s74.77-.95,99.53,15,29.53,132,29.53,132,72.36,8,92.87,17.8,22.86,31.36,19.05,46.35-22.38,19.19-22.38,19.19l4.28,49.17a29.09,29.09,0,0,1,10,11.7c3.81,8,19.52,20.13,19.52,44.94S717.32,595,717.32,595s-307.66,13.11-319.6,21.08l-18.58-16.39s-60.49-30-62.39-39.33-5.23-58.06.95-129.23c0,0-12.38-6.57-12.86-20.57S308.69,382.42,322,369.78Z"/><path id="Path_159" data-name="Path 159" class="cls-38" d="M699.92,497h-55v-83s-3.81-25,27.5-46.2c0,0,19.55-9,35.74,7.49s8.26,44.64,8.26,44.64-1.27,7.49-21.6,15.91Z"/><path id="Path_160" data-name="Path 160" class="cls-37" d="M394.23,617.44l322.82-21.22S729.91,565,728,548.14,708.69,497,708.69,497s-239.22,5-265.58,12.47-66.26,1.88-66.26,1.88L373,598.73"/><path id="Path_161" data-name="Path 161" class="cls-38" d="M379.18,512.56h55v-83s3.81-25-27.5-46.2c0,0-19.55-9.05-35.74,7.49s-8.26,44.64-8.26,44.64,1.27,7.49,21.59,15.91Z"/><path id="Path_162" data-name="Path 162" class="cls-39" d="M711,497.9s-219.1,3.77-235.76,8.45-63.82,9.84-63.82,9.84S380,519,381.87,511.5s54.05-22,54.05-22l3.11-22,48.09-10.73s-5.72,11.71-1.43,11.71S499,463.78,499,463.78s18.57,13.58,104.78,10.77c0,0,9.05,6.56,10.46,3.28S610,468,610,468l42.41,14.47,32.39.48S708.08,483.88,711,497.9Z"/><path id="Path_163" data-name="Path 163" class="cls-40" d="M379.72,602s-3.81-38.71-2.53-59.94,8.25-93.32,8.25-93.32-19.05-5.31-22.86-17.49,0-33.08,0-33.08,9.85-24.35,32.07-20.91,19.68,4.36,19.68,4.36-1.26-4.36-21.9-8.11S327,371.58,327,371.58,308.3,382.82,308,392.81s-4.43,18.42,7.31,37.14l5.08,1.87-4.76,62.12a267.06,267.06,0,0,0-.32,42.14c1.58,25,3.17,27.16,3.17,27.16a46.07,46.07,0,0,0,6.67,7.49C328,572.92,379.72,602,379.72,602Z"/><path id="Path_164" data-name="Path 164" class="cls-40" d="M602.59,463.85l41,15.42s-1.43-71.63,2.86-81.42,9.76-22.71,17.62-26,21.19-4.92,25.72-4.44-22.15-7.72-37.63-10.07S600.23,351,600.23,351s8.09-.94-1,12.64c0,0,6.2,22.29,7.15,41.67S607.62,457.53,602.59,463.85Z"/><path id="Path_165" data-name="Path 165" class="cls-41" d="M499.61,356S532,346.3,558,351.61s35,9.68,35,9.68l11.71-5.66a8.57,8.57,0,0,1,1.59,9.69c-2.55,5.93-3.49,2.82-3.49,2.82s7.94,45.57,7.94,57.42-3.49,42.46-5.08,43.72l7.62,10.27a14.08,14.08,0,0,1-8.89,0L599.31,478s-40,.63-61.9-1.86a209.24,209.24,0,0,1-42.24-9.94l-13,5.93s-7,2.5,1.59-12.79c0,0-7-46.51-2.53-61.81s10.15-31.84,10.15-31.84-9.53-10.61-7.94-12.17S498,355.7,498,355.7Z"/><path id="Path_166" data-name="Path 166" class="cls-42" d="M607,355.73s-8.89,10-10.46,10.28,4.76,22.79,5.23,33.43,4.28,60.55-12.86,67.11-88.59-4.65-88.59-4.65L481,467.21l1.26,1.43,14.61-3.31s25.08,15.61,106.36,11.55l8.57,3.42-5.09-12.48s9.85-60.86.33-86.46Z"/><g id="PERSON"><path id="Path_167" data-name="Path 167" class="cls-21" d="M473.36,260.22a5.35,5.35,0,0,1,2.11,2.21c2.73,5.51,14.46,25.85,37.48,23.75a57.64,57.64,0,0,0,40.27-22.67l1.47-2.91a3.76,3.76,0,0,1,2.75-2c4.37-.74,14.62-4.05,14.12-18.7-.65-18.54-13.43-2.44-13.43-2.44l.64-13.86H546l-.64,3.75-19.61.19-.43-5.31a2.32,2.32,0,0,1,.63-1.8,2.43,2.43,0,0,1,1.77-.77h8.48s-20.68-11-24.29-17.22a104.35,104.35,0,0,1-39.23,23.41V238.2s-6-8-14.55-5c-6.84,2.35-.95,13.55,2.8,18.55a13.18,13.18,0,0,0,4,3.55Z"/><path id="Path_168" data-name="Path 168" class="cls-43" d="M500.81,237.53c.69,2.12.45,4.79-2,5.54a4.18,4.18,0,0,1-4.26-.68,4,4,0,0,1-1.32-4,4.1,4.1,0,0,1,3.07-3C498.75,234.62,500.12,235.42,500.81,237.53Z"/><path id="Path_169" data-name="Path 169" class="cls-43" d="M539.05,241.08a4.38,4.38,0,0,1-5.92,1.67c-2.29-1.08-3.1-2.39-2.12-4.39s3.41-4,5.7-2.88a4.26,4.26,0,0,1,2.37,5.53l0,.07Z"/><path id="Path_170" data-name="Path 170" class="cls-44" d="M494.06,281.76v35.52s-64.35,10.84-70.42,21.51c0,0-33.47-3.81-34.11-21a37.22,37.22,0,0,1,10.23-27.25,125.61,125.61,0,0,1,33.88-23.31c19.82-9,23-24.45,23-24.45s6.1,14.33,18.22,15.43C474.88,258.28,488.31,282.32,494.06,281.76Z"/><path id="Path_171" data-name="Path 171" class="cls-44" d="M571.59,239.92s8.18,41,18.09,53.08S593.17,338,593.17,338l-55.62-18.54L535,279.51s19.81-16.57,20.13-20.78C555.16,258.72,566.15,257.62,571.59,239.92Z"/><path id="Path_172" data-name="Path 172" class="cls-21" d="M492.74,281.19l-1,36.45-31.12,5.48s7.22,23.25,38.54,24.38c11.75.42,29.79,1,41.35-1.5a71.57,71.57,0,0,0,31.12-15.23l-34-11.35-2.55-39.89C535.19,278.78,512.16,293.73,492.74,281.19Z"/><path id="Path_173" data-name="Path 173" class="cls-43" d="M503.84,259.46s7,6.58,15.37-.21"/><path id="Path_174" data-name="Path 174" class="cls-45" d="M492,281.06s6.2,13.09,13.22,13.09,26.21,2,27.83-1.91c1.42-3.43,2.46-13.17,2.46-13.17a24.43,24.43,0,0,1-19.84,7.39A120.83,120.83,0,0,1,492,281.06Z"/><ellipse id="Ellipse_34" data-name="Ellipse 34" class="cls-46" cx="494.06" cy="235.71" rx="12.01" ry="11.8"/><path id="Path_175" data-name="Path 175" class="cls-44" d="M480.7,227.63h19.93a1.61,1.61,0,0,0,1.12-.45,1.52,1.52,0,0,0,.45-1.1v-1.85a3,3,0,0,0-3-3H480.7a1.55,1.55,0,0,0-1.57,1.54h0v3.28a1.5,1.5,0,0,0,.45,1.09A1.61,1.61,0,0,0,480.7,227.63Z"/><ellipse id="Ellipse_35" data-name="Ellipse 35" class="cls-46" cx="532.33" cy="235.16" rx="12.01" ry="11.8"/><path id="Path_176" data-name="Path 176" class="cls-44" d="M457.16,234.59V206.2s17.91-31.84,46.25-31.65,36,2,36,2,23.07,2.46,31.12,34.47l-.21,22.14s-4.57-3-12.16,4.29l.44-9.49s-1-4.66-7.32-4.16-5.9,3.54-5.9,3.54l-19.61.18-.64-7.86h8.32s-21.64-13.54-22.12-14.86c0,0-24.79,18.81-38.62,22.6V238.2S462.14,231.59,457.16,234.59Z"/><rect id="Rectangle_153" data-name="Rectangle 153" class="cls-47" x="506.07" y="235.16" width="14.25" height="0.27"/><path id="Path_177" data-name="Path 177" class="cls-21" d="M577.62,381.82l21.57-1.53s-3.09,58.52-8.71,81.69c0,0,5.67,10.28,2.76,17.6s-13,9.83-13,9.83-4.3-1.85-1.89-5.14c0,0,5.32-2.86,5.78-6.74a7.8,7.8,0,0,0-2.91-6.49,13.07,13.07,0,0,0-3.28,6.47c-.65,3.84-4.37-1.39-4.37-1.39s-.33-11.69,5.18-14C578.71,462.05,582.54,402.57,577.62,381.82Z"/><path id="Path_178" data-name="Path 178" class="cls-21" d="M435.24,370.55,410,374.68s16.11,62.05,27.53,85.45c0,0-4.36,12.54.56,19.65s17.2,7.08,17.2,7.08,4.57-3.14,1.08-6.05c0,0-6.78-1.65-8.15-5.7s2-7.76,2-7.76a13.51,13.51,0,0,1,5.23,6.08c1.56,3.95,4.79-2.68,4.79-2.68s-2.11-12.64-9-13.71C451.14,457.06,434,394.19,435.24,370.55Z"/><path id="Path_179" data-name="Path 179" class="cls-22" d="M470,321.13s-35.81,6-41.31,11.68S402.81,365,403.59,379.53l35.55,22.84L447,393.8l-5-23.88s14.38,35.55,18.82,87.2l95.42,1.35,21.7-87L574,403.66l1.83,4.68,46-17.39s-4.18-34.53-21.17-45.68-39.48-18.17-39.48-18.17-8.11,16.87-44.46,15S470,321.13,470,321.13Z"/><path id="Path_180" data-name="Path 180" class="cls-48" d="M552,462.34l-88-2.62s-1.49,22.28,7.21,53.72c9.06,32.7,34.07,53.67,30.38,53.71,0,0,42.86,58.83,42.53,64.47l22.68-24.55L510.48,504.82l20.11-6.92L479.4,637.1l23,14.72L563.56,514S564.44,474.14,552,462.34Z"/><path id="Path_181" data-name="Path 181" class="cls-49" d="M524.2,570.51s.78-10.54,5.63-11.14"/><path id="Path_182" data-name="Path 182" class="cls-50" d="M563.56,237s2.19-4.61,5.48-1.36"/><path id="Path_183" data-name="Path 183" class="cls-50" d="M457.87,238.72s2.19-4.61,5.48-1.37"/><path id="Path_184" data-name="Path 184" class="cls-51" d="M646.77,379.35l-83.22,110a11.61,11.61,0,0,1-8.58,4.72L480.34,497c-3.94.15-5.77-4.29-3.19-7.82l78.38-105.62a11.86,11.86,0,0,1,8.42-4.89l79.85-6.34C647.41,372,649.2,376.13,646.77,379.35Z"/><path id="Path_185" data-name="Path 185" class="cls-6" d="M647,379.5l-82.2,108.74A11.51,11.51,0,0,1,556.4,493l-72.48,3.68c-3.84.2-5.56-4.15-3-7.61l77.39-104.34a11.88,11.88,0,0,1,8.23-4.89l77.59-7.18C647.73,372.29,649.39,376.33,647,379.5Z"/><path id="Path_186" data-name="Path 186" class="cls-52" d="M584,391.2l27.37-2.69a3.78,3.78,0,0,0,3.21-3.14l1.69-10.21-34.4,3-.74,10.17a2.55,2.55,0,0,0,.74,2.11A2.63,2.63,0,0,0,584,391.2Z"/><path id="Path_247" data-name="Path 247" d="M596.51,379.63a2.59,2.59,0,0,1,3.52-.79,2.5,2.5,0,0,1,.24,3.52l0,0a2.6,2.6,0,0,1-3.53.78,2.49,2.49,0,0,1-.23-3.52Z"/><g id="E-BOOK" class="cls-53"><g class="cls-53"><path d="M534,419.49l6.88,2.23-1,3.18-2.76-.89-1,3,2.58.84-1,3-2.57-.84L534,433.53l3,1-1,3.18-7.16-2.33Z"/><path d="M544.5,431.74l-.89,2.74-5.21-1.69.89-2.74Z"/><path d="M548.28,424.12l4.12,1.34a11.49,11.49,0,0,1,2.86,1.26,3.1,3.1,0,0,1,1.22,1.76,5.77,5.77,0,0,1-.35,3.18,3.36,3.36,0,0,1-1.07,1.8,3.13,3.13,0,0,1-2,.29,3.21,3.21,0,0,1,1.59,1.7,4.31,4.31,0,0,1-.24,2.47l-.47,1.47a6.05,6.05,0,0,1-1.15,2.27,2.07,2.07,0,0,1-1.51.68,12.9,12.9,0,0,1-3.39-.79L543.12,440Zm1.3,10.06-1.45,4.44a1.89,1.89,0,0,0,1.21.09c.21-.11.42-.49.63-1.13l.48-1.48a2.27,2.27,0,0,0,.19-1.3A2.05,2.05,0,0,0,549.58,434.18Zm1.95-6-1.15,3.53.41.12c.41.13.7.12.88,0a5.56,5.56,0,0,0,.72-1.66,2.87,2.87,0,0,0,.2-1.09.74.74,0,0,0-.23-.5A3.72,3.72,0,0,0,551.53,428.18Z"/><path d="M565.79,440.08c-.52,1.6-.92,2.72-1.21,3.36a4,4,0,0,1-1.3,1.59,4,4,0,0,1-2,.74,6.07,6.07,0,0,1-2.5-.32,6.37,6.37,0,0,1-2.16-1.16,4,4,0,0,1-1.22-1.78,3.83,3.83,0,0,1-.15-2.06,35.82,35.82,0,0,1,1-3.47l.88-2.71c.52-1.6.92-2.72,1.21-3.36a4,4,0,0,1,3.31-2.33,6.09,6.09,0,0,1,2.5.32,6.37,6.37,0,0,1,2.16,1.16,4,4,0,0,1,1.22,1.78,4,4,0,0,1,.15,2.06,35,35,0,0,1-1,3.47Zm-2.44-6.55a5.05,5.05,0,0,0,.34-1.46.53.53,0,0,0-.4-.48.6.6,0,0,0-.58.09,3.85,3.85,0,0,0-.65,1.42l-2.41,7.42a7.87,7.87,0,0,0-.44,1.74.61.61,0,0,0,1.08.3,7.94,7.94,0,0,0,.69-1.74Z"/><path d="M576.77,443.65c-.52,1.59-.93,2.71-1.22,3.35a4,4,0,0,1-1.29,1.59,4.09,4.09,0,0,1-2,.75,6.28,6.28,0,0,1-2.5-.33,6.16,6.16,0,0,1-2.15-1.16,4,4,0,0,1-1.37-3.83,33.44,33.44,0,0,1,1-3.47l.88-2.72c.52-1.6.93-2.71,1.22-3.35a4,4,0,0,1,1.29-1.59,4.09,4.09,0,0,1,2-.75,6.73,6.73,0,0,1,4.65,1.49,3.88,3.88,0,0,1,1.23,1.78,4,4,0,0,1,.15,2c-.14.68-.47,1.84-1,3.47Zm-2.44-6.56a5.44,5.44,0,0,0,.34-1.46.52.52,0,0,0-.41-.47.58.58,0,0,0-.57.09,3.6,3.6,0,0,0-.65,1.42l-2.41,7.41a7.44,7.44,0,0,0-.44,1.75c0,.24.14.4.42.49a.53.53,0,0,0,.66-.2,8,8,0,0,0,.69-1.73Z"/><path d="M591.17,438.05l-4.7,6.4-.23,9.55L582,452.61l.54-7.35-2.21,6.81-4.13-1.34,5.16-15.88,4.13,1.34-2,6.17,3.84-5.57Z"/></g></g><path id="Path_187" data-name="Path 187" class="cls-54" d="M497.93,460.73l-34.05-1v-2.54l36.39.36Z"/></g><path id="Path_257" data-name="Path 257" class="cls-19" d="M271.85,669.51,216.4,646.84,244,612.93l55,22.5Z"/><g id="Group_109" data-name="Group 109"><path id="Path_258" data-name="Path 258" class="cls-2" d="M352.15,742.72l-55.69-24.19,1.42-3.33,53.86,22.22Z"/><g id="Group_108" data-name="Group 108"><path id="Path_259" data-name="Path 259" class="cls-55" d="M352.31,737.54l-55.46-22.66L324.42,681l55.05,22.5Z"/></g></g><rect id="Rectangle_166" data-name="Rectangle 166" class="cls-4" width="1056.07" height="32.39"/><g id="Group_114" data-name="Group 114"><rect id="Rectangle_148-2" data-name="Rectangle 148-2" class="cls-56" x="27.59" y="347.41" width="25.17" height="54.25"/><path id="Path_244-2" data-name="Path 244-2" class="cls-57" d="M53,340,77.69,336l12.93,59.53-24.74,4.08Z"/><path id="Path_245-2" data-name="Path 245-2" class="cls-58" d="M52.77,339.59l4-.66L70,400l-4,.66Z"/><path id="Path_246-2" data-name="Path 246-2" class="cls-58" d="M73.51,335.53l4-.66,13.25,61-4,.66Z"/><rect id="Rectangle_152-2" data-name="Rectangle 152-2" class="cls-59" x="90.53" y="347.41" width="25.17" height="54.25"/><path id="Path_138-2" data-name="Path 138-2" class="cls-1" d="M122.71,403.1l-1.5-40,25.36,7.5,4,32.25Z"/><path id="Path_139-2" data-name="Path 139-2" class="cls-2" d="M124.55,394.94l26.18,5.45-.33,1.95H123.09Z"/><path id="Path_140-2" data-name="Path 140-2" class="cls-2" d="M123.5,402.35l-1.41-38.73,2.25,0L125,395Z"/><path id="Path_141-2" data-name="Path 141-2" class="cls-60" d="M125.19,401.37l-.92-38.51L150.56,369l.76,32Z"/></g><g id="Group_116" data-name="Group 116"><path id="Path_93-2" data-name="Path 93-2" class="cls-19" d="M529.17,786.05,471.92,761l29.37-31.51,57.55,18Z"/><path id="Path_94-2" data-name="Path 94-2" class="cls-2" d="M528.61,779l26.51-34.44,3.13,1.93L529,784.28Z"/><path id="Path_95-2" data-name="Path 95-2" class="cls-2" d="M529,784.28l-55.68-24.2,1.42-3.33L528.61,779Z"/><path id="Path_96-2" data-name="Path 96-2" class="cls-61" d="M529.17,779.09l-55.45-22.67,27.57-33.9,55,22.49Z"/></g><path id="Path_93-3" data-name="Path 93-3" class="cls-62" d="M240.25,447.29l-2,53.32-42.54-2.19-5-49.51Z"/><path id="Path_94-3" data-name="Path 94-3" class="cls-2" d="M235.28,453.91l-43.46.31-.4-3.65,47.8-.25Z"/><path id="Path_95-3" data-name="Path 95-3" class="cls-2" d="M239.47,451.2l.07,47-3.32.72L235.16,454Z"/><path id="Path_96-3" data-name="Path 96-3" class="cls-62" d="M234.33,451l-.7,50.21-44,.66.7-49.84Z"/><g id="Group_118" data-name="Group 118"><path id="Path_93-4" data-name="Path 93-4" class="cls-19" d="M937.69,402.41l-6.22-59.13,43.27,4.31,12.75,55.21Z"/><path id="Path_94-4" data-name="Path 94-4" class="cls-2" d="M942.12,396.21l43.35,3.48.08,3.67-47.67-3.91Z"/><path id="Path_95-4" data-name="Path 95-4" class="cls-2" d="M941.44,404.92,931.39,345l3.58-.63,10.71,57.3Z"/><path id="Path_96-4" data-name="Path 96-4" class="cls-19" d="M943.49,398.55l-7.36-56.15,44.46,1.42,7.31,55.73Z"/></g><rect id="Rectangle_169" data-name="Rectangle 169" class="cls-63" x="595.09" y="157.27" width="27.06" height="58.64"/><rect id="Rectangle_170" data-name="Rectangle 170" class="cls-64" x="623.26" y="157.27" width="27.06" height="58.64"/><rect id="Rectangle_171" data-name="Rectangle 171" class="cls-65" x="651.42" y="157.27" width="27.06" height="58.64"/></g><path id="Path_379" data-name="Path 379" class="cls-2" d="M721,780.51,672,759.25l1.25-2.92,47.33,19.52Z"/></g></svg>