<svg xmlns="http://www.w3.org/2000/svg" width="139.953" height="126.273" viewBox="0 0 139.953 126.273">
  <g id="Group_231" data-name="Group 231" transform="translate(-1516.02 -524.8)">
    <path id="Path_591" data-name="Path 591" d="M1628.124,596.6s7.043-7.9,7.33-13.511c0,0,18.827-3.018,19.977-15.952s1.007-14.517-5.891-22.852-17.823-4.025-17.823-4.025a20.35,20.35,0,0,0-12.791-14.085c-10.923-4.167-24.289,2.443-24.289,2.443l-2.586,3.737s-3.02-4.455-10.061-4.167-13.366,5.6-13.366,5.6l-2.443,3.882a21.841,21.841,0,0,0-16.529,5.174,34.015,34.015,0,0,0-9.918,14.228s-13.509,2.011-16.814,6.468-7.762,9.773-6.756,20.121,13.653,17.676,13.653,17.676-6.468,13.943.143,25.008,20.121,15.667,20.121,15.667,14.23,2.731,22.135-3.018,12.646-16.529,12.646-16.529a36.078,36.078,0,0,0,18.4-2.443C1613.464,616.005,1628.124,596.6,1628.124,596.6Z" transform="translate(0 0)" fill="#47c568"/>
    <path id="Path_592" data-name="Path 592" d="M1633.621,612.06l-21.128,21.99s-19.834-25.87-29.75-31.044-33.632-18.54-43.548-15.09c0,0-2.156-8.624-3.88-9.056s29.75.432,46.566,8.194l-38.806-39.238,6.468-6.466,43.548,38.374s-15.954-32.77-11.21-36.65,9.054-1.724,9.054-1.724a147.277,147.277,0,0,0,15.481,37.965C1612.877,590.5,1621.727,602.33,1633.621,612.06Z" transform="translate(20.518 17.024)" fill="#bfda67"/>
  </g>
</svg>
