<svg xmlns="http://www.w3.org/2000/svg" xmlns:xlink="http://www.w3.org/1999/xlink" width="960" height="473.601" viewBox="0 0 960 473.601">
  <defs>
    <clipPath id="clip-path">
      <rect width="960" height="473.601" fill="none"/>
    </clipPath>
    <clipPath id="clip-path-2">
      <rect width="16.339" height="472.179" fill="none"/>
    </clipPath>
    <clipPath id="clip-path-3">
      <rect width="501.778" height="392.852" fill="none"/>
    </clipPath>
    <clipPath id="clip-path-4">
      <rect width="700.07" height="462.676" fill="none"/>
    </clipPath>
  </defs>
  <g id="Graf_bønne_data" data-name="Graf bønne_data" transform="translate(-8 -13.552)">
    <line id="Line_32" data-name="Line 32" x2="699.07" transform="translate(40.936 475.728)" fill="none" stroke="#000" stroke-miterlimit="10" stroke-width="1"/>
    <path id="Path_416" data-name="Path 416" d="M0,11.542V0" transform="translate(40.936 464.186)" fill="none" stroke="#333" stroke-linecap="square" stroke-width="1"/>
    <path id="Path_417" data-name="Path 417" d="M0,11.542V0" transform="translate(740.006 464.186)" fill="none" stroke="#000" stroke-width="1"/>
    <g id="Repeat_Grid_63" data-name="Repeat Grid 63" transform="translate(8 13.552)" clip-path="url(#clip-path)">
      <g transform="translate(-8 -13.552)">
        <g id="Repeat_Grid_60" data-name="Repeat Grid 60" transform="translate(8 14.974)" clip-path="url(#clip-path-2)">
          <g transform="translate(-8 -14.974)">
            <text id="_0" data-name="0" transform="translate(24.301 484.153)" fill="#231815" font-size="14" font-family="MuseoSans-500, Museo Sans" font-weight="500"><tspan x="-8.75" y="0">0</tspan></text>
            <text id="_5" data-name="5" transform="translate(24.339 368.732)" fill="#231815" font-size="14" font-family="MuseoSans-500, Museo Sans" font-weight="500"><tspan x="-7.882" y="0">5</tspan></text>
            <text id="_10" data-name="10" transform="translate(24.038 254.492)" fill="#231815" font-size="14" font-family="MuseoSans-500, Museo Sans" font-weight="500"><tspan x="-15.596" y="0">10</tspan></text>
            <text id="_15" data-name="15" transform="translate(24.075 139.072)" fill="#231815" font-size="14" font-family="MuseoSans-500, Museo Sans" font-weight="500"><tspan x="-14.728" y="0">15</tspan></text>
            <text id="_20" data-name="20" transform="translate(24 25.974)" fill="#231815" font-size="14" font-family="MuseoSans-500, Museo Sans" font-weight="500"><tspan x="-16.758" y="0">20</tspan></text>
          </g>
        </g>
        <g id="Repeat_Grid_62" data-name="Repeat Grid 62" transform="translate(159.541 83.125)" clip-path="url(#clip-path-3)">
          <g transform="translate(-159.541 -83.125)">
            <rect id="Rectangle_74" data-name="Rectangle 74" width="80.473" height="392.424" transform="translate(580.846 83.125)" fill="#453f35"/>
            <rect id="Rectangle_76" data-name="Rectangle 76" width="80.473" height="184.67" transform="translate(370.712 291.057)" fill="#736a58" stroke="#736a58" stroke-miterlimit="10" stroke-width="0.5"/>
            <rect id="Rectangle_78" data-name="Rectangle 78" width="80.473" height="101.569" transform="translate(159.541 374.159)" fill="#a1937a"/>
          </g>
        </g>
        <g id="Group_58" data-name="Group 58" transform="translate(-596 -2035.026)">
          <path id="Path_35" data-name="Path 35" d="M0,0H51.52V32.122H0Z" transform="translate(1411.274 2175)" fill="#453f35"/>
          <path id="Path_36" data-name="Path 36" d="M0,0H51.52V32.122H0Z" transform="translate(1411.274 2241)" fill="#736a58"/>
          <path id="Path_37" data-name="Path 37" d="M0,0H51.52V32.122H0Z" transform="translate(1411.274 2306)" fill="#9f9279"/>
          <text id="Filterkaffe" transform="translate(1491 2195)" fill="#231815" font-size="14" font-family="MuseoSans-500, Museo Sans" font-weight="500"><tspan x="0" y="0">Filterkaffe</tspan></text>
          <text id="Kapselkaffe" transform="translate(1491 2262)" fill="#231815" font-size="14" font-family="MuseoSans-500, Museo Sans" font-weight="500"><tspan x="0" y="0">Kapselkaffe</tspan></text>
          <text id="Pulverkaffe" transform="translate(1491 2327)" fill="#231815" font-size="14" font-family="MuseoSans-500, Museo Sans" font-weight="500"><tspan x="0" y="0">Pulverkaffe</tspan></text>
          <g id="Group_292" data-name="Group 292" transform="translate(-51 93)">
            <g id="Group_288" data-name="Group 288" transform="translate(1460.823 1997)">
              <g id="Group_260" data-name="Group 260" transform="translate(0 0.979)">
                <path id="Path_622" data-name="Path 622" d="M152.26,92.79Z" transform="translate(-124.914 -92.79)" fill="#453f35"/>
                <g id="Group_259" data-name="Group 259" transform="translate(0 6.374)">
                  <path id="Path_623" data-name="Path 623" d="M75.279,143.81a27.352,27.352,0,0,0,5.66,8.2c.064-.044.156-.108.264-.193a6.084,6.084,0,0,0,1.538-1.812c1.074-1.9,1.216-4.291.427-7.093-.017-.061-.03-.119-.051-.18-1.91-6.479,1.69-10.185,2.5-10.917.095-.085.152-.132.159-.135a6.99,6.99,0,0,0,2.351-2.662c1.3-2.469,1.351-5.555.152-9.162,0,0-.007-.02-.014-.034a8.382,8.382,0,0,1,1.087-6.686,16.291,16.291,0,0,0-6.11,1.423C73.542,118.945,69.972,132.067,75.279,143.81Z" transform="translate(-72.381 -112.622)" fill="#453f35"/>
                  <path id="Path_624" data-name="Path 624" d="M88.938,111.861h0l-.037-.251a16.571,16.571,0,0,0-6.734,1.47c-9.907,4.478-13.555,17.887-8.132,29.891a27.94,27.94,0,0,0,5.656,8.254l-.007,0,.254.247.01.01h0l.129.125.088-.129.027.051a5.947,5.947,0,0,0,2.053-2.2c.81-1.423,1.538-3.912.42-7.7-.061-.21-.115-.413-.166-.616a9.919,9.919,0,0,1,2.049-9.291,6.142,6.142,0,0,1,.623-.613c.058-.034,5.636-3.377,2.642-12.39a4.694,4.694,0,0,1-.19-.931,8.593,8.593,0,0,1,1.141-5.179c.108-.193.224-.39.349-.589ZM87.4,118.814a.114.114,0,0,0,.014.034c1.2,3.607,1.148,6.689-.152,9.162a6.99,6.99,0,0,1-2.351,2.662s-.064.051-.159.135c-.806.732-4.407,4.437-2.5,10.917.017.061.034.119.051.18.789,2.8.65,5.186-.427,7.093a6.13,6.13,0,0,1-1.538,1.812c-.1.081-.2.149-.264.193a27.352,27.352,0,0,1-5.66-8.2c-5.308-11.746-1.734-24.865,7.963-29.247a16.291,16.291,0,0,1,6.11-1.423A8.366,8.366,0,0,0,87.4,118.814Z" transform="translate(-71.523 -111.61)" fill="#453f35"/>
                </g>
              </g>
              <g id="Group_261" data-name="Group 261" transform="translate(20.267 0.007)" opacity="0.4">
                <path id="Path_625" data-name="Path 625" d="M131.36,89.92" transform="translate(-131.36 -89.92)" fill="#453f35" stroke="#9e5524" stroke-miterlimit="10" stroke-width="1"/>
              </g>
              <g id="Group_262" data-name="Group 262" transform="translate(19.603 0)" opacity="0.4">
                <path id="Path_626" data-name="Path 626" d="M129.4,89.9" transform="translate(-129.4 -89.9)" fill="#453f35" stroke="#9e5524" stroke-miterlimit="10" stroke-width="1"/>
              </g>
            </g>
            <g id="Group_289" data-name="Group 289" transform="translate(1464.188 2005.407)">
              <g id="Group_265" data-name="Group 265" transform="translate(0 0)">
                <path id="Path_627" data-name="Path 627" d="M81.46,251.65Z" transform="translate(-81.46 -205.271)" fill="#453f35"/>
                <g id="Group_264" data-name="Group 264" transform="translate(9.758)">
                  <path id="Path_628" data-name="Path 628" d="M126.173,124.734a27.352,27.352,0,0,0-5.66-8.2c-.064.044-.156.108-.264.193a6.084,6.084,0,0,0-1.538,1.812c-1.074,1.9-1.216,4.291-.427,7.093.017.061.03.119.051.18,1.91,6.479-1.69,10.185-2.5,10.917-.095.085-.152.132-.159.135a6.99,6.99,0,0,0-2.351,2.662c-1.3,2.469-1.351,5.555-.152,9.162,0,0,.007.02.014.034A8.382,8.382,0,0,1,112.1,155.4a16.291,16.291,0,0,0,6.11-1.423C127.911,149.6,131.481,136.477,126.173,124.734Z" transform="translate(-111.48 -115.917)" fill="#453f35"/>
                  <path id="Path_629" data-name="Path 629" d="M110.446,154.471h0l.037.251a16.571,16.571,0,0,0,6.734-1.47c9.907-4.478,13.555-17.887,8.132-29.891a27.941,27.941,0,0,0-5.656-8.254l.007,0-.254-.247-.01-.01h0l-.129-.125-.088.129-.027-.051a5.947,5.947,0,0,0-2.053,2.2c-.81,1.423-1.538,3.912-.42,7.7.061.21.115.413.166.616a9.919,9.919,0,0,1-2.049,9.291,6.141,6.141,0,0,1-.623.613c-.058.034-5.636,3.377-2.642,12.39a4.7,4.7,0,0,1,.19.931,8.593,8.593,0,0,1-1.141,5.179c-.108.193-.224.39-.349.589Zm1.534-6.954a.114.114,0,0,0-.014-.034c-1.2-3.607-1.148-6.689.152-9.162a6.99,6.99,0,0,1,2.351-2.662s.064-.051.159-.135c.806-.732,4.407-4.437,2.5-10.917-.017-.061-.034-.119-.051-.18-.789-2.8-.65-5.186.427-7.093a6.13,6.13,0,0,1,1.538-1.812c.105-.081.2-.149.264-.193a27.352,27.352,0,0,1,5.66,8.2C130.274,135.28,126.7,148.4,117,152.781a16.291,16.291,0,0,1-6.11,1.423A8.382,8.382,0,0,0,111.98,147.517Z" transform="translate(-110.27 -114.72)" fill="#453f35"/>
                </g>
              </g>
              <g id="Group_266" data-name="Group 266" transform="translate(7.082 47.348)" opacity="0.4">
                <path id="Path_630" data-name="Path 630" d="M102.37,254.51" transform="translate(-102.37 -254.51)" fill="#453f35" stroke="#9e5524" stroke-miterlimit="10" stroke-width="1"/>
              </g>
              <g id="Group_267" data-name="Group 267" transform="translate(7.746 47.355)" opacity="0.4">
                <path id="Path_631" data-name="Path 631" d="M104.33,254.53" transform="translate(-104.33 -254.53)" fill="#453f35" stroke="#9e5524" stroke-miterlimit="10" stroke-width="1"/>
              </g>
            </g>
            <g id="Group_290" data-name="Group 290" transform="translate(1486.516 2016.068)">
              <g id="Group_270" data-name="Group 270" transform="translate(0 0)">
                <path id="Path_634" data-name="Path 634" d="M332.8,181.36Z" transform="translate(-304.624 -169.45)" fill="#453f35"/>
                <path id="Path_636" data-name="Path 636" d="M186.73,212.2Z" transform="translate(-180.75 -201.764)" fill="#453f35"/>
                <g id="Group_271" data-name="Group 271">
                  <path id="Path_635" data-name="Path 635" d="M164.577,158.066a7.95,7.95,0,0,1,1.721.3,4.9,4.9,0,0,1,.7.254c.047.03,4.7,3.109,10.568-2.554a4.242,4.242,0,0,1,.65-.495,7.362,7.362,0,0,1,4.43-1.036c.19.01.386.027.586.054l.061-.2h0l.18-.122a14.24,14.24,0,0,0-3.638-4.664c-4.508-3.79-10.839-4.329-16.729-2.036A27.824,27.824,0,0,1,164.577,158.066Z" transform="translate(-157.782 -146.197)" fill="#453f35"/>
                  <path id="Path_637" data-name="Path 637" d="M173.908,180.4l.03-.041a5.094,5.094,0,0,0-2.466-.772c-1.4-.1-3.6.261-6.114,2.53-.139.125-.278.244-.417.359a8.521,8.521,0,0,1-7.949,1.863,4.906,4.906,0,0,1-.7-.254,6.129,6.129,0,0,0-2.476-.81,21.647,21.647,0,0,1-6.432,12.163c7.015,2.764,16.16.071,22.219-7.133a23.962,23.962,0,0,0,4.288-7.441l.007,0,.1-.288s0-.01,0-.014h0l.051-.149Z" transform="translate(-147.38 -168.271)" fill="#453f35"/>
                </g>
                <path id="Path_638" data-name="Path 638" d="M286.47,338.59Z" transform="translate(-265.334 -308.169)" fill="#453f35"/>
              </g>
            </g>
          </g>
        </g>
        <g id="Repeat_Grid_61" data-name="Repeat Grid 61" transform="translate(40.436 13.552)" clip-path="url(#clip-path-4)">
          <g transform="translate(-40.436 -13.552)">
            <line id="Line_35" data-name="Line 35" y1="461.676" transform="translate(40.936 14.052)" fill="none"/>
            <line id="Line_37" data-name="Line 37" x2="699.07" transform="translate(40.936 360.309)" fill="none" stroke="#000" stroke-miterlimit="10" stroke-width="1" opacity="0.1"/>
            <line id="Line_38" data-name="Line 38" x2="699.07" transform="translate(40.936 244.89)" fill="none" stroke="#000" stroke-miterlimit="10" stroke-width="1" opacity="0.1"/>
            <line id="Line_39" data-name="Line 39" x2="699.07" transform="translate(40.936 129.471)" fill="none" stroke="#000" stroke-miterlimit="10" stroke-width="1" opacity="0.1"/>
            <line id="Line_40" data-name="Line 40" x2="699.07" transform="translate(40.936 14.052)" fill="none" stroke="#000" stroke-miterlimit="10" stroke-width="1" opacity="0.1"/>
            <line id="Line_41" data-name="Line 41" x2="699.07" transform="translate(40.936 418.018)" fill="none" stroke="#000" stroke-miterlimit="10" stroke-width="1" opacity="0.1"/>
            <line id="Line_42" data-name="Line 42" x2="699.07" transform="translate(40.936 302.599)" fill="none" stroke="#000" stroke-miterlimit="10" stroke-width="1" opacity="0.1"/>
            <line id="Line_43" data-name="Line 43" x2="699.07" transform="translate(40.936 187.18)" fill="none" stroke="#000" stroke-miterlimit="10" stroke-width="1" opacity="0.1"/>
            <line id="Line_44" data-name="Line 44" x2="699.07" transform="translate(40.936 71.761)" fill="none" stroke="#000" stroke-miterlimit="10" stroke-width="1" opacity="0.1"/>
            <path id="Path_415" data-name="Path 415" d="M0,0H699.07" transform="translate(40.936 475.728)" fill="none" stroke="#333" stroke-linecap="square" stroke-width="1"/>
          </g>
        </g>
      </g>
    </g>
  </g>
</svg>
