<svg xmlns="http://www.w3.org/2000/svg" width="164.391" height="85.628" viewBox="0 0 164.391 85.628">
  <g id="Group_232" data-name="Group 232" transform="translate(-1313.437 -520.168)">
    <path id="Path_593" data-name="Path 593" d="M1414.229,537.92s-18.985-16.78-45.444,2.177-58.665,30.776-55.073,46.009,30.469,8.111,30.469,8.111,67.022-.884,74.555-15.773S1414.229,537.92,1414.229,537.92Z" transform="translate(0 9.917)" fill="#fbb03b"/>
    <path id="Path_594" data-name="Path 594" d="M1421.362,524.012s-10.355-9.732-25.24,1.774-32.881,18.852-31.051,27.831,16.822,4.479,16.822,4.479,43.855-2.324,48.194-11.22S1421.362,524.012,1421.362,524.012Z" transform="translate(46.859)" fill="#bfda67"/>
    <path id="Path_595" data-name="Path 595" d="M1411.4,540.021s-9.012-6.81-20.674-.135-26.1,10.5-24.134,16.4,14.066,3.745,14.066,3.745,35.961.724,39.078-4.8S1411.4,540.021,1411.4,540.021Z" transform="translate(48.2 15.271)" fill="#bfda67"/>
    <rect id="Rectangle_279" data-name="Rectangle 279" width="2.956" height="43.354" transform="translate(1453.986 538.997) rotate(74.907)" fill="#92c432"/>
    <rect id="Rectangle_280" data-name="Rectangle 280" width="1.659" height="26.136" transform="translate(1415.028 571.742) rotate(-105.093)" fill="#92c432"/>
    <rect id="Rectangle_281" data-name="Rectangle 281" width="1.66" height="18.27" transform="translate(1445.319 542.918) rotate(-143.484)" fill="#92c432"/>
    <rect id="Rectangle_282" data-name="Rectangle 282" width="1.04" height="10.714" transform="translate(1437.757 553.057) rotate(136.698)" fill="#92c432"/>
    <rect id="Rectangle_283" data-name="Rectangle 283" width="1.04" height="10.714" transform="translate(1445.229 572.097) rotate(136.698)" fill="#92c432"/>
    <rect id="Rectangle_284" data-name="Rectangle 284" width="1.04" height="10.714" transform="matrix(0.62, 0.785, -0.785, 0.62, 1445.019, 557.921)" fill="#92c432"/>
  </g>
</svg>
