<svg id="Layer_1" data-name="Layer 1" xmlns="http://www.w3.org/2000/svg" xmlns:xlink="http://www.w3.org/1999/xlink" viewBox="0 0 164.36 135.73"><defs><style>.cls-1{fill:none;}.cls-2{fill:#898989;}.cls-3{fill:#58aad5;}.cls-4{fill:#2e668f;}.cls-5{fill:#222;}.cls-6{fill:#a96663;}.cls-7{fill:#fbed21;}.cls-8{clip-path:url(#clip-path);}.cls-9{fill:#d3a762;}.cls-10{clip-path:url(#clip-path-2);}.cls-11{fill:#90524f;}.cls-12{fill:#b4dd8b;}.cls-13{clip-path:url(#clip-path-3);}.cls-14{fill:#7f9f62;}</style><clipPath id="clip-path" transform="translate(-17.93 -32.65)"><path class="cls-1" d="M97.17,147.39l-24.45-3.78a3.47,3.47,0,0,0-1.66.17l-11.19,3.83a1,1,0,0,0-.6,1l-.11,9.82a1,1,0,0,0,.58,1l11,4.34a3.32,3.32,0,0,0,1.87.19l24.51-4.35a1,1,0,0,0,.72-1l.1-10.15A1,1,0,0,0,97.17,147.39Z"/></clipPath><clipPath id="clip-path-2" transform="translate(-17.93 -32.65)"><path class="cls-1" d="M54.3,111l-7.13,23.7a3.34,3.34,0,0,0-.06,1.66L49.35,148a1,1,0,0,0,.89.73L60,150.18a1,1,0,0,0,1.06-.44l5.81-10.25a3.36,3.36,0,0,0,.45-1.83l-.91-24.87a1,1,0,0,0-.9-.85l-10-1.52A1,1,0,0,0,54.3,111Z"/></clipPath><clipPath id="clip-path-3" transform="translate(-17.93 -32.65)"><path class="cls-1" d="M48.63,160.1l22.2-10.94a3.37,3.37,0,0,0,1.25-1.09l7-9.56a1,1,0,0,0-.07-1.15l-5.55-8.1a1,1,0,0,0-1-.48L61,131.52a3.38,3.38,0,0,0-1.64.91L41.71,150.06a1,1,0,0,0,0,1.24l5.74,8.37A1,1,0,0,0,48.63,160.1Z"/></clipPath></defs><title>etiskeklær</title><g id="Layer_2" data-name="Layer 2"><rect class="cls-2" x="121.71" y="32.84" width="7.68" height="7.43" transform="translate(70.72 129.35) rotate(-89.84)"/><rect class="cls-2" x="136.47" y="32.81" width="7.68" height="7.43" transform="translate(85.47 144.08) rotate(-89.84)"/><rect class="cls-2" x="151.24" y="32.79" width="7.68" height="7.43" transform="translate(100.22 158.83) rotate(-89.84)"/><path class="cls-3" d="M31.3,50V85.31h68.9a9.59,9.59,0,0,1,9.57,9.57v29h57.78V50A9.58,9.58,0,0,0,158,40.37H40.88A9.58,9.58,0,0,0,31.3,50Z" transform="translate(-17.93 -32.65)"/><rect class="cls-4" x="13.34" y="52.66" width="28.42" height="4.86"/><rect class="cls-5" x="21.06" y="57.52" width="12.98" height="4.86"/><rect class="cls-2" x="25.34" y="62.38" width="4" height="28.81"/><rect class="cls-4" x="149.59" y="55.09" width="4.67" height="20.06"/><rect class="cls-4" x="8.67" y="15.7" width="4.67" height="20.06"/><rect class="cls-4" x="149.59" y="15.7" width="4.67" height="11.05"/><rect class="cls-4" x="149.59" y="28.91" width="4.67" height="11.05"/><rect class="cls-4" y="91.19" width="164.36" height="13.8"/><path class="cls-5" d="M140.35,85.36a12.53,12.53,0,1,0,12.49,12.57h0A12.52,12.52,0,0,0,140.35,85.36Zm0,15.08a2.55,2.55,0,1,1,2.56-2.54,2.55,2.55,0,0,1-2.56,2.54h0Z" transform="translate(-17.93 -32.65)"/><rect class="cls-5" x="80.89" y="56.76" width="18.74" height="1.84" transform="translate(14.4 115.13) rotate(-89.84)"/><rect class="cls-5" x="76.2" y="15.41" width="1.84" height="18.74"/><rect class="cls-5" x="80.82" y="15.41" width="1.84" height="18.74"/><rect class="cls-5" x="94.76" y="56.8" width="18.74" height="1.84" transform="translate(28.19 129.04) rotate(-89.84)"/><rect class="cls-5" x="99.38" y="56.81" width="18.74" height="1.84" transform="matrix(0, -1, 1, 0, 32.78, 133.67)"/><rect class="cls-5" x="30.63" y="125.17" width="54.83" height="10.25" transform="translate(-97.22 136.15) rotate(-81.65)"/><path class="cls-6" d="M54.47,111.46l-7,23.72a3.34,3.34,0,0,0-.06,1.66l2.29,11.61a1,1,0,0,0,.89.73l9.72,1.43a1,1,0,0,0,1-.44l5.78-10.28a3.36,3.36,0,0,0,.44-1.83l-1-24.87a1,1,0,0,0-.9-.84l-10-1.48A1,1,0,0,0,54.47,111.46Z" transform="translate(-17.93 -32.65)"/><rect class="cls-5" x="73.87" y="125.37" width="10.25" height="54.83" transform="translate(-92.55 197.49) rotate(-89.39)"/><path class="cls-7" d="M97.18,146.71l-24.46-3.78a3.32,3.32,0,0,0-1.65.16l-11.19,3.84a1,1,0,0,0-.61,1l-.1,9.82a1,1,0,0,0,.57,1l11,4.33a3.41,3.41,0,0,0,1.87.2l24.51-4.35a1,1,0,0,0,.72-1L98,147.78A1,1,0,0,0,97.18,146.71Z" transform="translate(-17.93 -32.65)"/><g class="cls-8"><rect class="cls-9" x="44.44" y="152.48" width="29.3" height="0.81" transform="translate(-112.31 177.79) rotate(-89.43)"/><rect class="cls-9" x="46.22" y="152.87" width="29.3" height="0.81" transform="translate(-111.08 179.58) rotate(-89.29)"/><rect class="cls-9" x="47.88" y="152.9" width="29.3" height="0.81" transform="translate(-109.47 181.28) rotate(-89.29)"/><rect class="cls-9" x="49.53" y="152.91" width="29.3" height="0.81" transform="matrix(0.01, -1, 1, 0.01, -107.85, 182.94)"/><rect class="cls-9" x="51.19" y="152.93" width="29.3" height="0.81" transform="translate(-106.23 184.62) rotate(-89.29)"/><rect class="cls-9" x="52.85" y="152.96" width="29.3" height="0.81" transform="translate(-104.62 186.31) rotate(-89.29)"/><rect class="cls-9" x="54.5" y="152.97" width="29.3" height="0.81" transform="matrix(0.01, -1, 1, 0.01, -103, 187.97)"/><rect class="cls-9" x="56.16" y="152.99" width="29.3" height="0.81" transform="translate(-101.38 189.65) rotate(-89.29)"/><rect class="cls-9" x="57.81" y="153.02" width="29.3" height="0.81" transform="translate(-99.78 191.33) rotate(-89.29)"/><rect class="cls-9" x="59.47" y="153.03" width="29.3" height="0.81" transform="translate(-98.15 193) rotate(-89.29)"/><rect class="cls-9" x="61.12" y="153.05" width="29.3" height="0.81" transform="translate(-96.54 194.67) rotate(-89.29)"/><rect class="cls-9" x="62.78" y="153.08" width="29.3" height="0.81" transform="matrix(0.01, -1, 1, 0.01, -94.93, 196.36)"/><rect class="cls-9" x="64.44" y="153.09" width="29.3" height="0.81" transform="translate(-93.3 198.03) rotate(-89.29)"/><rect class="cls-9" x="66.09" y="153.11" width="29.3" height="0.81" transform="translate(-91.69 199.7) rotate(-89.29)"/><rect class="cls-9" x="67.75" y="153.14" width="29.3" height="0.81" transform="matrix(0.01, -1, 1, 0.01, -90.08, 201.39)"/><rect class="cls-9" x="69.41" y="153.15" width="29.3" height="0.81" transform="translate(-88.45 203.06) rotate(-89.29)"/><rect class="cls-9" x="71.08" y="153.17" width="29.3" height="0.81" transform="translate(-86.83 204.74) rotate(-89.29)"/><rect class="cls-9" x="72.73" y="153.21" width="29.3" height="0.81" transform="translate(-85.24 206.42) rotate(-89.29)"/><rect class="cls-9" x="74.39" y="153.22" width="29.3" height="0.81" transform="translate(-83.61 208.09) rotate(-89.29)"/><rect class="cls-9" x="76.05" y="153.24" width="29.3" height="0.81" transform="translate(-81.99 209.77) rotate(-89.29)"/><rect class="cls-9" x="77.7" y="153.27" width="29.3" height="0.81" transform="translate(-80.39 211.45) rotate(-89.29)"/><rect class="cls-9" x="79.36" y="153.28" width="29.3" height="0.81" transform="translate(-78.76 213.13) rotate(-89.29)"/><rect class="cls-9" x="81.01" y="153.3" width="29.3" height="0.81" transform="translate(-77.15 214.8) rotate(-89.29)"/><rect class="cls-9" x="82.67" y="153.33" width="29.3" height="0.81" transform="translate(-75.54 216.49) rotate(-89.29)"/></g><g class="cls-10"><rect class="cls-11" x="54.62" y="134.55" width="0.81" height="29.34" transform="translate(-118.68 148.61) rotate(-81.38)"/><rect class="cls-11" x="54.69" y="133.12" width="0.81" height="29.3" transform="translate(-117.22 147.31) rotate(-81.33)"/><rect class="cls-11" x="54.94" y="131.48" width="0.81" height="29.3" transform="translate(-115.39 146.16) rotate(-81.33)"/><rect class="cls-11" x="55.18" y="129.84" width="0.81" height="29.3" transform="translate(-113.56 145.01) rotate(-81.33)"/><rect class="cls-11" x="55.44" y="128.21" width="0.81" height="29.3" transform="translate(-111.73 143.88) rotate(-81.33)"/><rect class="cls-11" x="55.69" y="126.57" width="0.81" height="29.3" transform="translate(-109.9 142.73) rotate(-81.33)"/><rect class="cls-11" x="55.94" y="124.93" width="0.81" height="29.3" transform="translate(-108.06 141.59) rotate(-81.33)"/><rect class="cls-11" x="56.19" y="123.29" width="0.81" height="29.3" transform="translate(-106.23 140.44) rotate(-81.33)"/><rect class="cls-11" x="56.44" y="121.65" width="0.81" height="29.3" transform="translate(-104.4 139.29) rotate(-81.33)"/><rect class="cls-11" x="56.69" y="120.02" width="0.81" height="29.3" transform="translate(-102.57 138.16) rotate(-81.33)"/><rect class="cls-11" x="56.94" y="118.38" width="0.81" height="29.3" transform="translate(-100.74 137.01) rotate(-81.33)"/><rect class="cls-11" x="57.19" y="116.74" width="0.81" height="29.3" transform="translate(-98.91 135.86) rotate(-81.33)"/><rect class="cls-11" x="57.43" y="115.1" width="0.81" height="29.3" transform="translate(-97.08 134.71) rotate(-81.33)"/><rect class="cls-11" x="57.68" y="113.46" width="0.81" height="29.3" transform="translate(-95.25 133.57) rotate(-81.33)"/><rect class="cls-11" x="57.93" y="111.83" width="0.81" height="29.3" transform="translate(-93.42 132.43) rotate(-81.33)"/><rect class="cls-11" x="58.19" y="110.18" width="0.81" height="29.3" transform="translate(-91.58 131.29) rotate(-81.33)"/><rect class="cls-11" x="58.44" y="108.55" width="0.81" height="29.3" transform="translate(-89.75 130.15) rotate(-81.33)"/><rect class="cls-11" x="58.68" y="106.92" width="0.81" height="29.3" transform="translate(-87.93 129) rotate(-81.33)"/><rect class="cls-11" x="58.94" y="105.27" width="0.81" height="29.3" transform="translate(-86.08 127.86) rotate(-81.33)"/><rect class="cls-11" x="59.19" y="103.64" width="0.81" height="29.3" transform="translate(-84.26 126.72) rotate(-81.33)"/><rect class="cls-11" x="59.43" y="101.99" width="0.81" height="29.3" transform="translate(-82.42 125.56) rotate(-81.33)"/><rect class="cls-11" x="59.68" y="100.36" width="0.81" height="29.3" transform="translate(-80.6 124.42) rotate(-81.33)"/><rect class="cls-11" x="60.05" y="98.54" width="0.81" height="29.34" transform="translate(-78.46 123.37) rotate(-81.38)"/><rect class="cls-11" x="60.19" y="97.08" width="0.81" height="29.3" transform="translate(-76.92 122.14) rotate(-81.33)"/></g><rect class="cls-5" x="32.93" y="140.03" width="54.83" height="10.25" transform="translate(-89.74 27.38) rotate(-34.64)"/><path class="cls-12" d="M49,160.61l22.15-11a3.46,3.46,0,0,0,1.25-1.09l6.93-9.59a1,1,0,0,0-.07-1.15l-5.58-8.08a1.07,1.07,0,0,0-1.05-.48L61.18,132a3.48,3.48,0,0,0-1.64.92L42,150.59a1,1,0,0,0,0,1.24l5.77,8.36A1,1,0,0,0,49,160.61Z" transform="translate(-17.93 -32.65)"/><g class="cls-13"><rect class="cls-14" x="75.95" y="118.87" width="0.81" height="29.3" transform="translate(-79.91 33.62) rotate(-34.31)"/><rect class="cls-14" x="74.59" y="119.8" width="0.81" height="29.3" transform="translate(-80.67 33.01) rotate(-34.31)"/><rect class="cls-14" x="73.22" y="120.73" width="0.81" height="29.3" transform="translate(-81.43 32.4) rotate(-34.31)"/><rect class="cls-14" x="71.84" y="121.66" width="0.81" height="29.3" transform="translate(-82.2 31.79) rotate(-34.31)"/><rect class="cls-14" x="70.48" y="122.6" width="0.81" height="29.3" transform="translate(-82.96 31.18) rotate(-34.31)"/><rect class="cls-14" x="69.1" y="123.53" width="0.81" height="29.3" transform="translate(-83.73 30.57) rotate(-34.31)"/><rect class="cls-14" x="67.74" y="124.47" width="0.81" height="29.3" transform="translate(-84.49 29.97) rotate(-34.31)"/><rect class="cls-14" x="66.36" y="125.41" width="0.81" height="29.3" transform="translate(-85.26 29.35) rotate(-34.31)"/><rect class="cls-14" x="65" y="126.34" width="0.81" height="29.3" transform="translate(-86.02 28.75) rotate(-34.31)"/><rect class="cls-14" x="63.64" y="127.28" width="0.81" height="29.3" transform="translate(-86.79 28.14) rotate(-34.31)"/><rect class="cls-14" x="62.26" y="128.21" width="0.81" height="29.3" transform="translate(-87.55 27.53) rotate(-34.31)"/><rect class="cls-14" x="60.9" y="129.14" width="0.81" height="29.3" transform="translate(-88.32 26.93) rotate(-34.31)"/><rect class="cls-14" x="59.53" y="130.08" width="0.81" height="29.3" transform="translate(-89.08 26.31) rotate(-34.31)"/><rect class="cls-14" x="58.16" y="131.01" width="0.81" height="29.3" transform="translate(-89.84 25.7) rotate(-34.31)"/><rect class="cls-14" x="56.79" y="131.94" width="0.81" height="29.3" transform="translate(-90.6 25.1) rotate(-34.31)"/><rect class="cls-14" x="55.43" y="132.87" width="0.81" height="29.3" transform="translate(-91.37 24.49) rotate(-34.31)"/><rect class="cls-14" x="54.06" y="133.82" width="0.81" height="29.3" transform="translate(-92.14 23.88) rotate(-34.31)"/><rect class="cls-14" x="52.69" y="134.75" width="0.81" height="29.3" transform="translate(-92.9 23.27) rotate(-34.31)"/><rect class="cls-14" x="51.31" y="135.68" width="0.81" height="29.3" transform="translate(-93.67 22.66) rotate(-34.31)"/><rect class="cls-14" x="49.95" y="136.62" width="0.81" height="29.3" transform="translate(-94.43 22.05) rotate(-34.31)"/><rect class="cls-14" x="48.57" y="137.55" width="0.81" height="29.3" transform="translate(-95.2 21.44) rotate(-34.31)"/><rect class="cls-14" x="47.22" y="138.48" width="0.81" height="29.3" transform="translate(-95.96 20.84) rotate(-34.31)"/><rect class="cls-14" x="45.47" y="140.18" width="0.81" height="29.34" transform="translate(-96.69 19.49) rotate(-34.01)"/><rect class="cls-14" x="44.47" y="140.34" width="0.81" height="29.3" transform="translate(-97.49 19.61) rotate(-34.31)"/></g></g></svg>