<svg xmlns="http://www.w3.org/2000/svg" viewBox="0 0 212.03 233.3"><defs><style>.cls-1{fill:#4da1d0;}.cls-2{fill:#b4dd8b;}.cls-3{fill:#ffd17a;}</style></defs><g id="Layer_3" data-name="Layer 3"><circle class="cls-1" cx="118.16" cy="91.18" r="83.02"/><path class="cls-2" d="M105.83,165S81.15,155,74.45,155.92s-5.74-22.33-5.74-22.33,3-15.35-12.71-16.87,2.38-27.58,2.38-27.58S72.75,69.93,84,69.84s18-4.1,22.82,4.42-.67,24.88-.67,24.88-5.66,26.2-2.24,29.89,6.73,17.22,10.15,17.89S105.83,165,105.83,165Z"/><path class="cls-2" d="M111.46,40.8s16.18-8,16.82-9.29,23.91-2.49,28.76-1S169,40,163.1,46.86,149.13,58.94,145,59.5s-13,2.8-13,2.8a40,40,0,0,1-19.61,4.83c-11-.31-43-5.46-35-9.89A132.69,132.69,0,0,0,94.48,45.4S105.26,39.77,111.46,40.8Z"/><path class="cls-2" d="M114.89,90.3a21.72,21.72,0,0,1,11.45.75c5.72,2.15,10.48,3.52,14.09.19a35,35,0,0,1,19.34-9.48c9.76-1.43,18.31-3.55,20.73-.47s4,8.54-.35,12.72-12.74,12.15-12.93,13.23-13.91,11.64-17.94,13.52-4.93,4-10,.59-11.71,0-11.71,0-12.49,4.93-18.16-7.51S114.89,90.3,114.89,90.3Z"/><path class="cls-3" d="M10.85,194.82,22,211.47l13.18,13.67L74.56,185s1.1-2,4.68,0a43.36,43.36,0,0,0,8.25,3.2l23.25,4s-.42,1.24,4.26-.62,8.67-4.45,19.6-5.61,10.18-3.91,10.18-3.91L156,172.62a2.91,2.91,0,0,1,1.86-1.15c1.3-.27,2.68-.27,1.92-1.34s1.17-1.95,1.17-1.95,2.89-.36.55-2.59a10.28,10.28,0,0,0-4.4-2.66,13.42,13.42,0,0,0-7.22,2.31,16.78,16.78,0,0,0-4.88,1.6c-2.69,1.34-10.73,4.54-10.73,4.54s-.21.71-7.91,1.33-10.45,1.69-14.65-1.6a29.41,29.41,0,0,1-5.57-5.25l11.28-.89s5,.27,6.81-3.38,1.1-5,1.1-5-.07-2.14-3.3-2.58-10.87-.54-10.87-.54l-19.64-.8a40.53,40.53,0,0,0-8.25,1.07c-3.09.94-7.73,1.74-9.18,3.2S10.85,194.82,10.85,194.82Z"/></g></svg>