<svg id="Layer_1" data-name="Layer 1" xmlns="http://www.w3.org/2000/svg" viewBox="0 0 1223 1259"><defs><style>.cls-1{fill:#292929;}.cls-2{fill:#fff;}</style></defs><path class="cls-1" d="M810.3,778,833,630H691V534c0-40.49,19.83-80,83.44-80H839V328s-58.59-10-114.61-10C607.44,318,531,388.88,531,517.2V630H401V778H531v357.74a514.31,514.31,0,0,0,160,0V778Z"/><path class="cls-2" d="M611,118C328.23,118,99,347.23,99,630c0,255.55,187.23,467.37,432,505.78V778H401V630H531V517.2C531,388.88,607.44,318,724.39,318c56,0,114.61,10,114.61,10V454H774.44C710.83,454,691,493.47,691,534v96H833L810.3,778H691v357.78c244.77-38.41,432-250.23,432-505.78C1123,347.23,893.77,118,611,118Z"/></svg>