<svg xmlns="http://www.w3.org/2000/svg" xmlns:xlink="http://www.w3.org/1999/xlink" width="316.101" height="377.75" viewBox="0 0 316.101 377.75">
  <defs>
    <clipPath id="clip-path">
      <rect id="Rectangle_33" data-name="Rectangle 33" width="316.101" height="377.75" fill="none"/>
    </clipPath>
  </defs>
  <g id="fairtrade_logo" clip-path="url(#clip-path)">
    <path id="Path_5" data-name="Path 5" d="M205.368,38.319A15.359,15.359,0,1,1,220.7,22.959a15.359,15.359,0,0,1-15.331,15.359m0-28.832a13.487,13.487,0,1,0,13.459,13.473A13.487,13.487,0,0,0,205.368,9.486" transform="translate(77.481 3.1)" fill="#231f20"/>
    <path id="Path_6" data-name="Path 6" d="M196,11.92h8.968c4.716,0,5.631,3.477,5.631,5.012a4.223,4.223,0,0,1-2.816,4.224c1.408.648,2.238,1.2,2.238,4.505,0,2.59,0,3.224.8,3.534v.465h-4.1a11.544,11.544,0,0,1-.408-3.576c0-2.436-.141-3.365-2.886-3.365H199.66v6.941H196Zm7.982,7.813c1.929,0,2.816-.676,2.816-2.421,0-.943-.408-2.337-2.59-2.337H199.66v4.758Z" transform="translate(79.936 4.861)" fill="#231f20"/>
    <path id="Path_7" data-name="Path 7" d="M41.742,296.836,26.749,341.493h8.067l2.647-8.926h17.8l2.661,8.926h8.053L50.682,296.836ZM53.3,326.105H39.419l7.039-23.187,6.715,22.525Zm18.048,15.388h7.49V296.836h-7.49Zm40.56-18.443.282-.084a12.037,12.037,0,0,0,8.63-12.065,13.445,13.445,0,0,0-4.857-10.883c-3.857-3.111-7.757-3.125-13.853-3.182H88.032v44.657h7.49V324.6h8.447l9.038,16.894h8.644l-10.038-18.3Zm-2.337-5.8a11.685,11.685,0,0,1-4.913,1.112c-1.6,0-2.731.127-5.631.127H95.55V303.214h4.407c5.026,0,7.307,0,9.278,1.028a7.039,7.039,0,0,1,3.886,6.532h0a6.687,6.687,0,0,1-3.576,6.406M7.49,303.481H29.213v-6.645H0v44.657H7.49v-19.33H26.566v-6.335H7.49Zm262.547-3.2c-4.674-3.322-9.292-3.393-13.234-3.449H240.937v44.657h14.078c5.364-.07,10.038-.141,14.444-2.731,6.49-3.731,9.109-11.488,9.123-19.2,0-5.068-1.168-14.078-8.588-19.273M270.5,319.7c0,9.545-3.646,12.671-7.039,14.008-2.027.746-4.364,1.07-10.84,1.07h-4.1V303.608h5.012c5.73,0,7.236.141,9.855,1.281,6.617,3.2,7.25,10.432,7.25,14.74Zm45.558-16.218v-6.645H284.636v44.657h31.353v-6.715H292.056V321.572h21.962V315.18H292.056v-11.7Zm-192.7.127h12.333v37.885h7.56V303.608h12.671v-6.772H123.4Zm89.341-6.772-15.064,44.657H205.7l2.647-8.926h17.865l2.647,8.926h8.067l-15.247-44.657Zm-2.379,29.269,7.039-23.187,6.927,23.187Zm-25.341-3.069.282-.084a12,12,0,0,0,8.644-12.065,13.459,13.459,0,0,0-4.871-10.868c-3.843-3.111-7.743-3.125-13.839-3.182H161.113v44.657h7.49V324.6h8.447l9.066,16.894h8.63l-10.038-18.3Zm-2.323-5.786a11.727,11.727,0,0,1-4.913,1.112c-1.6.07-2.717.127-5.631.127h-3.477V303.214h4.435c5.026,0,7.293,0,9.264,1.028a7.039,7.039,0,0,1,3.886,6.518h0v.07h0a6.7,6.7,0,0,1-3.562,6.406M295.279,137.2A137.208,137.208,0,1,0,158.076,274.4,137.211,137.211,0,0,0,295.279,137.2" transform="translate(0 -0.008)" fill="#231f20"/>
    <path id="Path_8" data-name="Path 8" d="M228.456,214.829h0a126.072,126.072,0,0,0,29.565-81.26,124.412,124.412,0,0,0-7.926-43.854C233.2,43.256,186.967,8.68,134.652,8.68c-.929,0-3.407.07-3.407.07a109.812,109.812,0,0,0-27.439,4.505c-3.731,1.14-16.979,5.7-26.749,15.613A58.467,58.467,0,0,0,60.6,69.667c0,25.862,17.823,47.2,41.841,56.989,10.319,4.055,21.6,6.6,29.874,8.63,14.388,3.506,44.685,8.56,69.9,25.214l.971.634c15.768,10.756,25.341,26.566,25.341,52.217m-76.685-89.313a32.8,32.8,0,1,1,32.8-32.8,32.8,32.8,0,0,1-32.8,32.8" transform="translate(24.715 3.54)" fill="#00b9e3"/>
    <path id="Path_9" data-name="Path 9" d="M23.45,122.568A124.889,124.889,0,0,1,57.745,36.69a97.408,97.408,0,0,0-6.532,34.225c0,16.669,4.927,36.294,21.99,54.286l3.111,3.294c24.327,25.637,46.191,48.641,46.191,79.275,0,10.474-2.576,21.85-8.447,34.506A124.678,124.678,0,0,1,23.45,122.61" transform="translate(9.564 14.963)" fill="#c3d941"/>
    <path id="Path_10" data-name="Path 10" d="M137.7,267.878,124.453,246.69H119.4v29.973h5.476l-.338-21,13.121,21h4.885V246.69h-5.5Zm-23.553-11.629a9.067,9.067,0,0,0-3.308-7.433c-2.633-2.126-5.308-2.126-9.292-2.168H91.988V276.62h5.631V265.5h5l5.941,11.122h6.42L108.3,264.443a8.208,8.208,0,0,0,5.9-8.236m-10.939,4.575c-1.07,0-1.788.084-3.7.084h-2v-9.376h2.59c3.294,0,4.758,0,5.941.634a4.336,4.336,0,0,1,2.309,4.083c0,4.364-4.026,4.576-5.251,4.618m-32.7,2.816H84.921v-4.829H70.5v-7.039H86.286V246.76H64.972v29.973H87.286v-5.054H70.392Zm-39.9,4.238L17.288,246.69h-5.04v29.973h5.476l-.352-21,13.121,21h4.885V246.69H29.86ZM0,276.663H5.519V246.69H0Zm39.25-24.876H47.36v24.876h5.631V251.786h8.25v-5.1H39.25Zm238.966-5.1-10.108,29.973h6l1.746-5.857h11.263l1.732,5.857h5.983L284.608,246.69Zm-.873,19.245,4.223-13.811,4.1,13.811ZM156.185,246.69l-10.094,29.973h5.955l1.718-5.857h11.263l1.76,5.857h5.969L162.535,246.69Zm-.873,19.245,4.125-13.811,4.139,13.811Zm148.794,5.631V246.648h-5.631v30.015H316v-5.1Zm-44.347-3.688L246.512,246.69h-5.068v29.973h5.491l-.352-21,13.121,21h4.885V246.69h-5.547Zm-88.806-16.092h8.109v24.876h5.631V251.786h8.18v-5.1H170.939Zm25.777,24.876h5.519V246.69h-5.519ZM221.847,246c-8.18,0-14.388,6.617-14.388,15.8a16.486,16.486,0,0,0,4.012,11.122,12.67,12.67,0,0,0,10.291,4.59c9.235,0,14.4-7.18,14.444-15.754,0-10.235-6.927-15.754-14.36-15.754m.1,26.327c-4.97,0-8.715-4.04-8.715-10.784,0-6.251,3.449-10.4,8.574-10.4,5.9,0,8.94,5.392,8.8,11.263-.127,7.222-4.927,9.939-8.658,9.939" transform="translate(0 100.328)" fill="#939598"/>
  </g>
</svg>
