<svg xmlns="http://www.w3.org/2000/svg" xmlns:xlink="http://www.w3.org/1999/xlink" viewBox="0 0 210 210"><defs><style>.cls-1{fill:url(#linear-gradient);}.cls-2,.cls-4{fill:none;stroke:#00825c;stroke-miterlimit:10;}.cls-2{stroke-width:2px;}.cls-3{fill:#00825c;}.cls-4{stroke-width:3px;}</style><linearGradient id="linear-gradient" x1="53.25" y1="127.82" x2="157.47" y2="127.82" gradientUnits="userSpaceOnUse"><stop offset="0" stop-color="#22b473" stop-opacity="0.8"/><stop offset="0" stop-color="#36ae78" stop-opacity="0.81"/><stop offset="0.67" stop-color="#f375a3" stop-opacity="0.6"/><stop offset="1" stop-color="#fc96bb"/><stop offset="1" stop-color="#f1f1f1"/></linearGradient></defs><g id="Layer_4" data-name="Layer 4"><path class="cls-1" d="M81.11,91.89,54.55,147.17s-6.6,21.18,9.88,21.49,84.52-.28,84.52-.28,14.6-2.18,5.57-19.19-29-58.79-29-58.79-2.3-3.8-5.18-3.51-15.76,2.84-18.64,3.33S89.46,91.49,87,91.09A14.94,14.94,0,0,0,81.11,91.89Z"/><rect class="cls-2" x="81.75" y="25.16" width="46.5" height="20.25" rx="5.73"/><path class="cls-2" d="M89,73.62l-32.72,74s-7,21.68,9.81,22.49,77.31,0,77.31,0,12-.27,14.09-8,0-7.65-5.09-18.13c-5.43-11.19-32.72-70.36-32.72-70.36L118.43,45.4H90.61Z"/><path class="cls-3" d="M81.33,87.63l-1.91,4.63S83.23,95,92,93.74s8.15-.69,13.63-2.45,13.12-2,13.12-2a25.4,25.4,0,0,1,8,1.16l-2.53-5.79s-7.2-1.94-14,0S99.92,89.06,93.72,89A77.64,77.64,0,0,1,81.33,87.63Z"/><circle class="cls-4" cx="105" cy="105" r="100"/><rect class="cls-3" x="6.01" y="104.41" width="201.86" height="5.58" transform="translate(-44.27 99.24) rotate(-42.05)"/><circle class="cls-3" cx="123.53" cy="156.17" r="3.19"/><circle class="cls-3" cx="110.66" cy="133.12" r="5.3"/><circle class="cls-3" cx="78.71" cy="146.17" r="3.19"/><circle class="cls-3" cx="86.73" cy="114.11" r="3.19"/></g></svg>