<svg id="Layer_1" data-name="Layer 1" xmlns="http://www.w3.org/2000/svg" xmlns:xlink="http://www.w3.org/1999/xlink" viewBox="0 0 126.2 126.2"><defs><style>.cls-1{fill:url(#linear-gradient);}.cls-2,.cls-4{fill:none;stroke:#00825c;stroke-miterlimit:10;}.cls-2{stroke-width:2px;}.cls-3{fill:#00825c;}.cls-4{stroke-width:3px;}</style><linearGradient id="linear-gradient" x1="40.47" y1="54.25" x2="104.67" y2="54.25" gradientTransform="matrix(1, 0, 0, -1, 0, 133.89)" gradientUnits="userSpaceOnUse"><stop offset="0" stop-color="#22b473" stop-opacity="0.8"/><stop offset="0" stop-color="#36ae78" stop-opacity="0.81"/><stop offset="0.67" stop-color="#f375a3" stop-opacity="0.6"/><stop offset="1" stop-color="#fc96bb"/><stop offset="1" stop-color="#f1f1f1"/></linearGradient></defs><title>giftfri</title><g id="Layer_4" data-name="Layer 4"><path class="cls-1" d="M57.64,57.5,41.27,91.55s-4.06,13,6.09,13.24,52.07-.17,52.07-.17,9-1.35,3.42-11.83S85,56.58,85,56.58s-1.42-2.34-3.19-2.16-9.71,1.75-11.49,2a52.93,52.93,0,0,1-9.07.54A9.25,9.25,0,0,0,57.64,57.5Z" transform="translate(-9.25 -2.47)"/><rect class="cls-2" x="48.78" y="13.92" width="28.65" height="12.47" rx="5.73"/><path class="cls-2" d="M62.48,46.25,42.33,91.85s-4.29,13.35,6,13.86,47.62,0,47.62,0,7.42-.17,8.68-5,0-4.71-3.14-11.17c-3.34-6.89-20.15-43.33-20.15-43.33l-.76-17.39H63.49Z" transform="translate(-9.25 -2.47)"/><path class="cls-3" d="M57.77,54.87l-1.18,2.86s2.35,1.71,7.76.91,5-.43,8.4-1.51a34.54,34.54,0,0,1,8.08-1.2,15.39,15.39,0,0,1,4.9.71l-1.56-3.56a18.25,18.25,0,0,0-8.63,0c-4.2,1.2-6.32,2.67-10.14,2.62A47.74,47.74,0,0,1,57.77,54.87Z" transform="translate(-9.25 -2.47)"/><circle class="cls-4" cx="63.1" cy="63.1" r="61.6"/><rect class="cls-3" x="11.38" y="65.21" width="124.34" height="3.44" transform="matrix(0.74, -0.67, 0.67, 0.74, -35.14, 64.02)"/><circle class="cls-3" cx="74.51" cy="94.62" r="1.97"/><circle class="cls-3" cx="66.59" cy="80.42" r="3.27"/><circle class="cls-3" cx="46.91" cy="88.46" r="1.97"/><circle class="cls-3" cx="51.84" cy="68.72" r="1.97"/></g></svg>