<svg xmlns="http://www.w3.org/2000/svg" width="958" height="471.822" viewBox="0 0 958 471.822">
  <g id="Graf" transform="translate(-400 -7370)">
    <g id="Untitled-1" transform="translate(320.342 7116.668)">
      <g id="Group_47" data-name="Group 47" transform="translate(79.658 253.54)">
        <g id="Group_44" data-name="Group 44" transform="translate(0 0)">
          <text id="_0" data-name="0" transform="translate(75.621 467.614)" font-size="15" font-family="MuseoSans-500, Museo Sans" font-weight="500"><tspan x="-9.375" y="0">0</tspan></text>
          <text id="_2000000" data-name="2000000" transform="translate(73.328 376.519)" font-size="15" font-family="MuseoSans-500, Museo Sans" font-weight="500"><tspan x="-64.83" y="0">2000000</tspan></text>
          <text id="_4000000" data-name="4000000" transform="translate(73.328 285.422)" font-size="15" font-family="MuseoSans-500, Museo Sans" font-weight="500"><tspan x="-65.34" y="0">4000000</tspan></text>
          <text id="_6000000" data-name="6000000" transform="translate(73.328 194.327)" font-size="15" font-family="MuseoSans-500, Museo Sans" font-weight="500"><tspan x="-65.235" y="0">6000000</tspan></text>
          <text id="_8000000" data-name="8000000" transform="translate(73.328 103.232)" font-size="15" font-family="MuseoSans-500, Museo Sans" font-weight="500"><tspan x="-65.355" y="0">8000000</tspan></text>
          <text id="_10000000" data-name="10000000" transform="translate(73 13.792)" font-size="15" font-family="MuseoSans-500, Museo Sans" font-weight="500"><tspan x="-72.96" y="0">10000000</tspan></text>
        </g>
        <line id="Line_31" data-name="Line 31" y1="455.485" transform="translate(89.538 7.538)" fill="none" stroke="#000" stroke-miterlimit="10" stroke-width="1"/>
        <g id="Group_46" data-name="Group 46" transform="translate(89.538 7.538)">
          <g id="Group_45" data-name="Group 45">
            <line id="Line_32" data-name="Line 32" x2="15.607" transform="translate(0 455.485)" fill="none" stroke="#000" stroke-linecap="square" stroke-miterlimit="10" stroke-width="1"/>
            <line id="Line_33" data-name="Line 33" x2="15.607" transform="translate(0 364.408)" fill="none" stroke="#000" stroke-linecap="square" stroke-miterlimit="10" stroke-width="1"/>
            <line id="Line_34" data-name="Line 34" x2="15.607" transform="translate(0 273.332)" fill="none" stroke="#000" stroke-linecap="square" stroke-miterlimit="10" stroke-width="1"/>
            <line id="Line_35" data-name="Line 35" x2="15.607" transform="translate(0 182.153)" fill="none" stroke="#000" stroke-linecap="square" stroke-miterlimit="10" stroke-width="1"/>
            <line id="Line_36" data-name="Line 36" x2="15.607" transform="translate(0 91.077)" fill="none" stroke="#000" stroke-linecap="square" stroke-miterlimit="10" stroke-width="1"/>
            <line id="Line_37" data-name="Line 37" x2="15.607" fill="none" stroke="#000" stroke-linecap="square" stroke-miterlimit="10" stroke-width="1"/>
          </g>
        </g>
      </g>
      <g id="Group_52" data-name="Group 52" transform="translate(295.026 260.078)">
        <g id="Group_49" data-name="Group 49" transform="translate(285.242 -0.173)">
          <rect id="Rectangle_69" data-name="Rectangle 69" width="77.5" height="451.058" transform="translate(-10.11 5.6)" fill="#4da2d1"/>
        </g>
        <g id="Group_50" data-name="Group 50" transform="translate(60.632 32.892)">
          <rect id="Rectangle_71" data-name="Rectangle 71" width="77.5" height="423.593" fill="#df928e"/>
        </g>
      </g>
      <g id="Group_122" data-name="Group 122" transform="translate(-616.342 -7097.668)">
        <rect id="Rectangle_50" data-name="Rectangle 50" width="51.52" height="32.122" transform="translate(1488.274 7455)" fill="#df928e"/>
        <path id="Path_278" data-name="Path 278" d="M0,0H51.52V32.122H0Z" transform="translate(1488.274 7521)" fill="#4da2d1"/>
        <text id="Svin_og_fjørfe" data-name="Svin og fjørfe" transform="translate(1568 7475)" fill="#231815" font-size="14" font-family="MuseoSans-500, Museo Sans" font-weight="500"><tspan x="0" y="0">Svin og fjørfe</tspan></text>
        <text id="Sau_og_storfe" data-name="Sau og storfe" transform="translate(1568 7542)" fill="#231815" font-size="14" font-family="MuseoSans-500, Museo Sans" font-weight="500"><tspan x="0" y="0">Sau og storfe</tspan></text>
        <g id="肉" transform="translate(1487.725 7386.622)">
          <path id="Path_271" data-name="Path 271" d="M32.67,171.591c-.624,0-1.25-.022-1.881-.075a62.673,62.673,0,0,1-18.129-3.787,23.19,23.19,0,0,1-8.019-5.06,13.109,13.109,0,0,1-3.857-8.394A21.615,21.615,0,0,1,.6,149.614c.361-4.528,2.374-6.167,4-6.74a1.451,1.451,0,0,1,.445-.082h.042c1.4,0,3.2.834,5.511,2.542,1.217.9,2.224,1.79,2.664,2.184,1.042.33,5.275,1.493,7.944-.545a28.5,28.5,0,0,1,5.506-3.549,17.212,17.212,0,0,1,6.994-1.465,34.442,34.442,0,0,1,8.749.834c4.093,1,7.052,2.855,8.8,5.512,1.319,2.016.925,5.153.579,7.922-.638,5.065-2.456,8.55-5.72,10.966A22.6,22.6,0,0,1,32.67,171.591ZM5.3,145.6c-1.361.666-1.8,2.651-1.923,4.245a18.7,18.7,0,0,0,.162,4.04l.017.139a10.287,10.287,0,0,0,3.08,6.711,20.563,20.563,0,0,0,7.07,4.424,60.169,60.169,0,0,0,17.313,3.589,19.868,19.868,0,0,0,13.444-3.781c2.653-1.963,4.071-4.759,4.609-9.073.261-2.067.615-4.892-.144-6.056-1.343-2.049-3.74-3.51-7.121-4.337a31.828,31.828,0,0,0-8.037-.759c-4.945.105-7.353,1.755-10.874,4.448-4.273,3.264-10.577.96-10.844.862a1.332,1.332,0,0,1-.463-.289,32.614,32.614,0,0,0-2.658-2.2A9.457,9.457,0,0,0,5.3,145.6Z" transform="translate(0 -135.918)" fill="#df928e"/>
          <path id="Path_272" data-name="Path 272" d="M55.084,53.24s-.515-5.946,5.733-6.4a10.9,10.9,0,0,1,4.638,1.025s5.8,2.171,9.512-.666,6.358-4.62,11.679-4.725,15.4,2.64,16.716,12.708c.579,4.408-2.039,7.7-5.165,10.017a21.253,21.253,0,0,1-14.383,4.054c-9.778-.8-27.885-3.706-28.729-16.016Z" transform="translate(-52.678 -39.812)" fill="#eaf6df"/>
          <path id="Path_273" data-name="Path 273" d="M46.038,30.9c-.626,0-1.251-.024-1.883-.076A62.628,62.628,0,0,1,26.026,27.04a23.2,23.2,0,0,1-8.019-5.06,13.115,13.115,0,0,1-3.861-8.453,8.055,8.055,0,0,1,1.72-5.448,7.362,7.362,0,0,1,5.3-2.438c.028,0,.058-.006.086-.006a12.361,12.361,0,0,1,5.2,1.135c.555.191,5.251,1.713,8.13-.486a28.431,28.431,0,0,1,5.505-3.55,17.247,17.247,0,0,1,7-1.465A21.332,21.332,0,0,1,57.664,4,14.754,14.754,0,0,1,65.2,15.189a10.314,10.314,0,0,1-1.372,6.676A15.761,15.761,0,0,1,59.487,26.5a22.613,22.613,0,0,1-13.449,4.4ZM16.92,13.312v.018A10.277,10.277,0,0,0,20,20.04a20.536,20.536,0,0,0,7.07,4.424,60.157,60.157,0,0,0,17.311,3.589,19.868,19.868,0,0,0,13.444-3.781c3.481-2.576,5.032-5.512,4.616-8.72a11.9,11.9,0,0,0-6.174-9.148,18.633,18.633,0,0,0-9.136-2.35c-4.939.1-7.347,1.754-10.862,4.44-4.273,3.266-10.579.961-10.845.864a.71.71,0,0,1-.15-.069,9.564,9.564,0,0,0-3.892-.874h-.051A4.679,4.679,0,0,0,18,9.863a5.217,5.217,0,0,0-1.082,3.45Z" transform="translate(-13.124)" fill="#df928e"/>
          <path id="Path_274" data-name="Path 274" d="M136.292,259.727a3.238,3.238,0,0,0-1.831,4c.563,1.755,1.935,5.205,4.054,5.211,4.076.011,4.806-3.682,4.5-5.432s-4.238-3.93-5.651-3.982a2.78,2.78,0,0,0-1.077.208Zm10.833,4.03a5.51,5.51,0,0,0-2.877,1.894,5.055,5.055,0,0,0-1.17,5.222c.527,1.3,2.107,2.014,3.735,2.536,2.334.746,12.338,3.41,18.012,2.443s12.83-6.5,11.951-10.253c-.626-2.653-1.43-5.461-3.921-5.438-3.485.035-3.89,4.071-5.853,5.8-3.7,3.248-6.849,2.739-10.457,1.389-3.069-1.157-3.357-5.049-9.42-3.589Z" transform="translate(-129.224 -249.506)" fill="#df928e" opacity="0.5"/>
          <path id="Path_275" data-name="Path 275" d="M686.27,148.787a3.135,3.135,0,0,1-.051-5.176c1.794-1.251,5.019-3.167,7.087-3.4,4.093-.474,8.088.058,8.088,2.171s-1.985,5.262-3.561,7.058C695.3,152.331,689.455,150.9,686.27,148.787Z" transform="translate(-661.15 -134.079)" fill="#df928e" opacity="0.5"/>
        </g>
      </g>
      <g id="Group_43" data-name="Group 43" transform="translate(169.196 705.217)">
        <g id="Group_42" data-name="Group 42">
          <g id="Group_41" data-name="Group 41">
            <line id="Line_29" data-name="Line 29" y1="11.346" fill="none" stroke="#000" stroke-linecap="square" stroke-miterlimit="10" stroke-width="1"/>
            <line id="Line_30" data-name="Line 30" y1="11.346" transform="translate(662)" fill="none" stroke="#000" stroke-linecap="square" stroke-miterlimit="10" stroke-width="1"/>
          </g>
        </g>
        <path id="Path_414" data-name="Path 414" d="M0,0H662" transform="translate(0 11.346)" fill="none" stroke="#000" stroke-width="1"/>
      </g>
    </g>
    <path id="Path_279" data-name="Path 279" d="M0,0H662.373" transform="translate(491.512 7377.945)" fill="none" stroke="#333" stroke-width="1" opacity="0.1"/>
    <path id="Path_281" data-name="Path 281" d="M0,0H662.373" transform="translate(491.512 7468.945)" fill="none" stroke="#333" stroke-width="1" opacity="0.1"/>
    <path id="Path_282" data-name="Path 282" d="M0,0H662.373" transform="translate(491.512 7559.945)" fill="none" stroke="#333" stroke-width="1" opacity="0.1"/>
    <path id="Path_283" data-name="Path 283" d="M0,0H662.373" transform="translate(491.512 7650.945)" fill="none" stroke="#333" stroke-width="1" opacity="0.1"/>
    <path id="Path_284" data-name="Path 284" d="M0,0H662.373" transform="translate(489.512 7741.945)" fill="none" stroke="#333" stroke-width="1" opacity="0.1"/>
  </g>
</svg>
