<svg id="WEB_HJEMMSIDE_ILLUSTRASJON" data-name="WEB HJEMMSIDE ILLUSTRASJON" xmlns="http://www.w3.org/2000/svg" xmlns:xlink="http://www.w3.org/1999/xlink" width="1922.228" height="1028.903" viewBox="0 0 1922.228 1028.903">
  <defs>
    <linearGradient id="linear-gradient" x1="0.5" x2="0.5" y2="1" gradientUnits="objectBoundingBox">
      <stop offset="0" stop-color="#deeef6"/>
      <stop offset="0.034" stop-color="#deeef6"/>
      <stop offset="1" stop-color="#deeef6"/>
    </linearGradient>
    <linearGradient id="linear-gradient-2" x1="0.166" y1="-4.575" x2="0.166" y2="-4.576" xlink:href="#linear-gradient"/>
  </defs>
  <g id="Group_470" data-name="Group 470">
    <path id="Path_13" data-name="Path 13" d="M278,578.781l-280.228-35.7V964.768L1920,896.865v-98.82H1406.631L715.438,655.55Z" transform="translate(2.228 64.135)" fill="#b5de8c"/>
  </g>
  <g id="Group_469" data-name="Group 469" transform="translate(0.001)">
    <rect id="Rectangle_56" data-name="Rectangle 56" width="1922" height="817" transform="translate(0.227)" fill="url(#linear-gradient)"/>
    <g id="Group_255" data-name="Group 255" transform="translate(303.227 -4642)">
      <g id="Group_233" data-name="Group 233" transform="translate(-301 4757)">
        <rect id="Rectangle_209" data-name="Rectangle 209" width="1920" height="801" fill="url(#linear-gradient-2)"/>
        <path id="Path_425" data-name="Path 425" d="M-21.1,5269.849-301,5234.806v413.926l1920-66.654v-97H1157.912a515.4,515.4,0,0,1-102.344-10.264L415.834,5345.2Z" transform="translate(301 -4765.794)" fill="#b5de8c"/>
      </g>
      <path id="Path_596" data-name="Path 596" d="M1088.132,4882.257h223.611s-97.178-12.762-105.031-11.78c-5,.626-5.623-7.1-5.415-12.8a7.394,7.394,0,0,0-5.641-7.47c-5.475-1.328-13.246-2.9-17.41-2.3a34.664,34.664,0,0,0-11.779,3.927s-14.724-.982-16.687-4.909c-1.3-2.591-8.022-4.58-13.115-4.3a9.7,9.7,0,0,0-7.293,3.953,28.479,28.479,0,0,0-2.168,3.29c-.982,1.964-11.779,4.908-11.779,4.908s-3.927.981-5.89,7.853c-1.036,3.628-5.905,3.974-10.269,3.489a12.929,12.929,0,0,0-13.72,8.632,16.261,16.261,0,0,0-.8,3.855A3.4,3.4,0,0,0,1088.132,4882.257Z" transform="translate(-25.504 -1.575)" fill="#fff"/>
      <g id="Group_234" data-name="Group 234" transform="translate(993.968 4836.734)">
        <g id="Group_159" data-name="Group 159" transform="translate(0 0.241)">
          <path id="Path_383" data-name="Path 383" d="M1164.221,4957.373l-145.972,392.336h437.52L1309.8,4957.373C1285.055,4890.873,1188.963,4890.873,1164.221,4957.373Z" transform="translate(-1018.249 -4839.743)" fill="#326886"/>
          <path id="Path_384" data-name="Path 384" d="M1278.633,4884.066l-193.462,464.372h519.8l-193.463-464.372C1386.18,4823.276,1303.959,4823.276,1278.633,4884.066Z" transform="translate(-1019.481 -4838.474)" fill="#2a5973"/>
          <path id="Path_385" data-name="Path 385" d="M1304.484,5172.06l-52.452,157h251.848l-52.452-157C1427.857,5101.5,1328.055,5101.5,1304.484,5172.06Z" transform="translate(-1022.552 -4843.639)" fill="#4694be"/>
        </g>
        <path id="Path_388" data-name="Path 388" d="M1244,4976.508l34.811-88.273s17.407-48.921,66.723-49.986,71.558,40.414,71.558,40.414l33.281,90.319s-32.315-4.171-43.919-16.934-28.042-14.889-28.042-14.889l-14.505,22.334s-17.406,1.064-22.241-11.7c0,0-15.476,54.241-37.713,52.112S1244,4976.508,1244,4976.508Z" transform="translate(-1022.404 -4838.228)" fill="#fff"/>
      </g>
      <g id="Group_177" data-name="Group 177" transform="translate(1445.229 4774.911)">
        <g id="Group_169" data-name="Group 169">
          <circle id="Ellipse_48" data-name="Ellipse 48" cx="49.203" cy="49.203" r="49.203" fill="#fcee21"/>
          <circle id="Ellipse_49" data-name="Ellipse 49" cx="49.203" cy="49.203" r="49.203" transform="translate(9.014 7.512)" fill="#f7931e" opacity="0.23" style="isolation: isolate"/>
        </g>
      </g>
      <path id="Path_597" data-name="Path 597" d="M338,5330.632s311.166-86.694,403.435-83.7,155.092-37.868,377.914-11.958,307.239,3.985,511.411,63.775v190.329H1135.055Z" transform="translate(-11.761 -8.638)" fill="#72af90"/>
      <path id="Path_598" data-name="Path 598" d="M1641.931,5373s-215.048,40.607-332.528,40.607-369.382,27.059-364.4,37.21,178.229,40.956,178.229,40.956h518.7Z" transform="translate(-22.931 -11.336)" fill="#22816b"/>
      <path id="Path_599" data-name="Path 599" d="M-301,5243.753V5124s83.794-2.736,114.636,48.87c0,0,82.936-24.269,110.875-2.8s19.595,24.359,19.595,24.359,23.775-12.4,43.784.891,19.594,24.359,19.594,24.359,92.76-10.473,107.217,29.373-9.319,40.833-9.319,40.833-110.894-22.725-170.848-22.437S-292.816,5231.163-301,5243.753Z" transform="translate(0 -6.754)" fill="#fff" opacity="0.61"/>
      <g id="Group_170" data-name="Group 170" transform="translate(958.649 5165.534)">
        <path id="Path_401" data-name="Path 401" d="M1001.2,5211.1l-13.1,76.47,60.6-3.37-18.74-74.7C1022.527,5191.034,1006.549,5191.921,1001.2,5211.1Z" transform="translate(-982.374 -5173.617)" fill="#dbafae"/>
        <g id="Group_164" data-name="Group 164">
          <path id="Path_402" data-name="Path 402" d="M1045.911,5242.764l-23.709-22.139,5.53-6.453,23.709,22.139Z" transform="translate(-983.002 -5173.948)" fill="#824c4f"/>
          <path id="Path_403" data-name="Path 403" d="M1001.232,5226.009l28.35-33.081,1.566,1.461L1002.8,5227.47Z" transform="translate(-982.616 -5173.557)" fill="#824c4f"/>
          <path id="Path_404" data-name="Path 404" d="M1002.154,5194.657,1034,5224.392l-1.4,1.626-31.843-29.735Z" transform="translate(-982.607 -5173.588)" fill="#824c4f"/>
          <path id="Path_405" data-name="Path 405" d="M985,5239.293l21.109-24.63,6.212,5.8-21.109,24.63Z" transform="translate(-982.317 -5173.957)" fill="#824c4f"/>
          <path id="Path_406" data-name="Path 406" d="M1005.976,5204.839l-23.709-22.14,5.529-6.453,23.709,22.139Z" transform="translate(-982.267 -5173.249)" fill="#824c4f"/>
          <path id="Path_407" data-name="Path 407" d="M1021.307,5197.824l21.109-24.631,6.211,5.8-21.109,24.63Z" transform="translate(-982.986 -5173.193)" fill="#824c4f"/>
        </g>
        <rect id="Rectangle_197" data-name="Rectangle 197" width="13.742" height="18.65" transform="translate(29.831 86.785) rotate(-3.182)" fill="#4d4d4d"/>
        <path id="Path_408" data-name="Path 408" d="M1048.7,5285.72l-60.6,3.37,1.457-6.931,56.929-3.164Z" transform="translate(-982.374 -5175.141)" fill="#896157"/>
      </g>
      <path id="Path_600" data-name="Path 600" d="M85.169,4923.465H508.934s-184.161-26.341-199.043-24.315c-9.474,1.29-10.655-14.666-10.263-26.431.242-7.261-4.208-13.708-10.691-15.421-10.376-2.741-25.1-5.979-32.993-4.751a62.378,62.378,0,0,0-22.322,8.1s-27.9-2.026-31.624-10.13c-2.455-5.348-15.2-9.455-24.855-8.874a18.021,18.021,0,0,0-13.82,8.16,59.587,59.587,0,0,0-4.11,6.792c-1.86,4.052-22.322,10.131-22.322,10.131s-7.441,2.025-11.161,16.208c-1.965,7.49-11.191,8.2-19.462,7.2-11.388-1.374-22.412,5.967-26,17.819a36.207,36.207,0,0,0-1.509,7.959C78.475,4919.987,81.425,4923.465,85.169,4923.465Z" transform="translate(-6.989 -1.557)" fill="#fff"/>
      <path id="Path_601" data-name="Path 601" d="M1495.807,5016.464h146.549s16.44-32.455,4.713-30.429c-7.465,1.289,5.805-12.941,3.926-24.54-1.06-6.544-5.751-11.74-8.639-14.724-6.149-6.354-7.719-4.173-13.938-2.945-4.812.95-7.021,4.513-10.09,6.2a20.862,20.862,0,0,1-14.557,2.161c-6.437-1.425-14.241-4.066-15.9-8.667-1.935-5.349-11.98-9.454-19.586-8.873-4.333.331-8.329,3.319-10.89,8.16a64.716,64.716,0,0,0-3.239,6.792c-1.465,4.052-17.589,10.131-17.589,10.131s-5.864,2.026-8.8,16.209c-1.548,7.49-8.819,8.2-15.337,7.2-8.974-1.374-17.66,5.967-20.488,17.819a45.024,45.024,0,0,0-1.189,7.959C1490.531,5012.987,1492.855,5016.464,1495.807,5016.464Z" transform="translate(-32.977 -3.268)" fill="#fff"/>
      <path id="Path_392" data-name="Path 392" d="M-183.143,5207.957s-3.568,6.516-3.393,12.765a28.741,28.741,0,0,0,3.393,11.871,8.189,8.189,0,0,0,5.743,0c3.133-1.159,2.96-12.05,2.96-12.05s-1.392-17.584-3.568-18.745S-183.143,5207.957-183.143,5207.957Z" transform="translate(-2.107 -8.184)" fill="#679f9e"/>
      <g id="Group_235" data-name="Group 235" transform="translate(-228.206 5152.648)">
        <path id="Rectangle_193" data-name="Rectangle 193" d="M-167.914,5481.376h24.751v29.432a7.689,7.689,0,0,1-7.689,7.689h-9.373a7.689,7.689,0,0,1-7.689-7.689v-29.432Z" transform="translate(225.757 -5165.98)" fill="#473e2f"/>
        <path id="Path_393" data-name="Path 393" d="M-142.613,5418.274s-7.38,13.472-7.019,26.39,7.019,24.545,7.019,24.545a16.938,16.938,0,0,0,11.877,0c6.479-2.4,6.118-24.914,6.118-24.914s-2.879-36.354-7.378-38.755S-142.613,5418.274-142.613,5418.274Z" transform="translate(225.421 -5164.579)" fill="#369472"/>
        <path id="Path_391" data-name="Path 391" d="M-190.9,5224.83s-37.72,67.16-35.88,131.559,35.88,122.359,35.88,122.359,27.6,11.96,60.719,0,31.28-124.2,31.28-124.2-14.719-181.238-37.719-193.2S-190.9,5224.83-190.9,5224.83Z" transform="translate(226.841 -5160.066)" fill="#2d7a7b"/>
        <g id="Group_162" data-name="Group 162" transform="translate(113.257 178.116)">
          <path id="Rectangle_194" data-name="Rectangle 194" d="M-79.55,5515.521h13.4v13.664a6.437,6.437,0,0,1-6.437,6.438h-.526a6.437,6.437,0,0,1-6.437-6.438v-13.664Z" transform="translate(110.874 -5344.725)" fill="#473e2f"/>
          <path id="Path_394" data-name="Path 394" d="M-92,5376.594s-20.426,36.369-19.43,71.242S-92,5514.1-92,5514.1a48.021,48.021,0,0,0,32.881,0c17.935-6.477,16.938-67.257,16.938-67.257S-50.148,5348.7-62.6,5342.218-92,5376.594-92,5376.594Z" transform="translate(111.461 -5341.522)" fill="#4bb788"/>
          <path id="Path_395" data-name="Path 395" d="M-65.849,5481.351s-4,7.3-3.8,14.292a32.116,32.116,0,0,0,3.8,13.292,9.182,9.182,0,0,0,6.431,0c3.508-1.3,3.314-13.492,3.314-13.492s-1.56-19.687-4-20.986S-65.849,5481.351-65.849,5481.351Z" transform="translate(110.692 -5343.966)" fill="#369472"/>
        </g>
      </g>
      <g id="Group_236" data-name="Group 236" transform="translate(-45.367 5470.447)">
        <path id="Path_602" data-name="Path 602" d="M-38.689,5517.223l80.556,2.252s-4.354-20.527-11.142-16.459-13.8-2.658-13.882-6.583S4.719,5479.993.9,5484.982s-8.344,23.737-11.43,16.928-3.271-15.642-9.118-13.556S-38.689,5517.223-38.689,5517.223Z" transform="translate(40.539 -5483.825)" fill="#6fc081"/>
        <rect id="Rectangle_285" data-name="Rectangle 285" width="0.982" height="12.761" transform="translate(33.013 20.628) rotate(48.766)" fill="#369472"/>
        <rect id="Rectangle_286" data-name="Rectangle 286" width="0.982" height="12.761" transform="translate(46.767 22.638) rotate(125.696)" fill="#369472"/>
        <rect id="Rectangle_287" data-name="Rectangle 287" width="1" height="32" transform="translate(45.367 3.553)" fill="#369472"/>
        <rect id="Rectangle_288" data-name="Rectangle 288" height="14" transform="translate(74.367 21.553)" fill="#369472"/>
        <rect id="Rectangle_289" data-name="Rectangle 289" width="0.982" height="12.761" transform="translate(64.297 25.805) rotate(-54.304)" fill="#369472"/>
        <path id="Path_603" data-name="Path 603" d="M-38.047,5518s-12.809,12.273,19.259,9.267,60.25-7.3,60.25-7.3Z" transform="translate(40.574 -5484.453)" fill="#369472"/>
      </g>
      <g id="Group_237" data-name="Group 237" transform="translate(297.773 5288.665)">
        <path id="Path_604" data-name="Path 604" d="M321.8,5352.433l129.769,3.63s-7.014-33.068-17.948-26.514-22.232-4.283-22.364-10.607-19.53-26.481-25.689-18.444-13.44,38.237-18.413,27.269-5.268-25.2-14.689-21.837S321.8,5352.433,321.8,5352.433Z" transform="translate(-309.236 -5298.633)" fill="#6fc081"/>
        <rect id="Rectangle_290" data-name="Rectangle 290" width="1.581" height="20.557" transform="translate(48.439 33.484)" fill="#369472"/>
        <rect id="Rectangle_291" data-name="Rectangle 291" width="1.581" height="20.557" transform="translate(62.764 33.23) rotate(48.766)" fill="#369472"/>
        <rect id="Rectangle_292" data-name="Rectangle 292" width="1.581" height="20.557" transform="translate(84.92 36.467) rotate(125.696)" fill="#369472"/>
        <rect id="Rectangle_293" data-name="Rectangle 293" width="1.581" height="50.601" transform="translate(83.228 5.021)" fill="#369472"/>
        <rect id="Rectangle_294" data-name="Rectangle 294" width="1.581" height="20.557" transform="translate(129.085 36.646)" fill="#369472"/>
        <rect id="Rectangle_295" data-name="Rectangle 295" width="1.581" height="20.557" transform="translate(113.16 41.569) rotate(-54.304)" fill="#369472"/>
        <path id="Path_605" data-name="Path 605" d="M323.377,5353.4s-41.807,23.731,17.162,17.919,110.792-14.113,110.792-14.113Z" transform="translate(-309 -5299.641)" fill="#369472"/>
      </g>
      <path id="Rectangle_193-2" data-name="Rectangle 193" d="M1576.888,5448.349h29.49v35.068a9.161,9.161,0,0,1-9.161,9.161h-11.168a9.161,9.161,0,0,1-9.161-9.161v-35.068Z" transform="translate(-34.562 -12.724)" fill="#473e2f"/>
      <path id="Path_393-2" data-name="Path 393" d="M1607.033,5373.165s-8.792,16.051-8.362,31.443,8.362,29.245,8.362,29.245a20.194,20.194,0,0,0,14.152,0c7.72-2.858,7.29-29.684,7.29-29.684s-3.431-43.317-8.791-46.177S1607.033,5373.165,1607.033,5373.165Z" transform="translate(-34.963 -11.054)" fill="#369472"/>
      <path id="Path_391-2" data-name="Path 391" d="M1541.505,5139.681s-44.942,80.02-42.75,156.75,42.75,145.788,42.75,145.788,32.884,14.25,72.346,0,37.269-147.98,37.269-147.98-17.538-215.941-44.942-230.19S1541.505,5139.681,1541.505,5139.681Z" transform="translate(-33.123 -5.622)" fill="#2e8a7d"/>
      <path id="Path_395-2" data-name="Path 395" d="M1572.869,5246.133s-4.761,8.692-4.53,17.029,4.53,15.836,4.53,15.836a10.927,10.927,0,0,0,7.664,0c4.18-1.548,3.948-16.075,3.948-16.075s-1.858-23.458-4.761-25.006S1572.869,5246.133,1572.869,5246.133Z" transform="translate(-34.405 -8.848)" fill="#369472"/>
      <path id="Path_395-3" data-name="Path 395" d="M1618.145,5396.26s-4.761,8.692-4.53,17.027,4.53,15.837,4.53,15.837a10.944,10.944,0,0,0,7.664,0c4.18-1.548,3.948-16.075,3.948-16.075s-1.858-23.458-4.761-25.006S1618.145,5396.26,1618.145,5396.26Z" transform="translate(-35.238 -11.611)" fill="#369472"/>
      <g id="Group_238" data-name="Group 238" transform="translate(1440.406 5309.381)">
        <path id="Rectangle_194-2" data-name="Rectangle 194" d="M1504.968,5493.736h13.4V5507.4a6.438,6.438,0,0,1-6.438,6.437h-.526a6.437,6.437,0,0,1-6.437-6.437v-13.665Z" transform="translate(-1473.644 -5322.94)" fill="#473e2f"/>
        <path id="Path_394-2" data-name="Path 394" d="M1492.522,5354.809s-20.426,36.37-19.429,71.243,19.429,66.26,19.429,66.26a48.021,48.021,0,0,0,32.882,0c17.935-6.477,16.938-67.256,16.938-67.256s-7.972-98.146-20.426-104.622S1492.522,5354.809,1492.522,5354.809Z" transform="translate(-1473.057 -5319.737)" fill="#4bb788"/>
        <path id="Path_395-4" data-name="Path 395" d="M1518.668,5459.567s-4,7.295-3.8,14.291a32.132,32.132,0,0,0,3.8,13.292,9.168,9.168,0,0,0,6.432,0c3.508-1.3,3.313-13.492,3.313-13.492s-1.559-19.687-3.995-20.986S1518.668,5459.567,1518.668,5459.567Z" transform="translate(-1473.826 -5322.181)" fill="#369472"/>
      </g>
      <g id="Group_239" data-name="Group 239" transform="translate(-260.755 5024.709)">
        <path id="Path_606" data-name="Path 606" d="M-243.313,5046.682c-2.793-10.531-9.713-18.537-16.687-16.687" transform="translate(260 -5029.729)" fill="none" stroke="#006837" stroke-miterlimit="10" stroke-width="2"/>
        <path id="Path_607" data-name="Path 607" d="M-219.451,5031.983c-5-3.412-15.764,3.674-24.068,15.843" transform="translate(259.697 -5029.754)" fill="none" stroke="#006837" stroke-miterlimit="10" stroke-width="2"/>
      </g>
      <g id="Group_240" data-name="Group 240" transform="translate(-80.799 5126.253)">
        <path id="Path_608" data-name="Path 608" d="M-59.983,5150.13c-2.793-10.53-9.713-18.536-16.687-16.687" transform="translate(76.67 -5133.177)" fill="none" stroke="#006837" stroke-miterlimit="10" stroke-width="2"/>
        <path id="Path_609" data-name="Path 609" d="M-36.121,5135.432c-5-3.412-15.764,3.673-24.068,15.842" transform="translate(76.367 -5133.202)" fill="none" stroke="#006837" stroke-miterlimit="10" stroke-width="2"/>
      </g>
    </g>
  </g>
</svg>
