<svg id="Layer_1" data-name="Layer 1" xmlns="http://www.w3.org/2000/svg" viewBox="0 0 1223 1259"><defs><style>.cls-1{fill:#fff;}.cls-2{fill:#292929;}</style></defs><circle class="cls-1" cx="620" cy="630" r="509"/><path class="cls-2" d="M620.06,401.85c74.21,0,83,.28,112.31,1.62,27.1,1.23,41.82,5.76,51.61,9.57a92,92,0,0,1,52.75,52.75c3.81,9.79,8.33,24.51,9.57,51.61,1.34,29.3,1.62,38.09,1.62,112.31s-.28,83-1.62,112.31c-1.24,27.1-5.76,41.81-9.57,51.61A92,92,0,0,1,784,846.38c-9.79,3.8-24.51,8.33-51.61,9.57-29.3,1.33-38.09,1.62-112.31,1.62s-83-.29-112.31-1.62c-27.1-1.24-41.82-5.77-51.61-9.57a92,92,0,0,1-52.75-52.75c-3.81-9.8-8.33-24.51-9.57-51.61-1.34-29.31-1.62-38.1-1.62-112.31s.28-83,1.62-112.31c1.24-27.1,5.76-41.82,9.57-51.61A92,92,0,0,1,456.14,413c9.79-3.81,24.51-8.34,51.61-9.57,29.31-1.34,38.1-1.62,112.31-1.62m0-50.08c-75.48,0-84.95.32-114.59,1.67s-49.79,6.05-67.47,12.92a142.14,142.14,0,0,0-81.29,81.29c-6.87,17.67-11.57,37.88-12.92,67.46s-1.67,39.11-1.67,114.6.32,84.95,1.67,114.59,6,49.79,12.92,67.47A142.14,142.14,0,0,0,438,893.06c17.68,6.87,37.88,11.57,67.47,12.92s39.11,1.67,114.59,1.67,85-.32,114.59-1.67,49.79-6.05,67.47-12.92a142.14,142.14,0,0,0,81.29-81.29c6.87-17.68,11.57-37.88,12.92-67.47S898,705.19,898,629.71s-.32-85-1.67-114.6-6.05-49.79-12.92-67.46a142.14,142.14,0,0,0-81.29-81.29c-17.68-6.87-37.88-11.57-67.47-12.92s-39.11-1.67-114.59-1.67Z"/><path class="cls-2" d="M620.06,487A142.73,142.73,0,1,0,762.79,629.71,142.73,142.73,0,0,0,620.06,487Zm0,235.37a92.65,92.65,0,1,1,92.65-92.64A92.65,92.65,0,0,1,620.06,722.35Z"/><circle class="cls-2" cx="768.42" cy="481.34" r="33.35"/></svg>