<svg id="Layer_1" data-name="Layer 1" xmlns="http://www.w3.org/2000/svg" viewBox="0 0 1280 1024"><defs><style>.cls-1,.cls-17,.cls-5,.cls-7{fill:none;}.cls-2{fill:#027373;}.cls-3{fill:#f7cb9f;}.cls-4,.cls-8{fill:#e78151;}.cls-12,.cls-5,.cls-6{stroke:#000;}.cls-17,.cls-7{stroke:#4d4d4d;}.cls-8{opacity:0.8;}.cls-9{fill:#333;}.cls-10{fill:#4d4d4d;}.cls-11{fill:#e0928e;}.cls-12{stroke-width:2px;}.cls-13{fill:#d5c0b8;}.cls-14{fill:#a4725c;}.cls-15{fill:#feedd0;}.cls-16{fill:#ccc;}.cls-17{stroke-miterlimit:10;}.cls-18{fill:#666;}</style></defs><path class="cls-1" d="M319,186l16,5s3-11,9-13,21-12,21-12,12-10,6-23-36-7-36-7l-9,4,3,17s17-11,20-8,2,6,2,6-18,10-19,11S319,178,319,186Z"/><path class="cls-2" d="M299,654.49l84.69,93.37c24.69,27.23,65.52,30.38,93.67,7,44.33-36.8,112.14-81.71,169.53-71.27,86.92,15.81,325.93-6.39,363-10a67.16,67.16,0,0,0,10.71-1.92c36.25-9.6,229.85-70.38,246.79-277.63C1283.86,193,944.58,58.74,862.29,29.21a134,134,0,0,0-34.78-7.47l-79-6.16c-31.3-2.45-60.28,17.2-70.62,47.88L640.79,173.57c-15.91,47.19,18.52,96.34,66.79,95.31,91.34-1.94,213.38,3.18,223.93,43.45a139.57,139.57,0,0,1,4.09,23.05c3.71,41.2-27.81,76.75-67.78,77.5-87.4,1.65-273.24,5.7-289.06,10.69-16.9,5.33-180.34,49.08-272.92,126.15C274.49,575.82,271.45,624.13,299,654.49Z"/><ellipse class="cls-2" cx="177.51" cy="811.67" rx="127.82" ry="167.57" transform="translate(-604.33 530.52) rotate(-57.89)"/><path class="cls-3" d="M539.59,648.22l56.91-46.16V412.87H770.44V606.6l35.81,34.81c10.14,12-27.58,77.67-119.58,74.92C583.38,713.24,528,654.35,539.59,648.22Z"/><path class="cls-3" d="M489.83,297.05c-.92-26.69,12.48-35.49,31.88-33,17.47,2.26,31.87,14.77,31.87,33s-14.51,30-31.87,33C499.22,334,490.76,323.75,489.83,297.05Z"/><path class="cls-4" d="M865.56,292.64c.93,26.7-12.47,35.5-31.87,33-17.47-2.25-31.88-14.77-31.88-33s14.52-30,31.88-33C856.17,255.74,864.63,265.94,865.56,292.64Z"/><path class="cls-5" d="M843.28,275.56a5.33,5.33,0,0,0-5.1,3.25,5.68,5.68,0,0,0,1.23,6.07c1.16,1.11,2.75,1.64,3.85,2.8a7.79,7.79,0,0,1,1.6,2.92,12,12,0,0,1,.07,8,7,7,0,0,1-6,4.64,5.2,5.2,0,0,1-5.2-5"/><path class="cls-5" d="M513,288.86a5.34,5.34,0,0,0-5.1,3.25,5.67,5.67,0,0,0,1.24,6.07c1.15,1.11,2.74,1.64,3.85,2.8a7.91,7.91,0,0,1,1.59,2.92,12,12,0,0,1,.08,8.05,7,7,0,0,1-6,4.64,5.2,5.2,0,0,1-5.2-5"/><path class="cls-5" d="M503.76,291.41c0-3.07,10.2-5.55,22.82-5.55"/><path class="cls-3" d="M828.46,337.38c-10.81,53.87-26.69,94.73-49.17,122.94,0,0,0,0,0,0-25.49,32-59.47,47.68-104.2,47.69-35.14,0-62.13-10-83.84-29.92-30.31-27.75-50.3-74.79-67.79-140.66a313.7,313.7,0,0,1-9-47.39C502.7,179.77,567.86,122.87,675.91,124.65c94,1.52,153.9,38.44,159.66,129.22C837.1,277.84,834.84,305.56,828.46,337.38Z"/><rect class="cls-4" x="637.47" y="295.66" width="93.8" height="29.53" rx="10.5" transform="translate(994.79 -373.94) rotate(90)"/><path class="cls-6" d="M605.73,247.28s29.53,9.63,38-22.68"/><path class="cls-5" d="M836.71,277c0-2.44,8.1-4.41,18.12-4.41"/><path class="cls-6" d="M714.26,246.13s23-13.18,43.66,2.19"/><path class="cls-7" d="M691.08,540s-22.82,6.95-16.11,22.23,16.11,22.23,16.11,22.23"/><ellipse class="cls-8" cx="579.67" cy="339.93" rx="34.9" ry="36.12"/><ellipse class="cls-4" cx="786.38" cy="330.21" rx="34.9" ry="36.12"/><path class="cls-9" d="M662.89,398.28s22.32,20.14,28.19,0"/><path class="cls-4" d="M661.55,434.4s14.76-43.06,57.71,0"/><path class="cls-10" d="M779.28,460.34c-23.18,41.83-56.9,62.05-104.81,63.87-36.49,1.39-61.39-14.05-83.23-46.1C613,498,639.94,508,675.08,508,719.81,508,753.79,492.3,779.28,460.34Z"/><path class="cls-9" d="M519.28,270.44c16.55,4.56,50.72-.33,23.57-43l13.17,6s35.13-21.94-30.73-29.91c0,0,26.34-33.91,48.3-33.91,0,0,0,19.95,8.78,19.95s22-17.95,22-17.95v23.93s35.12,27.92,109.77,21.94l-26.34-17.95,52.69,17.95h52.69v14l17.56-8h4.39v29.92l17.57,6s22-55.84,17.56-63.82S815.09,153.66,780,147.67v-4h43.91s-70.26-25.92-118.56-23.93l26.35-16s-105.39-2-127.34,25.92v4s-13.18-6-39.52-2,17.56,10,17.56,10-83.43,31.91-79,49.86l-5.45,39a11.17,11.17,0,0,0,1.52,7.35Z"/><path class="cls-11" d="M1094.59,1004.4V829.15a62.69,62.69,0,0,0-12.3-37.46A171.16,171.16,0,0,0,980.5,726.55c-83.22-18.06-174-86.54-174-86.54l1.73,363.69-.39-362.3s-10.74,45.84-118.11,50-151.68-50-151.68-50l.46,361.89V641.43s-89,66.65-172.26,84.71a171.23,171.23,0,0,0-101.95,65.34,62.09,62.09,0,0,0-12.14,37V1004"/><path class="cls-12" d="M750.14,271.17c-1.16,9.51-6.31,17.36-14.1,17.36S722,280.76,722,271.17s12-7.44,18.79-3.48C748.88,272.46,750.61,267.27,750.14,271.17Z"/><ellipse class="cls-12" cx="637.39" cy="280.89" rx="14.76" ry="15.98"/><ellipse class="cls-3" cx="632.02" cy="269.08" rx="14.76" ry="9.72"/><path class="cls-13" d="M872.27,857.55l68.19-19.83s18.28-15.19-1.37-57.81S898.37,740,898.37,740l-60.79,42.34s-8.48,4.19,1.08,41S872.27,857.55,872.27,857.55Z"/><path class="cls-13" d="M872.13,857.62s9.16-12.25-7.51-45.73-24.3-31.69-24.3-31.69c-4.26,3.21-9.82,17.59-2,44.08C847.23,854.35,863.85,855.28,872.13,857.62Z"/><path class="cls-14" d="M907.42,723.14s-23,5.82-27.31,39.32,10.06,61.17,10.06,61.17,11.5,24.76,35.94,24.76,33-48.06,33-48.06,1.44-20.39-1.43-27.67-11.5-30.59-24.44-40.78S907.42,723.14,907.42,723.14Z"/><path class="cls-15" d="M929.72,758.43a3.63,3.63,0,0,1-1.4-1c-1.22-1.37-1.17-3.27.63-4.88s3.8-1.53,5.14,0a3.34,3.34,0,0,1,.79,1.37l-.72.36a2.72,2.72,0,0,0-.64-1.18c-1-1.14-2.51-1.17-3.95.12S928,755.8,929,757a3,3,0,0,0,1.14.82Z"/><path class="cls-15" d="M936,761.77c-2.14,1.35-4,.91-4.88-.49s-.29-3.28,1.59-4.47,3.94-1,4.87.5S937.83,760.61,936,761.77Zm-2.8-4.21c-1.32.84-2.11,2.22-1.4,3.35s2.28,1,3.69.13c1.24-.78,2.16-2.16,1.42-3.35S934.56,756.7,933.19,757.56Z"/><path class="cls-15" d="M939.75,761.3l1.58,3.14-.71.35-1.2-2.38-2.18,1.1,1.11,2.2-.7.35-1.11-2.2-3,1.49-.38-.75Z"/><path class="cls-15" d="M942,765.81l1.39,3.22-.73.32-1.06-2.45-2.24,1,1,2.26-.72.32-1-2.26-3,1.32-.34-.77Z"/><path class="cls-15" d="M941.46,774.89l-.91-2.36-2.48,1,1,2.64-.75.28L937,773l6.86-2.64,1.26,3.28-.74.29-1-2.5-2.17.84.91,2.36Z"/><path class="cls-15" d="M943.06,779.42l-.84-2.39-2.5.88.94,2.66-.75.27-1.22-3.45,6.92-2.45,1.17,3.31-.74.27-.9-2.52-2.18.77.84,2.39Z"/><path class="cls-15" d="M941,788a3.91,3.91,0,0,1-.47-1.69c-.13-1.84,1.08-3.31,3.48-3.47s4,1.1,4.1,3.12a3.35,3.35,0,0,1-.22,1.57l-.79-.15a2.8,2.8,0,0,0,.21-1.34c-.1-1.52-1.28-2.45-3.2-2.32s-2.88,1.12-2.77,2.7a2.91,2.91,0,0,0,.4,1.35Z"/><path class="cls-15" d="M943,790l-2.3-.68v-.87l7.34,2.24v1l-7.35,2.2V793l2.31-.69Zm.74,2.14,2.11-.63c.48-.14.92-.24,1.34-.33v0l-1.32-.33-2.12-.65Z"/><path class="cls-15" d="M948,795.22a9,9,0,0,1,0,1.62,2.5,2.5,0,0,1-.73,1.79,2.13,2.13,0,0,1-1.57.47,2.32,2.32,0,0,1-1.53-.6,2.49,2.49,0,0,1-.68-2,2.63,2.63,0,0,1,.1-.67l-2.93-.18.05-.84Zm-3.59.62a2.14,2.14,0,0,0-.12.69,1.46,1.46,0,0,0,1.46,1.73,1.35,1.35,0,0,0,1.53-1.44,3.14,3.14,0,0,0,0-.8Z"/><path class="cls-15" d="M941.32,799.72a2.74,2.74,0,0,0-.8,1.37,1.22,1.22,0,0,0,.93,1.6c.67.15,1.13-.1,1.69-.87a2.24,2.24,0,0,1,2.41-1.23,2,2,0,0,1,1.48,2.49,2.69,2.69,0,0,1-.66,1.33l-.71-.4a2.31,2.31,0,0,0,.61-1.13,1.09,1.09,0,0,0-.8-1.43c-.67-.16-1.09.16-1.67.95a2.22,2.22,0,0,1-2.47,1.15,2.06,2.06,0,0,1-1.56-2.69,3.11,3.11,0,0,1,.82-1.52Z"/><path class="cls-15" d="M946,807l-4.18-1.2c-1.58-.46-2.43,0-2.67.8s.25,1.73,1.81,2.18l4.17,1.2-.23.82-4.11-1.19c-2.17-.63-2.77-1.89-2.38-3.25s1.48-2,3.67-1.37l4.15,1.2Z"/><path class="cls-15" d="M944.27,812.5l-.29.79L937.83,811l-1,2.61-.75-.27,1.25-3.4Z"/><path class="cls-15" d="M937.52,818.63l1.06-2.3-2.41-1.11L935,817.79l-.72-.34,1.53-3.32,6.67,3.07L941,820.4l-.72-.34,1.12-2.43-2.11-1-1.06,2.3Z"/><path class="cls-15" d="M902.62,815.25a3.55,3.55,0,0,1,1.26,1.22c1,1.51.74,3.39-1.25,4.75s-4,1-5.11-.63a3.14,3.14,0,0,1-.6-1.46l.75-.27a2.92,2.92,0,0,0,.49,1.26c.86,1.26,2.34,1.48,3.94.39s1.92-2.43,1-3.74a3.08,3.08,0,0,0-1-1Z"/><path class="cls-15" d="M896.81,811.11c2.31-1,4.09-.35,4.78,1.16s-.16,3.29-2.19,4.21-4,.42-4.76-1.16S894.83,812,896.81,811.11Zm2.2,4.56c1.43-.65,2.4-1.92,1.85-3.12s-2.12-1.33-3.64-.64c-1.33.6-2.44,1.85-1.86,3.12S897.54,816.34,899,815.67Z"/><path class="cls-15" d="M893,811l-1.1-3.33.75-.25.85,2.53,2.31-.77-.78-2.34.75-.25.78,2.34,3.15-1.05.27.8Z"/><path class="cls-15" d="M891.51,806.24l-.91-3.39.76-.2.7,2.57,2.36-.64-.64-2.37.75-.21.64,2.38,3.22-.87.22.81Z"/><path class="cls-15" d="M893.37,797.27l.52,2.48,2.6-.55-.59-2.76.78-.17.76,3.59-7.19,1.51-.73-3.44.78-.17.55,2.62,2.28-.47-.53-2.48Z"/><path class="cls-15" d="M892.61,792.49,893,795l2.62-.4-.43-2.79.79-.12.55,3.62-7.26,1.12-.53-3.48.79-.12.4,2.64,2.29-.35-.38-2.5Z"/><path class="cls-15" d="M895.12,784.19a3.75,3.75,0,0,1,.46,1.69c.11,1.83-1.11,3.29-3.52,3.44s-3.93-1.14-4.06-3.16a3.23,3.23,0,0,1,.23-1.56l.79.15a2.79,2.79,0,0,0-.22,1.34c.09,1.52,1.25,2.46,3.18,2.35s2.89-1.1,2.79-2.68a2.91,2.91,0,0,0-.39-1.35Z"/><path class="cls-15" d="M893.05,782.14l2.3.71v.87L888,781.4v-1l7.38-2.11,0,.9-2.32.66Zm-.71-2.15-2.12.61c-.48.14-.92.23-1.35.32v0c.44.1.88.21,1.33.35l2.11.67Z"/><path class="cls-15" d="M888.27,776.77a9.77,9.77,0,0,1,0-1.62,2.49,2.49,0,0,1,.78-1.76,2.11,2.11,0,0,1,1.58-.43,2.38,2.38,0,0,1,1.52.65,2.56,2.56,0,0,1,.62,2.06,2.85,2.85,0,0,1-.13.66l2.93.28-.08.84Zm3.61-.51a2.6,2.6,0,0,0,.14-.68,1.46,1.46,0,0,0-1.41-1.77A1.35,1.35,0,0,0,889,775.2a3.27,3.27,0,0,0,0,.8Z"/><path class="cls-15" d="M894.85,772.4a2.71,2.71,0,0,0,.75-1.39,1.23,1.23,0,0,0-1-1.57c-.68-.12-1.13.15-1.66.95a2.25,2.25,0,0,1-2.36,1.32,2,2,0,0,1-1.58-2.43,2.78,2.78,0,0,1,.61-1.36l.72.37a2.42,2.42,0,0,0-.57,1.16,1.1,1.1,0,0,0,.87,1.4c.67.12,1.08-.21,1.62-1a2.25,2.25,0,0,1,2.43-1.25,2.07,2.07,0,0,1,1.67,2.63,3.1,3.1,0,0,1-.76,1.55Z"/><path class="cls-15" d="M890.1,765l4.14,1.31c1.57.5,2.43.09,2.69-.74s-.2-1.72-1.75-2.22L891,762.05l.26-.81,4.08,1.29c2.15.69,2.72,2,2.29,3.32s-1.52,2-3.7,1.28l-4.12-1.31Z"/><path class="cls-15" d="M892.2,759.12l.37-.75,5.88,2.9,1.23-2.5.71.35-1.6,3.25Z"/><path class="cls-15" d="M899.88,753.82l-1.46,2.07,2.16,1.53,1.63-2.31.65.46-2.11,3-6-4.24,2-2.88.65.46-1.54,2.19,1.9,1.34,1.46-2.07Z"/><path class="cls-16" d="M404.2,728.32s-16.47,3.95-16.47,15.82,61.38,21.52,61.38,21.52c2.14,3,122.35-9.73,86.21-28.64C504.4,720.84,404.2,728.32,404.2,728.32Z"/><line class="cls-17" x1="402.71" y1="729.96" x2="414.44" y2="764.34"/><line class="cls-17" x1="408.57" y1="729.96" x2="420.3" y2="764.34"/><line class="cls-17" x1="414.44" y1="729.96" x2="426.16" y2="764.34"/><line class="cls-17" x1="420.3" y1="729.96" x2="432.02" y2="764.34"/><line class="cls-17" x1="426.16" y1="729.96" x2="437.88" y2="764.34"/><line class="cls-17" x1="432.02" y1="729.96" x2="443.74" y2="764.34"/><line class="cls-17" x1="437.88" y1="729.96" x2="449.61" y2="764.34"/><line class="cls-17" x1="443.74" y1="729.96" x2="455.47" y2="764.34"/><line class="cls-17" x1="449.61" y1="729.96" x2="461.33" y2="764.34"/><line class="cls-17" x1="455.47" y1="729.96" x2="467.19" y2="764.34"/><line class="cls-17" x1="461.33" y1="729.96" x2="473.05" y2="764.34"/><line class="cls-17" x1="467.19" y1="729.96" x2="478.91" y2="764.34"/><line class="cls-17" x1="473.05" y1="729.96" x2="484.78" y2="764.34"/><line class="cls-17" x1="478.91" y1="729.96" x2="490.64" y2="764.34"/><line class="cls-17" x1="484.78" y1="729.96" x2="496.5" y2="764.34"/><line class="cls-17" x1="490.64" y1="729.96" x2="502.36" y2="764.34"/><line class="cls-17" x1="496.5" y1="729.96" x2="508.22" y2="764.34"/><line class="cls-17" x1="502.36" y1="729.96" x2="514.08" y2="764.34"/><line class="cls-17" x1="508.22" y1="729.96" x2="519.95" y2="764.34"/><path class="cls-18" d="M387.73,745.13l45.59,99.09h67.74l41-99.09S516,765.35,465.24,762,387.73,745.13,387.73,745.13Z"/><path d="M367.83,883.12s34.94,83,36,120.86h-9.6s-13.21-86.33-24-105.16Z"/><path class="cls-3" d="M430.68,1004s31.84-85.37,4.83-87.93S351,882.91,351,882.91l-62.28-66.48s-12-9.31,12-6.65,33.53,22.6,33.53,22.6-4.79-34.57-14.37-37.23c0,0,4.79-10.64,16.77-1.33S370.17,843,370.17,843s-16.77-34.57-14.38-35.9c0,0,0-13.3,14.38-2.66,0,0,9.58,31.91,14.37,33.24l9.58,16-9.58-27.93s2.4-12,12-1.33L415.68,863s84.16,18.79,90,34,23.18,96.39,13.6,107Z"/><path d="M991.78,883.12s-28.69,83-29.57,120.86h7.88s10.85-86.33,19.72-105.16Z"/><path class="cls-3" d="M913.89,1004s-30.77-79.78-4.95-82.25,80.79-32.07,80.79-32.07l59.55-64.33s11.45-9-11.46-6.43-32.06,21.87-32.06,21.87,4.58-33.45,13.74-36c0,0-4.58-10.29-16-1.29s-32.06,47.61-32.06,47.61,16-33.46,13.74-34.74c0,0,0-12.87-13.74-2.58,0,0-9.17,30.88-13.75,32.17l-9.16,15.44,9.16-27s-2.29-11.58-11.45-1.29l-18.32,37.32s-80.45,18.17-86,32.89S818.82,993.69,828,1004Z"/></svg>