<svg id="Layer_1" data-name="Layer 1" xmlns="http://www.w3.org/2000/svg" viewBox="0 0 1280 1024"><defs><style>.cls-1{fill:#027373;}.cls-2{fill:#f7cb9f;}.cls-3,.cls-7{fill:#e78151;}.cls-16,.cls-18,.cls-4,.cls-6{fill:none;}.cls-11,.cls-4,.cls-5{stroke:#000;}.cls-16,.cls-6{stroke:#4d4d4d;}.cls-7{opacity:0.8;}.cls-8{fill:#333;}.cls-9{fill:#4d4d4d;}.cls-10{fill:#e0928e;}.cls-11{stroke-width:2px;}.cls-12{fill:#d5c0b8;}.cls-13{fill:#a4725c;}.cls-14{font-size:7.85px;fill:#feedd0;font-family:MyriadPro-Regular, Myriad Pro;}.cls-15{fill:#ccc;}.cls-16{stroke-miterlimit:10;}.cls-17{fill:#666;}</style></defs><path class="cls-1" d="M371.88,485.42,435,552.64a51.54,51.54,0,0,0,69.79,5c33-26.49,83.55-58.82,126.3-51.3,64.76,11.38,242.83-4.6,270.48-7.19a51.3,51.3,0,0,0,8-1.38c27-6.91,171.25-50.66,183.87-199.84C1105.64,153.22,852.87,56.59,791.56,35.33A102.58,102.58,0,0,0,765.65,30L706.8,25.52A51.6,51.6,0,0,0,654.19,60l-27.66,79.27a51.61,51.61,0,0,0,49.77,68.61c68.05-1.4,159,2.28,166.83,31.27a98.12,98.12,0,0,1,3,16.59c2.76,29.66-20.72,55.25-50.5,55.79-65.12,1.18-203.57,4.1-215.36,7.69C567.73,323,446,354.54,377,410A51.55,51.55,0,0,0,371.88,485.42Z"/><ellipse class="cls-1" cx="281.37" cy="598.57" rx="92.83" ry="123.74" transform="translate(-378.6 555.13) rotate(-61.06)"/><path class="cls-2" d="M551.14,480.91l42.4-33.23V311.5H723.12V451L749.8,476c7.56,8.66-20.54,55.91-89.09,53.93C583.76,527.72,542.48,485.32,551.14,480.91Z"/><path class="cls-2" d="M514.07,228.13c-.69-19.21,9.29-25.55,23.74-23.74,13,1.62,23.75,10.63,23.75,23.74s-10.81,21.57-23.75,23.75C521.06,254.7,514.76,247.35,514.07,228.13Z"/><path class="cls-3" d="M794,225c.69,19.21-9.29,25.55-23.74,23.75-13-1.63-23.75-10.64-23.75-23.75s10.81-21.57,23.75-23.75C787,198.39,793.3,205.74,794,225Z"/><path class="cls-4" d="M777.39,212.66a3.88,3.88,0,0,0-2.88,6.71c.86.8,2,1.18,2.87,2a5.41,5.41,0,0,1,1.19,2.1,8.36,8.36,0,0,1,.06,5.79,5.23,5.23,0,0,1-4.49,3.34,3.82,3.82,0,0,1-3.88-3.61"/><path class="cls-4" d="M531.34,222.24a3.87,3.87,0,0,0-2.88,6.71c.85.79,2,1.18,2.86,2a5.49,5.49,0,0,1,1.19,2.1,8.39,8.39,0,0,1,.06,5.8,5.19,5.19,0,0,1-4.49,3.33,3.81,3.81,0,0,1-3.87-3.61"/><path class="cls-4" d="M524.44,224.07c0-2.21,7.6-4,17-4"/><path class="cls-2" d="M766.35,257.16c-8.05,38.78-19.88,68.19-36.63,88.5h0c-19,23-44.3,34.32-77.63,34.33-26.18,0-46.29-7.2-62.46-21.54-22.58-20-37.48-53.83-50.51-101.25a219.58,219.58,0,0,1-6.69-34.11C523.65,143.71,572.2,102.75,652.7,104c70.06,1.1,114.66,27.67,118.95,93C772.79,214.3,771.11,234.26,766.35,257.16Z"/><rect class="cls-3" x="625.24" y="226.76" width="67.52" height="22" rx="10.5" transform="translate(896.76 -421.24) rotate(90)"/><path class="cls-5" d="M600.41,192.3s22,6.94,28.33-16.32"/><path class="cls-4" d="M772.5,213.68c0-1.76,6-3.18,13.5-3.18"/><path class="cls-5" d="M681.27,191.48s17.18-9.49,32.53,1.57"/><path class="cls-6" d="M664,403s-17,5-12,16,12,16,12,16"/><circle class="cls-7" cx="581" cy="259" r="26"/><circle class="cls-3" cx="735" cy="252" r="26"/><path class="cls-8" d="M643,301s16.62,14.5,21,0"/><path class="cls-3" d="M642,327s11-31,43,0"/><path class="cls-9" d="M729.71,345.67c-17.27,30.11-42.39,44.67-78.08,46-27.19,1-45.74-10.12-62-33.19C605.79,372.8,625.9,380,652.08,380,685.41,380,710.72,368.68,729.71,345.67Z"/><path class="cls-8" d="M536,209c12.33,3.29,37.79-.23,17.56-30.94l9.81,4.31s26.17-15.79-22.9-21.54c0,0,19.63-24.4,36-24.4,0,0,0,14.35,6.54,14.35s16.36-12.92,16.36-12.92v17.23s26.17,20.1,81.78,15.79l-19.63-12.92,39.26,12.92H740V180.9l13.08-5.74h3.28v21.53L769.48,201s16.36-40.2,13.09-45.94-26.17-30.15-52.35-34.45v-2.88h32.72s-52.34-18.66-88.33-17.22L694.24,89s-78.52-1.43-94.87,18.67v2.87s-9.82-4.31-29.45-1.44S583,116.3,583,116.3s-62.16,23-58.89,35.89l-4.06,28.09a7.87,7.87,0,0,0,1.13,5.29Z"/><path class="cls-10" d="M964.63,737.3V611.15a44.1,44.1,0,0,0-9.16-27C943.72,569,919.9,545.74,879.63,537.3,817.63,524.3,750,475,750,475l1.29,261.8L751,476s-8,33-88,36-113-36-113-36l.34,260.5V476S484,524,422,537c-40.4,8.47-64.25,31.81-75.95,47A43.66,43.66,0,0,0,337,610.67V737"/><path class="cls-11" d="M708,209.5c-.86,6.85-4.7,12.5-10.5,12.5S687,216.4,687,209.5s9-5.35,14-2.5C707.06,210.43,708.35,206.69,708,209.5Z"/><ellipse class="cls-11" cx="624" cy="216.5" rx="11" ry="11.5"/><ellipse class="cls-2" cx="620" cy="208" rx="11" ry="7"/><path class="cls-12" d="M799,631.59l50.81-14.27s13.62-10.93-1-41.62S818.44,547,818.44,547l-45.29,30.47s-6.32,3,.8,29.54S799,631.59,799,631.59Z"/><path class="cls-12" d="M798.89,631.64s6.82-8.81-5.6-32.92-18.1-22.81-18.1-22.81c-3.18,2.31-7.31,12.66-1.48,31.73C780.34,629.29,792.72,630,798.89,631.64Z"/><path class="cls-13" d="M825.18,534.84s-17.13,4.19-20.34,28.31,7.49,44,7.49,44S820.9,625,839.1,625s24.63-34.6,24.63-34.6,1.07-14.67-1.07-19.92-8.57-22-18.2-29.35S825.18,534.84,825.18,534.84Z"/><text class="cls-14" transform="matrix(0.62, 0.68, -0.74, 0.68, 839.04, 557.5)">C</text><text class="cls-14" transform="matrix(0.5, 0.77, -0.84, 0.54, 841.63, 560.28)">O</text><text class="cls-14" transform="translate(844.21 564.34) rotate(62.71) scale(0.92 1)">F</text><text class="cls-14" transform="translate(845.78 567.4) rotate(66.03) scale(0.92 1)">F</text><text class="cls-14" transform="translate(847.18 570.54) rotate(68.51) scale(0.92 1)">E</text><text class="cls-14" transform="matrix(0.31, 0.86, -0.94, 0.33, 848.46, 573.78)">E</text><text class="cls-14" transform="translate(849.52 576.91) rotate(80.39) scale(0.92 1)"> </text><text class="cls-14" transform="translate(849.8 578.25) rotate(86.72) scale(0.92 1)">C</text><text class="cls-14" transform="translate(850.02 582.37) rotate(90.79) scale(0.92 1)">A</text><text class="cls-14" transform="matrix(-0.13, 0.91, -0.99, -0.14, 850.11, 586.59)">P</text><text class="cls-14" transform="translate(849.51 590.24) rotate(103.95) scale(0.92 1)">S</text><text class="cls-14" transform="matrix(-0.28, 0.87, -0.95, -0.3, 848.7, 593.6)">U</text><text class="cls-14" transform="translate(847.31 597.93) rotate(112.37) scale(0.92 1)">L</text><text class="cls-14" transform="translate(846.08 600.95) rotate(117.77) scale(0.92 1)">E</text><text class="cls-14" transform="translate(838.71 557.76) rotate(43.18) scale(0.92 1)"> </text><text class="cls-14" transform="translate(839.74 558.72) rotate(47.95) scale(0.92 1)"> </text><text class="cls-14" transform="translate(840.71 559.79) rotate(51.83) scale(0.92 1)"> </text><text class="cls-14" transform="matrix(0.53, 0.75, -0.82, 0.57, 841.61, 560.93)"> </text><text class="cls-14" transform="matrix(0.49, 0.78, -0.84, 0.53, 842.45, 562.13)"> </text><text class="cls-14" transform="translate(843.23 563.36) rotate(59.88) scale(0.92 1)"> </text><text class="cls-14" transform="translate(843.97 564.65) rotate(61.8) scale(0.92 1)"> </text><text class="cls-14" transform="matrix(0.41, 0.82, -0.89, 0.45, 844.68, 565.97)"> </text><text class="cls-14" transform="matrix(0.39, 0.83, -0.91, 0.42, 845.34, 567.29)"> </text><text class="cls-14" transform="matrix(0.37, 0.84, -0.92, 0.4, 845.97, 568.63)"> </text><text class="cls-14" transform="translate(846.58 570.02) rotate(67.38) scale(0.92 1)"> </text><text class="cls-14" transform="translate(847.15 571.4) rotate(68.38) scale(0.92 1)"> </text><text class="cls-14" transform="translate(847.71 572.8) rotate(69.25) scale(0.92 1)"> </text><text class="cls-14" transform="translate(848.25 574.22) rotate(69.84) scale(0.92 1)"> </text><text class="cls-14" transform="matrix(0.27, 0.88, -0.96, 0.29, 848.77, 575.57)"> </text><text class="cls-14" transform="translate(849.18 576.87) rotate(79.7) scale(0.92 1)"> </text><text class="cls-14" transform="translate(849.42 578.25) rotate(84.11) scale(0.92 1)"> </text><text class="cls-14" transform="matrix(0.05, 0.92, -1, 0.06, 849.57, 579.72)"> </text><text class="cls-14" transform="translate(849.65 581.18) rotate(88.53) scale(0.92 1)"> </text><text class="cls-14" transform="translate(849.68 582.7) rotate(89.86) scale(0.92 1)"> </text><text class="cls-14" transform="matrix(-0.02, 0.92, -1, -0.02, 849.69, 584.2)"> </text><text class="cls-14" transform="matrix(-0.03, 0.92, -1, -0.03, 849.66, 585.68)"> </text><text class="cls-14" transform="translate(849.64 587.14) rotate(95.08) scale(0.92 1)"> </text><text class="cls-14" transform="translate(849.55 588.51) rotate(100.83) scale(0.92 1)"> </text><text class="cls-14" transform="translate(849.26 589.99) rotate(102.65) scale(0.92 1)"> </text><text class="cls-14" transform="translate(848.94 591.44) rotate(104.03) scale(0.92 1)"> </text><text class="cls-14" transform="matrix(-0.24, 0.88, -0.96, -0.27, 848.58, 592.87)"> </text><text class="cls-14" transform="translate(848.18 594.32) rotate(106.82) scale(0.92 1)"> </text><text class="cls-14" transform="matrix(-0.29, 0.87, -0.95, -0.31, 847.75, 595.73)"> </text><text class="cls-14" transform="matrix(-0.31, 0.86, -0.94, -0.34, 847.28, 597.16)"> </text><text class="cls-14" transform="matrix(-0.34, 0.85, -0.93, -0.37, 846.77, 598.56)"> </text><text class="cls-14" transform="matrix(-0.37, 0.84, -0.91, -0.41, 846.23, 599.93)"> </text><text class="cls-14" transform="matrix(-0.41, 0.82, -0.9, -0.44, 845.64, 601.25)"> </text><text class="cls-14" transform="translate(844.99 602.57) rotate(119.13) scale(0.92 1)"> </text><text class="cls-14" transform="translate(844.29 603.84) rotate(122.46) scale(0.92 1)"> </text><text class="cls-14" transform="translate(843.53 605.04) rotate(126.39) scale(0.92 1)"> </text><text class="cls-14" transform="translate(842.7 606.17) rotate(131.21) scale(0.92 1)"> </text><text class="cls-14" transform="translate(841.79 607.23) rotate(137.13) scale(0.92 1)"> </text><text class="cls-14" transform="matrix(-0.74, 0.54, -0.58, -0.81, 840.81, 608.16)"> </text><text class="cls-14" transform="matrix(-0.82, 0.42, -0.46, -0.89, 839.74, 608.95)"> </text><text class="cls-14" transform="translate(838.6 609.56) rotate(162.43) scale(0.92 1)"> </text><text class="cls-14" transform="translate(837.4 609.96) rotate(172.63) scale(0.92 1)"> </text><text class="cls-14" transform="translate(836.12 610.13) rotate(-178.41) scale(0.92 1)"> </text><text class="cls-14" transform="translate(834.7 610.1) rotate(-172.46) scale(0.92 1)"> </text><text class="cls-14" transform="translate(833.33 609.93) rotate(-166.5) scale(0.92 1)"> </text><text class="cls-14" transform="matrix(-0.87, -0.3, 0.33, -0.94, 832, 609.62)"> </text><text class="cls-14" transform="translate(830.69 609.17) rotate(-155.03) scale(0.92 1)"> </text><text class="cls-14" transform="translate(829.4 608.57) rotate(-149.53) scale(0.92 1)"> </text><text class="cls-14" transform="translate(828.2 607.87) rotate(-144.56) scale(0.92 1)"> </text><text class="cls-14" transform="matrix(-0.7, -0.59, 0.64, -0.76, 827.04, 607.05)"> </text><text class="cls-14" transform="translate(825.95 606.13) rotate(-135.61) scale(0.92 1)"> </text><text class="cls-14" transform="translate(824.92 605.13) rotate(-131.68) scale(0.92 1)"> </text><text class="cls-14" transform="translate(823.97 604.06) rotate(-128.1) scale(0.92 1)"> </text><text class="cls-14" transform="translate(823.06 603.03) rotate(-121.74) scale(0.92 1)">C</text><text class="cls-14" transform="translate(821.03 599.82) rotate(-111.94) scale(0.92 1)">O</text><text class="cls-14" transform="translate(819.25 595.31) rotate(-107.17) scale(0.92 1)">F</text><text class="cls-14" transform="translate(818.24 592.05) rotate(-103.77) scale(0.92 1)">F</text><text class="cls-14" transform="translate(817.42 588.72) rotate(-100.36) scale(0.92 1)">E</text><text class="cls-14" transform="matrix(-0.11, -0.91, 0.99, -0.12, 816.8, 585.34)">E</text><text class="cls-14" transform="matrix(-0.07, -0.91, 1, -0.07, 816.41, 581.87)"> </text><text class="cls-14" transform="matrix(-0.02, -0.92, 1, -0.02, 816.26, 580.41)">C</text><text class="cls-14" transform="translate(816.16 576.33) rotate(-86.34) scale(0.92 1)">A</text><text class="cls-14" transform="translate(816.43 572.06) rotate(-80.96) scale(0.92 1)">P</text><text class="cls-14" transform="translate(817 568.42) rotate(-74.48) scale(0.92 1)">S</text><text class="cls-14" transform="translate(817.83 565.18) rotate(-65.71) scale(0.92 1)">U</text><text class="cls-14" transform="matrix(0.52, -0.75, 0.82, 0.57, 819.67, 561.17)">L</text><text class="cls-14" transform="translate(821.44 558.56) rotate(-45.13) scale(0.92 1)">E</text><path class="cls-15" d="M450.27,538.57S438,541.42,438,550s45.73,15.49,45.73,15.49c1.59,2.19,91.15-7,64.23-20.62C524.92,533.19,450.27,538.57,450.27,538.57Z"/><line class="cls-16" x1="449.16" y1="539.75" x2="457.89" y2="564.5"/><line class="cls-16" x1="453.53" y1="539.75" x2="462.26" y2="564.5"/><line class="cls-16" x1="457.89" y1="539.75" x2="466.63" y2="564.5"/><line class="cls-16" x1="462.26" y1="539.75" x2="471" y2="564.5"/><line class="cls-16" x1="466.63" y1="539.75" x2="475.36" y2="564.5"/><line class="cls-16" x1="471" y1="539.75" x2="479.73" y2="564.5"/><line class="cls-16" x1="475.36" y1="539.75" x2="484.1" y2="564.5"/><line class="cls-16" x1="479.73" y1="539.75" x2="488.46" y2="564.5"/><line class="cls-16" x1="484.1" y1="539.75" x2="492.83" y2="564.5"/><line class="cls-16" x1="488.46" y1="539.75" x2="497.2" y2="564.5"/><line class="cls-16" x1="492.83" y1="539.75" x2="501.57" y2="564.5"/><line class="cls-16" x1="497.2" y1="539.75" x2="505.93" y2="564.5"/><line class="cls-16" x1="501.57" y1="539.75" x2="510.3" y2="564.5"/><line class="cls-16" x1="505.93" y1="539.75" x2="514.67" y2="564.5"/><line class="cls-16" x1="510.3" y1="539.75" x2="519.03" y2="564.5"/><line class="cls-16" x1="514.67" y1="539.75" x2="523.4" y2="564.5"/><line class="cls-16" x1="519.03" y1="539.75" x2="527.77" y2="564.5"/><line class="cls-16" x1="523.4" y1="539.75" x2="532.14" y2="564.5"/><line class="cls-16" x1="527.77" y1="539.75" x2="536.5" y2="564.5"/><path class="cls-17" d="M438,550.67,472,622h50.46L553,550.67s-19.41,14.56-57.26,12.13S438,550.67,438,550.67Z"/><path class="cls-18" d="M319,186l16,5s3-11,9-13,21-12,21-12,12-10,6-23-36-7-36-7l-9,4,3,17s17-11,20-8,2,6,2,6-18,10-19,11S319,178,319,186Z"/><path d="M423.17,650s26,59.78,26.83,87h-7.15S433,674.86,425,661.3Z"/><path class="cls-2" d="M470,737s23.72-61.46,3.59-63.29-63-23.86-63-23.86L364.23,602s-8.92-6.7,8.92-4.78a32.6,32.6,0,0,1,25,16.27s-3.57-24.89-10.71-26.8c0,0,3.57-7.66,12.5-1s25,35.42,25,35.42-12.49-24.89-10.71-25.85c0,0,0-9.57,10.71-1.91,0,0,7.14,23,10.71,23.93l7.14,11.48-7.14-20.1s1.79-8.61,8.92-1l14.28,27.76S521.52,649,525.87,660s17.27,69.38,10.13,77Z"/><path d="M888,650s-21.37,59.78-22,87h5.88s8.07-62.14,14.69-75.7Z"/><path class="cls-2" d="M830,737s-22.93-57.43-3.69-59.21,60.19-23.08,60.19-23.08l44.37-46.31s8.53-6.48-8.53-4.63a31.22,31.22,0,0,0-23.89,15.75s3.41-24.08,10.24-25.93c0,0-3.42-7.41-12-.93s-23.89,34.27-23.89,34.27,11.95-24.08,10.24-25c0,0,0-9.26-10.24-1.85,0,0-6.82,22.23-10.24,23.15l-6.82,11.12,6.82-19.45s-1.7-8.34-8.53-.93l-13.65,26.86s-59.94,13.08-64.09,23.67S759.17,729.59,766,737Z"/></svg>