<svg id="SCALE" xmlns="http://www.w3.org/2000/svg" viewBox="0 0 990.6 610.39"><defs><style>.cls-1{fill:#bababa;}.cls-2{fill:#00ab9d;}.cls-3{fill:#6f7a82;}.cls-4{fill:#00968c;}.cls-5{fill:#bb6260;}.cls-6{fill:#efd3c9;}.cls-7{fill:#e89c98;}.cls-8{fill:#fefbff;}.cls-9{fill:#e89d95;}.cls-10{fill:#a95965;}.cls-11{fill:#df7442;}.cls-12{fill:#ab5831;}.cls-13{fill:#f9d1c1;}.cls-14{fill:#974f3e;}.cls-15{fill:#e7b2a6;}.cls-16{fill:#cf9184;}.cls-17{fill:#a46257;}.cls-18{fill:#ff3631;}.cls-19{fill:#47c568;}.cls-20{fill:#bfda67;}.cls-21{fill:#fbb03b;}.cls-22{fill:#92c432;}.cls-23{fill:#805b9d;}.cls-24{fill:#f96b92;}.cls-25{fill:#dd5980;}</style></defs><rect class="cls-1" x="189.33" y="49.03" width="611.94" height="5.1"/><rect class="cls-1" x="481.93" y="96.71" width="31" height="456.75"/><path class="cls-2" d="M406,531H585.47A55.49,55.49,0,0,1,641,586.49v4.88a0,0,0,0,1,0,0H350.5a0,0,0,0,1,0,0v-4.88A55.49,55.49,0,0,1,406,531Z"/><path class="cls-3" d="M539.74,96.71H455A40.07,40.07,0,0,1,414.9,56.63V51.57c0-28.75,20.35-45.13,49.1-45.13l61.85,3.8c35.61,0,54.11,10.64,54.11,46.25h0A40.22,40.22,0,0,1,539.74,96.71Z"/><circle class="cls-1" cx="495.3" cy="51.57" r="17.63"/><rect class="cls-1" y="339.76" width="378.65" height="14.29"/><path class="cls-3" d="M378.65,354c0,29.73-84.76,53.82-189.32,53.82S0,383.77,0,354"/><rect class="cls-1" x="611.94" y="339.76" width="378.65" height="14.29"/><path class="cls-3" d="M990.6,354c0,29.73-84.77,53.82-189.33,53.82S611.94,383.77,611.94,354"/><path class="cls-4" d="M363,550h268.9a55.49,55.49,0,0,1,55.49,55.49v4.88a0,0,0,0,1,0,0H307.48a0,0,0,0,1,0,0v-4.88A55.49,55.49,0,0,1,363,550Z"/><rect class="cls-1" x="109.18" y="199.19" width="347.18" height="2.69" transform="matrix(0.53, 0.85, -0.85, 0.53, 304.21, -145.46)"/><rect class="cls-1" x="-73.2" y="199.19" width="347.18" height="2.69" transform="matrix(-0.53, 0.85, -0.85, -0.53, 323.73, 220.88)"/><rect class="cls-1" x="716.7" y="198.48" width="347.18" height="2.69" transform="translate(591.02 -662.14) rotate(58.2)"/><rect class="cls-1" x="534.32" y="198.48" width="347.18" height="2.69" transform="translate(1250.76 -296.56) rotate(121.8)"/><path class="cls-5" d="M35.15,317.1s2.93,20.39,29.51,17.39S99.31,321.1,99.31,321.1s.18,7.39-4.58,11.19-19.8,8.19-19.8,8.19l-21.63-1s-11.55-2.39-15.4-9.79S35.15,317.1,35.15,317.1Z"/><path class="cls-6" d="M61.17,295.82s-19.75,2.67-25,14.69,6.3,19.85,6.3,19.85,5.39,7,18.66,5.31,30-4.5,34.31-9.36,5.8-7.52,0-16.07-20.87-13.35-23.89-13.35S61.17,295.82,61.17,295.82Z"/><path class="cls-7" d="M54,320.13l17.91,7.3a.9.9,0,0,1-.12,1.72,54.43,54.43,0,0,1-10.95,1.72c-5.08,0-15.49-.8-14.42-2.14.82-1,4.19-5.88,5.69-8A1.57,1.57,0,0,1,54,320.13Z"/><path class="cls-7" d="M60.79,314.49h5.67s1-6.06,5.16-7.3,17.18,0,17.18,0,6.59,5.16,6.41,8.54-1.6,7.66-6.41,7.84-15.49-1.52-18-2.58c-1.81-.78-7.39-3.87-10.3-5.49A.54.54,0,0,1,60.79,314.49Z"/><path class="cls-7" d="M56.45,309.66s-.8,2.49,1.43,2.23,6.68.19,7.39-1.11,1.78-3.7,1-4.15-2.76-1.33-4-.44S56.45,309.66,56.45,309.66Z"/><path class="cls-8" d="M46.43,304.91s-5.79,2.76-3.74,5.08,4,3.47,7.65,2.76,4.9-4.54,4.9-4.54-1.25-2.94-3.74-3.3A21.25,21.25,0,0,0,46.43,304.91Z"/><path class="cls-9" d="M45.71,307.27s6.27-1.51,6.7.36S50.52,311,50,311s-5.35.18-5.79-.8S45.71,307.27,45.71,307.27Z"/><path class="cls-10" d="M46.63,308.1s3.53-.85,3.77.2-1.06,1.91-1.36,1.91-3,.1-3.27-.45S46.63,308.1,46.63,308.1Z"/><path class="cls-5" d="M253.18,316.81s2.94,20.39,29.52,17.39,34.64-13.39,34.64-13.39.19,7.39-4.58,11.19-19.8,8.19-19.8,8.19l-21.63-1s-11.55-2.39-15.4-9.79S253.18,316.81,253.18,316.81Z"/><path class="cls-6" d="M279.2,295.53s-19.75,2.67-25,14.69,6.31,19.86,6.31,19.86,5.38,7,18.65,5.3,30-4.5,34.32-9.35,5.79-7.53,0-16.07-20.88-13.36-23.9-13.36S279.2,295.53,279.2,295.53Z"/><path class="cls-7" d="M272.05,319.84l17.91,7.3a.9.9,0,0,1-.13,1.72,54.21,54.21,0,0,1-10.95,1.72c-5.07,0-15.49-.8-14.42-2.14.83-1,4.2-5.88,5.69-8A1.58,1.58,0,0,1,272.05,319.84Z"/><path class="cls-7" d="M278.82,314.2h5.67s1-6.06,5.17-7.3,17.18,0,17.18,0,6.59,5.16,6.41,8.54-1.6,7.66-6.41,7.84-15.49-1.51-18-2.58c-1.82-.78-7.4-3.86-10.31-5.49A.54.54,0,0,1,278.82,314.2Z"/><path class="cls-7" d="M274.49,309.37s-.8,2.49,1.42,2.23,6.68.19,7.39-1.11,1.79-3.7,1-4.15-2.76-1.33-4-.44S274.49,309.37,274.49,309.37Z"/><path class="cls-8" d="M264.46,304.62s-5.79,2.76-3.74,5.08,4,3.47,7.66,2.76,4.9-4.54,4.9-4.54-1.25-2.94-3.74-3.3A21.32,21.32,0,0,0,264.46,304.62Z"/><path class="cls-9" d="M263.75,307s6.26-1.51,6.69.36-1.88,3.38-2.42,3.38-5.34.18-5.78-.8S263.75,307,263.75,307Z"/><path class="cls-10" d="M264.66,307.81s3.54-.85,3.78.2-1.07,1.91-1.37,1.91-3,.1-3.26-.45S264.66,307.81,264.66,307.81Z"/><path class="cls-11" d="M163.44,299.57s8.19,9.26,0,23.15S151.51,337,151.51,337s-6.06,1.95-6.06,0-1.06-5.17,1.07-6.41,8.54-6.95,9.61-10.51,1.08-15.49.9-16.38S159.52,298.5,163.44,299.57Z"/><polygon class="cls-12" points="159.58 300.92 156.98 300.92 156.98 299.63 159.18 299.36 160.45 297.89 161.98 298.22 161.25 299.4 161.12 300.92 159.58 300.92"/><path class="cls-11" d="M142.17,335.42s-10.52,6.5-22.81-3.93-12-14.18-12-14.18-.9-6.3,1-6,5.27-.18,6.13,2.14,5.4,9.59,8.72,11.25,15.09,3.7,16,3.67S143.89,331.75,142.17,335.42Z"/><polygon class="cls-12" points="141.5 331.39 141.95 328.83 143.22 329.05 143.11 331.26 144.34 332.76 143.75 334.22 142.71 333.3 141.24 332.91 141.5 331.39"/><path class="cls-13" d="M175.89,304.26s16.28,10.78,18.9,11.92,7.85,6.24,4.36,15-16.28,6-16.28,6-12.21-4.82-14.54-9.93-1.74-18.15-1.74-18.15S170.37,303.41,175.89,304.26Z"/><path class="cls-14" d="M191.89,336.36s13.2-3.61,16.83-8.83,3.72-9.66,3.16-11.68-4.74-10.93-7.9-12.44-11.06-1.68-13.85-1.52-17.85,2.61-19.06,3.79,0,1.51,0,1.51l4.46.17s16.55,7.9,18.5,12.61,1.86,3,2.14,8.66A8.07,8.07,0,0,1,191.89,336.36Z"/><path class="cls-15" d="M173.46,309.53s5.94-.64,13.18,6.59,6.91,12.69,6.91,12.69-1.13,4.5-2.74,5.47-12.37-.81-14.94-2.74-7.23-9.16-7.07-11.32S167.83,311.3,173.46,309.53Z"/><path class="cls-16" d="M174.7,313.27s4.16-.45,9.23,4.62,4.84,8.89,4.84,8.89-.79,3.15-1.91,3.83-8.67-.56-10.47-1.92-5.07-6.41-4.95-7.93S170.76,314.51,174.7,313.27Z"/><path class="cls-17" d="M176.45,304s11.76,1.25,12.65,1.61,15.84,9.61,15.84,9.61l5.7,5v2.31l-11.39-9.79-10.87-5.52Z"/><path class="cls-17" d="M171.43,305.16s11.56,1.73,12.44,2.22,15.58,13.31,15.58,13.31l5.61,6.9v3.21l-11.21-13.56-10.68-7.64Z"/><path class="cls-17" d="M210,311s-2.75,9-3.11,9.63-8.22,11.11-8.22,11.11l-3.82,3.8-1.32-.3,7.55-7.62,5-7.74Z"/><path class="cls-17" d="M204.72,304s-1.86,6.69-2.07,7.18-4.73,8.52-4.73,8.52l-2.12,3-.65-.15,4.2-5.94,2.94-5.91Z"/><path class="cls-17" d="M199.93,301.9s-1.57,5.49-1.76,5.89-4.27,6.94-4.27,6.94l-1.94,2.4-.63-.14,3.84-4.81,2.64-4.82Z"/><circle class="cls-17" cx="180.1" cy="322.67" r="1.91"/><path class="cls-13" d="M87,283.94s16.28,10.78,18.9,11.92,7.85,6.24,4.36,15-16.28,6-16.28,6S81.72,312,79.4,306.92s-1.75-18.15-1.75-18.15S81.43,283.09,87,283.94Z"/><path class="cls-14" d="M103,316s13.2-3.61,16.82-8.83,3.72-9.66,3.16-11.68-4.74-10.93-7.9-12.44-11.06-1.68-13.85-1.52-17.85,2.61-19,3.79,0,1.51,0,1.51l4.46.17s16.54,7.9,18.5,12.61,1.86,3,2.13,8.66A8.07,8.07,0,0,1,103,316Z"/><path class="cls-15" d="M84.52,289.21s6-.64,13.18,6.59,6.91,12.69,6.91,12.69-1.12,4.5-2.73,5.47-12.38-.81-14.95-2.73-7.23-9.17-7.07-11.33S78.9,291,84.52,289.21Z"/><path class="cls-16" d="M85.77,293s4.16-.45,9.23,4.62,4.84,8.89,4.84,8.89-.79,3.15-1.92,3.83-8.67-.56-10.47-1.91-5.06-6.42-5-7.94S81.83,294.19,85.77,293Z"/><path class="cls-17" d="M87.52,283.68s11.75,1.25,12.64,1.61S116,294.9,116,294.9l5.7,5v2.31l-11.4-9.79-10.86-5.52Z"/><path class="cls-17" d="M82.5,284.84s11.56,1.73,12.43,2.22,15.59,13.31,15.59,13.31l5.6,6.9v3.21l-11.21-13.56-10.68-7.64Z"/><path class="cls-17" d="M121.09,290.63s-2.75,9-3.11,9.63-8.22,11.11-8.22,11.11l-3.83,3.8-1.32-.3,7.55-7.62,5-7.74Z"/><path class="cls-17" d="M115.78,283.68s-1.86,6.69-2.07,7.18-4.72,8.52-4.72,8.52l-2.13,3-.64-.15,4.2-5.94,2.93-5.91Z"/><path class="cls-17" d="M111,281.58s-1.58,5.49-1.77,5.89-4.26,6.94-4.26,6.94l-2,2.4-.62-.14,3.84-4.81,2.64-4.82Z"/><circle class="cls-17" cx="91.17" cy="302.35" r="1.91"/><path class="cls-11" d="M243.24,337.38s-10.52,6.5-22.81-3.93-12-14.18-12-14.18-.9-6.3,1-6,5.27-.17,6.13,2.15S221,325,224.3,326.7s15.08,3.69,16,3.67S245,333.7,243.24,337.38Z"/><polygon class="cls-12" points="242.57 333.35 243.01 330.79 244.28 331.01 244.17 333.22 245.41 334.72 244.81 336.18 243.78 335.26 242.31 334.87 242.57 333.35"/><path class="cls-11" d="M296.12,312s11-5.67,22.44,5.68,10.89,15.05,10.89,15.05.42,6.35-1.48,5.87-5.27-.23-6-2.6-4.64-10-7.83-11.9-14.75-4.83-15.66-4.88S294.13,315.51,296.12,312Z"/><polygon class="cls-12" points="296.48 316.04 295.84 318.57 294.59 318.25 294.87 316.05 293.76 314.46 294.46 313.05 295.42 314.05 296.86 314.55 296.48 316.04"/><path class="cls-5" d="M119.25,300.66s2.94,20.38,29.52,17.39,34.64-13.39,34.64-13.39.19,7.39-4.58,11.19S159,324,159,324l-21.63-1s-11.55-2.4-15.4-9.79S119.25,300.66,119.25,300.66Z"/><path class="cls-6" d="M145.27,279.38s-19.75,2.67-25,14.69,6.31,19.85,6.31,19.85,5.38,7,18.65,5.31,30-4.5,34.32-9.36,5.79-7.52,0-16.07-20.88-13.35-23.9-13.35S145.27,279.38,145.27,279.38Z"/><path class="cls-7" d="M138.12,303.69,156,311a.91.91,0,0,1-.13,1.73,54.32,54.32,0,0,1-11,1.72c-5.07,0-15.49-.8-14.42-2.14.82-1,4.2-5.88,5.69-8A1.58,1.58,0,0,1,138.12,303.69Z"/><path class="cls-7" d="M144.89,298.05h5.67s1-6.06,5.17-7.3,17.18,0,17.18,0,6.59,5.16,6.41,8.54-1.6,7.66-6.41,7.84-15.49-1.52-18-2.58c-1.81-.78-7.39-3.87-10.3-5.49A.54.54,0,0,1,144.89,298.05Z"/><path class="cls-7" d="M140.56,293.22s-.8,2.49,1.42,2.22,6.68.2,7.39-1.1,1.78-3.7,1-4.15-2.76-1.33-4-.44S140.56,293.22,140.56,293.22Z"/><path class="cls-8" d="M130.53,288.47s-5.79,2.76-3.74,5.08,4,3.47,7.66,2.76,4.89-4.54,4.89-4.54-1.24-2.94-3.74-3.3A21.25,21.25,0,0,0,130.53,288.47Z"/><path class="cls-9" d="M129.82,290.83s6.26-1.51,6.69.35-1.88,3.39-2.42,3.39-5.34.18-5.79-.8S129.82,290.83,129.82,290.83Z"/><path class="cls-10" d="M130.73,291.66s3.53-.85,3.78.2-1.07,1.91-1.37,1.91-3,.1-3.26-.45S130.73,291.66,130.73,291.66Z"/><path class="cls-5" d="M216.46,306.46s2.93,20.38,29.51,17.39,34.65-13.39,34.65-13.39.18,7.39-4.58,11.19-19.8,8.19-19.8,8.19l-21.63-1s-11.55-2.39-15.4-9.79S216.46,306.46,216.46,306.46Z"/><path class="cls-6" d="M242.48,285.18s-19.75,2.67-25,14.69,6.31,19.85,6.31,19.85,5.38,7,18.65,5.31,30-4.5,34.32-9.36,5.79-7.52,0-16.07-20.88-13.35-23.9-13.35S242.48,285.18,242.48,285.18Z"/><path class="cls-7" d="M235.33,309.49l17.9,7.3a.9.9,0,0,1-.12,1.72,54.43,54.43,0,0,1-11,1.72c-5.07,0-15.49-.8-14.42-2.14.82-1,4.19-5.88,5.69-8A1.58,1.58,0,0,1,235.33,309.49Z"/><path class="cls-7" d="M242.1,303.85h5.67s1-6.06,5.16-7.3,17.19,0,17.19,0,6.58,5.16,6.41,8.54-1.61,7.66-6.41,7.84-15.5-1.52-18-2.58c-1.81-.78-7.39-3.87-10.3-5.49A.54.54,0,0,1,242.1,303.85Z"/><path class="cls-7" d="M237.77,299s-.8,2.49,1.42,2.23,6.68.19,7.39-1.11,1.78-3.7,1-4.15-2.76-1.33-4-.44S237.77,299,237.77,299Z"/><path class="cls-8" d="M227.74,294.27S222,297,224,299.35s4,3.47,7.65,2.76,4.9-4.54,4.9-4.54-1.25-2.94-3.74-3.3A21.25,21.25,0,0,0,227.74,294.27Z"/><path class="cls-9" d="M227,296.63s6.27-1.51,6.7.36-1.89,3.38-2.42,3.38-5.34.18-5.79-.8S227,296.63,227,296.63Z"/><path class="cls-10" d="M227.94,297.46s3.53-.85,3.77.2-1.06,1.91-1.36,1.91-3,.1-3.26-.45S227.94,297.46,227.94,297.46Z"/><path class="cls-11" d="M154.23,267.55s-.76,12.34-16.38,16.37-18.5,1.63-18.5,1.63-5.67-2.9-4.28-4.28,2.89-4.41,5.28-3.78,11,1.13,14.23-.63,11.71-10.19,12.22-10.95S152.21,264,154.23,267.55Z"/><polygon class="cls-12" points="150.55 265.77 148.71 263.93 149.62 263.02 151.37 264.39 153.3 264.25 154.15 265.57 152.8 265.88 151.63 266.86 150.55 265.77"/><path class="cls-11" d="M211.33,303.85s-10.52,6.49-22.82-3.94-12-14.18-12-14.18-.9-6.3,1-6,5.27-.18,6.14,2.14,5.39,9.59,8.72,11.26,15.08,3.69,16,3.66S213,300.17,211.33,303.85Z"/><polygon class="cls-12" points="210.66 299.82 211.1 297.25 212.37 297.47 212.26 299.69 213.49 301.19 212.9 302.64 211.87 301.72 210.4 301.33 210.66 299.82"/><path class="cls-13" d="M271.76,276.06S288,286.84,290.66,288s7.85,6.24,4.36,15-16.28,6-16.28,6-12.22-4.82-14.54-9.93-1.75-18.15-1.75-18.15S266.23,275.21,271.76,276.06Z"/><path class="cls-14" d="M287.76,308.16s13.2-3.62,16.82-8.83,3.72-9.67,3.16-11.69-4.74-10.93-7.9-12.44-11.06-1.68-13.85-1.51-17.85,2.6-19.05,3.78,0,1.51,0,1.51l4.46.17s16.54,7.9,18.5,12.61,1.86,3,2.13,8.66A8.09,8.09,0,0,1,287.76,308.16Z"/><path class="cls-15" d="M269.32,281.32s5.95-.64,13.18,6.59,6.91,12.7,6.91,12.7-1.12,4.5-2.73,5.46-12.38-.8-14.95-2.73-7.23-9.16-7.07-11.33S263.7,283.09,269.32,281.32Z"/><path class="cls-16" d="M270.56,285.07s4.17-.45,9.24,4.61,4.84,8.89,4.84,8.89-.79,3.16-1.92,3.83-8.67-.56-10.47-1.91-5.06-6.42-4.95-7.94S266.63,286.31,270.56,285.07Z"/><path class="cls-17" d="M272.32,275.8S284.07,277,285,277.4,300.81,287,300.81,287l5.7,5v2.32l-11.4-9.8L284.25,279Z"/><path class="cls-17" d="M267.3,277s11.56,1.72,12.43,2.22,15.59,13.31,15.59,13.31l5.6,6.9v3.2L289.71,289,279,281.39Z"/><path class="cls-17" d="M305.89,282.75s-2.75,9-3.11,9.63-8.22,11.1-8.22,11.1l-3.83,3.8-1.32-.29,7.55-7.62,5-7.75Z"/><path class="cls-17" d="M300.58,275.8s-1.86,6.68-2.07,7.17-4.72,8.52-4.72,8.52l-2.13,3-.64-.14,4.2-5.95,2.93-5.91Z"/><path class="cls-17" d="M295.8,273.69s-1.58,5.5-1.77,5.9-4.26,6.93-4.26,6.93l-1.95,2.4-.62-.14L291,284l2.64-4.82Z"/><circle class="cls-17" cx="275.97" cy="294.46" r="1.91"/><path class="cls-13" d="M200.06,269.39s16.28,10.77,18.9,11.91,7.85,6.24,4.36,15-16.28,6-16.28,6-12.22-4.82-14.54-9.93-1.75-18.15-1.75-18.15S194.53,268.54,200.06,269.39Z"/><path class="cls-14" d="M216.06,301.48s13.2-3.61,16.82-8.82S236.6,283,236,281s-4.74-10.93-7.9-12.44-11.06-1.68-13.85-1.51-17.85,2.6-19,3.78,0,1.51,0,1.51l4.46.17s16.54,7.9,18.5,12.61,1.86,3,2.13,8.66A8.07,8.07,0,0,1,216.06,301.48Z"/><path class="cls-15" d="M197.62,274.65s5.95-.64,13.18,6.59,6.91,12.69,6.91,12.69-1.12,4.5-2.73,5.47-12.37-.8-14.95-2.73-7.23-9.16-7.07-11.33S192,276.42,197.62,274.65Z"/><path class="cls-16" d="M198.87,278.4S203,278,208.1,283s4.84,8.89,4.84,8.89-.79,3.16-1.92,3.83-8.66-.56-10.47-1.91-5.06-6.42-5-7.94S194.93,279.63,198.87,278.4Z"/><path class="cls-17" d="M200.62,269.13s11.75,1.24,12.64,1.6,15.85,9.61,15.85,9.61l5.7,5v2.31l-11.4-9.79-10.86-5.52Z"/><path class="cls-17" d="M195.6,270.29S207.16,272,208,272.5s15.59,13.31,15.59,13.31l5.6,6.91v3.2L218,282.36l-10.68-7.64Z"/><path class="cls-17" d="M234.19,276.08s-2.75,9-3.11,9.63-8.22,11.1-8.22,11.1l-3.83,3.8-1.32-.3,7.56-7.62,5-7.74Z"/><path class="cls-17" d="M228.88,269.13s-1.85,6.68-2.07,7.17-4.72,8.52-4.72,8.52l-2.12,3-.65-.15,4.2-5.94,2.94-5.91Z"/><path class="cls-17" d="M224.1,267s-1.58,5.5-1.77,5.9-4.26,6.93-4.26,6.93l-1.95,2.4-.62-.14,3.84-4.81,2.64-4.82Z"/><circle class="cls-17" cx="204.27" cy="287.79" r="1.91"/><path class="cls-11" d="M353.47,334.34s-10.51,6.5-22.81-3.94-12-14.17-12-14.17-.9-6.3,1-6,5.27-.18,6.14,2.14,5.39,9.6,8.72,11.26,15.08,3.69,16,3.67S355.19,330.66,353.47,334.34Z"/><polygon class="cls-12" points="352.81 330.31 353.25 327.74 354.52 327.96 354.41 330.18 355.64 331.68 355.05 333.13 354.01 332.21 352.54 331.82 352.81 330.31"/><path class="cls-11" d="M309,296.77s11-5.67,22.45,5.67,10.88,15.06,10.88,15.06.42,6.35-1.48,5.87-5.27-.23-6-2.61-4.64-10-7.82-11.89S312.31,304,311.4,304,307,300.3,309,296.77Z"/><polygon class="cls-12" points="309.36 300.84 308.72 303.36 307.47 303.04 307.75 300.84 306.64 299.25 307.34 297.85 308.3 298.85 309.74 299.35 309.36 300.84"/><circle class="cls-18" cx="676.26" cy="317.94" r="24.77"/><polygon class="cls-19" points="684.07 297.85 686.44 284.95 689.29 296.47 702.45 298.4 689.85 301.1 689.44 314.81 686.47 303.04 672.99 300.95 684.07 297.85"/><polygon class="cls-19" points="688.22 300.18 685.81 299.44 695.58 287.79 696.92 290.25 688.22 300.18"/><path class="cls-19" d="M748.83,313.94s3.26-3.66,3.39-6.26c0,0,8.72-1.39,9.25-7.38s.47-6.72-2.73-10.58-8.25-1.87-8.25-1.87a9.41,9.41,0,0,0-5.92-6.52c-5.06-1.93-11.25,1.13-11.25,1.13l-1.19,1.73a5.37,5.37,0,0,0-4.66-1.93,12,12,0,0,0-6.19,2.6l-1.13,1.8a10.12,10.12,0,0,0-7.66,2.39,15.81,15.81,0,0,0-4.59,6.59s-6.25.93-7.78,3-3.6,4.53-3.13,9.32,6.32,8.19,6.32,8.19-3,6.45.07,11.57,9.31,7.26,9.31,7.26,6.59,1.26,10.25-1.4,5.86-7.65,5.86-7.65a16.75,16.75,0,0,0,8.52-1.13C742,322.92,748.83,313.94,748.83,313.94Z"/><path class="cls-20" d="M760.87,329l-9.78,10.18s-9.18-12-13.77-14.37-15.58-8.59-20.17-7c0,0-1-4-1.79-4.19s13.77.2,21.56,3.79l-18-18.17,3-3L742.11,314s-7.39-15.18-5.19-17a4,4,0,0,1,4.19-.8,68.28,68.28,0,0,0,7.17,17.58A55.37,55.37,0,0,0,760.87,329Z"/><path class="cls-21" d="M808.39,312s-9.52-8.4-22.78,1.1-29.4,15.42-27.6,23.05,15.27,4.07,15.27,4.07,33.59-.45,37.37-7.91S808.39,312,808.39,312Z"/><path class="cls-20" d="M835.45,300.05s-5.19-4.87-12.65.89-16.48,9.45-15.56,13.95,8.43,2.25,8.43,2.25,22-1.17,24.15-5.63S835.45,300.05,835.45,300.05Z"/><path class="cls-20" d="M831.13,315.73a9.59,9.59,0,0,0-10.36-.07c-5.85,3.35-13.08,5.27-12.1,8.22s7.05,1.88,7.05,1.88,18,.36,19.58-2.41S831.13,315.73,831.13,315.73Z"/><rect class="cls-22" x="817.28" y="300.24" width="1.48" height="21.73" transform="translate(905.39 -559.7) rotate(74.91)"/><rect class="cls-22" x="814.59" y="315.32" width="0.83" height="13.1" transform="translate(716.46 1192.57) rotate(-105.09)"/><rect class="cls-22" x="825.94" y="301.02" width="0.83" height="9.16" transform="translate(1308.65 1042.93) rotate(-143.48)"/><rect class="cls-22" x="817.89" y="310.15" width="0.52" height="5.37" transform="translate(1628.11 -20.62) rotate(136.7)"/><rect class="cls-22" x="821.63" y="319.69" width="0.52" height="5.37" transform="translate(1641.12 -6.7) rotate(136.7)"/><rect class="cls-22" x="821.61" y="316.23" width="0.52" height="5.37" transform="translate(562.8 -523.74) rotate(51.7)"/><path class="cls-19" d="M938.78,316.68s3.26-3.66,3.4-6.25c0,0,8.71-1.4,9.25-7.39s.46-6.72-2.73-10.58-8.25-1.86-8.25-1.86a9.44,9.44,0,0,0-5.93-6.53c-5-1.93-11.24,1.14-11.24,1.14l-1.2,1.73a5.34,5.34,0,0,0-4.66-1.93,11.91,11.91,0,0,0-6.19,2.59l-1.13,1.8a10.1,10.1,0,0,0-7.65,2.39,15.69,15.69,0,0,0-4.59,6.59s-6.26.93-7.79,3-3.59,4.52-3.12,9.31,6.32,8.19,6.32,8.19-3,6.45.06,11.58,9.32,7.25,9.32,7.25,6.59,1.26,10.25-1.4,5.85-7.65,5.85-7.65a16.74,16.74,0,0,0,8.52-1.13C932,325.66,938.78,316.68,938.78,316.68Z"/><path class="cls-20" d="M950.83,331.72l-9.78,10.18s-9.19-12-13.78-14.37-15.57-8.59-20.16-7c0,0-1-4-1.8-4.19s13.78.2,21.56,3.79l-18-18.17,3-3,20.16,17.77s-7.38-15.18-5.19-17a4,4,0,0,1,4.19-.8,68.28,68.28,0,0,0,7.17,17.58A55.24,55.24,0,0,0,950.83,331.72Z"/><path class="cls-23" d="M840.66,316.66s15.62,10.56,21.44,14.4,19.2,14.33,25.42,7.24,13.1-19.24,2.41-24.21-15.9-8.3-18.35-7.31-19.55-5.23-20-7.53-4.35,5-4.35,5l-.76,3.72-5.77,2.46Z"/><path class="cls-20" d="M840.93,316.85s-8.59-7.24-4.35-13.64c0,0,2.15-4,4.67-5.33s10,1.19,10,1.19l-3.52,4.43.83,6.63-6.16,2.36Z"/><path class="cls-20" d="M832.16,299.14l-.26-1.62s5.52,2.61,6.8,4-1,2.44-1,2.44Z"/><path class="cls-23" d="M744.13,293.93s15.62,10.55,21.44,14.4,19.21,14.33,25.42,7.24,13.1-19.24,2.41-24.21-15.9-8.3-18.34-7.31-19.56-5.23-20-7.54-4.35,5-4.35,5l-.75,3.72-5.78,2.46Z"/><path class="cls-20" d="M744.4,294.12s-8.59-7.25-4.35-13.64c0,0,2.15-4,4.67-5.33s9.95,1.19,9.95,1.19l-3.52,4.43.83,6.63-6.16,2.36Z"/><path class="cls-20" d="M735.63,276.41l-.26-1.62s5.52,2.61,6.8,4-1,2.44-1,2.44Z"/><circle class="cls-18" cx="889.58" cy="290.36" r="24.77"/><polygon class="cls-19" points="897.4 270.28 899.77 257.38 902.61 268.9 915.77 270.83 903.17 273.52 902.77 287.24 899.79 275.47 886.31 273.38 897.4 270.28"/><polygon class="cls-19" points="901.54 272.6 899.14 271.87 908.91 260.21 910.25 262.68 901.54 272.6"/><path class="cls-21" d="M854.92,274.66s-9.51-8.41-22.77,1.09-29.4,15.43-27.6,23.06,15.27,4.06,15.27,4.06,33.58-.44,37.36-7.9S854.92,274.66,854.92,274.66Z"/><path class="cls-20" d="M882,262.72s-5.19-4.88-12.65.89-16.48,9.45-15.56,13.95,8.43,2.24,8.43,2.24,22-1.16,24.15-5.62S882,262.72,882,262.72Z"/><path class="cls-20" d="M877.66,278.4a9.57,9.57,0,0,0-10.36-.07c-5.85,3.34-13.08,5.26-12.1,8.22s7,1.87,7,1.87,18,.36,19.59-2.4S877.66,278.4,877.66,278.4Z"/><rect class="cls-22" x="863.81" y="262.91" width="1.48" height="21.73" transform="translate(903.76 -632.24) rotate(74.91)"/><rect class="cls-22" x="861.12" y="277.98" width="0.83" height="13.1" transform="matrix(-0.26, -0.97, 0.97, -0.26, 811.16, 1190.44)"/><rect class="cls-22" x="872.47" y="263.69" width="0.83" height="9.16" transform="translate(1414.79 1003.28) rotate(-143.48)"/><rect class="cls-22" x="864.42" y="272.82" width="0.52" height="5.37" transform="translate(1682.9 -117.04) rotate(136.7)"/><rect class="cls-22" x="868.16" y="282.36" width="0.52" height="5.37" transform="translate(1695.91 -103.12) rotate(136.7)"/><rect class="cls-22" x="868.14" y="278.9" width="0.52" height="5.37" transform="translate(551.2 -574.45) rotate(51.7)"/><path class="cls-19" d="M816.32,275.24s3.26-3.66,3.39-6.26c0,0,8.72-1.39,9.25-7.38s.47-6.72-2.73-10.58-8.25-1.87-8.25-1.87a9.41,9.41,0,0,0-5.92-6.52c-5.06-1.93-11.25,1.13-11.25,1.13l-1.19,1.73a5.37,5.37,0,0,0-4.66-1.93,12,12,0,0,0-6.19,2.6l-1.13,1.8a10.12,10.12,0,0,0-7.66,2.39,15.81,15.81,0,0,0-4.59,6.59s-6.25.93-7.78,3-3.6,4.53-3.13,9.32,6.32,8.18,6.32,8.18-3,6.46.07,11.58,9.31,7.26,9.31,7.26,6.59,1.26,10.25-1.4,5.86-7.65,5.86-7.65a16.75,16.75,0,0,0,8.52-1.13C809.53,284.22,816.32,275.24,816.32,275.24Z"/><path class="cls-20" d="M828.36,290.28l-9.78,10.18s-9.18-12-13.77-14.37-15.58-8.59-20.17-7c0,0-1-4-1.79-4.19s13.77.2,21.56,3.79l-18-18.17,3-3,20.17,17.77s-7.39-15.18-5.19-17a4,4,0,0,1,4.19-.8,68.28,68.28,0,0,0,7.17,17.58A55.37,55.37,0,0,0,828.36,290.28Z"/><circle class="cls-18" cx="842.59" cy="250.47" r="24.77"/><polygon class="cls-19" points="850.4 230.38 852.77 217.48 855.62 229 868.78 230.94 856.18 233.63 855.77 247.34 852.8 235.58 839.32 233.49 850.4 230.38"/><polygon class="cls-19" points="854.55 232.71 852.14 231.97 861.91 220.32 863.25 222.79 854.55 232.71"/><path class="cls-24" d="M684.88,263.1s-9.84,17.41,0,25.73,15.64,6.31,15.64,6.31,8.58,3.53,11.1,6.81c0,0,.26-11.6,3-16.65s5.8-21.95-5.8-25.48S684.88,263.1,684.88,263.1Z"/><path class="cls-25" d="M697.5,278.49l-9.59-3.09s.44-1.41,4.79-1.81S697.5,278.49,697.5,278.49Z"/><path class="cls-25" d="M714,274.13l-8.74,5s-.74-1.26,1.89-4.76S714,274.13,714,274.13Z"/><path class="cls-25" d="M704.75,283.55,699,287.27s-.39-.76,1.46-3.14A3.05,3.05,0,0,1,704.75,283.55Z"/><rect class="cls-22" x="687.37" y="248.27" width="1.84" height="15.39" rx="0.85" transform="translate(1421.65 217.87) rotate(156.63)"/><rect class="cls-22" x="688.94" y="241.76" width="1.84" height="20.66" rx="0.85" transform="translate(1410.59 393.5) rotate(171.03)"/><rect class="cls-22" x="683.41" y="245.92" width="1.84" height="20.08" rx="0.85" transform="matrix(-0.67, 0.74, -0.74, -0.67, 1333.64, -79.02)"/><path class="cls-24" d="M730.52,243.27s-9.84,17.41,0,25.74,15.64,6.31,15.64,6.31,8.58,3.53,11.1,6.81c0,0,.25-11.61,3-16.65s5.8-22-5.81-25.49S730.52,243.27,730.52,243.27Z"/><path class="cls-25" d="M743.13,258.66l-9.59-3.09s.44-1.4,4.8-1.8S743.13,258.66,743.13,258.66Z"/><path class="cls-25" d="M759.64,254.31l-8.73,5s-.75-1.27,1.88-4.76S759.64,254.31,759.64,254.31Z"/><path class="cls-25" d="M750.38,263.72l-5.74,3.72s-.39-.75,1.47-3.13A3,3,0,0,1,750.38,263.72Z"/><rect class="cls-22" x="733.01" y="228.44" width="1.84" height="15.39" rx="0.85" transform="translate(1501.31 161.74) rotate(156.63)"/><rect class="cls-22" x="734.57" y="221.93" width="1.84" height="20.66" rx="0.85" transform="translate(1498.21 346.98) rotate(171.03)"/><rect class="cls-22" x="729.04" y="226.1" width="1.84" height="20.08" rx="0.85" transform="translate(1395.24 -145.97) rotate(132.2)"/><circle class="cls-1" cx="191.33" cy="53.85" r="17.63"/><circle class="cls-1" cx="799.79" cy="53.85" r="17.63"/></svg>