<svg id="SCALE" xmlns="http://www.w3.org/2000/svg" viewBox="0 0 1028.09 1080"><defs><style>.cls-1{fill:#bababa;}.cls-2{fill:#00ab9d;}.cls-3{fill:#6f7a82;}.cls-4{fill:#00968c;}.cls-5{fill:#bb6260;}.cls-6{fill:#efd3c9;}.cls-7{fill:#e89c98;}.cls-8{fill:#fefbff;}.cls-9{fill:#e89d95;}.cls-10{fill:#a95965;}.cls-11{fill:#df7442;}.cls-12{fill:#ab5831;}.cls-13{fill:#f9d1c1;}.cls-14{fill:#974f3e;}.cls-15{fill:#e7b2a6;}.cls-16{fill:#cf9184;}.cls-17{fill:#a46257;}.cls-18{fill:#ff3631;}.cls-19{fill:#47c568;}.cls-20{fill:#bfda67;}.cls-21{fill:#fbb03b;}.cls-22{fill:#92c432;}.cls-23{fill:#805b9d;}.cls-24{fill:#f96b92;}.cls-25{fill:#dd5980;}</style></defs><rect class="cls-1" x="204.24" y="243.51" width="611.94" height="5.1"/><rect class="cls-1" x="496.84" y="291.2" width="31" height="456.75"/><path class="cls-2" d="M420.9,725.48H600.38A55.49,55.49,0,0,1,655.87,781v4.88a0,0,0,0,1,0,0H365.41a0,0,0,0,1,0,0V781A55.49,55.49,0,0,1,420.9,725.48Z"/><path class="cls-3" d="M554.65,291.2H469.89a40.08,40.08,0,0,1-40.08-40.08v-5.06c0-28.76,20.35-45.14,49.1-45.14l61.85,3.8c35.61,0,54.11,10.65,54.11,46.26h0A40.22,40.22,0,0,1,554.65,291.2Z"/><circle class="cls-1" cx="510.21" cy="246.06" r="17.63"/><rect class="cls-1" x="14.91" y="534.24" width="378.65" height="14.29"/><path class="cls-3" d="M393.56,548.53c0,29.72-84.76,53.82-189.32,53.82S14.91,578.25,14.91,548.53"/><rect class="cls-1" x="626.85" y="534.24" width="378.65" height="14.29"/><path class="cls-3" d="M1005.51,548.53c0,29.72-84.77,53.82-189.33,53.82s-189.33-24.1-189.33-53.82"/><path class="cls-4" d="M377.89,744.51h268.9A55.49,55.49,0,0,1,702.28,800v4.88a0,0,0,0,1,0,0H322.39a0,0,0,0,1,0,0V800a55.49,55.49,0,0,1,55.49-55.49Z"/><rect class="cls-1" x="124.09" y="393.68" width="347.18" height="2.69" transform="translate(476.57 -66.12) rotate(58.2)"/><rect class="cls-1" x="-58.29" y="393.68" width="347.18" height="2.69" transform="translate(511.79 505.17) rotate(121.8)"/><rect class="cls-1" x="731.61" y="392.96" width="347.18" height="2.69" transform="translate(763.37 -582.8) rotate(58.2)"/><rect class="cls-1" x="549.23" y="392.96" width="347.18" height="2.69" transform="translate(1438.82 -12.26) rotate(121.8)"/><path class="cls-5" d="M50.06,511.59S53,532,79.57,529s34.65-13.38,34.65-13.38.18,7.39-4.58,11.19S89.84,535,89.84,535l-21.63-1s-11.55-2.4-15.4-9.79S50.06,511.59,50.06,511.59Z"/><path class="cls-6" d="M76.08,490.31S56.33,493,51.11,505s6.31,19.85,6.31,19.85,5.39,7,18.66,5.31,30-4.51,34.31-9.36,5.8-7.52,0-16.07S89.52,491.38,86.5,491.38,76.08,490.31,76.08,490.31Z"/><path class="cls-7" d="M68.92,514.62l17.91,7.29a.91.91,0,0,1-.12,1.73,54.43,54.43,0,0,1-10.95,1.71c-5.08,0-15.49-.8-14.43-2.13.83-1,4.2-5.88,5.7-8A1.57,1.57,0,0,1,68.92,514.62Z"/><path class="cls-7" d="M75.7,509h5.67s1-6.05,5.16-7.3,17.18,0,17.18,0,6.59,5.17,6.41,8.55-1.6,7.66-6.41,7.84-15.49-1.52-18-2.59c-1.81-.77-7.39-3.86-10.3-5.48A.55.55,0,0,1,75.7,509Z"/><path class="cls-7" d="M71.36,504.15s-.8,2.49,1.43,2.22,6.68.2,7.39-1.1,1.78-3.7,1-4.15-2.76-1.34-4-.45S71.36,504.15,71.36,504.15Z"/><path class="cls-8" d="M61.33,499.4s-5.78,2.76-3.73,5.08,4,3.47,7.65,2.76,4.9-4.55,4.9-4.55-1.25-2.93-3.74-3.29A20.75,20.75,0,0,0,61.33,499.4Z"/><path class="cls-9" d="M60.62,501.76s6.27-1.52,6.7.35-1.89,3.39-2.42,3.39-5.35.17-5.79-.81S60.62,501.76,60.62,501.76Z"/><path class="cls-10" d="M61.54,502.59s3.53-.86,3.77.2S64.25,504.7,64,504.7s-3,.1-3.27-.46S61.54,502.59,61.54,502.59Z"/><path class="cls-5" d="M268.09,511.3s2.94,20.38,29.52,17.39,34.64-13.39,34.64-13.39.19,7.39-4.58,11.19-19.8,8.19-19.8,8.19l-21.63-1s-11.55-2.4-15.4-9.79S268.09,511.3,268.09,511.3Z"/><path class="cls-6" d="M294.11,490s-19.75,2.67-25,14.69,6.31,19.85,6.31,19.85,5.38,7,18.65,5.31,30-4.5,34.32-9.36,5.79-7.52,0-16.07-20.88-13.35-23.9-13.35S294.11,490,294.11,490Z"/><path class="cls-7" d="M287,514.33l17.91,7.29a.91.91,0,0,1-.13,1.73,54.32,54.32,0,0,1-10.95,1.72c-5.07,0-15.49-.81-14.42-2.14.83-1,4.2-5.88,5.69-8A1.58,1.58,0,0,1,287,514.33Z"/><path class="cls-7" d="M293.73,508.69h5.67s1-6.06,5.17-7.31,17.18,0,17.18,0,6.59,5.17,6.41,8.55-1.6,7.66-6.41,7.84-15.49-1.52-18-2.59c-1.81-.77-7.39-3.86-10.3-5.48A.54.54,0,0,1,293.73,508.69Z"/><path class="cls-7" d="M289.4,503.86s-.8,2.49,1.42,2.22,6.68.2,7.39-1.1,1.78-3.7,1-4.15-2.76-1.33-4-.44S289.4,503.86,289.4,503.86Z"/><path class="cls-8" d="M279.37,499.11s-5.79,2.76-3.74,5.08,4,3.47,7.66,2.76,4.89-4.54,4.89-4.54-1.24-2.94-3.73-3.3A21.32,21.32,0,0,0,279.37,499.11Z"/><path class="cls-9" d="M278.66,501.47s6.26-1.52,6.69.35-1.88,3.39-2.42,3.39-5.34.18-5.79-.8S278.66,501.47,278.66,501.47Z"/><path class="cls-10" d="M279.57,502.3s3.53-.86,3.78.2-1.07,1.91-1.37,1.91-3,.1-3.26-.45S279.57,502.3,279.57,502.3Z"/><path class="cls-11" d="M178.35,494.06s8.19,9.26,0,23.15-11.93,14.24-11.93,14.24-6.06,2-6.06,0-1.06-5.16,1.07-6.41,8.54-6.94,9.61-10.5,1.08-15.49.9-16.38S174.43,493,178.35,494.06Z"/><polygon class="cls-12" points="174.49 495.4 171.89 495.4 171.89 494.11 174.09 493.85 175.36 492.38 176.89 492.71 176.16 493.89 176.03 495.4 174.49 495.4"/><path class="cls-11" d="M157.08,529.91s-10.52,6.5-22.81-3.93-12-14.18-12-14.18-.9-6.3,1-6,5.27-.17,6.13,2.15,5.4,9.59,8.72,11.25,15.09,3.69,16,3.67S158.8,526.23,157.08,529.91Z"/><polygon class="cls-12" points="156.41 525.88 156.85 523.32 158.13 523.53 158.02 525.75 159.25 527.25 158.66 528.71 157.62 527.78 156.15 527.4 156.41 525.88"/><path class="cls-13" d="M190.8,498.75s16.28,10.78,18.9,11.91,7.85,6.25,4.36,15-16.28,6-16.28,6-12.21-4.83-14.54-9.93-1.74-18.16-1.74-18.16S185.28,497.9,190.8,498.75Z"/><path class="cls-14" d="M206.8,530.85s13.2-3.62,16.83-8.83,3.72-9.67,3.16-11.68-4.74-10.93-7.9-12.45-11.07-1.68-13.85-1.51S187.19,499,186,500.16s0,1.52,0,1.52l4.46.17s16.55,7.9,18.5,12.61,1.86,3,2.14,8.65A8.08,8.08,0,0,1,206.8,530.85Z"/><path class="cls-15" d="M188.37,504s5.94-.65,13.18,6.58,6.91,12.7,6.91,12.7-1.13,4.5-2.74,5.46-12.37-.8-14.94-2.73-7.23-9.16-7.07-11.33S182.74,505.78,188.37,504Z"/><path class="cls-16" d="M189.61,507.76s4.16-.45,9.23,4.62,4.84,8.89,4.84,8.89-.79,3.15-1.91,3.83-8.67-.57-10.47-1.92-5.07-6.41-5-7.93S185.67,509,189.61,507.76Z"/><path class="cls-17" d="M191.36,498.49s11.76,1.25,12.65,1.6,15.84,9.62,15.84,9.62l5.7,5V517l-11.39-9.79-10.87-5.52Z"/><path class="cls-17" d="M186.34,499.65s11.56,1.73,12.44,2.22,15.58,13.31,15.58,13.31l5.61,6.9v3.21l-11.21-13.56-10.68-7.64Z"/><path class="cls-17" d="M224.93,505.44s-2.75,9-3.11,9.63-8.22,11.11-8.22,11.11L209.78,530l-1.32-.29,7.55-7.62,5-7.75Z"/><path class="cls-17" d="M219.63,498.49s-1.86,6.69-2.07,7.18-4.73,8.52-4.73,8.52l-2.12,3-.65-.14,4.2-5.95,2.94-5.9Z"/><path class="cls-17" d="M214.84,496.39s-1.57,5.49-1.76,5.89-4.27,6.93-4.27,6.93l-1.94,2.41-.63-.14,3.84-4.82,2.64-4.81Z"/><circle class="cls-17" cx="195.01" cy="517.15" r="1.91"/><path class="cls-13" d="M101.87,478.43s16.28,10.78,18.9,11.91,7.85,6.25,4.36,15-16.29,6-16.29,6-12.21-4.83-14.53-9.93-1.75-18.16-1.75-18.16S96.34,477.58,101.87,478.43Z"/><path class="cls-14" d="M117.87,510.53s13.2-3.62,16.82-8.83,3.72-9.67,3.16-11.68-4.74-10.93-7.9-12.45-11.06-1.68-13.85-1.51-17.85,2.61-19,3.78,0,1.52,0,1.52l4.46.17s16.54,7.9,18.5,12.61,1.85,3,2.13,8.65A8.07,8.07,0,0,1,117.87,510.53Z"/><path class="cls-15" d="M99.43,483.7s5.95-.65,13.18,6.58,6.91,12.7,6.91,12.7-1.12,4.5-2.73,5.46-12.38-.8-15-2.73-7.23-9.16-7.07-11.33S93.81,485.46,99.43,483.7Z"/><path class="cls-16" d="M100.67,487.44s4.17-.45,9.23,4.62,4.85,8.89,4.85,8.89-.79,3.15-1.92,3.83-8.67-.57-10.47-1.92-5.06-6.41-5-7.93S96.73,488.68,100.67,487.44Z"/><path class="cls-17" d="M102.43,478.17s11.75,1.25,12.64,1.6,15.85,9.62,15.85,9.62l5.7,5v2.31l-11.4-9.79-10.86-5.52Z"/><path class="cls-17" d="M97.41,479.33s11.56,1.73,12.43,2.22,15.59,13.31,15.59,13.31l5.6,6.9V505l-11.21-13.56-10.68-7.64Z"/><path class="cls-17" d="M136,485.12s-2.75,9-3.11,9.63-8.22,11.11-8.22,11.11l-3.83,3.79-1.32-.29,7.55-7.62,5-7.75Z"/><path class="cls-17" d="M130.69,478.17s-1.86,6.69-2.07,7.18-4.72,8.52-4.72,8.52l-2.13,3-.64-.14,4.2-5.95,2.93-5.9Z"/><path class="cls-17" d="M125.91,476.07s-1.58,5.49-1.77,5.89-4.26,6.93-4.26,6.93l-1.95,2.41-.62-.14,3.84-4.82,2.63-4.81Z"/><circle class="cls-17" cx="106.08" cy="496.83" r="1.91"/><path class="cls-11" d="M258.15,531.87s-10.52,6.5-22.81-3.93-12-14.18-12-14.18-.9-6.3,1-6,5.27-.17,6.13,2.14,5.39,9.6,8.72,11.26,15.08,3.69,16,3.67S259.87,528.19,258.15,531.87Z"/><polygon class="cls-12" points="257.48 527.84 257.92 525.27 259.19 525.49 259.08 527.71 260.31 529.21 259.73 530.67 258.69 529.74 257.22 529.35 257.48 527.84"/><path class="cls-11" d="M311,506.46s11-5.67,22.44,5.67,10.89,15.06,10.89,15.06.41,6.35-1.48,5.87-5.27-.23-6-2.61-4.64-10-7.83-11.89-14.75-4.84-15.66-4.88S309,510,311,506.46Z"/><polygon class="cls-12" points="311.39 510.53 310.75 513.05 309.5 512.74 309.78 510.54 308.67 508.94 309.37 507.54 310.33 508.54 311.76 509.04 311.39 510.53"/><path class="cls-5" d="M134.16,495.15s2.94,20.38,29.52,17.38,34.64-13.39,34.64-13.39.19,7.4-4.58,11.2-19.8,8.19-19.8,8.19l-21.63-1s-11.55-2.4-15.4-9.79S134.16,495.15,134.16,495.15Z"/><path class="cls-6" d="M160.18,473.87s-19.75,2.67-25,14.69,6.31,19.85,6.31,19.85,5.38,7,18.65,5.31,30-4.51,34.32-9.36,5.79-7.52,0-16.07-20.88-13.35-23.9-13.35S160.18,473.87,160.18,473.87Z"/><path class="cls-7" d="M153,498.18l17.91,7.29a.91.91,0,0,1-.13,1.73,54.32,54.32,0,0,1-10.95,1.71c-5.07,0-15.49-.8-14.42-2.13.82-1,4.19-5.88,5.69-8A1.58,1.58,0,0,1,153,498.18Z"/><path class="cls-7" d="M159.8,492.53h5.67s1-6,5.17-7.3,17.18,0,17.18,0,6.59,5.17,6.41,8.55-1.6,7.66-6.41,7.83-15.49-1.51-18-2.58c-1.81-.77-7.39-3.86-10.3-5.48A.55.55,0,0,1,159.8,492.53Z"/><path class="cls-7" d="M155.47,487.71s-.8,2.49,1.42,2.22,6.68.2,7.39-1.1,1.78-3.71,1-4.15-2.76-1.34-4-.45S155.47,487.71,155.47,487.71Z"/><path class="cls-8" d="M145.44,483s-5.79,2.76-3.74,5.07,4,3.48,7.66,2.76,4.89-4.54,4.89-4.54-1.24-2.93-3.74-3.29A20.66,20.66,0,0,0,145.44,483Z"/><path class="cls-9" d="M144.73,485.32s6.26-1.52,6.69.35-1.89,3.39-2.42,3.39-5.34.17-5.79-.81S144.73,485.32,144.73,485.32Z"/><path class="cls-10" d="M145.64,486.15s3.53-.86,3.78.2-1.07,1.91-1.37,1.91-3,.1-3.26-.46S145.64,486.15,145.64,486.15Z"/><path class="cls-5" d="M231.37,501s2.93,20.38,29.51,17.38S295.53,505,295.53,505s.18,7.39-4.58,11.19-19.8,8.19-19.8,8.19l-21.63-1s-11.55-2.4-15.4-9.79S231.37,501,231.37,501Z"/><path class="cls-6" d="M257.39,479.67s-19.75,2.67-25,14.69,6.31,19.85,6.31,19.85,5.38,7,18.65,5.31,30-4.51,34.32-9.36,5.79-7.52,0-16.07-20.88-13.35-23.9-13.35S257.39,479.67,257.39,479.67Z"/><path class="cls-7" d="M250.24,504l17.9,7.29A.91.91,0,0,1,268,513a54.43,54.43,0,0,1-10.95,1.71c-5.08,0-15.49-.8-14.42-2.13.82-1,4.19-5.88,5.69-8A1.58,1.58,0,0,1,250.24,504Z"/><path class="cls-7" d="M257,498.33h5.67s1-6.05,5.16-7.3S285,491,285,491s6.58,5.17,6.41,8.55-1.61,7.66-6.41,7.83-15.5-1.51-18-2.58c-1.81-.77-7.39-3.86-10.3-5.48A.55.55,0,0,1,257,498.33Z"/><path class="cls-7" d="M252.68,493.51s-.81,2.49,1.42,2.22,6.68.2,7.39-1.1,1.78-3.71,1-4.15-2.76-1.34-4-.45S252.68,493.51,252.68,493.51Z"/><path class="cls-8" d="M242.65,488.76s-5.79,2.76-3.74,5.08,4,3.47,7.65,2.76,4.9-4.55,4.9-4.55-1.25-2.93-3.74-3.29A20.66,20.66,0,0,0,242.65,488.76Z"/><path class="cls-9" d="M241.93,491.12s6.27-1.52,6.7.35-1.89,3.39-2.42,3.39-5.34.17-5.79-.81S241.93,491.12,241.93,491.12Z"/><path class="cls-10" d="M242.85,492s3.53-.86,3.77.2-1.06,1.91-1.36,1.91-3,.1-3.27-.46S242.85,492,242.85,492Z"/><path class="cls-11" d="M169.14,462s-.76,12.34-16.38,16.36S134.25,480,134.25,480s-5.66-2.9-4.28-4.29,2.9-4.4,5.29-3.77,11,1.13,14.23-.63,11.71-10.2,12.22-11S167.12,458.51,169.14,462Z"/><polygon class="cls-12" points="165.46 460.26 163.62 458.42 164.53 457.5 166.28 458.87 168.21 458.73 169.06 460.06 167.71 460.37 166.54 461.35 165.46 460.26"/><path class="cls-11" d="M226.23,498.33s-10.51,6.5-22.81-3.93-12-14.18-12-14.18-.9-6.3,1-6,5.27-.18,6.14,2.14S204,486,207.3,487.65s15.08,3.7,16,3.67S228,494.66,226.23,498.33Z"/><polygon class="cls-12" points="225.57 494.3 226.01 491.74 227.28 491.96 227.17 494.17 228.4 495.67 227.81 497.13 226.78 496.21 225.31 495.82 225.57 494.3"/><path class="cls-13" d="M286.67,470.54s16.28,10.78,18.9,11.92,7.85,6.24,4.36,15-16.29,6-16.29,6-12.21-4.82-14.53-9.93-1.75-18.15-1.75-18.15S281.14,469.69,286.67,470.54Z"/><path class="cls-14" d="M302.67,502.64s13.2-3.61,16.82-8.82,3.72-9.67,3.16-11.69-4.74-10.93-7.9-12.44-11.06-1.68-13.85-1.52-17.85,2.61-19,3.79,0,1.51,0,1.51l4.46.17s16.54,7.9,18.5,12.61,1.85,3,2.13,8.66A8.07,8.07,0,0,1,302.67,502.64Z"/><path class="cls-15" d="M284.23,475.81s5.95-.64,13.18,6.59,6.91,12.69,6.91,12.69-1.12,4.5-2.73,5.47-12.38-.81-14.95-2.73-7.23-9.16-7.07-11.33S278.61,477.58,284.23,475.81Z"/><path class="cls-16" d="M285.47,479.55s4.17-.45,9.23,4.62,4.85,8.89,4.85,8.89-.79,3.15-1.92,3.83-8.67-.56-10.47-1.91-5.06-6.42-5-7.94S281.53,480.79,285.47,479.55Z"/><path class="cls-17" d="M287.23,470.28s11.75,1.25,12.64,1.61,15.85,9.61,15.85,9.61l5.7,5v2.31L310,479l-10.86-5.52Z"/><path class="cls-17" d="M282.21,471.45s11.56,1.72,12.43,2.21S310.23,487,310.23,487l5.6,6.91v3.2l-11.21-13.56-10.68-7.64Z"/><path class="cls-17" d="M320.8,477.24s-2.75,9-3.11,9.62S309.47,498,309.47,498l-3.83,3.8-1.32-.3,7.55-7.62,5-7.74Z"/><path class="cls-17" d="M315.49,470.28s-1.86,6.69-2.07,7.18S308.7,486,308.7,486l-2.13,3-.64-.15,4.2-5.94,2.93-5.91Z"/><path class="cls-17" d="M310.71,468.18s-1.58,5.49-1.77,5.9-4.26,6.93-4.26,6.93l-1.95,2.4-.62-.14,3.84-4.81,2.63-4.82Z"/><circle class="cls-17" cx="290.88" cy="488.95" r="1.91"/><path class="cls-13" d="M215,463.87s16.28,10.78,18.9,11.92,7.85,6.24,4.36,15-16.28,6-16.28,6-12.22-4.82-14.54-9.93-1.75-18.15-1.75-18.15S209.44,463,215,463.87Z"/><path class="cls-14" d="M231,496s13.2-3.61,16.82-8.83,3.72-9.66,3.16-11.68-4.74-10.93-7.9-12.44S232,461.34,229.2,461.5s-17.85,2.61-19,3.79,0,1.51,0,1.51l4.46.17s16.54,7.9,18.5,12.61,1.86,3,2.13,8.66A8.07,8.07,0,0,1,231,496Z"/><path class="cls-15" d="M212.53,469.14s5.95-.65,13.18,6.59,6.91,12.69,6.91,12.69-1.12,4.5-2.73,5.47-12.38-.81-14.95-2.74-7.23-9.16-7.07-11.33S206.91,470.91,212.53,469.14Z"/><path class="cls-16" d="M213.78,472.88s4.16-.45,9.23,4.62,4.84,8.89,4.84,8.89-.79,3.15-1.92,3.83-8.67-.57-10.47-1.92-5.06-6.41-5-7.93S209.84,474.12,213.78,472.88Z"/><path class="cls-17" d="M215.53,463.61s11.75,1.25,12.64,1.61S244,474.83,244,474.83l5.7,5v2.31l-11.4-9.79-10.86-5.52Z"/><path class="cls-17" d="M210.51,464.77s11.56,1.73,12.43,2.22,15.59,13.31,15.59,13.31l5.6,6.9v3.21l-11.21-13.56-10.68-7.64Z"/><path class="cls-17" d="M249.1,470.56s-2.75,9-3.11,9.63-8.22,11.11-8.22,11.11l-3.83,3.8-1.32-.3,7.55-7.62,5-7.74Z"/><path class="cls-17" d="M243.79,463.61s-1.86,6.69-2.07,7.18-4.72,8.52-4.72,8.52l-2.13,3-.64-.15,4.2-5.95,2.93-5.9Z"/><path class="cls-17" d="M239,461.51s-1.58,5.49-1.77,5.89-4.26,6.94-4.26,6.94l-1.95,2.4-.62-.14,3.84-4.81,2.64-4.82Z"/><circle class="cls-17" cx="219.18" cy="482.28" r="1.91"/><path class="cls-11" d="M368.38,528.83s-10.51,6.49-22.81-3.94-12-14.18-12-14.18-.9-6.3,1-6,5.27-.18,6.14,2.14,5.39,9.59,8.71,11.26,15.09,3.69,16,3.66S370.1,525.15,368.38,528.83Z"/><polygon class="cls-12" points="367.71 524.8 368.16 522.23 369.43 522.45 369.32 524.67 370.55 526.17 369.96 527.62 368.92 526.7 367.45 526.31 367.71 524.8"/><path class="cls-11" d="M323.91,491.25s11-5.67,22.44,5.68S357.24,512,357.24,512s.42,6.34-1.48,5.86-5.27-.23-6-2.6-4.64-10-7.83-11.89-14.75-4.84-15.66-4.89S321.92,494.79,323.91,491.25Z"/><polygon class="cls-12" points="324.27 495.32 323.63 497.85 322.38 497.53 322.66 495.33 321.55 493.74 322.25 492.33 323.21 493.33 324.65 493.83 324.27 495.32"/><circle class="cls-18" cx="691.17" cy="512.42" r="24.77"/><polygon class="cls-19" points="698.98 492.34 701.35 479.44 704.2 490.96 717.36 492.89 704.76 495.58 704.35 509.3 701.38 497.53 687.9 495.44 698.98 492.34"/><polygon class="cls-19" points="703.13 494.66 700.72 493.93 710.49 482.27 711.83 484.74 703.13 494.66"/><path class="cls-19" d="M763.74,508.43s3.26-3.66,3.39-6.26c0,0,8.72-1.4,9.25-7.38s.47-6.73-2.73-10.59-8.25-1.86-8.25-1.86a9.41,9.41,0,0,0-5.92-6.52c-5.06-1.93-11.25,1.13-11.25,1.13l-1.2,1.73a5.34,5.34,0,0,0-4.65-1.93,11.89,11.89,0,0,0-6.19,2.6l-1.13,1.79a10.15,10.15,0,0,0-7.66,2.4,15.81,15.81,0,0,0-4.59,6.59s-6.25.93-7.78,3-3.6,4.53-3.13,9.32,6.32,8.18,6.32,8.18-3,6.46.07,11.58,9.31,7.25,9.31,7.25,6.59,1.27,10.25-1.39,5.86-7.66,5.86-7.66a16.62,16.62,0,0,0,8.52-1.13C757,517.41,763.74,508.43,763.74,508.43Z"/><path class="cls-20" d="M775.78,523.47,766,533.65s-9.18-12-13.77-14.38-15.58-8.58-20.17-7c0,0-1-4-1.79-4.2s13.77.2,21.56,3.8l-18-18.17,3-3L757,508.49s-7.39-15.17-5.19-17a4,4,0,0,1,4.19-.79,68.15,68.15,0,0,0,7.17,17.57A55.26,55.26,0,0,0,775.78,523.47Z"/><path class="cls-21" d="M823.3,506.48s-9.52-8.41-22.78,1.09-29.4,15.43-27.6,23.06,15.27,4.06,15.27,4.06,33.59-.44,37.37-7.9S823.3,506.48,823.3,506.48Z"/><path class="cls-20" d="M850.36,494.54s-5.19-4.88-12.65.89-16.48,9.45-15.56,13.95,8.42,2.24,8.42,2.24,22-1.16,24.16-5.62S850.36,494.54,850.36,494.54Z"/><path class="cls-20" d="M846,510.22a9.59,9.59,0,0,0-10.36-.07c-5.85,3.35-13.08,5.26-12.1,8.22s7,1.87,7,1.87,18,.37,19.58-2.4S846,510.22,846,510.22Z"/><rect class="cls-22" x="832.18" y="494.73" width="1.48" height="21.73" transform="translate(1104.19 -430.25) rotate(74.91)"/><rect class="cls-22" x="829.5" y="509.81" width="0.83" height="13.1" transform="translate(547.47 1452.09) rotate(-105.09)"/><rect class="cls-22" x="840.85" y="495.51" width="0.83" height="9.16" transform="translate(1219.81 1402.6) rotate(-143.48)"/><rect class="cls-22" x="832.8" y="504.64" width="0.52" height="5.37" transform="translate(1787.26 305.18) rotate(136.7)"/><rect class="cls-22" x="836.54" y="514.18" width="0.52" height="5.37" transform="translate(1800.27 319.1) rotate(136.7)"/><rect class="cls-22" x="836.52" y="510.72" width="0.52" height="5.37" transform="translate(721.1 -461.48) rotate(51.7)"/><path class="cls-19" d="M953.69,511.17s3.26-3.66,3.4-6.26c0,0,8.71-1.39,9.25-7.38s.46-6.72-2.73-10.58-8.25-1.87-8.25-1.87a9.43,9.43,0,0,0-5.93-6.52c-5-1.93-11.24,1.13-11.24,1.13l-1.2,1.73a5.37,5.37,0,0,0-4.66-1.93,12,12,0,0,0-6.19,2.6L925,483.88a10.13,10.13,0,0,0-7.65,2.4,15.69,15.69,0,0,0-4.59,6.59s-6.26.93-7.79,3-3.59,4.53-3.12,9.32,6.32,8.18,6.32,8.18-3,6.46.06,11.58,9.32,7.26,9.32,7.26,6.59,1.26,10.25-1.4,5.85-7.65,5.85-7.65a16.69,16.69,0,0,0,8.52-1.14C946.91,520.15,953.69,511.17,953.69,511.17Z"/><path class="cls-20" d="M965.74,526.21,956,536.39s-9.19-12-13.78-14.38-15.57-8.58-20.16-7c0,0-1-4-1.8-4.2s13.78.2,21.56,3.8l-18-18.17,3-3L947,511.23s-7.38-15.17-5.19-17a4,4,0,0,1,4.19-.8,68.28,68.28,0,0,0,7.17,17.58A55.24,55.24,0,0,0,965.74,526.21Z"/><path class="cls-23" d="M855.57,511.15s15.62,10.55,21.44,14.4,19.2,14.33,25.42,7.24,13.1-19.24,2.41-24.22-15.9-8.29-18.35-7.3-19.55-5.23-20-7.54-4.35,5-4.35,5l-.76,3.72-5.77,2.46Z"/><path class="cls-20" d="M855.84,511.34s-8.59-7.25-4.35-13.65c0,0,2.15-4,4.67-5.32s10,1.19,10,1.19L862.59,498l.83,6.63L857.26,507Z"/><path class="cls-20" d="M847.07,493.63l-.26-1.62s5.52,2.61,6.8,4-1,2.44-1,2.44Z"/><path class="cls-23" d="M759,488.42s15.62,10.55,21.44,14.4,19.21,14.32,25.42,7.23,13.1-19.23,2.41-24.21-15.9-8.29-18.35-7.3-19.55-5.23-20-7.54-4.35,5-4.35,5l-.76,3.73L759,482.15Z"/><path class="cls-20" d="M759.31,488.6S750.72,481.36,755,475c0,0,2.15-4,4.67-5.32s10,1.19,10,1.19l-3.52,4.43.83,6.62-6.16,2.37Z"/><path class="cls-20" d="M750.54,470.9l-.26-1.62s5.52,2.61,6.8,4-1,2.44-1,2.44Z"/><circle class="cls-18" cx="904.49" cy="484.85" r="24.77"/><polygon class="cls-19" points="912.31 464.77 914.67 451.86 917.52 463.38 930.68 465.32 918.08 468.01 917.67 481.72 914.7 469.96 901.22 467.87 912.31 464.77"/><polygon class="cls-19" points="916.45 467.09 914.04 466.36 923.82 454.7 925.16 457.17 916.45 467.09"/><path class="cls-21" d="M869.83,469.15s-9.51-8.41-22.77,1.09-29.4,15.42-27.6,23.06,15.27,4.06,15.27,4.06,33.58-.44,37.36-7.9S869.83,469.15,869.83,469.15Z"/><path class="cls-20" d="M896.89,457.21s-5.19-4.88-12.65.89-16.48,9.44-15.56,13.94,8.43,2.25,8.43,2.25,22-1.17,24.15-5.62S896.89,457.21,896.89,457.21Z"/><path class="cls-20" d="M892.57,472.88a9.58,9.58,0,0,0-10.36-.06c-5.85,3.34-13.08,5.26-12.1,8.21s7,1.88,7,1.88,18,.36,19.59-2.41S892.57,472.88,892.57,472.88Z"/><rect class="cls-22" x="878.72" y="457.4" width="1.48" height="21.73" transform="translate(1102.56 -502.79) rotate(74.91)"/><rect class="cls-22" x="876.03" y="472.47" width="0.83" height="13.1" transform="translate(642.17 1449.96) rotate(-105.09)"/><rect class="cls-22" x="887.38" y="458.18" width="0.83" height="9.16" transform="translate(1325.96 1362.95) rotate(-143.48)"/><rect class="cls-22" x="879.33" y="467.3" width="0.52" height="5.37" transform="translate(1842.05 208.76) rotate(136.7)"/><rect class="cls-22" x="883.07" y="476.85" width="0.52" height="5.37" transform="translate(1855.06 222.68) rotate(136.7)"/><rect class="cls-22" x="883.05" y="473.38" width="0.52" height="5.37" transform="translate(709.5 -512.2) rotate(51.7)"/><path class="cls-19" d="M831.23,469.73s3.26-3.66,3.39-6.26c0,0,8.72-1.4,9.25-7.39s.47-6.72-2.73-10.58-8.25-1.86-8.25-1.86a9.41,9.41,0,0,0-5.92-6.52c-5.06-1.93-11.25,1.13-11.25,1.13l-1.2,1.73a5.34,5.34,0,0,0-4.65-1.93,11.89,11.89,0,0,0-6.19,2.6l-1.13,1.79a10.15,10.15,0,0,0-7.66,2.4,15.81,15.81,0,0,0-4.59,6.59s-6.25.93-7.78,3-3.6,4.53-3.13,9.32,6.32,8.18,6.32,8.18-3,6.46.07,11.58,9.31,7.25,9.31,7.25,6.59,1.27,10.25-1.39,5.86-7.66,5.86-7.66a16.62,16.62,0,0,0,8.52-1.13C824.44,478.71,831.23,469.73,831.23,469.73Z"/><path class="cls-20" d="M843.27,484.77,833.49,495s-9.18-12-13.77-14.38-15.58-8.58-20.17-7c0,0-1-4-1.79-4.2s13.77.2,21.56,3.8l-18-18.17,3-3,20.17,17.76s-7.39-15.17-5.19-17a4,4,0,0,1,4.19-.79,68.15,68.15,0,0,0,7.17,17.57A55.26,55.26,0,0,0,843.27,484.77Z"/><circle class="cls-18" cx="857.5" cy="444.96" r="24.77"/><polygon class="cls-19" points="865.31 424.87 867.68 411.97 870.53 423.49 883.69 425.42 871.09 428.12 870.68 441.83 867.71 430.06 854.23 427.97 865.31 424.87"/><polygon class="cls-19" points="869.46 427.2 867.05 426.46 876.82 414.81 878.16 417.27 869.46 427.2"/><path class="cls-24" d="M699.79,457.59s-9.84,17.41,0,25.73,15.64,6.31,15.64,6.31,8.58,3.53,11.1,6.81c0,0,.26-11.61,3-16.65s5.8-22-5.8-25.48S699.79,457.59,699.79,457.59Z"/><path class="cls-25" d="M712.41,473l-9.59-3.09s.43-1.41,4.79-1.81S712.41,473,712.41,473Z"/><path class="cls-25" d="M728.92,468.62l-8.74,5s-.74-1.26,1.89-4.76S728.92,468.62,728.92,468.62Z"/><path class="cls-25" d="M719.66,478l-5.75,3.72s-.38-.76,1.47-3.14A3,3,0,0,1,719.66,478Z"/><rect class="cls-22" x="702.28" y="442.76" width="1.84" height="15.39" rx="0.85" transform="translate(1527.4 584.97) rotate(156.63)"/><rect class="cls-22" x="703.85" y="436.24" width="1.84" height="20.66" rx="0.85" transform="translate(1470.55 777.77) rotate(171.03)"/><rect class="cls-22" x="698.32" y="440.41" width="1.84" height="20.08" rx="0.85" transform="translate(1502.64 235.07) rotate(132.2)"/><path class="cls-24" d="M745.43,437.76s-9.84,17.41,0,25.74,15.64,6.3,15.64,6.3,8.58,3.53,11.1,6.81c0,0,.25-11.6,3-16.65s5.8-21.95-5.81-25.48S745.43,437.76,745.43,437.76Z"/><path class="cls-25" d="M758,453.15l-9.59-3.09s.44-1.4,4.8-1.81S758,453.15,758,453.15Z"/><path class="cls-25" d="M774.55,448.8l-8.73,5s-.75-1.27,1.88-4.77S774.55,448.8,774.55,448.8Z"/><path class="cls-25" d="M765.29,458.21l-5.74,3.72s-.39-.76,1.47-3.13A3,3,0,0,1,765.29,458.21Z"/><rect class="cls-22" x="747.92" y="422.93" width="1.84" height="15.39" rx="0.85" transform="translate(1607.06 528.84) rotate(156.63)"/><rect class="cls-22" x="749.48" y="416.42" width="1.84" height="20.66" rx="0.85" transform="translate(1558.17 731.25) rotate(171.03)"/><rect class="cls-22" x="743.95" y="420.59" width="1.84" height="20.08" rx="0.85" transform="translate(1564.24 168.12) rotate(132.2)"/><circle class="cls-1" cx="206.24" cy="248.34" r="17.63"/><circle class="cls-1" cx="814.7" cy="248.34" r="17.63"/></svg>