<svg xmlns="http://www.w3.org/2000/svg" width="967" height="456.833" viewBox="0 0 967 456.833">
  <g id="Graf_Klimagass" data-name="Graf Klimagass" transform="translate(-411 -4133.996)">
    <g id="Group_83" data-name="Group 83" transform="translate(445.526 4572.915)">
      <line id="Line_58" data-name="Line 58" x2="726.761" transform="translate(0 11.093)" fill="none" stroke="#333" stroke-linecap="square" stroke-miterlimit="10" stroke-width="1"/>
      <g id="Group_82" data-name="Group 82">
        <g id="Group_81" data-name="Group 81">
          <line id="Line_59" data-name="Line 59" y1="11.093" fill="none" stroke="#333" stroke-linecap="square" stroke-miterlimit="10" stroke-width="1"/>
          <line id="Line_60" data-name="Line 60" y1="11.093" transform="translate(726.761)" fill="none" stroke="#333" stroke-linecap="square" stroke-miterlimit="10" stroke-width="1"/>
        </g>
      </g>
    </g>
    <g id="Group_84" data-name="Group 84" transform="translate(411 4133.996)">
      <text id="_0" data-name="0" transform="translate(16.892 453.833)" font-size="13" font-family="MuseoSans-500, Museo Sans" font-weight="500"><tspan x="0" y="0">0</tspan></text>
      <text id="_20" data-name="20" transform="translate(7.949 382.024)" font-size="13" font-family="MuseoSans-500, Museo Sans" font-weight="500"><tspan x="0" y="0">20</tspan></text>
      <text id="_40" data-name="40" transform="translate(7.949 308.019)" font-size="13" font-family="MuseoSans-500, Museo Sans" font-weight="500"><tspan x="0" y="0">40</tspan></text>
      <text id="_60" data-name="60" transform="translate(7.949 234.014)" font-size="13" font-family="MuseoSans-500, Museo Sans" font-weight="500"><tspan x="0" y="0">60</tspan></text>
      <text id="_80" data-name="80" transform="translate(7.949 160.009)" font-size="13" font-family="MuseoSans-500, Museo Sans" font-weight="500"><tspan x="0" y="0">80</tspan></text>
      <text id="_100" data-name="100" transform="translate(0 85.004)" font-size="12" font-family="MuseoSans-500, Museo Sans" font-weight="500"><tspan x="0" y="0">100</tspan></text>
      <text id="_120" data-name="120" transform="translate(0.994 12)" font-size="13" font-family="MuseoSans-500, Museo Sans" font-weight="500"><tspan x="0" y="0">120</tspan></text>
    </g>
    <line id="Line_61" data-name="Line 61" y1="444.034" transform="translate(445.526 4139.973)" fill="none"/>
    <g id="Group_86" data-name="Group 86" transform="translate(445.526 4176.99)">
      <line id="Line_69" data-name="Line 69" x2="726.761" transform="translate(0 370.025)" fill="none" stroke="#000" stroke-miterlimit="10" stroke-width="1" opacity="0.1"/>
      <line id="Line_70" data-name="Line 70" x2="726.761" transform="translate(0 296.015)" fill="none" stroke="#000" stroke-miterlimit="10" stroke-width="1" opacity="0.1"/>
      <line id="Line_71" data-name="Line 71" x2="726.761" transform="translate(0 222.005)" fill="none" stroke="#000" stroke-miterlimit="10" stroke-width="1" opacity="0.1"/>
      <line id="Line_72" data-name="Line 72" x2="726.761" transform="translate(0 147.995)" fill="none" stroke="#000" stroke-miterlimit="10" stroke-width="1" opacity="0.1"/>
      <line id="Line_73" data-name="Line 73" x2="726.761" transform="translate(0 74.01)" fill="none" stroke="#000" stroke-miterlimit="10" stroke-width="1" opacity="0.1"/>
      <line id="Line_74" data-name="Line 74" x2="726.761" fill="none" stroke="#000" stroke-miterlimit="10" stroke-width="1" opacity="0.1"/>
    </g>
    <line id="Line_63" data-name="Line 63" x2="726.761" transform="translate(445.526 4509.998)" fill="none" stroke="#000" stroke-miterlimit="10" stroke-width="1" opacity="0.1"/>
    <line id="Line_64" data-name="Line 64" x2="726.761" transform="translate(445.526 4436.012)" fill="none" stroke="#000" stroke-miterlimit="10" stroke-width="1" opacity="0.1"/>
    <line id="Line_65" data-name="Line 65" x2="726.761" transform="translate(445.526 4362.002)" fill="none" stroke="#000" stroke-miterlimit="10" stroke-width="1" opacity="0.1"/>
    <line id="Line_66" data-name="Line 66" x2="726.761" transform="translate(445.526 4287.993)" fill="none" stroke="#000" stroke-miterlimit="10" stroke-width="1" opacity="0.1"/>
    <line id="Line_67" data-name="Line 67" x2="726.761" transform="translate(445.526 4213.983)" fill="none" stroke="#000" stroke-miterlimit="10" stroke-width="1" opacity="0.1"/>
    <line id="Line_68" data-name="Line 68" x2="726.761" transform="translate(445.526 4139.973)" fill="none" stroke="#000" stroke-miterlimit="10" stroke-width="1" opacity="0.1"/>
    <g id="Group_90" data-name="Group 90" transform="translate(979 4158.494)">
      <g id="Group_89" data-name="Group 89" transform="translate(0)">
        <rect id="Rectangle_86" data-name="Rectangle 86" width="77.512" height="425.538" fill="#784f4d"/>
      </g>
    </g>
    <g id="Group_92" data-name="Group 92" transform="translate(772 4195.486)">
      <g id="Group_91" data-name="Group 91">
        <rect id="Rectangle_88" data-name="Rectangle 88" width="77.512" height="388.521" fill="#b27573"/>
      </g>
    </g>
    <g id="Group_94" data-name="Group 94" transform="translate(565 4324.542)">
      <g id="Group_93" data-name="Group 93" transform="translate(0)">
        <rect id="Rectangle_155" data-name="Rectangle 155" width="77.512" height="259.022" fill="#da9794"/>
      </g>
    </g>
    <path id="Path_41" data-name="Path 41" d="M387.93,21.88" transform="translate(941.288 4491.069)" fill="#78504d"/>
    <path id="Path_42" data-name="Path 42" d="M442.369,13.4V77.294H360.18V13.4" transform="translate(904.464 4459.762)" fill="none"/>
    <path id="Path_45" data-name="Path 45" d="M442.369,13.4V77.294H360.18V13.4" transform="translate(904.464 4459.762)" fill="none"/>
    <g id="Group_106" data-name="Group 106" transform="translate(1223 4169.907)">
      <path id="Path_221" data-name="Path 221" d="M0,0H51.52V32.122H0Z" transform="translate(0.274 74.093)" fill="#784f4d"/>
      <path id="Path_222" data-name="Path 222" d="M0,0H51.52V32.122H0Z" transform="translate(0.274 140.093)" fill="#b27573"/>
      <rect id="Rectangle_54" data-name="Rectangle 54" width="51.52" height="32.122" transform="translate(0.274 205.093)" fill="#da9794"/>
      <text id="Filterkaffe" transform="translate(80 94.093)" fill="#231815" font-size="14" font-family="MuseoSans-500, Museo Sans" font-weight="500"><tspan x="0" y="0">Filterkaffe</tspan></text>
      <text id="Kapselkaffe" transform="translate(80 161.093)" fill="#231815" font-size="14" font-family="MuseoSans-500, Museo Sans" font-weight="500"><tspan x="0" y="0">Kapselkaffe</tspan></text>
      <text id="Pulverkaffe" transform="translate(80 226.093)" fill="#231815" font-size="14" font-family="MuseoSans-500, Museo Sans" font-weight="500"><tspan x="0" y="0">Pulverkaffe</tspan></text>
      <g id="Group_105" data-name="Group 105" transform="translate(0 0)">
        <path id="Path_43" data-name="Path 43" d="M381.667,28.29a3.952,3.952,0,0,0-3.1,1.345,5.54,5.54,0,0,0-1.153,3.68h.029a5.068,5.068,0,0,0,1.153,3.562,3.941,3.941,0,0,0,3.074,1.315,3.786,3.786,0,0,0,3.045-1.256,5.687,5.687,0,0,0,1.035-3.68,5.714,5.714,0,0,0-1.035-3.68,3.759,3.759,0,0,0-3.045-1.286Zm0,0" transform="translate(-351.832 -9.41)" fill="#78504d"/>
        <path id="Path_44" data-name="Path 44" d="M404.117,28.2l-5.76-.208c-2.114-15.643-23.86-18.338-28.489,2.6l-2.262.119c-11.863,5.76-7.2,18.576-1.846,20.451v.03h38.61c9.169-2.4,11.163-18.085-.253-23Zm-24.336,7.308a5.035,5.035,0,0,0-3.126-1.042,4.262,4.262,0,0,0-3.275,1.384,5.353,5.353,0,0,0-1.265,3.706,5.114,5.114,0,0,0,1.191,3.587,4.139,4.139,0,0,0,3.215,1.295,5.344,5.344,0,0,0,3.245-1.131v2.2a6.977,6.977,0,0,1-3.676.893,6.011,6.011,0,0,1-4.6-1.846,6.647,6.647,0,0,1-1.742-4.778,7.4,7.4,0,0,1,1.875-5.239,6.624,6.624,0,0,1,5.031-1.995,6.929,6.929,0,0,1,3.126.64v2.322ZM394.8,44.516a6.409,6.409,0,0,1-4.837,1.935,6.3,6.3,0,0,1-4.748-1.846,6.81,6.81,0,0,1-1.756-4.912v-.03a7.2,7.2,0,0,1,1.816-5.18,6.487,6.487,0,0,1,4.971-1.875,6.054,6.054,0,0,1,4.659,1.816,7.1,7.1,0,0,1,1.712,5.031,7.1,7.1,0,0,1-1.816,5.061Zm9.66.714v.863H399.8v-.834l2.233-2.233a7.959,7.959,0,0,0,1.25-1.474,2.121,2.121,0,0,0,.313-1.131,1.326,1.326,0,0,0-.372-1.012,1.475,1.475,0,0,0-1.072-.342,2.858,2.858,0,0,0-1.965.863V38.95a3.375,3.375,0,0,1,2.114-.7,2.334,2.334,0,0,1,1.652.551,1.94,1.94,0,0,1,.61,1.5,2.871,2.871,0,0,1-.372,1.414,8.982,8.982,0,0,1-1.474,1.756l-1.756,1.712v.03h3.5Zm0,0" transform="translate(-360.183 -15.577)" fill="#78504d"/>
      </g>
    </g>
    <path id="Path_418" data-name="Path 418" d="M0,0H726.761" transform="translate(445.526 4584.007)" fill="none" stroke="#333" stroke-linecap="square" stroke-width="1"/>
  </g>
</svg>
