<svg xmlns="http://www.w3.org/2000/svg" viewBox="0 0 144.37 152.93"><defs><style>.cls-1{fill:#007e88;}.cls-2{fill:#006a6b;}.cls-3{fill:#ffd17a;}</style></defs><g id="Layer_4" data-name="Layer 4"><rect class="cls-1" x="70.98" y="5.67" width="4.01" height="75.82"/><path class="cls-2" d="M72.41,67.69s-8.68-.45-12.23-5.3a39.24,39.24,0,0,1-5.26-10.73s8.4.41,11.27,1.64,6.36,7.06,6.49,7.83S73.43,66.22,72.41,67.69Z"/><path class="cls-2" d="M72.77,67.69s8.67-.45,12.23-5.3a39.24,39.24,0,0,0,5.26-10.73S81.85,52.07,79,53.3s-6.35,7.06-6.49,7.83S71.74,66.22,72.77,67.69Z"/><path class="cls-2" d="M72.41,51.59s-8.68-.45-12.23-5.3a39.24,39.24,0,0,1-5.26-10.73s8.4.41,11.27,1.64,6.36,7.06,6.49,7.84S73.43,50.13,72.41,51.59Z"/><path class="cls-2" d="M73.57,51.59s8.68-.45,12.23-5.3a38.9,38.9,0,0,0,5.26-10.73s-8.4.41-11.27,1.64S73.43,44.26,73.3,45,72.55,50.13,73.57,51.59Z"/><path class="cls-2" d="M72.78,34.36s-8.68-.45-12.24-5.3a39.24,39.24,0,0,1-5.26-10.73s8.41.41,11.28,1.64,6.35,7.06,6.49,7.84S73.8,32.89,72.78,34.36Z"/><path class="cls-2" d="M73.94,34.36s8.68-.45,12.23-5.3a39.24,39.24,0,0,0,5.26-10.73S83,18.74,80.16,20,73.8,27,73.66,27.81,72.91,32.89,73.94,34.36Z"/><path class="cls-2" d="M72.41,19.47s-8.68-.45-12.23-5.3A39.24,39.24,0,0,1,54.92,3.44s8.4.41,11.27,1.64,6.36,7.06,6.49,7.84S73.43,18,72.41,19.47Z"/><path class="cls-2" d="M73.94,19.47s8.68-.45,12.23-5.3A39.24,39.24,0,0,0,91.43,3.44S83,3.85,80.16,5.08s-6.36,7.06-6.5,7.84S72.91,18,73.94,19.47Z"/><path class="cls-3" d="M141.28,75.72c0,41.15-30.93,74.51-69.09,74.51S3.09,116.87,3.09,75.72"/></g></svg>