<svg xmlns="http://www.w3.org/2000/svg" xmlns:xlink="http://www.w3.org/1999/xlink" viewBox="0 0 210 210"><defs><style>.cls-1{fill:none;}.cls-2{fill:#898989;}.cls-3{fill:#58aad5;}.cls-4{fill:#2e668f;}.cls-5{fill:#222;}.cls-6{fill:#a96663;}.cls-7{fill:#fbed21;}.cls-8{clip-path:url(#clip-path);}.cls-9{fill:#d3a762;}.cls-10{clip-path:url(#clip-path-2);}.cls-11{fill:#90524f;}.cls-12{fill:#b4dd8b;}.cls-13{clip-path:url(#clip-path-3);}.cls-14{fill:#7f9f62;}</style><clipPath id="clip-path"><path class="cls-1" d="M102,178.45l-29.76-5.72a3.42,3.42,0,0,0-2,.26l-13.62,5.79a1.65,1.65,0,0,0-.74,1.49l-.13,14.84a1.64,1.64,0,0,0,.71,1.5l13.33,6.56a3.43,3.43,0,0,0,2.28.29l29.82-6.57a1.5,1.5,0,0,0,.88-1.53l.13-15.35C102.88,179.21,102.49,178.54,102,178.45Z"/></clipPath><clipPath id="clip-path-2"><path class="cls-1" d="M49.81,123.44l-8.68,35.82a6.42,6.42,0,0,0-.08,2.51l2.74,17.57a1.38,1.38,0,0,0,1.07,1.11l11.82,2.21A1.16,1.16,0,0,0,58,182l7.08-15.51a6.28,6.28,0,0,0,.55-2.76l-1.11-37.61a1.36,1.36,0,0,0-1.1-1.28l-12.22-2.29A1.15,1.15,0,0,0,49.81,123.44Z"/></clipPath><clipPath id="clip-path-3"><path class="cls-1" d="M42.91,197.66l27-16.54a4.58,4.58,0,0,0,1.53-1.64L79.93,165a1.87,1.87,0,0,0-.09-1.74L73.09,151a1.17,1.17,0,0,0-1.26-.72l-14,4.14a4,4,0,0,0-2,1.38L34.49,182.48a1.77,1.77,0,0,0,0,1.87l7,12.67C41.82,197.67,42.45,198,42.91,197.66Z"/></clipPath></defs><g id="Layer_2" data-name="Layer 2"><polygon class="cls-2" points="141.02 16.7 131.97 16.67 132 5.06 141.04 5.09 141.02 16.7"/><polygon class="cls-2" points="158.98 16.64 149.94 16.61 149.96 5 159.01 5.03 158.98 16.64"/><polygon class="cls-2" points="176.95 16.64 167.9 16.61 167.93 5 176.97 5.03 176.95 16.64"/><path class="cls-3" d="M21.82,31.13V84.59h83.84c6.43,0,11.65,6.48,11.65,14.47v43.77h70.31V31.13c0-8-5.22-14.49-11.66-14.49H33.48C27,16.64,21.82,23.12,21.82,31.13Z"/><rect class="cls-4" x="21.78" y="84.59" width="34.58" height="7.35"/><rect class="cls-5" x="31.17" y="91.94" width="15.79" height="7.35"/><rect class="cls-2" x="36.39" y="99.28" width="4.87" height="43.55"/><rect class="cls-4" x="187.58" y="88.26" width="5.68" height="30.33"/><rect class="cls-4" x="16.09" y="28.7" width="5.68" height="30.33"/><rect class="cls-4" x="187.58" y="28.7" width="5.68" height="16.7"/><rect class="cls-4" x="187.58" y="48.68" width="5.68" height="16.7"/><rect class="cls-4" x="5.55" y="142.83" width="200" height="20.87"/><path class="cls-5" d="M154.52,84.66c-8.43,0-15.27,8.42-15.3,18.89s6.79,19,15.21,19,15.27-8.43,15.29-18.89S162.94,84.69,154.52,84.66Zm-.06,22.79c-1.71,0-3.09-1.73-3.09-3.86s1.4-3.84,3.11-3.84,3.1,1.74,3.09,3.86S156.17,107.46,154.46,107.45Z"/><polygon class="cls-5" points="94.64 57 92.41 56.99 92.47 28.65 94.71 28.66 94.64 57"/><polygon class="cls-5" points="100.27 57.02 98.03 57.01 98.09 28.67 100.33 28.68 100.27 57.02"/><polygon class="cls-5" points="105.89 57.04 103.65 57.03 103.72 28.69 105.95 28.7 105.89 57.04"/><polygon class="cls-5" points="111.51 57.06 109.28 57.05 109.34 28.71 111.58 28.72 111.51 57.06"/><polygon class="cls-5" points="117.14 57.08 114.9 57.07 114.97 28.73 117.2 28.74 117.14 57.08"/><polygon class="cls-5" points="55.69 194.75 43.34 192.5 53.03 110.47 65.38 112.72 55.69 194.75"/><path class="cls-6" d="M50,124.12,41.46,160a6.23,6.23,0,0,0-.07,2.51l2.78,17.55a1.38,1.38,0,0,0,1.09,1.1l11.82,2.16a1.18,1.18,0,0,0,1.29-.66l7-15.54a6.33,6.33,0,0,0,.54-2.76l-1.23-37.6a1.37,1.37,0,0,0-1.1-1.29l-12.23-2.23A1.17,1.17,0,0,0,50,124.12Z"/><polygon class="cls-5" points="46.42 193.9 46.55 178.4 113.27 179.29 113.14 194.79 46.42 193.9"/><path class="cls-7" d="M102,177.41,72.23,171.7a3.45,3.45,0,0,0-2,.25l-13.62,5.8a1.59,1.59,0,0,0-.73,1.48l-.13,14.85a1.63,1.63,0,0,0,.7,1.49l13.34,6.56a3.4,3.4,0,0,0,2.27.29l29.83-6.57a1.5,1.5,0,0,0,.87-1.53l.13-15.35C102.88,178.18,102.5,177.51,102,177.41Z"/><g class="cls-8"><polygon class="cls-9" points="55.07 209.45 55.51 165.16 56.49 165.17 56.05 209.46 55.07 209.45"/><polygon class="cls-9" points="57.09 209.48 57.53 165.19 58.51 165.2 58.07 209.5 57.09 209.48"/><polygon class="cls-9" points="59.1 209.51 59.54 165.22 60.52 165.23 60.08 209.53 59.1 209.51"/><polygon class="cls-9" points="61.12 209.54 61.56 165.25 62.54 165.26 62.1 209.56 61.12 209.54"/><polygon class="cls-9" points="63.13 209.57 63.58 165.28 64.56 165.3 64.12 209.59 63.13 209.57"/><polygon class="cls-9" points="65.15 209.6 65.59 165.31 66.57 165.33 66.13 209.62 65.15 209.6"/><polygon class="cls-9" points="67.17 209.63 67.61 165.34 68.59 165.36 68.15 209.65 67.17 209.63"/><polygon class="cls-9" points="69.18 209.66 69.62 165.37 70.6 165.39 70.16 209.68 69.18 209.66"/><polygon class="cls-9" points="71.2 209.7 71.64 165.41 72.62 165.42 72.18 209.71 71.2 209.7"/><polygon class="cls-9" points="73.21 209.73 73.65 165.44 74.64 165.45 74.19 209.74 73.21 209.73"/><polygon class="cls-9" points="75.23 209.76 75.67 165.47 76.65 165.48 76.21 209.77 75.23 209.76"/><polygon class="cls-9" points="77.25 209.79 77.69 165.5 78.67 165.51 78.23 209.8 77.25 209.79"/><polygon class="cls-9" points="79.26 209.82 79.7 165.53 80.68 165.54 80.24 209.84 79.26 209.82"/><polygon class="cls-9" points="81.28 209.85 81.72 165.56 82.7 165.57 82.26 209.87 81.28 209.85"/><polygon class="cls-9" points="83.29 209.88 83.73 165.59 84.72 165.61 84.28 209.9 83.29 209.88"/><polygon class="cls-9" points="85.31 209.91 85.75 165.62 86.73 165.64 86.29 209.93 85.31 209.91"/><polygon class="cls-9" points="87.33 209.94 87.77 165.65 88.75 165.67 88.31 209.96 87.33 209.94"/><polygon class="cls-9" points="89.34 209.97 89.78 165.68 90.76 165.7 90.32 209.99 89.34 209.97"/><polygon class="cls-9" points="91.36 210.01 91.8 165.71 92.78 165.73 92.34 210.02 91.36 210.01"/><polygon class="cls-9" points="93.37 210.04 93.81 165.75 94.8 165.76 94.35 210.05 93.37 210.04"/><polygon class="cls-9" points="95.39 210.07 95.83 165.78 96.81 165.79 96.37 210.08 95.39 210.07"/><polygon class="cls-9" points="97.41 210.1 97.84 165.81 98.83 165.82 98.39 210.11 97.41 210.1"/><polygon class="cls-9" points="99.42 210.13 99.86 165.84 100.84 165.85 100.4 210.15 99.42 210.13"/><polygon class="cls-9" points="101.44 210.16 101.88 165.87 102.86 165.88 102.42 210.18 101.44 210.16"/></g><g class="cls-10"><polygon class="cls-11" points="68.02 185.45 32.77 178.77 32.92 177.57 68.17 184.25 68.02 185.45"/><polygon class="cls-11" points="68.32 182.98 33.08 176.3 33.23 175.09 68.47 181.77 68.32 182.98"/><polygon class="cls-11" points="68.63 180.5 33.38 173.82 33.53 172.61 68.77 179.29 68.63 180.5"/><polygon class="cls-11" points="68.93 178.02 33.69 171.34 33.84 170.14 69.08 176.82 68.93 178.02"/><polygon class="cls-11" points="69.23 175.55 33.99 168.87 34.14 167.66 69.38 174.34 69.23 175.55"/><polygon class="cls-11" points="69.54 173.07 34.3 166.39 34.44 165.19 69.69 171.87 69.54 173.07"/><polygon class="cls-11" points="69.84 170.59 34.6 163.91 34.75 162.71 69.99 169.39 69.84 170.59"/><polygon class="cls-11" points="70.14 168.12 34.9 161.44 35.05 160.23 70.29 166.91 70.14 168.12"/><polygon class="cls-11" points="70.45 165.64 35.21 158.96 35.35 157.76 70.6 164.44 70.45 165.64"/><polygon class="cls-11" points="70.75 163.17 35.51 156.49 35.66 155.28 70.9 161.96 70.75 163.17"/><polygon class="cls-11" points="71.06 160.69 35.81 154.01 35.96 152.8 71.2 159.48 71.06 160.69"/><polygon class="cls-11" points="71.36 158.21 36.12 151.53 36.27 150.33 71.51 157.01 71.36 158.21"/><polygon class="cls-11" points="71.67 155.74 36.42 149.06 36.57 147.85 71.81 154.53 71.67 155.74"/><polygon class="cls-11" points="71.97 153.26 36.73 146.58 36.88 145.37 72.12 152.05 71.97 153.26"/><polygon class="cls-11" points="72.27 150.78 37.03 144.1 37.18 142.9 72.42 149.58 72.27 150.78"/><polygon class="cls-11" points="72.58 148.31 37.34 141.63 37.48 140.42 72.72 147.1 72.58 148.31"/><polygon class="cls-11" points="72.88 145.83 37.64 139.15 37.79 137.95 73.03 144.63 72.88 145.83"/><polygon class="cls-11" points="73.19 143.35 37.94 136.68 38.09 135.47 73.33 142.15 73.19 143.35"/><polygon class="cls-11" points="73.49 140.88 38.25 134.2 38.4 132.99 73.64 139.67 73.49 140.88"/><polygon class="cls-11" points="73.79 138.4 38.55 131.72 38.7 130.52 73.94 137.2 73.79 138.4"/><polygon class="cls-11" points="74.1 135.93 38.85 129.25 39 128.04 74.25 134.72 74.1 135.93"/><polygon class="cls-11" points="74.4 133.45 39.16 126.77 39.31 125.56 74.55 132.24 74.4 133.45"/><polygon class="cls-11" points="74.7 130.97 39.46 124.29 39.61 123.09 74.85 129.77 74.7 130.97"/><polygon class="cls-11" points="75.01 128.5 39.77 121.82 39.91 120.61 75.16 127.29 75.01 128.5"/></g><polygon class="cls-5" points="81.07 145.12 88.16 157.88 33.26 205 26.17 192.25 81.07 145.12"/><path class="cls-12" d="M43.36,198.43l27-16.67a4.61,4.61,0,0,0,1.53-1.65l8.42-14.5a1.86,1.86,0,0,0-.08-1.74l-6.79-12.22a1.17,1.17,0,0,0-1.27-.71l-13.94,4.2a4.11,4.11,0,0,0-2,1.4L34.89,183.29a1.78,1.78,0,0,0,0,1.88l7,12.63C42.27,198.45,42.89,198.73,43.36,198.43Z"/><g class="cls-13"><polygon class="cls-14" points="67 138.82 87.1 175.41 86.29 176.1 66.19 139.51 67 138.82"/><polygon class="cls-14" points="65.34 140.24 85.44 176.82 84.63 177.51 64.53 140.93 65.34 140.24"/><polygon class="cls-14" points="63.67 141.65 83.77 178.24 82.96 178.92 62.86 142.34 63.67 141.65"/><polygon class="cls-14" points="62.01 143.06 82.11 179.65 81.3 180.34 61.2 143.75 62.01 143.06"/><polygon class="cls-14" points="60.34 144.47 80.44 181.06 79.63 181.75 59.53 145.16 60.34 144.47"/><polygon class="cls-14" points="58.68 145.89 78.78 182.47 77.97 183.16 57.87 146.57 58.68 145.89"/><polygon class="cls-14" points="57.01 147.3 77.11 183.88 76.3 184.57 56.2 147.99 57.01 147.3"/><polygon class="cls-14" points="55.35 148.71 75.44 185.3 74.63 185.98 54.54 149.4 55.35 148.71"/><polygon class="cls-14" points="53.68 150.12 73.78 186.71 72.97 187.4 52.87 150.81 53.68 150.12"/><polygon class="cls-14" points="52.02 151.53 72.11 188.12 71.3 188.81 51.21 152.22 52.02 151.53"/><polygon class="cls-14" points="50.35 152.95 70.45 189.53 69.64 190.22 49.54 153.63 50.35 152.95"/><polygon class="cls-14" points="48.69 154.36 68.78 190.94 67.97 191.63 47.88 155.05 48.69 154.36"/><polygon class="cls-14" points="47.02 155.77 67.12 192.36 66.31 193.04 46.21 156.46 47.02 155.77"/><polygon class="cls-14" points="45.36 157.18 65.45 193.77 64.64 194.46 44.55 157.87 45.36 157.18"/><polygon class="cls-14" points="43.69 158.59 63.79 195.18 62.98 195.87 42.88 159.28 43.69 158.59"/><polygon class="cls-14" points="42.03 160.01 62.12 196.59 61.31 197.28 41.22 160.69 42.03 160.01"/><polygon class="cls-14" points="40.36 161.42 60.46 198 59.65 198.69 39.55 162.11 40.36 161.42"/><polygon class="cls-14" points="38.7 162.83 58.79 199.42 57.98 200.1 37.89 163.52 38.7 162.83"/><polygon class="cls-14" points="37.03 164.24 57.13 200.83 56.32 201.52 36.22 164.93 37.03 164.24"/><polygon class="cls-14" points="35.37 165.66 55.46 202.24 54.65 202.93 34.56 166.34 35.37 165.66"/><polygon class="cls-14" points="33.7 167.07 53.8 203.65 52.99 204.34 32.89 167.75 33.7 167.07"/><polygon class="cls-14" points="32.04 168.48 52.13 205.06 51.32 205.75 31.23 169.17 32.04 168.48"/><polygon class="cls-14" points="30.37 169.89 50.47 206.48 49.66 207.16 29.56 170.58 30.37 169.89"/><polygon class="cls-14" points="28.7 171.3 48.8 207.89 47.99 208.58 27.89 171.99 28.7 171.3"/></g></g></svg>