<svg xmlns="http://www.w3.org/2000/svg" width="346" height="220.681" viewBox="0 0 346 220.681">
  <g id="Graf" transform="translate(0 -23.425)">
    <g id="Group_301" data-name="Group 301" transform="translate(0 26.022)">
      <path id="Path_665" data-name="Path 665" d="M0,0H177.461" transform="translate(61 128.003)" fill="none" stroke="#333" stroke-width="1" opacity="0.1"/>
      <path id="Path_281" data-name="Path 281" d="M0,0H177.461" transform="translate(61 169.803)" fill="none" stroke="#333" stroke-width="1" opacity="0.1"/>
      <path id="Path_666" data-name="Path 666" d="M0,0H177.461" transform="translate(61 86.402)" fill="none" stroke="#333" stroke-width="1" opacity="0.1"/>
      <path id="Path_667" data-name="Path 667" d="M0,0H177.461" transform="translate(61 44.703)" fill="none" stroke="#333" stroke-width="1" opacity="0.1"/>
      <path id="Path_668" data-name="Path 668" d="M0,0H177.461" transform="translate(61 3.103)" fill="none" stroke="#333" stroke-width="1" opacity="0.1"/>
    </g>
    <g id="Group_47" data-name="Group 47" transform="translate(10 26.425)">
      <g id="Group_44" data-name="Group 44">
        <text id="_0" data-name="0" transform="translate(38 214.681)" font-size="10" font-family="MuseoSans-500, Museo Sans" font-weight="500"><tspan x="-6.25" y="0">0</tspan></text>
        <text id="_2000000" data-name="2000000" transform="translate(38 172.764)" font-size="10" font-family="MuseoSans-500, Museo Sans" font-weight="500"><tspan x="-43.22" y="0">2000000</tspan></text>
        <text id="_4000000" data-name="4000000" transform="translate(38 131.119)" font-size="10" font-family="MuseoSans-500, Museo Sans" font-weight="500"><tspan x="-43.56" y="0">4000000</tspan></text>
        <text id="_6000000" data-name="6000000" transform="translate(38 89.473)" font-size="10" font-family="MuseoSans-500, Museo Sans" font-weight="500"><tspan x="-43.49" y="0">6000000</tspan></text>
        <text id="_8000000" data-name="8000000" transform="translate(38 47.828)" font-size="10" font-family="MuseoSans-500, Museo Sans" font-weight="500"><tspan x="-43.57" y="0">8000000</tspan></text>
        <text id="_10000000" data-name="10000000" transform="translate(39 6)" font-size="10" font-family="MuseoSans-500, Museo Sans" font-weight="500"><tspan x="-48.64" y="0">10000000</tspan></text>
      </g>
      <line id="Line_31" data-name="Line 31" y1="208.23" transform="translate(50.461 2.724)" fill="none" stroke="#000" stroke-miterlimit="10" stroke-width="1"/>
      <g id="Group_46" data-name="Group 46" transform="translate(50.461 2.724)">
        <g id="Group_45" data-name="Group 45">
          <line id="Line_32" data-name="Line 32" x2="10.539" transform="translate(0 208.23)" fill="none" stroke="#000" stroke-linecap="square" stroke-miterlimit="10" stroke-width="1"/>
          <line id="Line_33" data-name="Line 33" x2="10.539" transform="translate(0 166.594)" fill="none" stroke="#000" stroke-linecap="square" stroke-miterlimit="10" stroke-width="1"/>
          <line id="Line_34" data-name="Line 34" x2="10.539" transform="translate(0 124.957)" fill="none" stroke="#000" stroke-linecap="square" stroke-miterlimit="10" stroke-width="1"/>
          <line id="Line_35" data-name="Line 35" x2="10.539" transform="translate(0 83.273)" fill="none" stroke="#000" stroke-linecap="square" stroke-miterlimit="10" stroke-width="1"/>
          <line id="Line_36" data-name="Line 36" x2="10.539" transform="translate(0 41.637)" fill="none" stroke="#000" stroke-linecap="square" stroke-miterlimit="10" stroke-width="1"/>
          <line id="Line_37" data-name="Line 37" x2="10.539" fill="none" stroke="#000" stroke-linecap="square" stroke-miterlimit="10" stroke-width="1"/>
        </g>
      </g>
    </g>
    <g id="Group_52" data-name="Group 52" transform="translate(103.495 31.172)">
      <g id="Group_49" data-name="Group 49" transform="translate(71 0)">
        <rect id="Rectangle_69" data-name="Rectangle 69" width="28.505" height="206.206" fill="#4da2d1"/>
      </g>
      <g id="Group_50" data-name="Group 50" transform="translate(0 12.556)">
        <rect id="Rectangle_71" data-name="Rectangle 71" width="28.505" height="193.65" fill="#df928e"/>
      </g>
    </g>
    <g id="Group_122" data-name="Group 122" transform="translate(250.122 42.471)">
      <rect id="Rectangle_50" data-name="Rectangle 50" width="25.491" height="18.029" transform="translate(-1.613 35.845)" fill="#df928e"/>
      <path id="Path_278" data-name="Path 278" d="M0,0H25.413V18.5H0Z" transform="translate(-1.535 70.766)" fill="#4da2d1"/>
      <text id="Svin_og_fjørfe" data-name="Svin og fjørfe" transform="translate(33.878 47.953)" fill="#231815" font-size="10" font-family="MuseoSans-500, Museo Sans" font-weight="500"><tspan x="0" y="0">Svin og fjørfe</tspan></text>
      <text id="Sau_og_storfe" data-name="Sau og storfe" transform="translate(33.878 82.953)" fill="#231815" font-size="10" font-family="MuseoSans-500, Museo Sans" font-weight="500"><tspan x="0" y="0">Sau og storfe</tspan></text>
      <g id="肉" transform="translate(-1.535 0)">
        <path id="Path_271" data-name="Path 271" d="M16.362,160.088a8.958,8.958,0,0,1-.926-.046,25.779,25.779,0,0,1-8.925-2.318,11.451,11.451,0,0,1-3.948-3.1,8.987,8.987,0,0,1-1.9-5.136,16.41,16.41,0,0,1-.091-2.852c.178-2.771,1.169-3.774,1.97-4.124a.592.592,0,0,1,.219-.05h.02A4.679,4.679,0,0,1,5.5,144.021c.6.549,1.095,1.1,1.311,1.336.513.2,2.6.913,3.911-.334a14.1,14.1,0,0,1,2.711-2.172,7.1,7.1,0,0,1,3.443-.9,13.779,13.779,0,0,1,4.307.51,6.915,6.915,0,0,1,4.33,3.373c.65,1.233.456,3.153.285,4.847-.314,3.1-1.209,5.232-2.816,6.71A9.76,9.76,0,0,1,16.362,160.088ZM2.886,144.18c-.67.407-.884,1.622-.947,2.6a14.184,14.184,0,0,0,.08,2.472l.008.085a7.052,7.052,0,0,0,1.516,4.106,10.133,10.133,0,0,0,3.481,2.707,24.737,24.737,0,0,0,8.523,2.2,8.457,8.457,0,0,0,6.618-2.313c1.306-1.2,2-2.912,2.269-5.552.128-1.265.3-2.993-.071-3.706a5.57,5.57,0,0,0-3.506-2.654,12.73,12.73,0,0,0-3.957-.464c-2.434.065-3.62,1.074-5.353,2.722-2.1,2-5.207.587-5.338.527a.653.653,0,0,1-.228-.177,17.526,17.526,0,0,0-1.309-1.346,4.4,4.4,0,0,0-1.787-1.2Z" transform="translate(-0.549 -139.034)" fill="#df928e"/>
        <path id="Path_272" data-name="Path 272" d="M55.079,49.062s-.253-3.639,2.822-3.914a4.553,4.553,0,0,1,2.283.627s2.856,1.329,4.683-.407,3.13-2.827,5.75-2.892a8.183,8.183,0,0,1,8.23,7.776A7.139,7.139,0,0,1,76.3,56.381a9.047,9.047,0,0,1-7.081,2.481c-4.814-.489-13.728-2.268-14.144-9.8Z" transform="translate(-54.165 -41.62)" fill="#eaf6df"/>
        <path id="Path_273" data-name="Path 273" d="M29.84,19.4a8.954,8.954,0,0,1-.927-.047,25.76,25.76,0,0,1-8.925-2.318,11.457,11.457,0,0,1-3.948-3.1,9,9,0,0,1-1.9-5.173,5.835,5.835,0,0,1,.847-3.334,3.389,3.389,0,0,1,2.608-1.492c.014,0,.029,0,.042,0a5.107,5.107,0,0,1,2.56.694c.273.117,2.585,1.048,4-.3a14.068,14.068,0,0,1,2.71-2.172,7.109,7.109,0,0,1,3.444-.9,8.879,8.879,0,0,1,5.211,1.669,9.313,9.313,0,0,1,3.711,6.848,7.6,7.6,0,0,1-.675,4.085,9.16,9.16,0,0,1-2.138,2.838A9.764,9.764,0,0,1,29.84,19.4ZM15.5,8.637v.011a7.045,7.045,0,0,0,1.516,4.106A10.12,10.12,0,0,0,20.5,15.462a24.733,24.733,0,0,0,8.523,2.2,8.457,8.457,0,0,0,6.618-2.313,6.2,6.2,0,0,0,2.272-5.336,7.509,7.509,0,0,0-3.039-5.6,7.79,7.79,0,0,0-4.5-1.438c-2.432.059-3.617,1.073-5.347,2.717-2.1,2-5.208.588-5.339.529a.323.323,0,0,1-.074-.042A4,4,0,0,0,17.7,5.641h-.025a2.133,2.133,0,0,0-1.639.885A3.783,3.783,0,0,0,15.5,8.638Z" transform="translate(-13.906 -1.266)" fill="#df928e"/>
        <path id="Path_274" data-name="Path 274" d="M135.282,259.647a2.156,2.156,0,0,0-.9,2.445c.277,1.074.953,3.185,2,3.189,2.007.007,2.366-2.253,2.218-3.324s-2.087-2.405-2.782-2.437a1.14,1.14,0,0,0-.53.127Zm5.333,2.466a2.748,2.748,0,0,0-1.417,1.159,3.651,3.651,0,0,0-.576,3.2,2.841,2.841,0,0,0,1.839,1.552c1.149.457,6.074,2.087,8.867,1.5s6.316-3.979,5.883-6.274c-.308-1.623-.7-3.341-1.93-3.328-1.716.021-1.915,2.491-2.882,3.547-1.822,1.987-3.372,1.676-5.148.85C143.742,263.6,143.6,261.22,140.615,262.113Z" transform="translate(-132.073 -254.167)" fill="#df928e" opacity="0.5"/>
        <path id="Path_275" data-name="Path 275" d="M685.563,145.395a2.2,2.2,0,0,1-.025-3.167,9.247,9.247,0,0,1,3.489-2.083c2.015-.29,3.982.036,3.982,1.329a9.288,9.288,0,0,1-1.753,4.319C690.01,147.563,687.131,146.688,685.563,145.395Z" transform="translate(-673.466 -137.169)" fill="#df928e" opacity="0.5"/>
      </g>
    </g>
    <g id="Group_43" data-name="Group 43" transform="translate(61 232.191)">
      <g id="Group_42" data-name="Group 42" transform="translate(-0.53)">
        <g id="Group_41" data-name="Group 41">
          <line id="Line_29" data-name="Line 29" y1="4" transform="translate(0 0.733)" fill="none" stroke="#000" stroke-linecap="square" stroke-miterlimit="10" stroke-width="1"/>
          <line id="Line_30" data-name="Line 30" y1="5.187" transform="translate(177.493)" fill="none" stroke="#000" stroke-linecap="square" stroke-miterlimit="10" stroke-width="1"/>
        </g>
      </g>
      <path id="Path_414" data-name="Path 414" d="M0,0H176.984" transform="translate(-0.021 5.187)" fill="none" stroke="#000" stroke-linecap="square" stroke-width="1"/>
    </g>
  </g>
</svg>
