<svg xmlns="http://www.w3.org/2000/svg" width="234.789" height="110.659" viewBox="0 0 234.789 110.659">
  <g id="Group_285" data-name="Group 285" transform="translate(-278 -3315)">
    <g id="Group_225" data-name="Group 225" transform="translate(-740.653 2042.447)">
      <path id="Path_570" data-name="Path 570" d="M1068.6,1311.5s-17.178-15.747-28.63-7.363,0,16.565,0,16.565h3.067v11.247h2.658v-8.794l4.7-.2-.2,7.363,4.089-.2v-7.771l3.478.409.2,7.362,4.5-1.635-1.022-7.363,2.863-2.044,2.864,6.134,5.316-5.111-6.545-4.909Z" transform="translate(19.444 34.903)" fill="#f8cab0"/>
      <path id="Path_571" data-name="Path 571" d="M1041.414,1381.027v-96.935s-8.587-1.431-11.452,12.27-3.067,22.5-2.658,26.994.409,12.067-2.044,12.681-5.931-1.433-6.545-9.407,3.476-31.7,3.476-31.7.347-14.93,7.842-18.61,26.72-3.478,26.72-3.478h117.18s30.677,20.861,34.152,21.065,6.34-4.5,6.34-4.5,3.271-7.36,8.385-3.68,4.909,12.883,4.909,12.883v6.136s10.02,9.2,9.2,14.316-.2,19.632-1.025,20.654,2.66,9.816,2.251,12.27,3.885,11.658-6.953,12.067-30.677-34.153-30.677-34.153-19.837-2.249-43.969,9.407l-1.227,42.537h-11.656l-.2-38.039s-1.022-4.907-17.179,0-33.539,4.3-33.539,4.3l-21.472.2-.818,34.562h-8.589l-.818-35.788-8.385.409-.818,35.379h-10.431Z" transform="translate(0 0.345)" fill="#f5f3cb"/>
      <path id="Path_572" data-name="Path 572" d="M1102.238,1319.547s6.136-7.363,2.044-11.249c-3.924-3.729-5.4-8.022-13.283-7.279-.332.033-.677.073-1.031.121,0,0-6.953,6.954-12.68,6.954s-19.632-1.636-21.881.818-2.051,5.8,3.718,5.338,27.979-3.089,30.639-4.008,9.2,1.943,9.2,1.943v5.518S1100.825,1321.565,1102.238,1319.547Z" transform="translate(42.451 34.013)" fill="#39332e"/>
      <path id="Path_573" data-name="Path 573" d="M1082.309,1274.826s2.454,7.36,4.089,7.771,1.636,6.134,0,8.178,4.092,9,4.092,9l6.133,4.091s-5.316,7.976.818,11.247,13.7,2.045,13.7,2.045,11.86-2,13.7.226,6.338,9.59,8.792,10.816,7.567,6.136,8.794,11.045,7.567,10.634,10.432,9,2.658-11.663,2.658-11.663,1.022-11.652,2.249-12.674,2.2-11.955-2.99-15.385-5.267-18.741-5.267-18.741-1.354-6.16-7.49-2.889-5.316,7.771-7.564,8.18-32.517-15.134-38.653-20.245S1082.309,1274.826,1082.309,1274.826Z" transform="translate(76.287 0)" fill="#39332e"/>
      <path id="Path_574" data-name="Path 574" d="M1084.389,1303.389v43.56h7.362v-46.014Z" transform="translate(78.78 34.013)" fill="#cc9"/>
      <path id="Path_575" data-name="Path 575" d="M1121.933,1309.666s-7.976,4.5-7.976,8.385,3.988,3.067,3.988,3.067,6.442-2.862,6.442-4.5S1125,1310.893,1121.933,1309.666Z" transform="translate(114.215 44.477)" fill="#39332e"/>
      <path id="Path_576" data-name="Path 576" d="M1029.188,1291.2s-9.831,6.573-8.4-1.607,2.454-13.5,14.725-15.747,19.019,0,19.019,0,4.907,11.863,3.475,16.361-18.55,26.381-18.55,26.381l-.431-32.49C1040.506,1284.635,1033.634,1281.709,1029.188,1291.2Z" transform="translate(2.39 0.345)" fill="#39332e"/>
    </g>
    <g id="Group_226" data-name="Group 226" transform="translate(-468.179 2212.56)">
      <path id="Path_577" data-name="Path 577" d="M972.384,1212.952h-7.121l3.561-12.578,3.561-12.578,3.561,12.578,2.439,12.26Z" transform="translate(-5.117)" fill="#439f00"/>
      <path id="Path_578" data-name="Path 578" d="M977.26,1210.564l-4.022-2.071,7.872-10.348,7.872-10.348-3.851,12.419-3.851,12.419Z" transform="translate(-8.015)" fill="#439f00"/>
      <path id="Path_579" data-name="Path 579" d="M964.182,1211.11l-3.9,2.3-4.553-12.179-4.553-12.179,8.45,9.882,8.45,9.882Z" transform="translate(0 -0.455)" fill="#439f00"/>
    </g>
  </g>
</svg>
