<svg xmlns="http://www.w3.org/2000/svg" width="259.906" height="124.697" viewBox="0 0 259.906 124.697">
  <g id="Group_284" data-name="Group 284" transform="translate(-1403 -3654)">
    <g id="Group_224" data-name="Group 224" transform="translate(742.491 1921.029)">
      <path id="Path_563" data-name="Path 563" d="M743.63,1773.163s19.357-17.745,32.262-8.3,0,18.667,0,18.667h-3.456v12.673h-3V1786.3l-5.3-.23.23,8.3-4.61-.23v-8.757l-3.917.461-.23,8.3-5.071-1.846,1.154-8.294-3.228-2.306-3.225,6.914-5.993-5.76,7.375-5.532Z" transform="translate(98.594 43.025)" fill="#f8cab0"/>
      <path id="Path_564" data-name="Path 564" d="M894.765,1855.166V1745.938s9.679-1.615,12.9,13.826,3.458,25.347,3,30.418-.461,13.6,2.3,14.286,6.681-1.613,7.375-10.6-3.919-35.717-3.919-35.717-.389-16.823-8.836-20.97-30.109-3.919-30.109-3.919l-132.044,0s-34.565,23.509-38.484,23.74-7.145-5.071-7.145-5.071-3.686-8.3-9.446-4.147-5.532,14.517-5.532,14.517l0,6.915s-11.289,10.37-10.367,16.132.23,22.122,1.152,23.274-3,11.061-2.534,13.826-4.38,13.137,7.835,13.6,34.565-38.484,34.565-38.484,22.352-2.537,49.545,10.6l1.382,47.933h13.135l.23-42.864s1.154-5.529,19.357,0,37.793,4.841,37.793,4.841l24.2.23.922,38.945h9.679l.922-40.328,9.448.461.921,39.867h11.752Z" transform="translate(0 0.426)" fill="#f5f3cb"/>
      <path id="Path_565" data-name="Path 565" d="M717.568,1782.324s-6.911-8.294-2.3-12.674c4.422-4.2,6.087-9.04,14.97-8.2.374.035.76.082,1.162.136,0,0,7.836,7.836,14.287,7.836s22.122-1.843,24.659.921,2.311,6.535-4.191,6.012-31.528-3.478-34.523-4.513-10.37,2.189-10.37,2.189v6.218S719.164,1784.6,717.568,1782.324Z" transform="translate(60.821 41.928)" fill="#39332e"/>
      <path id="Path_566" data-name="Path 566" d="M760.288,1735.531s-2.765,8.3-4.61,8.757-1.843,6.914,0,9.218-4.608,10.14-4.608,10.14l-6.914,4.61s5.992,8.987-.922,12.673-15.438,2.3-15.438,2.3-13.367-2.257-15.441.255-7.144,10.8-9.909,12.188-8.527,6.914-9.909,12.446-8.527,11.982-11.752,10.14-2.995-13.142-2.995-13.142-1.154-13.129-2.537-14.282-2.477-13.471,3.369-17.336,5.938-21.121,5.938-21.121,1.524-6.941,8.438-3.252,5.993,8.757,8.527,9.218,36.641-17.054,43.553-22.815S760.288,1735.531,760.288,1735.531Z" transform="translate(2.433 0)" fill="#39332e"/>
      <path id="Path_567" data-name="Path 567" d="M711.792,1764.118V1813.2h-8.3v-51.85Z" transform="translate(45.775 41.928)" fill="#cc9"/>
      <path id="Path_568" data-name="Path 568" d="M675.33,1770.084s8.987,5.068,8.987,9.448-4.494,3.456-4.494,3.456-7.258-3.226-7.258-5.068S671.875,1771.466,675.33,1770.084Z" transform="translate(0 54.826)" fill="#39332e"/>
      <path id="Path_569" data-name="Path 569" d="M786.245,1753.939s11.078,7.41,9.463-1.809-2.765-15.21-16.59-17.745-21.431,0-21.431,0-5.532,13.365-3.919,18.436,20.906,29.727,20.906,29.727l.486-36.612C773.492,1746.549,781.236,1743.252,786.245,1753.939Z" transform="translate(119.606 0.426)" fill="#39332e"/>
    </g>
    <g id="Group_227" data-name="Group 227" transform="translate(451.821 2570.626)">
      <path id="Path_580" data-name="Path 580" d="M970.95,1207.885h-5.687l2.844-10.045,2.844-10.045,2.844,10.045,1.948,9.791Z" transform="translate(-6.923)" fill="#439f00"/>
      <path id="Path_581" data-name="Path 581" d="M976.45,1205.978l-3.212-1.654,6.287-8.264,6.287-8.264-3.075,9.918-3.075,9.918Z" transform="translate(-10.844)" fill="#439f00"/>
      <path id="Path_582" data-name="Path 582" d="M961.563,1206.667l-3.112,1.834-3.636-9.726-3.636-9.726,6.748,7.892,6.748,7.892Z" transform="translate(0 -0.616)" fill="#439f00"/>
    </g>
    <g id="Group_229" data-name="Group 229" transform="translate(515.821 2570.626)">
      <path id="Path_580-2" data-name="Path 580" d="M970.95,1207.885h-5.687l2.844-10.045,2.844-10.045,2.844,10.045,1.948,9.791Z" transform="translate(-6.923)" fill="#439f00"/>
      <path id="Path_581-2" data-name="Path 581" d="M976.45,1205.978l-3.212-1.654,6.287-8.264,6.287-8.264-3.075,9.918-3.075,9.918Z" transform="translate(-10.844)" fill="#439f00"/>
      <path id="Path_582-2" data-name="Path 582" d="M961.563,1206.667l-3.112,1.834-3.636-9.726-3.636-9.726,6.748,7.892,6.748,7.892Z" transform="translate(0 -0.616)" fill="#439f00"/>
    </g>
  </g>
</svg>
