<svg id="Layer_1" data-name="Layer 1" xmlns="http://www.w3.org/2000/svg" viewBox="0 0 179.72 99.66"><defs><style>.cls-1{fill:#4ad17a;}.cls-2{fill:#00bf5c;}.cls-3{fill:none;stroke:#ffd17a;stroke-miterlimit:10;stroke-width:5px;}.cls-4{fill:#00825c;}.cls-5{fill:gray;}.cls-6{fill:#ffd17a;}</style></defs><title>livsstil_icon</title><g id="Layer_4" data-name="Layer 4"><polygon class="cls-1" points="17.41 95.25 12.36 95.04 15.29 85.67 18.22 76.31 20.34 85.89 22.35 95.04 17.41 95.25"/><polygon class="cls-1" points="16.41 91.6 12.36 95.04 8.76 85.46 5.17 76.33 12.83 82.46 20.48 88.6 16.41 91.6"/><polygon class="cls-1" points="17.59 93.35 12.83 91.66 18.38 83.57 23.94 75.48 23.14 85.26 22.35 95.04 17.59 93.35"/><polygon class="cls-2" points="165.78 93.99 160.73 93.78 163.66 84.41 166.58 75.05 168.71 84.63 170.72 93.78 165.78 93.99"/><polygon class="cls-2" points="164.78 90.34 160.73 93.78 157.12 84.2 153.54 75.06 161.19 81.2 168.85 87.34 164.78 90.34"/><polygon class="cls-2" points="165.96 92.09 161.19 90.39 166.75 82.3 172.3 74.22 171.51 84 170.72 93.78 165.96 92.09"/><circle class="cls-3" cx="38.75" cy="68.2" r="28.22"/><circle class="cls-4" cx="39.91" cy="67.57" r="12.27"/><circle class="cls-4" cx="135.82" cy="67.4" r="12.27"/><circle class="cls-3" cx="135.82" cy="67.57" r="28.22"/><path class="cls-5" d="M142.55,70.65l1.89-.54L129.2,11.25a17,17,0,0,0-3-5.93c-2-2.16-15.2-1.17-15.2-1.17l.83,1.73,13.07.55s1.4,1.29,4.52,14.11S142.55,70.65,142.55,70.65Z" transform="translate(-7.29 -3.92)"/><rect class="cls-5" x="79.78" y="44.69" width="63.41" height="2.62" transform="translate(-1.6 99.97) rotate(-51.11)"/><polygon class="cls-5" points="85.93 64.68 39.54 64.68 40.38 68.27 85.32 67.57 85.93 64.68"/><rect class="cls-5" x="35.19" y="48.96" width="50.54" height="2.79" transform="matrix(0.55, -0.83, 0.83, 0.55, -22.19, 69.05)"/><rect class="cls-5" x="79.37" y="14.81" width="2.81" height="58.3" transform="translate(-18.06 31.29) rotate(-23.1)"/><rect class="cls-5" x="54.45" y="11.87" width="21.96" height="2.3"/><rect class="cls-5" y="93.71" width="179.72" height="5.95"/><rect class="cls-6" x="140.93" y="95.85" width="35.44" height="1.67"/><rect class="cls-6" x="55.75" y="95.85" width="35.44" height="1.67"/><rect class="cls-6" y="95.85" width="29.12" height="1.67"/></g></svg>