<svg xmlns="http://www.w3.org/2000/svg" viewBox="0 0 210 210"><defs><style>.cls-1{fill:#00825c;}.cls-2{fill:#4ad17a;}.cls-3{fill:#00bf5c;}.cls-4{fill:none;stroke:#ffd17a;stroke-miterlimit:10;stroke-width:5px;}.cls-5{fill:gray;}.cls-6{fill:#ffd17a;}</style></defs><g id="Layer_4" data-name="Layer 4"><ellipse class="cls-1" cx="157.9" cy="125.06" rx="15.13" ry="18.71"/><ellipse class="cls-1" cx="48.72" cy="125.06" rx="15.13" ry="18.71"/><polygon class="cls-2" points="25.38 191.63 19.79 191.1 23.03 167.99 26.26 144.88 28.61 168.51 30.84 191.1 25.38 191.63"/><polygon class="cls-2" points="24.27 182.6 19.79 191.1 15.79 167.46 11.83 144.92 20.3 160.06 28.77 175.21 24.27 182.6"/><polygon class="cls-2" points="25.57 186.92 20.3 182.75 26.45 162.79 32.6 142.83 31.72 166.96 30.84 191.1 25.57 186.92"/><polygon class="cls-3" points="189.57 188.51 183.99 187.98 187.22 164.87 190.46 141.76 192.81 165.4 195.04 187.98 189.57 188.51"/><polygon class="cls-3" points="188.47 179.49 183.99 187.98 179.99 164.35 176.03 141.81 184.5 156.95 192.97 172.1 188.47 179.49"/><polygon class="cls-3" points="189.77 183.81 184.5 179.63 190.65 159.68 196.8 139.72 195.92 163.85 195.04 187.98 189.77 183.81"/><ellipse class="cls-4" cx="156.42" cy="131.39" rx="42.83" ry="52.95"/><polygon class="cls-5" points="95.38 116.41 98.49 122.72 139.83 68.53 138.11 63.36 95.38 116.41"/><polygon class="cls-5" points="99.17 115.57 47.83 115.57 48.13 123.49 98.5 122.71 99.17 115.57"/><polygon class="cls-5" points="48.13 123.49 75.19 46.37 74.27 44.41 47.83 115.57 48.13 123.49"/><polygon class="cls-5" points="73.31 47.85 96 120.01 97.67 117.93 74.27 44.41 73.31 47.85"/><rect class="cls-5" x="66.36" y="42.47" width="24.31" height="5.67"/><rect class="cls-5" x="6.1" y="187.81" width="198.9" height="14.69"/><rect class="cls-6" x="162.07" y="193.09" width="39.22" height="4.13"/><rect class="cls-6" x="67.8" y="193.09" width="39.22" height="4.13"/><rect class="cls-6" x="6.1" y="193.09" width="32.22" height="4.13"/><ellipse class="cls-4" cx="47.83" cy="131.39" rx="42.83" ry="52.95"/><polygon class="cls-5" points="120.3 13.72 158.74 125.02 160.75 122.28 121.22 8.81 120.3 13.72"/><path class="cls-5" d="M121.22,8.81s-3.39-6.44-9-6.31-10.13,0-10.13,0v2l10.45.26a106.35,106.35,0,0,1,7.8,9Z"/></g></svg>