<svg xmlns="http://www.w3.org/2000/svg" xmlns:xlink="http://www.w3.org/1999/xlink" viewBox="0 0 1922 899"><defs><style>.cls-1,.cls-25{fill:none;}.cls-2{clip-path:url(#clip-path);}.cls-3{fill:url(#linear-gradient);}.cls-4{fill:#b5de8c;}.cls-13,.cls-5{fill:#fff;}.cls-6{fill:#fcee21;}.cls-7{fill:#f7931e;opacity:0.23;isolation:isolate;}.cls-8{fill:#326886;}.cls-9{fill:#2a5973;}.cls-10{fill:#4694be;}.cls-11{fill:#72af90;}.cls-12{fill:#22816b;}.cls-13{opacity:0.61;}.cls-14{fill:#dbafae;}.cls-15{fill:#824c4f;}.cls-16{fill:#4d4d4d;}.cls-17{fill:#896157;}.cls-18{fill:#679f9e;}.cls-19{fill:#473e2f;}.cls-20{fill:#369472;}.cls-21{fill:#2d7a7b;}.cls-22{fill:#4bb788;}.cls-23{fill:#6fc081;}.cls-24{fill:#2e8a7d;}.cls-25{stroke:#006837;stroke-miterlimit:10;stroke-width:2px;}</style><clipPath id="clip-path"><rect class="cls-1" width="1922" height="899"/></clipPath><linearGradient id="linear-gradient" x1="-103.57" y1="-4962.06" x2="-103.57" y2="-4963.06" gradientTransform="matrix(1956, 0, 0, -817, 203539.23, -4053999.5)" gradientUnits="userSpaceOnUse"><stop offset="0" stop-color="#deeef6"/><stop offset="0.03" stop-color="#deeef6"/><stop offset="1" stop-color="#deeef6"/></linearGradient></defs><g id="LANDING"><g class="cls-2"><rect id="Rectangle_209" data-name="Rectangle 209" class="cls-3" width="1922" height="817"/><path id="Path_425" data-name="Path 425" class="cls-4" d="M268.15,513.46-17,477.81V899l1956-67.82V732.47H1469.27A526.08,526.08,0,0,1,1365,722L713.27,590.14Z"/><path class="cls-5" d="M1372.2,126H1600s-99-13-107-12c-5.09.64-5.73-7.24-5.52-13a7.54,7.54,0,0,0-5.74-7.62c-5.58-1.35-13.5-3-17.74-2.34a35.32,35.32,0,0,0-12,4s-15-1-17-5c-1.32-2.64-8.17-4.67-13.36-4.38a9.86,9.86,0,0,0-7.43,4A27.62,27.62,0,0,0,1412,93c-1,2-12,5-12,5s-4,1-6,8c-1.06,3.7-6,4-10.46,3.55a13.19,13.19,0,0,0-14,8.8,16.74,16.74,0,0,0-.81,3.93A3.46,3.46,0,0,0,1372.2,126Z"/><g id="Group_177" data-name="Group 177"><g id="Group_169" data-name="Group 169"><circle id="Ellipse_48" data-name="Ellipse 48" class="cls-6" cx="1773.1" cy="98.37" r="50.13"/><circle id="Ellipse_49" data-name="Ellipse 49" class="cls-7" cx="1782.28" cy="106.03" r="50.13"/></g></g><g id="Group_159" data-name="Group 159"><path id="Path_383" data-name="Path 383" class="cls-8" d="M1451,201.31,1302.25,601H1748L1599.26,201.31C1574.06,133.56,1476.16,133.56,1451,201.31Z"/><path id="Path_384" data-name="Path 384" class="cls-9" d="M1566.26,127.92,1369.17,601h529.54L1701.62,127.92C1675.82,66,1592.06,66,1566.26,127.92Z"/><path id="Path_385" data-name="Path 385" class="cls-10" d="M1589.47,416.05,1536,576H1792.6l-53.43-159.95C1715.15,344.17,1613.48,344.17,1589.47,416.05Z"/></g><path id="Path_388" data-name="Path 388" class="cls-5" d="M1528,222.1l35.46-89.93s17.74-49.84,68-50.92,72.9,41.17,72.9,41.17l33.9,92s-32.92-4.25-44.74-17.25S1664.93,182,1664.93,182l-14.77,22.76s-17.74,1.08-22.66-11.92c0,0-15.77,55.26-38.42,53.09S1528,222.1,1528,222.1Z"/><path class="cls-11" d="M622,575.59s317-88.32,411-85.28,158-38.57,385-12.18,313,4.06,521,65V737H1434Z"/><path class="cls-12" d="M1939,616s-219.08,41.37-338.76,41.37S1223.93,684.93,1229,695.28,1410.57,737,1410.57,737H1939Z"/><path class="cls-13" d="M-17,489V367s85.36-2.79,116.78,49.79c0,0,84.5-24.73,113-2.85s20,24.81,20,24.81,24.22-12.63,44.61.91,20,24.82,20,24.82,94.5-10.67,109.22,29.92S397,536,397,536s-113-23.15-174-22.86S-8.66,476.17-17,489Z"/><g id="Group_170" data-name="Group 170"><path id="Path_401" data-name="Path 401" class="cls-14" d="M1270.19,432.76,1254,510.12l61.82-1.14-16.26-76.76C1292.66,413.15,1276.36,413.45,1270.19,432.76Z"/><g id="Group_164" data-name="Group 164"><path id="Path_402" data-name="Path 402" class="cls-15" d="M1313.88,466.33l-23.3-23.43,5.88-6.36,23.3,23.43Z"/><path id="Path_403" data-name="Path 403" class="cls-15" d="M1269.41,448l30.11-32.61,1.54,1.55L1271,449.55Z"/><path id="Path_404" data-name="Path 404" class="cls-15" d="M1271.54,416.09l31.3,31.47-1.48,1.6-31.3-31.47Z"/><path id="Path_405" data-name="Path 405" class="cls-15" d="M1252.7,460.52l22.42-24.28,6.11,6.14-22.42,24.28Z"/><path id="Path_406" data-name="Path 406" class="cls-15" d="M1275.38,427l-23.3-23.43,5.88-6.36,23.3,23.43Z"/><path id="Path_407" data-name="Path 407" class="cls-15" d="M1290.52,420.42l22.42-24.28,6.11,6.14-22.42,24.28Z"/></g><rect id="Rectangle_197" data-name="Rectangle 197" class="cls-16" x="1279.7" y="483.25" width="14" height="19" transform="translate(-8.86 23.79) rotate(-1.06)"/><path id="Path_408" data-name="Path 408" class="cls-17" d="M1315.79,509,1254,510.12l1.74-7,58.08-1.07Z"/></g><path class="cls-5" d="M349.29,127H781s-187.61-26.83-202.78-24.77c-9.65,1.31-10.85-14.94-10.45-26.93.25-7.39-4.29-14-10.89-15.71-10.57-2.79-25.57-6.09-33.61-4.84A63.56,63.56,0,0,0,500.53,63S472.1,61,468.31,52.69c-2.5-5.45-15.49-9.63-25.32-9A18.37,18.37,0,0,0,428.91,52a61.83,61.83,0,0,0-4.19,6.92C422.83,63,402,69.2,402,69.2s-7.58,2.07-11.37,16.52c-2,7.63-11.4,8.35-19.83,7.33-11.6-1.4-22.83,6.08-26.48,18.16a36.38,36.38,0,0,0-1.54,8.1C342.47,123.46,345.47,127,349.29,127Z"/><path class="cls-5" d="M1779.9,261h149.3s16.75-33.06,4.8-31c-7.61,1.31,5.91-13.18,4-25-1.08-6.67-5.86-12-8.8-15-6.27-6.47-7.86-4.25-14.2-3-4.9,1-7.15,4.6-10.28,6.32a21.29,21.29,0,0,1-14.83,2.2c-6.56-1.45-14.51-4.14-16.2-8.83-2-5.45-12.21-9.63-20-9-4.42.34-8.49,3.38-11.1,8.31a65.66,65.66,0,0,0-3.3,6.92c-1.49,4.13-17.92,10.32-17.92,10.32s-6,2.07-9,16.52c-1.58,7.63-9,8.35-15.62,7.33-9.14-1.4-18,6.08-20.87,18.16a46.38,46.38,0,0,0-1.22,8.1C1774.53,257.46,1776.9,261,1779.9,261Z"/><path id="Path_392" data-name="Path 392" class="cls-18" d="M100.92,451.07s-3.63,6.64-3.46,13a29.3,29.3,0,0,0,3.46,12.09,8.3,8.3,0,0,0,5.85,0c3.19-1.18,3-12.27,3-12.27s-1.42-17.92-3.64-19.1S100.92,451.07,100.92,451.07Z"/><path id="Rectangle_193" data-name="Rectangle 193" class="cls-19" d="M116.09,724.38H141.3v30a7.83,7.83,0,0,1-7.83,7.83h-9.55a7.82,7.82,0,0,1-7.83-7.83v-30Z"/><path id="Path_393" data-name="Path 393" class="cls-20" d="M141.52,661.52s-7.52,13.72-7.15,26.88,7.15,25,7.15,25a17.26,17.26,0,0,0,12.1,0c6.6-2.45,6.23-25.38,6.23-25.38s-2.93-37-7.51-39.48S141.52,661.52,141.52,661.52Z"/><path id="Path_391" data-name="Path 391" class="cls-21" d="M93.78,469.05s-38.43,68.41-36.55,134S93.78,727.72,93.78,727.72s28.11,12.19,61.86,0S187.5,601.2,187.5,601.2s-15-184.64-38.42-196.82S93.78,469.05,93.78,469.05Z"/><g id="Group_162" data-name="Group 162"><path id="Rectangle_194" data-name="Rectangle 194" class="cls-19" d="M204.45,758.52H218.1v13.92a6.56,6.56,0,0,1-6.56,6.56H211a6.56,6.56,0,0,1-6.56-6.56V758.52Z"/><path id="Path_394" data-name="Path 394" class="cls-22" d="M192.37,620.25s-20.81,37-19.8,72.58,19.8,67.5,19.8,67.5a48.92,48.92,0,0,0,33.5,0c18.27-6.59,17.25-68.51,17.25-68.51s-8.12-100-20.81-106.59S192.37,620.25,192.37,620.25Z"/><path id="Path_395" data-name="Path 395" class="cls-20" d="M218.22,724.48s-4.07,7.44-3.87,14.56a32.77,32.77,0,0,0,3.87,13.54,9.35,9.35,0,0,0,6.55,0c3.58-1.32,3.38-13.74,3.38-13.74s-1.59-20.06-4.07-21.38S218.22,724.48,218.22,724.48Z"/></g><path class="cls-23" d="M245.31,760.85l82.07,2.29s-4.44-20.91-11.35-16.76-14.06-2.71-14.15-6.71S289.53,722.92,285.64,728s-8.5,24.19-11.65,17.25-3.33-15.93-9.29-13.81S245.31,760.85,245.31,760.85Z"/><rect class="cls-20" x="272" y="746" width="1" height="13" transform="translate(658.78 51.57) rotate(48.77)"/><rect class="cls-20" x="285" y="740" width="1" height="13" transform="translate(1058.34 950.21) rotate(125.7)"/><rect class="cls-20" x="290" y="730" width="1" height="32"/><rect class="cls-20" x="319" y="750" width="1" height="13"/><rect class="cls-20" x="314" y="750" width="1" height="13" transform="translate(-483.38 570.51) rotate(-54.3)"/><path class="cls-20" d="M246,761s-13.05,12.5,19.62,9.44S327,763,327,763Z"/><path class="cls-23" d="M605.8,596.44l132.2,3.7s-7.15-33.69-18.29-27-22.64-4.36-22.78-10.81-19.89-27-26.17-18.79-13.69,39-18.76,27.78-5.36-25.66-15-22.24S605.8,596.44,605.8,596.44Z"/><rect class="cls-20" x="642.35" y="575.75" width="1.61" height="20.94"/><rect class="cls-20" x="648.79" y="572.52" width="1.61" height="20.94" transform="translate(659.85 -289.79) rotate(48.77)"/><rect class="cls-20" x="669.73" y="562.86" width="1.61" height="20.94" transform="translate(1527.4 363.3) rotate(125.7)"/><rect class="cls-20" x="677.79" y="546.75" width="1.61" height="51.55"/><rect class="cls-20" x="724.51" y="578.97" width="1.61" height="20.94"/><rect class="cls-20" x="716.45" y="578.97" width="1.61" height="20.94" transform="translate(-179.95 828.01) rotate(-54.3)"/><path class="cls-20" d="M607.65,596.4s-42.59,24.18,17.48,18.26S738,600.28,738,600.28Z"/><path id="Rectangle_193-2" data-name="Rectangle 193" class="cls-19" d="M1860.89,691.35h30v35.73a9.33,9.33,0,0,1-9.33,9.33h-11.38a9.33,9.33,0,0,1-9.33-9.33V691.35Z"/><path id="Path_393-2" data-name="Path 393" class="cls-20" d="M1891.19,616.46s-9,16.35-8.52,32,8.52,29.79,8.52,29.79a20.57,20.57,0,0,0,14.42,0c7.86-2.91,7.42-30.24,7.42-30.24s-3.49-44.13-9-47S1891.19,616.46,1891.19,616.46Z"/><path id="Path_391-2" data-name="Path 391" class="cls-24" d="M1800.31,384.13s-45.79,81.52-43.55,159.69,43.55,148.52,43.55,148.52,33.5,14.52,73.7,0,38-150.76,38-150.76-17.87-220-45.79-234.5S1800.31,384.13,1800.31,384.13Z"/><path id="Path_395-2" data-name="Path 395" class="cls-20" d="M1857,489.29s-4.85,8.86-4.61,17.35,4.61,16.13,4.61,16.13a11.17,11.17,0,0,0,7.81,0c4.26-1.58,4-16.37,4-16.37s-1.89-23.9-4.85-25.48S1857,489.29,1857,489.29Z"/><path id="Path_395-3" data-name="Path 395" class="cls-20" d="M1902.23,639.42s-4.85,8.85-4.61,17.34,4.61,16.14,4.61,16.14a11.17,11.17,0,0,0,7.81,0c4.26-1.58,4-16.38,4-16.38s-1.89-23.9-4.85-25.47S1902.23,639.42,1902.23,639.42Z"/><path id="Rectangle_194-2" data-name="Rectangle 194" class="cls-19" d="M1764,728.74h13.65v13.92a6.56,6.56,0,0,1-6.56,6.56h-.53a6.56,6.56,0,0,1-6.56-6.56V728.74Z"/><path id="Path_394-2" data-name="Path 394" class="cls-22" d="M1751.89,590.47s-20.81,37-19.8,72.58,19.8,67.5,19.8,67.5a48.88,48.88,0,0,0,33.49,0c18.28-6.6,17.26-68.52,17.26-68.52s-8.12-100-20.81-106.58S1751.89,590.47,1751.89,590.47Z"/><path id="Path_395-4" data-name="Path 395" class="cls-20" d="M1777.74,694.7s-4.07,7.43-3.87,14.56a32.67,32.67,0,0,0,3.87,13.54,9.35,9.35,0,0,0,6.55,0c3.58-1.32,3.38-13.75,3.38-13.75s-1.59-20-4.07-21.38S1777.74,694.7,1777.74,694.7Z"/><path class="cls-25" d="M144,281c-2.84-10.73-9.9-18.88-17-17"/><path class="cls-25" d="M168,266c-5.09-3.48-16.06,3.74-24.52,16.14"/><path class="cls-25" d="M253.33,375.45c-2.84-10.73-9.9-18.89-17-17"/><path class="cls-25" d="M277.33,360.45c-5.09-3.48-16.06,3.74-24.52,16.14"/><path class="cls-5" d="M644,72H777.52s-58-7.62-62.7-7c-3,.37-3.36-4.24-3.23-7.65a4.43,4.43,0,0,0-3.37-4.46c-3.27-.79-7.91-1.73-10.4-1.37a20.85,20.85,0,0,0-7,2.34s-8.79-.58-10-2.93c-.77-1.54-4.79-2.73-7.83-2.56a5.76,5.76,0,0,0-4.35,2.36,17.11,17.11,0,0,0-1.3,2c-.58,1.17-7,2.93-7,2.93s-2.34.59-3.52,4.69c-.62,2.17-3.52,2.37-6.13,2.08a7.72,7.72,0,0,0-8.19,5.16,9.79,9.79,0,0,0-.47,2.3A2,2,0,0,0,644,72Z"/></g></g></svg>