<svg xmlns="http://www.w3.org/2000/svg" viewBox="0 0 210 210"><defs><style>.cls-1{fill:#007e88;}.cls-2{fill:#006a6b;}.cls-3{fill:#ffd17a;}</style></defs><g id="Layer_4" data-name="Layer 4"><rect class="cls-1" x="103.62" y="8.03" width="5.81" height="103.3"/><path class="cls-2" d="M105.68,92.53S93.12,91.92,88,85.31A52.21,52.21,0,0,1,80.36,70.7s12.17.56,16.32,2.23,9.2,9.62,9.39,10.68S107.16,90.54,105.68,92.53Z"/><path class="cls-2" d="M106.2,92.53s12.56-.61,17.7-7.22a52,52,0,0,0,7.61-14.61s-12.16.56-16.31,2.23-9.2,9.62-9.4,10.68S104.71,90.54,106.2,92.53Z"/><path class="cls-2" d="M105.68,70.6S93.12,70,88,63.38a52.21,52.21,0,0,1-7.62-14.61s12.17.56,16.32,2.23,9.2,9.62,9.39,10.68S107.16,68.61,105.68,70.6Z"/><path class="cls-2" d="M107.36,70.6s12.56-.61,17.7-7.22a51.89,51.89,0,0,0,7.62-14.61s-12.17.56-16.32,2.23-9.2,9.62-9.39,10.68S105.88,68.61,107.36,70.6Z"/><path class="cls-2" d="M106.21,47.12s-12.56-.61-17.7-7.22a52.21,52.21,0,0,1-7.62-14.61s12.17.56,16.32,2.23,9.2,9.62,9.4,10.68S107.69,45.13,106.21,47.12Z"/><path class="cls-2" d="M107.89,47.12s12.56-.61,17.7-7.22a51.89,51.89,0,0,0,7.62-14.61s-12.17.56-16.32,2.23-9.2,9.62-9.39,10.68S106.41,45.13,107.89,47.12Z"/><path class="cls-2" d="M105.68,26.84S93.12,26.23,88,19.62A52.19,52.19,0,0,1,80.36,5s12.17.56,16.32,2.23,9.2,9.62,9.39,10.68S107.16,24.84,105.68,26.84Z"/><path class="cls-2" d="M107.89,26.84s12.56-.61,17.7-7.22A51.88,51.88,0,0,0,133.21,5S121,5.56,116.89,7.23s-9.2,9.62-9.39,10.68S106.41,24.84,107.89,26.84Z"/><path class="cls-3" d="M205.36,103.48c0,56.07-44.78,101.52-100,101.52s-100-45.45-100-101.52"/></g></svg>