<svg id="SCALE" xmlns="http://www.w3.org/2000/svg" viewBox="0 0 1920 1080"><defs><style>.cls-1{fill:#bababa;}.cls-2{fill:#00ab9d;}.cls-3{fill:#6f7a82;}.cls-4{fill:#00968c;}.cls-5{fill:#bb6260;}.cls-6{fill:#efd3c9;}.cls-7{fill:#e89c98;}.cls-8{fill:#fefbff;}.cls-9{fill:#e89d95;}.cls-10{fill:#a95965;}.cls-11{fill:#df7442;}.cls-12{fill:#ab5831;}.cls-13{fill:#f9d1c1;}.cls-14{fill:#974f3e;}.cls-15{fill:#e7b2a6;}.cls-16{fill:#cf9184;}.cls-17{fill:#a46257;}.cls-18{fill:#ff3631;}.cls-19{fill:#47c568;}.cls-20{fill:#bfda67;}.cls-21{fill:#fbb03b;}.cls-22{fill:#92c432;}.cls-23{fill:#805b9d;}.cls-24{fill:#f96b92;}.cls-25{fill:#dd5980;}</style></defs><rect class="cls-1" x="579.01" y="213.76" width="751.97" height="6.26"/><rect class="cls-1" x="938.56" y="272.36" width="38.09" height="561.26"/><path class="cls-2" d="M832.55,806h245.94A55.49,55.49,0,0,1,1134,861.51V880.2a0,0,0,0,1,0,0H777.06a0,0,0,0,1,0,0V861.51A55.49,55.49,0,0,1,832.55,806Z"/><path class="cls-3" d="M1009.61,272.36H905.45a49.25,49.25,0,0,1-49.26-49.26v-6.21c0-35.34,25-55.46,60.35-55.46l76,4.66c43.76,0,66.5,13.09,66.5,56.85h0A49.43,49.43,0,0,1,1009.61,272.36Z"/><circle class="cls-1" cx="954.99" cy="216.89" r="21.66"/><rect class="cls-1" x="346.36" y="571.02" width="465.3" height="17.56"/><path class="cls-3" d="M811.66,588.57c0,36.53-104.16,66.14-232.65,66.14S346.36,625.1,346.36,588.57"/><rect class="cls-1" x="1098.33" y="571.02" width="465.3" height="17.56"/><path class="cls-3" d="M1563.63,588.57c0,36.53-104.16,66.14-232.65,66.14s-232.65-29.61-232.65-66.14"/><path class="cls-4" d="M779.69,829.39h355.83A55.49,55.49,0,0,1,1191,884.89v18.69a0,0,0,0,1,0,0H724.2a0,0,0,0,1,0,0V884.89A55.49,55.49,0,0,1,779.69,829.39Z"/><rect class="cls-1" x="480.52" y="398.28" width="426.63" height="3.31" transform="translate(668.16 -400.49) rotate(58.2)"/><rect class="cls-1" x="256.41" y="398.28" width="426.63" height="3.31" transform="translate(1057.14 211.45) rotate(121.8)"/><rect class="cls-1" x="1227.06" y="397.41" width="426.63" height="3.31" transform="translate(1020.59 -1035.41) rotate(58.2)"/><rect class="cls-1" x="1002.94" y="397.41" width="426.63" height="3.31" transform="translate(2196.3 -424.39) rotate(121.8)"/><path class="cls-5" d="M389.55,543.18s3.6,25.05,36.26,21.36,42.58-16.45,42.58-16.45.22,9.09-5.63,13.75-24.33,10.07-24.33,10.07l-26.58-1.23s-14.19-2.94-18.92-12S389.55,543.18,389.55,543.18Z"/><path class="cls-6" d="M421.52,517s-24.27,3.28-30.67,18.05,7.75,24.4,7.75,24.4,6.61,8.58,22.92,6.51,36.82-5.53,42.17-11.49,7.12-9.25,0-19.75S438,518.34,434.33,518.34,421.52,517,421.52,517Z"/><path class="cls-7" d="M412.73,546.9l22,9a1.12,1.12,0,0,1-.16,2.13c-3.6.87-9.42,2.1-13.45,2.1-6.24,0-19-1-17.73-2.62,1-1.27,5.16-7.23,7-9.88A1.93,1.93,0,0,1,412.73,546.9Z"/><path class="cls-7" d="M421.05,540h7s1.2-7.44,6.35-9,21.11,0,21.11,0,8.1,6.35,7.88,10.51-2,9.41-7.88,9.62-19-1.86-22.1-3.17c-2.23-1-9.08-4.74-12.66-6.74A.66.66,0,0,1,421.05,540Z"/><path class="cls-7" d="M415.73,534s-1,3.07,1.75,2.74,8.2.24,9.08-1.36,2.19-4.55,1.2-5.1-3.39-1.64-4.92-.54S415.73,534,415.73,534Z"/><path class="cls-8" d="M403.4,528.2s-7.11,3.39-4.59,6.24,4.92,4.26,9.41,3.39,6-5.58,6-5.58-1.54-3.61-4.6-4A25.62,25.62,0,0,0,403.4,528.2Z"/><path class="cls-9" d="M402.53,531.1s7.7-1.86,8.22.43-2.31,4.16-3,4.16-6.56.22-7.11-1S402.53,531.1,402.53,531.1Z"/><path class="cls-10" d="M403.65,532.12s4.34-1,4.64.24-1.31,2.35-1.68,2.35-3.7.12-4-.56S403.65,532.12,403.65,532.12Z"/><path class="cls-5" d="M657.48,542.82s3.6,25,36.26,21.37,42.58-16.46,42.58-16.46.22,9.09-5.63,13.76-24.33,10.06-24.33,10.06l-26.58-1.22s-14.19-3-18.93-12S657.48,542.82,657.48,542.82Z"/><path class="cls-6" d="M689.45,516.67s-24.27,3.29-30.68,18.05,7.76,24.4,7.76,24.4,6.61,8.59,22.92,6.52,36.82-5.53,42.17-11.5,7.12-9.24,0-19.74S706,518,702.25,518,689.45,516.67,689.45,516.67Z"/><path class="cls-7" d="M680.66,546.54l22,9a1.11,1.11,0,0,1-.15,2.12c-3.61.87-9.42,2.11-13.45,2.11-6.24,0-19-1-17.73-2.63,1-1.26,5.16-7.22,7-9.88A2,2,0,0,1,680.66,546.54Z"/><path class="cls-7" d="M689,539.61h7s1.2-7.44,6.34-9,21.12,0,21.12,0,8.09,6.34,7.88,10.5-2,9.41-7.88,9.63-19-1.86-22.1-3.17c-2.23-1-9.09-4.75-12.66-6.74A.67.67,0,0,1,689,539.61Z"/><path class="cls-7" d="M683.66,533.68s-1,3.06,1.75,2.73,8.2.25,9.08-1.35,2.19-4.55,1.2-5.1-3.39-1.64-4.92-.55S683.66,533.68,683.66,533.68Z"/><path class="cls-8" d="M671.33,527.85s-7.11,3.39-4.59,6.23,4.92,4.27,9.41,3.39,6-5.58,6-5.58-1.53-3.61-4.59-4A25.62,25.62,0,0,0,671.33,527.85Z"/><path class="cls-9" d="M670.46,530.74s7.69-1.86,8.22.44-2.31,4.16-3,4.16-6.57.21-7.11-1S670.46,530.74,670.46,530.74Z"/><path class="cls-10" d="M671.58,531.76s4.34-1,4.64.25-1.31,2.34-1.68,2.34-3.7.13-4-.55S671.58,531.76,671.58,531.76Z"/><path class="cls-11" d="M547.19,521.64s10.07,11.38,0,28.44-14.66,17.51-14.66,17.51-7.44,2.41-7.44,0-1.31-6.35,1.32-7.88,10.49-8.53,11.81-12.91,1.31-19,1.1-20.13S542.38,520.33,547.19,521.64Z"/><polygon class="cls-12" points="542.45 523.29 539.25 523.29 539.25 521.7 541.96 521.38 543.52 519.57 545.41 519.98 544.5 521.43 544.34 523.29 542.45 523.29"/><path class="cls-11" d="M521.06,565.69s-12.92,8-28-4.83-14.76-17.42-14.76-17.42-1.11-7.74,1.27-7.33,6.47-.22,7.53,2.63,6.63,11.79,10.72,13.83,18.53,4.54,19.65,4.51S523.17,561.17,521.06,565.69Z"/><polygon class="cls-12" points="520.24 560.74 520.78 557.59 522.35 557.86 522.21 560.58 523.72 562.43 523 564.22 521.72 563.08 519.92 562.6 520.24 560.74"/><path class="cls-13" d="M562.5,527.4s20,13.25,23.22,14.64,9.65,7.67,5.36,18.48-20,7.32-20,7.32-15-5.93-17.86-12.2-2.15-22.31-2.15-22.31S555.71,526.36,562.5,527.4Z"/><path class="cls-14" d="M582.16,566.85s16.22-4.45,20.67-10.85,4.57-11.88,3.89-14.36-5.83-13.43-9.71-15.29-13.59-2.07-17-1.86-21.93,3.2-23.42,4.65,0,1.86,0,1.86l5.49.21s20.33,9.71,22.73,15.49,2.28,3.72,2.62,10.64A9.93,9.93,0,0,1,582.16,566.85Z"/><path class="cls-15" d="M559.51,533.87s7.3-.79,16.19,8.1,8.49,15.6,8.49,15.6-1.38,5.53-3.36,6.71-15.2-1-18.36-3.35-8.89-11.26-8.69-13.93S552.59,536,559.51,533.87Z"/><path class="cls-16" d="M561,538.47s5.12-.55,11.34,5.68,6,10.92,6,10.92-1,3.88-2.35,4.71-10.65-.7-12.86-2.36-6.23-7.88-6.09-9.75S556.19,540,561,538.47Z"/><path class="cls-17" d="M563.19,527.08s14.44,1.54,15.53,2,19.48,11.82,19.48,11.82l7,6.13v2.84l-14-12L577.85,531Z"/><path class="cls-17" d="M557,528.51s14.2,2.12,15.28,2.73,19.15,16.35,19.15,16.35l6.88,8.48V560l-13.77-16.66L571.43,534Z"/><path class="cls-17" d="M604.43,535.62s-3.37,11-3.81,11.84-10.11,13.64-10.11,13.64l-4.7,4.67-1.62-.36,9.28-9.36,6.18-9.52Z"/><path class="cls-17" d="M597.92,527.08s-2.28,8.22-2.55,8.82-5.8,10.47-5.8,10.47L587,550l-.8-.18,5.17-7.31,3.6-7.26Z"/><path class="cls-17" d="M592,524.5s-1.94,6.75-2.17,7.24-5.24,8.52-5.24,8.52l-2.39,3-.77-.17,4.72-5.91,3.24-5.92Z"/><circle class="cls-17" cx="567.67" cy="550.02" r="2.35"/><path class="cls-13" d="M453.21,502.43s20,13.25,23.23,14.64,9.64,7.67,5.35,18.48-20,7.32-20,7.32-15-5.93-17.87-12.2-2.14-22.31-2.14-22.31S446.42,501.39,453.21,502.43Z"/><path class="cls-14" d="M472.87,541.88s16.22-4.45,20.68-10.85,4.57-11.88,3.88-14.36-5.82-13.43-9.71-15.29-13.59-2.07-17-1.86-21.93,3.2-23.41,4.65,0,1.86,0,1.86l5.48.21S473.1,516,475.5,521.73s2.29,3.72,2.63,10.64A9.94,9.94,0,0,1,472.87,541.88Z"/><path class="cls-15" d="M450.22,508.9s7.31-.79,16.19,8.1,8.49,15.6,8.49,15.6-1.38,5.53-3.35,6.71-15.21-1-18.37-3.35S444.3,524.7,444.49,522,443.31,511.07,450.22,508.9Z"/><path class="cls-16" d="M451.75,513.5s5.11-.55,11.34,5.68,6,10.92,6,10.92-1,3.88-2.35,4.71-10.66-.7-12.87-2.35-6.22-7.89-6.09-9.76S446.9,515,451.75,513.5Z"/><path class="cls-17" d="M453.9,502.11s14.44,1.54,15.54,2,19.47,11.82,19.47,11.82l7,6.13v2.84l-14-12-13.35-6.79Z"/><path class="cls-17" d="M447.73,503.54s14.2,2.12,15.28,2.73,19.15,16.35,19.15,16.35l6.89,8.48V535l-13.77-16.66L462.15,509Z"/><path class="cls-17" d="M495.15,510.65s-3.38,11-3.82,11.84-10.1,13.64-10.1,13.64l-4.7,4.67-1.62-.36,9.28-9.36,6.17-9.52Z"/><path class="cls-17" d="M488.63,502.11s-2.28,8.22-2.54,8.82-5.81,10.47-5.81,10.47l-2.61,3.65-.79-.18,5.16-7.31,3.61-7.26Z"/><path class="cls-17" d="M482.76,499.53s-1.94,6.75-2.18,7.24-5.24,8.52-5.24,8.52l-2.39,3-.77-.17,4.73-5.91,3.23-5.92Z"/><circle class="cls-17" cx="458.38" cy="525.05" r="2.35"/><path class="cls-11" d="M645.25,568.1s-12.92,8-28-4.83-14.76-17.43-14.76-17.43-1.1-7.74,1.27-7.33,6.48-.21,7.54,2.64S617.89,552.93,622,555s18.54,4.53,19.65,4.5S647.37,563.58,645.25,568.1Z"/><polygon class="cls-12" points="644.43 563.15 644.98 560 646.54 560.26 646.4 562.99 647.92 564.83 647.19 566.62 645.92 565.49 644.11 565.01 644.43 563.15"/><path class="cls-11" d="M710.24,536.88s13.5-7,27.58,7,13.37,18.5,13.37,18.5.51,7.8-1.82,7.21-6.47-.28-7.31-3.2-5.71-12.26-9.63-14.61-18.13-6-19.24-6S707.79,541.22,710.24,536.88Z"/><polygon class="cls-12" points="710.68 541.88 709.89 544.98 708.36 544.59 708.7 541.88 707.33 539.93 708.19 538.2 709.38 539.43 711.14 540.05 710.68 541.88"/><path class="cls-5" d="M492.9,523s3.6,25,36.26,21.36,42.58-16.45,42.58-16.45.22,9.08-5.63,13.75-24.33,10.07-24.33,10.07l-26.58-1.23s-14.19-3-18.92-12S492.9,523,492.9,523Z"/><path class="cls-6" d="M524.87,496.83s-24.27,3.28-30.67,18.05S502,539.27,502,539.27s6.61,8.59,22.92,6.52,36.82-5.53,42.17-11.49,7.12-9.25,0-19.75-25.66-16.41-29.36-16.41S524.87,496.83,524.87,496.83Z"/><path class="cls-7" d="M516.08,526.7l22,9a1.12,1.12,0,0,1-.16,2.12c-3.6.88-9.42,2.11-13.45,2.11-6.24,0-19-1-17.73-2.62,1-1.27,5.16-7.23,7-9.88A1.93,1.93,0,0,1,516.08,526.7Z"/><path class="cls-7" d="M524.4,519.76h7s1.2-7.44,6.35-9,21.11,0,21.11,0,8.1,6.35,7.88,10.5-2,9.41-7.88,9.63-19-1.86-22.1-3.17c-2.23-1-9.08-4.75-12.66-6.74A.67.67,0,0,1,524.4,519.76Z"/><path class="cls-7" d="M519.08,513.83s-1,3.06,1.75,2.74,8.2.24,9.08-1.36,2.19-4.55,1.2-5.1-3.39-1.64-4.92-.55S519.08,513.83,519.08,513.83Z"/><path class="cls-8" d="M506.75,508s-7.11,3.39-4.59,6.23,4.92,4.27,9.41,3.4,6-5.58,6-5.58-1.54-3.61-4.6-4A25.62,25.62,0,0,0,506.75,508Z"/><path class="cls-9" d="M505.88,510.89s7.7-1.86,8.22.44-2.31,4.16-3,4.16-6.56.22-7.11-1S505.88,510.89,505.88,510.89Z"/><path class="cls-10" d="M507,511.91s4.34-1.05,4.64.25-1.31,2.35-1.68,2.35-3.7.12-4-.56S507,511.91,507,511.91Z"/><path class="cls-5" d="M612.35,530.1s3.6,25,36.27,21.37S691.19,535,691.19,535s.23,9.09-5.63,13.76-24.33,10.06-24.33,10.06l-26.58-1.22s-14.19-3-18.92-12S612.35,530.1,612.35,530.1Z"/><path class="cls-6" d="M644.32,504s-24.27,3.29-30.67,18.05,7.75,24.4,7.75,24.4,6.61,8.59,22.92,6.52,36.82-5.53,42.17-11.5,7.12-9.24,0-19.74-25.66-16.41-29.36-16.41S644.32,504,644.32,504Z"/><path class="cls-7" d="M635.53,533.82l22,9a1.12,1.12,0,0,1-.16,2.12c-3.6.87-9.42,2.11-13.45,2.11-6.24,0-19-1-17.72-2.63,1-1.26,5.15-7.22,7-9.88A2,2,0,0,1,635.53,533.82Z"/><path class="cls-7" d="M643.86,526.89h7s1.2-7.44,6.35-9,21.11,0,21.11,0,8.1,6.34,7.88,10.5-2,9.41-7.88,9.63-19-1.86-22.1-3.17c-2.23-1-9.08-4.75-12.66-6.75A.66.66,0,0,1,643.86,526.89Z"/><path class="cls-7" d="M638.53,521s-1,3.06,1.75,2.73,8.21.25,9.08-1.35,2.19-4.55,1.2-5.1-3.39-1.64-4.92-.55S638.53,521,638.53,521Z"/><path class="cls-8" d="M626.21,515.13s-7.12,3.39-4.6,6.23,4.92,4.27,9.41,3.39,6-5.58,6-5.58-1.54-3.61-4.6-4A25.52,25.52,0,0,0,626.21,515.13Z"/><path class="cls-9" d="M625.33,518s7.7-1.86,8.22.44-2.31,4.16-3,4.16-6.56.21-7.11-1S625.33,518,625.33,518Z"/><path class="cls-10" d="M626.45,519s4.34-1,4.64.25-1.3,2.34-1.67,2.34-3.71.13-4-.55S626.45,519,626.45,519Z"/><path class="cls-11" d="M535.87,482.29s-.93,15.16-20.12,20.11-22.74,2-22.74,2-7-3.56-5.26-5.26,3.56-5.41,6.5-4.64,13.45,1.39,17.48-.77,14.4-12.53,15-13.45S533.4,478,535.87,482.29Z"/><polygon class="cls-12" points="531.35 480.1 529.09 477.84 530.21 476.72 532.36 478.4 534.74 478.23 535.78 479.85 534.12 480.24 532.69 481.44 531.35 480.1"/><path class="cls-11" d="M606,526.89s-12.93,8-28-4.83-14.76-17.43-14.76-17.43-1.11-7.74,1.26-7.33,6.48-.21,7.54,2.63,6.63,11.79,10.72,13.84,18.53,4.53,19.65,4.5S608.15,522.37,606,526.89Z"/><polygon class="cls-12" points="605.22 521.94 605.76 518.78 607.33 519.05 607.19 521.78 608.7 523.62 607.98 525.41 606.7 524.28 604.9 523.8 605.22 521.94"/><path class="cls-13" d="M680.3,492.74s20,13.25,23.22,14.64,9.65,7.67,5.36,18.48-20,7.32-20,7.32-15-5.93-17.86-12.2-2.15-22.31-2.15-22.31S673.51,491.7,680.3,492.74Z"/><path class="cls-14" d="M700,532.18s16.22-4.44,20.68-10.84,4.56-11.88,3.88-14.36-5.83-13.43-9.71-15.29-13.59-2.07-17-1.86-21.93,3.2-23.42,4.65,0,1.86,0,1.86l5.49.2s20.33,9.72,22.73,15.5,2.28,3.72,2.63,10.64A9.92,9.92,0,0,1,700,532.18Z"/><path class="cls-15" d="M677.31,499.21s7.3-.79,16.19,8.1,8.49,15.6,8.49,15.6-1.38,5.53-3.36,6.71-15.2-1-18.36-3.35-8.89-11.26-8.69-13.93S670.4,501.38,677.31,499.21Z"/><path class="cls-16" d="M678.83,503.81s5.12-.55,11.35,5.67,5.94,10.93,5.94,10.93-1,3.88-2.35,4.71-10.65-.7-12.86-2.36-6.23-7.88-6.09-9.75S674,505.34,678.83,503.81Z"/><path class="cls-17" d="M681,492.42s14.44,1.53,15.53,2S716,506.21,716,506.21l7,6.12v2.85l-14-12-13.35-6.78Z"/><path class="cls-17" d="M674.82,493.85S689,496,690.1,496.57s19.15,16.36,19.15,16.36l6.89,8.48v3.94l-13.78-16.66-13.12-9.39Z"/><path class="cls-17" d="M722.24,501s-3.38,11-3.82,11.84-10.1,13.64-10.1,13.64l-4.71,4.67-1.62-.36,9.28-9.36,6.18-9.52Z"/><path class="cls-17" d="M715.72,492.42s-2.28,8.22-2.55,8.82-5.8,10.47-5.8,10.47l-2.61,3.65-.79-.18,5.16-7.31,3.61-7.26Z"/><path class="cls-17" d="M709.84,489.84s-1.94,6.75-2.17,7.24-5.24,8.52-5.24,8.52L700,508.55l-.77-.17,4.72-5.91,3.24-5.92Z"/><circle class="cls-17" cx="685.47" cy="515.36" r="2.35"/><path class="cls-13" d="M592.19,484.54s20,13.25,23.23,14.64,9.64,7.67,5.36,18.48-20,7.32-20,7.32-15-5.93-17.87-12.2-2.14-22.31-2.14-22.31S585.4,483.5,592.19,484.54Z"/><path class="cls-14" d="M611.85,524s16.22-4.45,20.68-10.85,4.57-11.88,3.88-14.36-5.82-13.43-9.71-15.29-13.59-2.06-17-1.86-21.93,3.2-23.41,4.65,0,1.86,0,1.86l5.48.21s20.33,9.71,22.73,15.49,2.29,3.72,2.63,10.64A9.94,9.94,0,0,1,611.85,524Z"/><path class="cls-15" d="M589.2,491s7.31-.79,16.19,8.1,8.5,15.6,8.5,15.6-1.39,5.53-3.36,6.71-15.21-1-18.37-3.35-8.88-11.26-8.69-13.92S582.29,493.19,589.2,491Z"/><path class="cls-16" d="M590.73,495.62s5.12-.56,11.34,5.67S608,512.21,608,512.21s-1,3.88-2.35,4.71-10.65-.69-12.87-2.35-6.22-7.89-6.08-9.76S585.89,497.14,590.73,495.62Z"/><path class="cls-17" d="M592.88,484.22s14.44,1.54,15.54,2S627.89,498,627.89,498l7,6.13V507l-14-12-13.35-6.79Z"/><path class="cls-17" d="M586.71,485.65s14.21,2.12,15.28,2.73,19.15,16.35,19.15,16.35l6.89,8.48v3.94l-13.77-16.66-13.13-9.39Z"/><path class="cls-17" d="M634.13,492.77s-3.38,11-3.82,11.83-10.1,13.64-10.1,13.64l-4.7,4.67-1.62-.36,9.28-9.36,6.17-9.52Z"/><path class="cls-17" d="M627.61,484.22s-2.28,8.22-2.54,8.82-5.8,10.47-5.8,10.47l-2.62,3.65-.79-.18,5.16-7.31,3.61-7.25Z"/><path class="cls-17" d="M621.74,481.64s-1.94,6.75-2.18,7.24-5.24,8.52-5.24,8.52l-2.39,3-.76-.17,4.72-5.91,3.24-5.92Z"/><circle class="cls-17" cx="597.37" cy="507.16" r="2.35"/><path class="cls-11" d="M780.71,564.36s-12.92,8-28-4.84-14.76-17.42-14.76-17.42-1.1-7.74,1.27-7.33,6.47-.21,7.54,2.63,6.62,11.79,10.71,13.84,18.54,4.53,19.65,4.5S782.82,559.84,780.71,564.36Z"/><polygon class="cls-12" points="779.89 559.41 780.44 556.25 782 556.52 781.86 559.25 783.38 561.09 782.65 562.88 781.38 561.75 779.57 561.27 779.89 559.41"/><path class="cls-11" d="M726.07,518.19s13.5-7,27.57,7S767,543.67,767,543.67s.51,7.8-1.82,7.21-6.48-.28-7.32-3.21-5.7-12.26-9.62-14.61-18.13-5.94-19.24-6S723.61,522.54,726.07,518.19Z"/><polygon class="cls-12" points="726.51 523.19 725.72 526.29 724.18 525.9 724.53 523.2 723.16 521.25 724.02 519.52 725.21 520.75 726.97 521.36 726.51 523.19"/><circle class="cls-18" cx="1177.36" cy="544.2" r="30.44"/><polygon class="cls-19" points="1186.96 519.52 1189.88 503.67 1193.38 517.83 1209.54 520.2 1194.06 523.51 1193.56 540.36 1189.91 525.9 1173.34 523.33 1186.96 519.52"/><polygon class="cls-19" points="1192.06 522.38 1189.1 521.48 1201.11 507.16 1202.75 510.19 1192.06 522.38"/><path class="cls-19" d="M1266.54,539.29s4-4.49,4.17-7.68c0,0,10.71-1.72,11.36-9.08s.57-8.26-3.35-13-10.14-2.29-10.14-2.29a11.59,11.59,0,0,0-7.28-8c-6.21-2.37-13.82,1.39-13.82,1.39l-1.47,2.13a6.59,6.59,0,0,0-5.72-2.37c-4,.16-7.61,3.19-7.61,3.19l-1.39,2.21a12.42,12.42,0,0,0-9.4,2.94,19.25,19.25,0,0,0-5.64,8.1s-7.69,1.14-9.57,3.68-4.42,5.56-3.84,11.44S1210.6,542,1210.6,542s-3.68,7.93.09,14.23,11.44,8.91,11.44,8.91,8.1,1.56,12.6-1.71,7.19-9.41,7.19-9.41a20.53,20.53,0,0,0,10.47-1.39C1258.2,550.33,1266.54,539.29,1266.54,539.29Z"/><path class="cls-20" d="M1281.34,557.77l-12,12.51s-11.29-14.71-16.93-17.66-19.14-10.55-24.78-8.58c0,0-1.22-4.91-2.21-5.16s16.93.25,26.5,4.66l-22.08-22.32,3.68-3.68,24.78,21.83s-9.08-18.64-6.38-20.85a4.89,4.89,0,0,1,5.15-1,83.54,83.54,0,0,0,8.81,21.6A67.53,67.53,0,0,0,1281.34,557.77Z"/><path class="cls-21" d="M1339.72,536.9s-11.69-10.33-28,1.34-36.13,19-33.92,28.34,18.77,5,18.77,5,41.27-.54,45.91-9.71S1339.72,536.9,1339.72,536.9Z"/><path class="cls-20" d="M1373,522.23s-6.37-6-15.54,1.09-20.25,11.61-19.12,17.14,10.36,2.76,10.36,2.76,27-1.43,29.68-6.91S1373,522.23,1373,522.23Z"/><path class="cls-20" d="M1367.67,541.49s-5.55-4.19-12.73-.08-16.07,6.47-14.87,10.1,8.67,2.3,8.67,2.3,22.14.45,24.06-2.95S1367.67,541.49,1367.67,541.49Z"/><rect class="cls-22" x="1350.65" y="522.46" width="1.82" height="26.7" transform="translate(1516.95 -908.64) rotate(74.91)"/><rect class="cls-22" x="1347.34" y="540.99" width="1.02" height="16.1" transform="translate(1168.73 1993.36) rotate(-105.09)"/><rect class="cls-22" x="1361.3" y="523.42" width="1.02" height="11.25" transform="translate(2141.47 1764.58) rotate(-143.48)"/><rect class="cls-22" x="1351.4" y="534.64" width="0.64" height="6.6" transform="translate(2704.37 2.35) rotate(136.7)"/><rect class="cls-22" x="1356" y="546.36" width="0.64" height="6.6" transform="translate(2720.36 19.45) rotate(136.7)"/><rect class="cls-22" x="1355.98" y="542.11" width="0.64" height="6.6" transform="translate(943.77 -857.03) rotate(51.7)"/><path class="cls-19" d="M1500,542.66s4-4.5,4.17-7.69c0,0,10.71-1.71,11.37-9.07s.57-8.26-3.36-13-10.14-2.29-10.14-2.29a11.57,11.57,0,0,0-7.27-8c-6.22-2.37-13.82,1.39-13.82,1.39l-1.48,2.13a6.55,6.55,0,0,0-5.72-2.37c-4,.16-7.6,3.19-7.6,3.19l-1.39,2.2a12.47,12.47,0,0,0-9.41,3,19.37,19.37,0,0,0-5.64,8.09s-7.69,1.15-9.57,3.68-4.41,5.56-3.84,11.45,7.77,10.06,7.77,10.06-3.68,7.93.08,14.23,11.45,8.91,11.45,8.91,8.09,1.55,12.59-1.72,7.2-9.4,7.2-9.4a20.49,20.49,0,0,0,10.46-1.39C1491.62,553.7,1500,542.66,1500,542.66Z"/><path class="cls-20" d="M1514.76,561.14l-12,12.51s-11.29-14.72-16.93-17.66-19.13-10.55-24.77-8.59c0,0-1.23-4.9-2.21-5.15s16.92.25,26.49,4.66l-22.08-22.32,3.68-3.68,24.78,21.83s-9.08-18.64-6.38-20.85a4.89,4.89,0,0,1,5.15-1,84.12,84.12,0,0,0,8.81,21.6A67.85,67.85,0,0,0,1514.76,561.14Z"/><path class="cls-23" d="M1379.38,542.64s19.19,13,26.35,17.7,23.6,17.6,31.23,8.89,16.1-23.64,3-29.76-19.55-10.19-22.55-9-24-6.43-24.63-9.26-5.34,6.1-5.34,6.1l-.93,4.57-7.1,3Z"/><path class="cls-20" d="M1379.72,542.87s-10.56-8.9-5.35-16.77c0,0,2.64-4.91,5.73-6.54s12.23,1.47,12.23,1.47l-4.32,5.44,1,8.14-7.57,2.91Z"/><path class="cls-20" d="M1368.93,521.11l-.31-2s6.78,3.2,8.35,4.92-1.26,3-1.26,3Z"/><path class="cls-23" d="M1260.77,514.71s19.19,13,26.34,17.69,23.6,17.61,31.24,8.89,16.09-23.63,3-29.75-19.54-10.2-22.55-9-24-6.42-24.62-9.26-5.35,6.1-5.35,6.1l-.93,4.58-7.1,3Z"/><path class="cls-20" d="M1261.1,514.93s-10.56-8.9-5.35-16.76c0,0,2.64-4.92,5.74-6.54s12.22,1.46,12.22,1.46l-4.32,5.45,1,8.14-7.57,2.9Z"/><path class="cls-20" d="M1250.32,493.18l-.32-2s6.78,3.2,8.36,4.92-1.27,3-1.27,3Z"/><circle class="cls-18" cx="1439.5" cy="510.32" r="30.44"/><polygon class="cls-19" points="1449.1 485.64 1452.01 469.79 1455.51 483.94 1471.68 486.32 1456.2 489.63 1455.7 506.48 1452.05 492.02 1435.48 489.45 1449.1 485.64"/><polygon class="cls-19" points="1454.19 488.5 1451.24 487.59 1463.24 473.27 1464.89 476.31 1454.19 488.5"/><path class="cls-21" d="M1396.9,491s-11.69-10.34-28,1.34-36.13,18.95-33.92,28.33,18.77,5,18.77,5,41.27-.54,45.91-9.71S1396.9,491,1396.9,491Z"/><path class="cls-20" d="M1430.15,476.35s-6.37-6-15.54,1.1-20.25,11.61-19.12,17.14,10.36,2.75,10.36,2.75,27-1.43,29.68-6.91S1430.15,476.35,1430.15,476.35Z"/><path class="cls-20" d="M1424.85,495.62s-5.55-4.2-12.73-.09-16.07,6.47-14.87,10.1,8.67,2.31,8.67,2.31,22.14.44,24.06-3S1424.85,495.62,1424.85,495.62Z"/><rect class="cls-22" x="1407.83" y="476.59" width="1.82" height="26.7" transform="translate(1514.95 -997.78) rotate(74.91)"/><rect class="cls-22" x="1404.52" y="495.11" width="1.02" height="16.1" transform="translate(1285.09 1990.74) rotate(-105.09)"/><rect class="cls-22" x="1418.48" y="477.55" width="1.02" height="11.25" transform="translate(2271.91 1715.85) rotate(-143.48)"/><rect class="cls-22" x="1408.58" y="488.76" width="0.64" height="6.6" transform="translate(2771.7 -116.13) rotate(136.7)"/><rect class="cls-22" x="1413.18" y="500.49" width="0.64" height="6.6" transform="translate(2787.69 -99.03) rotate(136.7)"/><rect class="cls-22" x="1413.15" y="496.23" width="0.64" height="6.6" transform="translate(929.51 -919.35) rotate(51.7)"/><path class="cls-19" d="M1349.47,491.74s4-4.5,4.17-7.69c0,0,10.71-1.72,11.37-9.08s.57-8.26-3.36-13-10.14-2.29-10.14-2.29a11.56,11.56,0,0,0-7.27-8c-6.22-2.37-13.82,1.39-13.82,1.39l-1.48,2.12a6.57,6.57,0,0,0-5.72-2.37c-4,.17-7.6,3.19-7.6,3.19l-1.39,2.21a12.44,12.44,0,0,0-9.41,2.94,19.43,19.43,0,0,0-5.64,8.1s-7.69,1.14-9.57,3.68-4.41,5.56-3.84,11.45,7.77,10.05,7.77,10.05-3.68,7.94.08,14.23,11.45,8.92,11.45,8.92,8.09,1.55,12.59-1.72,7.2-9.4,7.2-9.4a20.57,20.57,0,0,0,10.46-1.4C1341.13,502.78,1349.47,491.74,1349.47,491.74Z"/><path class="cls-20" d="M1364.27,510.22l-12,12.51S1341,508,1335.32,505.06s-19.13-10.54-24.77-8.58c0,0-1.23-4.91-2.21-5.15s16.93.24,26.49,4.66l-22.08-22.33,3.68-3.67,24.78,21.83s-9.08-18.65-6.38-20.85a4.89,4.89,0,0,1,5.15-1,84.12,84.12,0,0,0,8.81,21.6A67.85,67.85,0,0,0,1364.27,510.22Z"/><circle class="cls-18" cx="1381.76" cy="461.3" r="30.44"/><polygon class="cls-19" points="1391.36 436.62 1394.27 420.76 1397.77 434.92 1413.93 437.3 1398.45 440.6 1397.95 457.46 1394.3 443 1377.74 440.43 1391.36 436.62"/><polygon class="cls-19" points="1396.45 439.47 1393.49 438.57 1405.5 424.25 1407.15 427.28 1396.45 439.47"/><path class="cls-24" d="M1188,476.82s-12.09,21.39,0,31.62,19.22,7.75,19.22,7.75,10.54,4.34,13.64,8.37c0,0,.31-14.26,3.72-20.46s7.13-27-7.13-31.31S1188,476.82,1188,476.82Z"/><path class="cls-25" d="M1203.46,495.73l-11.78-3.8s.53-1.72,5.89-2.22S1203.46,495.73,1203.46,495.73Z"/><path class="cls-25" d="M1223.75,490.38,1213,496.55s-.92-1.56,2.31-5.85S1223.75,490.38,1223.75,490.38Z"/><path class="cls-25" d="M1212.37,502l-7.06,4.57s-.47-.93,1.8-3.85S1212.37,502,1212.37,502Z"/><rect class="cls-22" x="1191.02" y="458.6" width="2.26" height="18.91" rx="0.85" transform="translate(2472.15 424.75) rotate(156.63)"/><rect class="cls-22" x="1192.94" y="450.59" width="2.26" height="25.39" rx="0.85" transform="translate(2445.78 734.68) rotate(171.03)"/><rect class="cls-22" x="1186.15" y="455.71" width="2.26" height="24.68" rx="0.85" transform="translate(2331.55 -97.04) rotate(132.2)"/><path class="cls-24" d="M1244,452.46s-12.1,21.39,0,31.62,19.22,7.75,19.22,7.75,10.54,4.34,13.64,8.37c0,0,.31-14.26,3.72-20.46s7.13-27-7.13-31.31S1244,452.46,1244,452.46Z"/><path class="cls-25" d="M1259.54,471.37l-11.78-3.8s.53-1.72,5.89-2.22S1259.54,471.37,1259.54,471.37Z"/><path class="cls-25" d="M1279.82,466l-10.73,6.17s-.91-1.56,2.32-5.86S1279.82,466,1279.82,466Z"/><path class="cls-25" d="M1268.45,477.59l-7.06,4.57s-.47-.93,1.8-3.86S1268.45,477.59,1268.45,477.59Z"/><rect class="cls-22" x="1247.09" y="434.23" width="2.26" height="18.91" rx="0.85" transform="translate(2570.04 355.78) rotate(156.63)"/><rect class="cls-22" x="1249.02" y="426.23" width="2.26" height="25.39" rx="0.85" transform="translate(2553.45 677.51) rotate(171.03)"/><rect class="cls-22" x="1242.22" y="431.35" width="2.26" height="24.68" rx="0.85" transform="translate(2407.26 -179.3) rotate(132.2)"/><circle class="cls-1" cx="581.47" cy="219.69" r="21.66"/><circle class="cls-1" cx="1329.16" cy="219.69" r="21.66"/></svg>