<svg id="SCALE" xmlns="http://www.w3.org/2000/svg" viewBox="0 0 1920 1080"><defs><style>.cls-1{fill:#bababa;}.cls-2{fill:#00ab9d;}.cls-3{fill:#6f7a82;}.cls-4{fill:#00968c;}.cls-5{fill:#bb6260;}.cls-6{fill:#efd3c9;}.cls-7{fill:#e89c98;}.cls-8{fill:#fefbff;}.cls-9{fill:#e89d95;}.cls-10{fill:#a95965;}.cls-11{fill:#df7442;}.cls-12{fill:#ab5831;}.cls-13{fill:#f9d1c1;}.cls-14{fill:#974f3e;}.cls-15{fill:#e7b2a6;}.cls-16{fill:#cf9184;}.cls-17{fill:#a46257;}.cls-18{fill:#ff3631;}.cls-19{fill:#47c568;}.cls-20{fill:#bfda67;}.cls-21{fill:#fbb03b;}.cls-22{fill:#92c432;}.cls-23{fill:#805b9d;}.cls-24{fill:#f96b92;}.cls-25{fill:#dd5980;}</style></defs><rect class="cls-1" x="687.46" y="269.6" width="562.51" height="4.68"/><rect class="cls-1" x="956.42" y="313.44" width="28.49" height="419.85"/><path class="cls-2" d="M891.1,712.63h156a55.49,55.49,0,0,1,55.49,55.49v0a0,0,0,0,1,0,0h-267a0,0,0,0,1,0,0v0A55.49,55.49,0,0,1,891.1,712.63Z"/><path class="cls-3" d="M1009.56,313.44H931.65a36.85,36.85,0,0,1-36.85-36.85v-4.65c0-26.43,18.71-41.49,45.14-41.49l56.85,3.5c32.73,0,49.74,9.78,49.74,42.52h0A37,37,0,0,1,1009.56,313.44Z"/><circle class="cls-1" cx="968.71" cy="271.94" r="16.2"/><rect class="cls-1" x="513.43" y="536.84" width="348.06" height="13.13"/><path class="cls-3" d="M861.49,550c0,27.32-77.92,49.47-174,49.47s-174-22.15-174-49.47"/><rect class="cls-1" x="1075.93" y="536.84" width="348.06" height="13.13"/><path class="cls-3" d="M1424,550c0,27.32-77.92,49.47-174,49.47s-174-22.15-174-49.47"/><path class="cls-4" d="M851.56,730.12h238.21a55.49,55.49,0,0,1,55.49,55.49v0a0,0,0,0,1,0,0H796.07a0,0,0,0,1,0,0v0A55.49,55.49,0,0,1,851.56,730.12Z"/><rect class="cls-1" x="613.78" y="407.63" width="319.14" height="2.48" transform="translate(713.37 -463.85) rotate(58.2)"/><rect class="cls-1" x="446.14" y="407.63" width="319.14" height="2.48" transform="translate(1272.37 109.51) rotate(121.8)"/><rect class="cls-1" x="1172.23" y="406.98" width="319.14" height="2.48" transform="matrix(0.53, 0.85, -0.85, 0.53, 977, -938.79)"/><rect class="cls-1" x="1004.58" y="406.98" width="319.14" height="2.48" transform="translate(2124.51 -366.12) rotate(121.8)"/><path class="cls-5" d="M545.74,516s2.69,18.74,27.12,16,31.85-12.31,31.85-12.31.17,6.8-4.21,10.29-18.2,7.53-18.2,7.53l-19.88-.92s-10.62-2.2-14.16-9S545.74,516,545.74,516Z"/><path class="cls-6" d="M569.65,496.46s-18.15,2.45-22.94,13.5,5.8,18.25,5.8,18.25,4.94,6.42,17.14,4.88,27.54-4.14,31.55-8.6,5.32-6.92,0-14.77-19.2-12.28-22-12.28S569.65,496.46,569.65,496.46Z"/><path class="cls-7" d="M563.08,518.8l16.46,6.71a.84.84,0,0,1-.12,1.59,50.08,50.08,0,0,1-10.06,1.57c-4.67,0-14.24-.73-13.26-2,.76-1,3.86-5.41,5.23-7.39A1.47,1.47,0,0,1,563.08,518.8Z"/><path class="cls-7" d="M569.3,513.62h5.21s.9-5.57,4.75-6.71,15.8,0,15.8,0,6.05,4.74,5.89,7.85-1.48,7-5.89,7.2-14.24-1.39-16.54-2.37c-1.66-.71-6.79-3.55-9.47-5A.5.5,0,0,1,569.3,513.62Z"/><path class="cls-7" d="M565.32,509.18s-.74,2.29,1.31,2.05,6.14.18,6.79-1,1.64-3.4.9-3.81-2.53-1.23-3.68-.41S565.32,509.18,565.32,509.18Z"/><path class="cls-8" d="M556.1,504.82s-5.32,2.53-3.44,4.66,3.69,3.19,7,2.54,4.5-4.18,4.5-4.18-1.14-2.7-3.43-3A19.1,19.1,0,0,0,556.1,504.82Z"/><path class="cls-9" d="M555.45,507s5.75-1.39,6.15.33-1.73,3.11-2.23,3.11-4.91.16-5.32-.74S555.45,507,555.45,507Z"/><path class="cls-10" d="M556.29,507.75s3.24-.79,3.47.18-1,1.75-1.26,1.75-2.77.1-3-.41S556.29,507.75,556.29,507.75Z"/><path class="cls-5" d="M746.16,515.75s2.69,18.74,27.13,16,31.84-12.31,31.84-12.31.17,6.8-4.21,10.29-18.2,7.53-18.2,7.53l-19.88-.92s-10.62-2.21-14.16-9S746.16,515.75,746.16,515.75Z"/><path class="cls-6" d="M770.07,496.19s-18.15,2.46-22.94,13.51,5.8,18.25,5.8,18.25,4.94,6.42,17.14,4.87,27.54-4.14,31.55-8.6,5.32-6.91,0-14.77-19.19-12.27-22-12.27S770.07,496.19,770.07,496.19Z"/><path class="cls-7" d="M763.5,518.54l16.46,6.7a.84.84,0,0,1-.12,1.59,50,50,0,0,1-10.06,1.58c-4.67,0-14.24-.74-13.26-2,.76-.94,3.86-5.4,5.23-7.39A1.45,1.45,0,0,1,763.5,518.54Z"/><path class="cls-7" d="M769.72,513.35h5.22s.9-5.56,4.74-6.71,15.8,0,15.8,0,6,4.75,5.89,7.86-1.47,7-5.89,7.2-14.24-1.39-16.53-2.37c-1.67-.72-6.8-3.55-9.47-5.05A.5.5,0,0,1,769.72,513.35Z"/><path class="cls-7" d="M765.74,508.91s-.74,2.3,1.31,2,6.14.18,6.79-1,1.64-3.41.9-3.82-2.53-1.23-3.68-.41S765.74,508.91,765.74,508.91Z"/><path class="cls-8" d="M756.52,504.55s-5.32,2.54-3.44,4.67,3.69,3.19,7,2.53,4.5-4.17,4.5-4.17-1.14-2.7-3.43-3A19.13,19.13,0,0,0,756.52,504.55Z"/><path class="cls-9" d="M755.87,506.72s5.75-1.39,6.15.32-1.73,3.11-2.22,3.11-4.91.17-5.32-.73S755.87,506.72,755.87,506.72Z"/><path class="cls-10" d="M756.71,507.48s3.24-.78,3.47.18-1,1.76-1.26,1.76-2.77.09-3-.42S756.71,507.48,756.71,507.48Z"/><path class="cls-11" d="M663.66,499.91s7.53,8.51,0,21.28-11,13.09-11,13.09-5.56,1.8-5.56,0-1-4.75,1-5.89S656,522,657,518.73s1-14.24.82-15.06S660.06,498.93,663.66,499.91Z"/><polygon class="cls-12" points="660.11 501.14 657.72 501.14 657.72 499.96 659.75 499.71 660.91 498.36 662.32 498.67 661.65 499.75 661.53 501.14 660.11 501.14"/><path class="cls-11" d="M644.11,532.86s-9.67,6-21-3.61-11-13-11-13-.82-5.79.95-5.48,4.84-.16,5.64,2,5,8.82,8,10.35,13.87,3.39,14.7,3.37S645.69,529.48,644.11,532.86Z"/><polygon class="cls-12" points="643.5 529.16 643.9 526.8 645.07 527 644.97 529.04 646.1 530.42 645.56 531.76 644.61 530.91 643.26 530.55 643.5 529.16"/><path class="cls-13" d="M675.11,504.22s15,9.91,17.37,10.95,7.22,5.74,4,13.82-15,5.48-15,5.48-11.22-4.44-13.36-9.13-1.6-16.69-1.6-16.69S670,503.44,675.11,504.22Z"/><path class="cls-14" d="M689.82,533.72s12.13-3.32,15.46-8.11,3.42-8.89,2.91-10.74-4.36-10.05-7.27-11.44-10.16-1.54-12.73-1.39-16.4,2.4-17.51,3.48,0,1.39,0,1.39l4.1.15s15.21,7.27,17,11.6,1.71,2.78,2,8A7.43,7.43,0,0,1,689.82,533.72Z"/><path class="cls-15" d="M672.87,509.06s5.47-.59,12.11,6.05,6.36,11.68,6.36,11.68-1,4.13-2.52,5-11.37-.74-13.73-2.51-6.65-8.42-6.5-10.42S667.7,510.68,672.87,509.06Z"/><path class="cls-16" d="M674,512.5s3.83-.41,8.49,4.24,4.45,8.18,4.45,8.18-.73,2.89-1.76,3.52-8-.52-9.63-1.76-4.65-5.9-4.55-7.3S670.39,513.64,674,512.5Z"/><path class="cls-17" d="M675.62,504s10.81,1.15,11.63,1.47,14.56,8.84,14.56,8.84l5.24,4.59V521l-10.47-9-10-5.07Z"/><path class="cls-17" d="M671,505.05s10.62,1.58,11.43,2,14.33,12.23,14.33,12.23l5.15,6.35v2.94l-10.31-12.46-9.82-7Z"/><path class="cls-17" d="M706.48,510.37s-2.53,8.26-2.86,8.85-7.55,10.21-7.55,10.21l-3.52,3.49-1.21-.27,6.94-7,4.62-7.13Z"/><path class="cls-17" d="M701.6,504s-1.7,6.15-1.9,6.6-4.34,7.83-4.34,7.83l-2,2.73-.6-.14,3.86-5.46,2.7-5.43Z"/><path class="cls-17" d="M697.21,502.05s-1.45,5.05-1.63,5.41-3.92,6.38-3.92,6.38l-1.79,2.2-.57-.12,3.53-4.43,2.43-4.42Z"/><circle class="cls-17" cx="678.98" cy="521.14" r="1.76"/><path class="cls-13" d="M593.36,485.54s15,9.91,17.37,10.95,7.22,5.74,4,13.82-15,5.48-15,5.48-11.22-4.44-13.36-9.13-1.6-16.69-1.6-16.69S588.28,484.76,593.36,485.54Z"/><path class="cls-14" d="M608.07,515.05s12.13-3.33,15.46-8.12,3.42-8.88,2.91-10.74-4.36-10.05-7.27-11.44-10.16-1.54-12.73-1.39-16.4,2.4-17.51,3.48,0,1.39,0,1.39l4.1.16s15.21,7.26,17,11.59,1.71,2.78,2,8A7.45,7.45,0,0,1,608.07,515.05Z"/><path class="cls-15" d="M591.12,490.38s5.47-.59,12.11,6.06,6.36,11.67,6.36,11.67-1,4.13-2.52,5-11.37-.74-13.73-2.51-6.65-8.42-6.5-10.42S586,492,591.12,490.38Z"/><path class="cls-16" d="M592.26,493.82s3.83-.41,8.49,4.25,4.45,8.17,4.45,8.17-.73,2.9-1.76,3.52-8-.52-9.63-1.76-4.65-5.9-4.55-7.3S588.64,495,592.26,493.82Z"/><path class="cls-17" d="M593.87,485.3s10.81,1.15,11.63,1.48,14.56,8.83,14.56,8.83l5.24,4.59v2.12l-10.47-9-10-5.07Z"/><path class="cls-17" d="M589.26,486.37s10.62,1.59,11.43,2S615,500.64,615,500.64l5.15,6.35v2.94l-10.31-12.46-9.82-7Z"/><path class="cls-17" d="M624.73,491.69s-2.53,8.26-2.86,8.85-7.55,10.21-7.55,10.21l-3.52,3.49-1.21-.27,6.94-7,4.62-7.12Z"/><path class="cls-17" d="M619.85,485.3s-1.7,6.15-1.9,6.6-4.34,7.83-4.34,7.83l-2,2.73-.6-.14,3.86-5.46,2.7-5.43Z"/><path class="cls-17" d="M615.46,483.37s-1.45,5.05-1.63,5.42-3.92,6.37-3.92,6.37l-1.79,2.21-.57-.13,3.53-4.43,2.43-4.42Z"/><circle class="cls-17" cx="597.23" cy="502.46" r="1.76"/><path class="cls-11" d="M737,534.66s-9.66,6-21-3.61-11-13-11-13-.83-5.79.94-5.48,4.85-.16,5.64,2,5,8.82,8,10.35,13.86,3.39,14.7,3.37S738.59,531.28,737,534.66Z"/><polygon class="cls-12" points="736.4 530.96 736.81 528.6 737.98 528.8 737.87 530.84 739.01 532.22 738.46 533.56 737.51 532.71 736.16 532.35 736.4 530.96"/><path class="cls-11" d="M785.63,511.3s10.09-5.21,20.62,5.22,10,13.84,10,13.84.38,5.84-1.36,5.4-4.85-.21-5.47-2.4-4.27-9.17-7.2-10.93-13.57-4.45-14.4-4.49S783.79,514.56,785.63,511.3Z"/><polygon class="cls-12" points="785.95 515.04 785.37 517.37 784.22 517.08 784.48 515.05 783.45 513.59 784.1 512.3 784.98 513.22 786.3 513.68 785.95 515.04"/><path class="cls-5" d="M623.05,500.91s2.69,18.73,27.12,16S682,504.58,682,504.58s.17,6.8-4.21,10.29-18.2,7.53-18.2,7.53l-19.88-.92s-10.62-2.2-14.16-9S623.05,500.91,623.05,500.91Z"/><path class="cls-6" d="M647,481.35s-18.15,2.45-22.94,13.5,5.8,18.25,5.8,18.25,4.94,6.42,17.14,4.87,27.54-4.13,31.55-8.59,5.32-6.92,0-14.78-19.2-12.27-22-12.27S647,481.35,647,481.35Z"/><path class="cls-7" d="M640.39,503.69l16.46,6.71a.83.83,0,0,1-.12,1.58,49.38,49.38,0,0,1-10.06,1.58c-4.67,0-14.24-.74-13.26-2,.76-1,3.86-5.41,5.23-7.39A1.46,1.46,0,0,1,640.39,503.69Z"/><path class="cls-7" d="M646.61,498.5h5.21s.9-5.56,4.75-6.71,15.8,0,15.8,0,6,4.75,5.89,7.86-1.47,7-5.89,7.2-14.24-1.39-16.54-2.37c-1.66-.72-6.79-3.55-9.47-5A.5.5,0,0,1,646.61,498.5Z"/><path class="cls-7" d="M642.63,494.07s-.74,2.29,1.31,2,6.14.18,6.79-1,1.64-3.41.9-3.82-2.53-1.22-3.68-.4S642.63,494.07,642.63,494.07Z"/><path class="cls-8" d="M633.41,489.7s-5.32,2.54-3.44,4.67,3.69,3.19,7,2.54,4.5-4.18,4.5-4.18-1.14-2.7-3.43-3A19.7,19.7,0,0,0,633.41,489.7Z"/><path class="cls-9" d="M632.76,491.87s5.75-1.39,6.15.33-1.73,3.11-2.23,3.11-4.91.16-5.32-.74S632.76,491.87,632.76,491.87Z"/><path class="cls-10" d="M633.6,492.63s3.24-.78,3.47.19-1,1.75-1.26,1.75-2.77.09-3-.41S633.6,492.63,633.6,492.63Z"/><path class="cls-5" d="M712.4,506.24s2.7,18.74,27.13,16,31.85-12.31,31.85-12.31.16,6.8-4.22,10.29-18.2,7.53-18.2,7.53l-19.88-.92s-10.61-2.2-14.15-9S712.4,506.24,712.4,506.24Z"/><path class="cls-6" d="M736.31,486.68s-18.15,2.45-22.94,13.5,5.8,18.25,5.8,18.25,5,6.42,17.14,4.88,27.55-4.14,31.55-8.6,5.33-6.92,0-14.77-19.19-12.28-22-12.28S736.31,486.68,736.31,486.68Z"/><path class="cls-7" d="M729.74,509l16.46,6.71a.84.84,0,0,1-.11,1.59A50.18,50.18,0,0,1,736,518.89c-4.66,0-14.24-.73-13.26-2,.76-.95,3.86-5.41,5.24-7.39A1.46,1.46,0,0,1,729.74,509Z"/><path class="cls-7" d="M736,503.84h5.21s.9-5.57,4.75-6.71,15.79,0,15.79,0,6.06,4.74,5.89,7.85-1.47,7-5.89,7.2-14.24-1.39-16.53-2.37c-1.67-.71-6.8-3.55-9.47-5A.5.5,0,0,1,736,503.84Z"/><path class="cls-7" d="M732,499.4s-.73,2.29,1.31,2,6.14.19,6.8-1,1.63-3.4.9-3.81-2.54-1.23-3.69-.41S732,499.4,732,499.4Z"/><path class="cls-8" d="M722.76,495s-5.31,2.53-3.43,4.66,3.68,3.19,7,2.54,4.5-4.18,4.5-4.18-1.15-2.7-3.44-3A19.13,19.13,0,0,0,722.76,495Z"/><path class="cls-9" d="M722.11,497.2s5.76-1.39,6.15.33-1.73,3.11-2.22,3.11-4.91.16-5.32-.74S722.11,497.2,722.11,497.2Z"/><path class="cls-10" d="M723,498s3.25-.78,3.47.19-1,1.75-1.25,1.75-2.77.1-3-.41S723,498,723,498Z"/><path class="cls-11" d="M655.19,470.47s-.69,11.34-15.05,15-17,1.51-17,1.51-5.21-2.67-3.93-3.94,2.66-4.05,4.86-3.47,10.06,1,13.07-.58,10.77-9.37,11.23-10.06S653.34,467.23,655.19,470.47Z"/><polygon class="cls-12" points="651.81 468.84 650.12 467.14 650.96 466.31 652.56 467.56 654.34 467.43 655.13 468.65 653.88 468.94 652.81 469.83 651.81 468.84"/><path class="cls-11" d="M707.68,503.84s-9.67,6-21-3.62-11-13-11-13-.83-5.79,1-5.49,4.84-.16,5.64,2,5,8.82,8,10.35,13.87,3.39,14.7,3.37S709.26,500.45,707.68,503.84Z"/><polygon class="cls-12" points="707.07 500.13 707.47 497.77 708.64 497.97 708.54 500.01 709.67 501.39 709.13 502.73 708.17 501.88 706.83 501.52 707.07 500.13"/><path class="cls-13" d="M763.23,478.29s15,9.91,17.37,10.95,7.22,5.74,4,13.82-15,5.48-15,5.48-11.22-4.44-13.36-9.13-1.6-16.69-1.6-16.69S758.15,477.51,763.23,478.29Z"/><path class="cls-14" d="M777.94,507.8s12.13-3.33,15.46-8.12,3.42-8.88,2.91-10.74S792,478.9,789,477.5s-10.16-1.54-12.73-1.39-16.4,2.4-17.51,3.48,0,1.39,0,1.39l4.1.16s15.21,7.26,17,11.59,1.71,2.78,2,8A7.45,7.45,0,0,1,777.94,507.8Z"/><path class="cls-15" d="M761,483.13s5.47-.59,12.11,6.06,6.36,11.67,6.36,11.67-1,4.13-2.51,5-11.38-.74-13.74-2.51-6.65-8.42-6.5-10.42S755.82,484.76,761,483.13Z"/><path class="cls-16" d="M762.13,486.57s3.83-.41,8.49,4.25,4.45,8.17,4.45,8.17-.73,2.9-1.76,3.52-8-.52-9.63-1.76-4.65-5.9-4.55-7.3S758.51,487.71,762.13,486.57Z"/><path class="cls-17" d="M763.75,478.05s10.8,1.15,11.62,1.48,14.56,8.83,14.56,8.83l5.24,4.59v2.13l-10.47-9-10-5.07Z"/><path class="cls-17" d="M759.13,479.12s10.62,1.59,11.43,2,14.33,12.23,14.33,12.23l5.15,6.35v2.94l-10.31-12.46-9.82-7Z"/><path class="cls-17" d="M794.6,484.44s-2.53,8.26-2.86,8.85-7.55,10.21-7.55,10.21L780.67,507l-1.21-.27,6.94-7L791,492.6Z"/><path class="cls-17" d="M789.72,478.05s-1.7,6.15-1.9,6.6-4.34,7.83-4.34,7.83l-2,2.73-.6-.13,3.86-5.47,2.7-5.43Z"/><path class="cls-17" d="M785.33,476.12s-1.45,5.05-1.63,5.42-3.92,6.37-3.92,6.37L778,490.12l-.57-.13,3.53-4.42,2.43-4.43Z"/><circle class="cls-17" cx="767.1" cy="495.21" r="1.76"/><path class="cls-13" d="M697.32,472.16s15,9.91,17.37,10.95,7.22,5.74,4,13.82-15,5.47-15,5.47-11.23-4.43-13.37-9.12-1.6-16.69-1.6-16.69S692.24,471.38,697.32,472.16Z"/><path class="cls-14" d="M712,501.66s12.13-3.32,15.47-8.11,3.41-8.89,2.9-10.74-4.36-10.05-7.26-11.44S713,469.83,710.41,470s-16.41,2.4-17.52,3.48,0,1.39,0,1.39l4.1.15s15.21,7.27,17,11.59,1.7,2.79,2,8A7.41,7.41,0,0,1,712,501.66Z"/><path class="cls-15" d="M695.08,477s5.47-.59,12.12,6.05,6.35,11.67,6.35,11.67-1,4.14-2.51,5-11.38-.74-13.74-2.51-6.65-8.42-6.5-10.42S689.91,478.62,695.08,477Z"/><path class="cls-16" d="M696.23,480.44s3.82-.41,8.48,4.24,4.45,8.18,4.45,8.18-.72,2.89-1.76,3.52-8-.52-9.62-1.76-4.66-5.9-4.55-7.3S692.6,481.58,696.23,480.44Z"/><path class="cls-17" d="M697.84,471.92s10.8,1.15,11.62,1.47S724,482.23,724,482.23l5.23,4.58v2.13l-10.47-9-10-5.07Z"/><path class="cls-17" d="M693.22,473s10.63,1.58,11.43,2S719,487.26,719,487.26l5.15,6.34v2.95l-10.3-12.46-9.82-7Z"/><path class="cls-17" d="M728.69,478.31s-2.52,8.26-2.85,8.85-7.56,10.21-7.56,10.21l-3.52,3.49-1.21-.27,6.94-7,4.62-7.13Z"/><path class="cls-17" d="M723.82,471.92s-1.71,6.15-1.91,6.6-4.34,7.83-4.34,7.83l-2,2.73-.59-.14,3.86-5.46,2.7-5.43Z"/><path class="cls-17" d="M719.42,470S718,475,717.8,475.4s-3.92,6.38-3.92,6.38l-1.79,2.2-.58-.12,3.54-4.43,2.42-4.42Z"/><circle class="cls-17" cx="701.19" cy="489.08" r="1.76"/><path class="cls-11" d="M838.34,531.86s-9.66,6-21-3.61-11-13-11-13-.82-5.79.95-5.48,4.85-.16,5.64,2,5,8.82,8,10.35,13.86,3.39,14.69,3.37S839.92,528.48,838.34,531.86Z"/><polygon class="cls-12" points="837.73 528.16 838.13 525.8 839.3 526 839.2 528.04 840.34 529.42 839.79 530.76 838.84 529.91 837.49 529.55 837.73 528.16"/><path class="cls-11" d="M797.47,497.33s10.09-5.22,20.62,5.21,10,13.84,10,13.84.38,5.84-1.36,5.4-4.85-.21-5.47-2.4-4.27-9.17-7.2-10.93S800.5,504,799.67,504,795.63,500.58,797.47,497.33Z"/><polygon class="cls-12" points="797.79 501.07 797.21 503.39 796.06 503.1 796.32 501.07 795.29 499.61 795.93 498.32 796.82 499.24 798.14 499.7 797.79 501.07"/><circle class="cls-18" cx="1135.05" cy="516.79" r="22.77"/><polygon class="cls-19" points="1142.23 498.33 1144.41 486.46 1147.03 497.06 1159.12 498.83 1147.55 501.31 1147.17 513.91 1144.44 503.1 1132.05 501.18 1142.23 498.33"/><polygon class="cls-19" points="1146.04 500.46 1143.83 499.79 1152.81 489.07 1154.05 491.34 1146.04 500.46"/><path class="cls-19" d="M1201.76,513.11s3-3.36,3.12-5.75c0,0,8-1.28,8.5-6.79s.43-6.17-2.51-9.72-7.58-1.71-7.58-1.71a8.67,8.67,0,0,0-5.45-6c-4.65-1.77-10.33,1-10.33,1l-1.11,1.59a4.89,4.89,0,0,0-4.28-1.77,11,11,0,0,0-5.69,2.38l-1,1.65a9.28,9.28,0,0,0-7,2.21,14.47,14.47,0,0,0-4.22,6.05s-5.75.86-7.16,2.75-3.3,4.16-2.87,8.57,5.81,7.52,5.81,7.52-2.75,5.94.06,10.65,8.56,6.66,8.56,6.66,6.06,1.16,9.42-1.28,5.39-7,5.39-7a15.26,15.26,0,0,0,7.83-1C1195.52,521.37,1201.76,513.11,1201.76,513.11Z"/><path class="cls-20" d="M1212.83,526.94l-9,9.36s-8.44-11-12.66-13.22-14.32-7.89-18.54-6.42c0,0-.92-3.67-1.65-3.85s12.66.18,19.82,3.48l-16.52-16.69,2.76-2.76,18.53,16.33s-6.79-13.94-4.77-15.59a3.65,3.65,0,0,1,3.85-.74,62.46,62.46,0,0,0,6.59,16.16A50.7,50.7,0,0,0,1212.83,526.94Z"/><path class="cls-21" d="M1256.51,511.33s-8.75-7.73-20.94,1-27,14.18-25.37,21.19,14,3.74,14,3.74,30.87-.41,34.34-7.27S1256.51,511.33,1256.51,511.33Z"/><path class="cls-20" d="M1281.38,500.35s-4.77-4.48-11.63.82-15.15,8.68-14.3,12.82,7.75,2.06,7.75,2.06,20.2-1.07,22.2-5.17S1281.38,500.35,1281.38,500.35Z"/><path class="cls-20" d="M1277.41,514.76a8.81,8.81,0,0,0-9.53-.06c-5.37,3.07-12,4.84-11.11,7.55s6.48,1.73,6.48,1.73,16.56.33,18-2.22S1277.41,514.76,1277.41,514.76Z"/><rect class="cls-22" x="1264.68" y="500.52" width="1.36" height="19.97" transform="translate(1428.77 -844.13) rotate(74.91)"/><rect class="cls-22" x="1262.2" y="514.38" width="0.76" height="12.04" transform="translate(1088.91 1874.94) rotate(-105.09)"/><rect class="cls-22" x="1272.64" y="501.24" width="0.76" height="8.42" transform="translate(1995.38 1669.18) rotate(-143.48)"/><rect class="cls-22" x="1265.24" y="509.63" width="0.48" height="4.94" transform="translate(2537.65 16.86) rotate(136.7)"/><rect class="cls-22" x="1268.68" y="518.4" width="0.48" height="4.94" transform="translate(2549.61 29.65) rotate(136.7)"/><rect class="cls-22" x="1268.66" y="515.22" width="0.48" height="4.94" transform="translate(888.78 -798.98) rotate(51.7)"/><path class="cls-19" d="M1376.37,515.63s3-3.36,3.12-5.75c0,0,8-1.28,8.5-6.79s.43-6.17-2.51-9.72-7.58-1.72-7.58-1.72a8.66,8.66,0,0,0-5.45-6c-4.65-1.77-10.33,1-10.33,1l-1.11,1.59a4.89,4.89,0,0,0-4.28-1.77,11,11,0,0,0-5.69,2.38l-1,1.65a9.28,9.28,0,0,0-7,2.21,14.47,14.47,0,0,0-4.22,6.05s-5.75.86-7.16,2.75-3.3,4.16-2.87,8.57,5.81,7.52,5.81,7.52-2.75,5.93.06,10.64,8.56,6.67,8.56,6.67,6.06,1.16,9.42-1.28,5.39-7,5.39-7a15.26,15.26,0,0,0,7.83-1C1370.13,523.89,1376.37,515.63,1376.37,515.63Z"/><path class="cls-20" d="M1387.44,529.46l-9,9.36s-8.44-11-12.66-13.22-14.32-7.89-18.54-6.42c0,0-.92-3.67-1.65-3.85s12.66.18,19.82,3.48l-16.52-16.7,2.76-2.75,18.53,16.33s-6.79-13.94-4.77-15.59a3.65,3.65,0,0,1,3.85-.74,62.46,62.46,0,0,0,6.59,16.16A50.7,50.7,0,0,0,1387.44,529.46Z"/><path class="cls-23" d="M1286.17,515.62s14.36,9.7,19.71,13.23,17.65,13.17,23.36,6.65,12-17.68,2.22-22.25-14.62-7.63-16.86-6.72-18-4.8-18.43-6.92-4,4.56-4,4.56l-.69,3.42-5.31,2.26Z"/><path class="cls-20" d="M1286.42,515.79s-7.9-6.66-4-12.54c0,0,2-3.68,4.29-4.89s9.15,1.09,9.15,1.09l-3.23,4.07.75,6.09-5.66,2.17Z"/><path class="cls-20" d="M1278.36,499.51l-.24-1.49s5.07,2.4,6.25,3.69-.94,2.24-.94,2.24Z"/><path class="cls-23" d="M1197.44,494.72s14.36,9.7,19.71,13.24,17.65,13.17,23.36,6.65,12-17.68,2.22-22.26-14.62-7.62-16.86-6.71-18-4.81-18.43-6.93-4,4.56-4,4.56l-.69,3.43-5.31,2.26Z"/><path class="cls-20" d="M1197.69,494.89s-7.9-6.66-4-12.54c0,0,2-3.68,4.29-4.89s9.15,1.09,9.15,1.09l-3.23,4.08.75,6.09-5.66,2.17Z"/><path class="cls-20" d="M1189.63,478.62l-.24-1.49s5.07,2.4,6.25,3.68-.94,2.25-.94,2.25Z"/><circle class="cls-18" cx="1331.14" cy="491.44" r="22.77"/><polygon class="cls-19" points="1338.32 472.98 1340.5 461.12 1343.12 471.71 1355.21 473.49 1343.63 475.96 1343.26 488.57 1340.53 477.75 1328.13 475.83 1338.32 472.98"/><polygon class="cls-19" points="1342.13 475.12 1339.92 474.44 1348.9 463.73 1350.14 466 1342.13 475.12"/><path class="cls-21" d="M1299.28,477s-8.75-7.73-20.94,1-27,14.18-25.36,21.19,14,3.74,14,3.74,30.88-.41,34.34-7.26S1299.28,477,1299.28,477Z"/><path class="cls-20" d="M1324.15,466s-4.77-4.48-11.63.82-15.14,8.68-14.3,12.82,7.75,2.06,7.75,2.06,20.2-1.07,22.2-5.17S1324.15,466,1324.15,466Z"/><path class="cls-20" d="M1320.18,480.44a8.79,8.79,0,0,0-9.52-.06c-5.37,3.08-12,4.84-11.12,7.55s6.48,1.73,6.48,1.73,16.57.33,18-2.21S1320.18,480.44,1320.18,480.44Z"/><rect class="cls-22" x="1307.45" y="466.21" width="1.36" height="19.97" transform="translate(1427.27 -910.81) rotate(74.91)"/><rect class="cls-22" x="1304.98" y="480.06" width="0.76" height="12.04" transform="translate(1175.95 1872.98) rotate(-105.09)"/><rect class="cls-22" x="1315.42" y="466.92" width="0.76" height="8.42" transform="translate(2092.95 1632.74) rotate(-143.48)"/><rect class="cls-22" x="1308.01" y="475.31" width="0.48" height="4.94" transform="translate(2588.01 -71.77) rotate(136.7)"/><rect class="cls-22" x="1311.45" y="484.08" width="0.48" height="4.94" transform="translate(2599.97 -58.98) rotate(136.7)"/><rect class="cls-22" x="1311.43" y="480.9" width="0.48" height="4.94" transform="translate(878.11 -845.6) rotate(51.7)"/><path class="cls-19" d="M1263.8,477.54s3-3.37,3.11-5.75c0,0,8-1.29,8.51-6.79s.43-6.18-2.51-9.73-7.59-1.71-7.59-1.71a8.64,8.64,0,0,0-5.44-6c-4.65-1.78-10.34,1-10.34,1l-1.1,1.59a4.91,4.91,0,0,0-4.28-1.78,11,11,0,0,0-5.69,2.39l-1,1.65a9.3,9.3,0,0,0-7,2.2,14.53,14.53,0,0,0-4.22,6.06s-5.75.85-7.16,2.75-3.3,4.16-2.87,8.56,5.81,7.53,5.81,7.53-2.76,5.93.06,10.64,8.56,6.67,8.56,6.67,6.06,1.16,9.42-1.29,5.38-7,5.38-7a15.39,15.39,0,0,0,7.83-1C1257.56,485.8,1263.8,477.54,1263.8,477.54Z"/><path class="cls-20" d="M1274.87,491.36l-9,9.36s-8.45-11-12.67-13.21-14.31-7.89-18.53-6.42c0,0-.92-3.67-1.65-3.86s12.66.19,19.82,3.49L1236.33,464l2.75-2.75,18.54,16.33s-6.79-14-4.77-15.6a3.66,3.66,0,0,1,3.85-.73,62.61,62.61,0,0,0,6.59,16.16A50.67,50.67,0,0,0,1274.87,491.36Z"/><circle class="cls-18" cx="1287.95" cy="454.77" r="22.77"/><polygon class="cls-19" points="1295.13 436.31 1297.31 424.45 1299.92 435.04 1312.02 436.81 1300.44 439.29 1300.06 451.9 1297.33 441.08 1284.94 439.16 1295.13 436.31"/><polygon class="cls-19" points="1298.94 438.44 1296.73 437.77 1305.71 427.06 1306.94 429.32 1298.94 438.44"/><path class="cls-24" d="M1143,466.38s-9,16,0,23.66,14.38,5.79,14.38,5.79,7.88,3.25,10.2,6.26c0,0,.23-10.66,2.78-15.3s5.34-20.18-5.33-23.42S1143,466.38,1143,466.38Z"/><path class="cls-25" d="M1154.57,480.53l-8.81-2.84s.4-1.29,4.41-1.66S1154.57,480.53,1154.57,480.53Z"/><path class="cls-25" d="M1169.75,476.52l-8,4.62s-.68-1.17,1.74-4.38S1169.75,476.52,1169.75,476.52Z"/><path class="cls-25" d="M1161.24,485.18,1156,488.6s-.35-.7,1.35-2.88A2.79,2.79,0,0,1,1161.24,485.18Z"/><rect class="cls-22" x="1145.27" y="452.75" width="1.69" height="14.15" rx="0.85" transform="translate(2380.59 427.23) rotate(156.63)"/><rect class="cls-22" x="1146.71" y="446.76" width="1.69" height="18.99" rx="0.85" transform="matrix(-0.99, 0.16, -0.16, -0.99, 2352.22, 727.97)"/><rect class="cls-22" x="1141.62" y="450.59" width="1.69" height="18.46" rx="0.85" transform="translate(2250.55 -77.6) rotate(132.2)"/><path class="cls-24" d="M1184.93,448.16s-9,16,0,23.65,14.37,5.8,14.37,5.8,7.89,3.25,10.21,6.26c0,0,.23-10.67,2.78-15.31s5.33-20.17-5.33-23.42S1184.93,448.16,1184.93,448.16Z"/><path class="cls-25" d="M1196.52,462.3l-8.81-2.84s.4-1.29,4.41-1.66S1196.52,462.3,1196.52,462.3Z"/><path class="cls-25" d="M1211.7,458.3l-8,4.61s-.69-1.16,1.73-4.37S1211.7,458.3,1211.7,458.3Z"/><path class="cls-25" d="M1203.19,467l-5.28,3.42s-.36-.69,1.35-2.88A2.8,2.8,0,0,1,1203.19,467Z"/><rect class="cls-22" x="1187.21" y="434.53" width="1.69" height="14.15" rx="0.85" transform="translate(2453.82 375.63) rotate(156.63)"/><rect class="cls-22" x="1188.65" y="428.54" width="1.69" height="18.99" rx="0.85" transform="matrix(-0.99, 0.16, -0.16, -0.99, 2432.76, 685.2)"/><rect class="cls-22" x="1183.57" y="432.37" width="1.69" height="18.46" rx="0.85" transform="translate(2307.18 -139.14) rotate(132.2)"/><circle class="cls-1" cx="689.3" cy="274.03" r="16.2"/><circle class="cls-1" cx="1248.61" cy="274.03" r="16.2"/></svg>