<svg xmlns="http://www.w3.org/2000/svg" xmlns:xlink="http://www.w3.org/1999/xlink" viewBox="0 0 375 817"><defs><style>.cls-1{fill:none;}.cls-2{clip-path:url(#clip-path);}.cls-3{fill:url(#linear-gradient);}.cls-4{fill:#b5de8c;}.cls-5{fill:#fff;}.cls-6{fill:#fcee21;}.cls-7{fill:#f7931e;opacity:0.23;isolation:isolate;}.cls-8{fill:#326886;}.cls-9{fill:#2a5973;}.cls-10{fill:#4694be;}.cls-11{fill:#72af90;}.cls-12{fill:#22816b;}.cls-13{fill:#dbafae;}.cls-14{fill:#824c4f;}.cls-15{fill:#4d4d4d;}.cls-16{fill:#896157;}.cls-17{fill:#473e2f;}.cls-18{fill:#369472;}</style><clipPath id="clip-path"><rect class="cls-1" width="375" height="817"/></clipPath><linearGradient id="linear-gradient" x1="-1505.25" y1="-4932.02" x2="-1505.25" y2="-4933.02" gradientTransform="matrix(1956, 0, 0, -817, 2944449.23, -4029459.5)" gradientUnits="userSpaceOnUse"><stop offset="0" stop-color="#deeef6"/><stop offset="0.03" stop-color="#deeef6"/><stop offset="1" stop-color="#deeef6"/></linearGradient></defs><g id="Layer_5" data-name="Layer 5"><g class="cls-2"><rect id="Rectangle_209" data-name="Rectangle 209" class="cls-3" width="375" height="817"/><path id="Path_425" data-name="Path 425" class="cls-4" d="M-905.64,513l-285.15-35.66V898.54l1956-67.82V732H295.47a525.32,525.32,0,0,1-104.26-10.45L-460.52,589.69Z"/><path class="cls-5" d="M4.4,64H232.21s-99-13-107-12c-5.1.64-5.73-7.24-5.52-13a7.54,7.54,0,0,0-5.75-7.62C108.36,30,100.45,28.39,96.21,29a35.32,35.32,0,0,0-12,4s-15-1-17-5c-1.32-2.64-8.18-4.67-13.37-4.38a9.84,9.84,0,0,0-7.42,4A27.62,27.62,0,0,0,44.21,31c-1,2-12,5-12,5s-4,1-6,8c-1.06,3.7-6,4-10.47,3.55a13.18,13.18,0,0,0-14,8.8A16.25,16.25,0,0,0,1,60.28,3.45,3.45,0,0,0,4.4,64Z"/><g id="Group_177" data-name="Group 177"><g id="Group_169" data-name="Group 169"><circle id="Ellipse_48" data-name="Ellipse 48" class="cls-6" cx="334.3" cy="180.92" r="50.13"/><circle id="Ellipse_49" data-name="Ellipse 49" class="cls-7" cx="343.49" cy="188.57" r="50.13"/></g></g><g id="Group_159" data-name="Group 159"><path id="Path_383" data-name="Path 383" class="cls-8" d="M244.51,252.64,123.45,578H486.29l-121-325.36C344.72,197.49,265,197.49,244.51,252.64Z"/><path id="Path_384" data-name="Path 384" class="cls-9" d="M338.37,192.9,177.93,578H609L448.56,192.9C427.56,142.48,359.37,142.48,338.37,192.9Z"/><path id="Path_385" data-name="Path 385" class="cls-10" d="M357.26,427.45l-43.5,130.2H522.62l-43.5-130.2C459.57,368.93,376.81,368.93,357.26,427.45Z"/></g><path id="Path_388" data-name="Path 388" class="cls-5" d="M307.22,269.56l28.87-73.2s14.44-40.57,55.34-41.46,59.34,33.52,59.34,33.52l27.6,74.9s-26.8-3.46-36.42-14-23.26-12.35-23.26-12.35l-12,18.52s-14.43.88-18.44-9.7c0,0-12.83,45-31.28,43.22S307.22,269.56,307.22,269.56Z"/><path class="cls-11" d="M-551.79,575.13s317-88.32,411-85.27,158-38.58,385-12.18,313,4.06,521,65V736.54h-505Z"/><path class="cls-12" d="M765.21,615.54s-219.08,41.37-338.77,41.37S50.13,684.48,55.21,694.82s181.57,41.72,181.57,41.72H765.21Z"/><g id="Group_170" data-name="Group 170"><path id="Path_401" data-name="Path 401" class="cls-13" d="M169.37,455.11,160,499.67l35.61-.66-9.36-44.21C182.31,443.81,172.92,444,169.37,455.11Z"/><g id="Group_164" data-name="Group 164"><path id="Path_402" data-name="Path 402" class="cls-14" d="M194.53,474.45,181.11,461l3.39-3.66,13.42,13.49Z"/><path id="Path_403" data-name="Path 403" class="cls-14" d="M168.92,463.89l17.34-18.78.89.89L169.8,464.78Z"/><path id="Path_404" data-name="Path 404" class="cls-14" d="M170.15,445.51l18,18.12-.85.93-18-18.13Z"/><path id="Path_405" data-name="Path 405" class="cls-14" d="M159.3,471.1l12.91-14,3.52,3.54-12.92,14Z"/><path id="Path_406" data-name="Path 406" class="cls-14" d="M172.36,451.77l-13.42-13.5,3.38-3.66,13.42,13.49Z"/><path id="Path_407" data-name="Path 407" class="cls-14" d="M181.08,448,194,434l3.52,3.54-12.92,14Z"/></g><rect id="Rectangle_197" data-name="Rectangle 197" class="cls-15" x="174.85" y="484.19" width="8.06" height="10.94" transform="translate(-8.99 3.38) rotate(-1.06)"/><path id="Path_408" data-name="Path 408" class="cls-16" d="M195.63,499l-35.61.66,1-4,33.45-.61Z"/></g><path id="Rectangle_194" data-name="Rectangle 194" class="cls-17" d="M28.29,661.62h9.43v9.61a4.53,4.53,0,0,1-4.53,4.53h-.37a4.53,4.53,0,0,1-4.53-4.53v-9.61Z"/><path id="Path_394" data-name="Path 394" class="cls-12" d="M20,566.16S5.59,591.74,6.29,616.27,20,662.87,20,662.87a33.76,33.76,0,0,0,23.13,0C55.69,658.32,55,615.57,55,615.57s-5.6-69-14.36-73.59S20,566.16,20,566.16Z"/><path id="Path_395" data-name="Path 395" class="cls-18" d="M37.8,638.12s-2.81,5.13-2.67,10a22.53,22.53,0,0,0,2.67,9.35,6.42,6.42,0,0,0,4.53,0c2.46-.91,2.33-9.49,2.33-9.49s-1.1-13.84-2.81-14.76S37.8,638.12,37.8,638.12Z"/><path id="Rectangle_194-2" data-name="Rectangle 194" class="cls-17" d="M248,500.19h3.53v3.6a1.7,1.7,0,0,1-1.7,1.7h-.14a1.69,1.69,0,0,1-1.69-1.7v-3.6Z"/><path id="Path_394-2" data-name="Path 394" class="cls-12" d="M244.87,464.43s-5.38,9.58-5.12,18.77,5.12,17.46,5.12,17.46a12.69,12.69,0,0,0,8.66,0c4.73-1.71,4.47-17.72,4.47-17.72s-2.1-25.86-5.38-27.57S244.87,464.43,244.87,464.43Z"/><path id="Path_395-2" data-name="Path 395" class="cls-18" d="M251.56,491.39a7.08,7.08,0,0,0,0,7.26,2.35,2.35,0,0,0,1.69,0c.93-.34.88-3.55.88-3.55s-.42-5.19-1.06-5.53S251.56,491.39,251.56,491.39Z"/></g></g></svg>