<svg xmlns="http://www.w3.org/2000/svg" width="970.841" height="466.653" viewBox="0 0 970.841 466.653">
  <g id="Graf" transform="translate(-342.195 -313.032)">
    <g id="Group_171" data-name="Group 171" transform="translate(409.695 321.65)">
      <line id="Line_858" data-name="Line 858" x2="898.5" opacity="0.299" stroke="#333" stroke-linecap="square" stroke-miterlimit="10" stroke-width="1" fill="none"/>
      <line id="Line_859" data-name="Line 859" x2="898.5" transform="translate(0 49.295)" fill="none" stroke="#333" stroke-linecap="square" stroke-miterlimit="10" stroke-width="1" opacity="0.299"/>
      <line id="Line_860" data-name="Line 860" x2="898.5" transform="translate(0 95.19)" fill="none" stroke="#333" stroke-linecap="square" stroke-miterlimit="10" stroke-width="1" opacity="0.299"/>
      <line id="Line_861" data-name="Line 861" x2="898.5" transform="translate(0 142.785)" fill="none" stroke="#333" stroke-linecap="square" stroke-miterlimit="10" stroke-width="1" opacity="0.299"/>
      <line id="Line_862" data-name="Line 862" x2="898.5" transform="translate(0 190.379)" fill="none" stroke="#333" stroke-linecap="square" stroke-miterlimit="10" stroke-width="1" opacity="0.299"/>
      <line id="Line_863" data-name="Line 863" x2="898.5" transform="translate(0 239.674)" fill="none" stroke="#333" stroke-linecap="square" stroke-miterlimit="10" stroke-width="1" opacity="0.299"/>
      <line id="Line_864" data-name="Line 864" x2="898.5" transform="translate(0 285.569)" fill="none" stroke="#333" stroke-linecap="square" stroke-miterlimit="10" stroke-width="1" opacity="0.299"/>
      <line id="Line_865" data-name="Line 865" x2="898.5" transform="translate(0 334.864)" fill="none" stroke="#333" stroke-linecap="square" stroke-miterlimit="10" stroke-width="1" opacity="0.299"/>
      <line id="Line_866" data-name="Line 866" x2="898.5" transform="translate(0 384.159)" fill="none" stroke="#333" stroke-linecap="square" stroke-miterlimit="10" stroke-width="1" opacity="0.299"/>
      <line id="Line_867" data-name="Line 867" x2="898.5" transform="translate(0 430.054)" fill="none" stroke="#333" stroke-linecap="square" stroke-miterlimit="10" stroke-width="1"/>
    </g>
    <path id="Path_412" data-name="Path 412" d="M392,463.287l32.675,8.5,16.338-8.5h19.968l14.522-22.1,16.337,15.3,34.49,50.995,18.153,39.1,14.522,17,16.338,10.2,18.153-8.5s23.6,5.1,32.675,13.6l16.337-6.8,18.153-35.7,16.337-17,18.153-28.9,14.522-11.9,18.153-45.9,16.337-17,18.153-6.8,30.86-28.9,18.153,18.7,16.338,28.9,18.153,11.9h18.153s25.414-11.9,30.86-10.2l16.338-39.1,16.338,13.6,16.337-37.4,16.338-18.7,18.153-10.2,16.337,23.8,16.338,6.8,16.338,18.7,18.153,5.1,16.338-23.8,14.522,5.1,19.968-5.1s25.414-1.7,65.35,61.193l18.153,10.2s27.229-13.6,32.675-10.2l16.338,3.4,16.337,18.7,16.338-10.2,19.968,3.4" transform="translate(24.893 40.244)" fill="none" stroke="#4da2d1" stroke-miterlimit="10" stroke-width="3"/>
    <g id="Group_172" data-name="Group 172" transform="translate(413.553 735.141)">
      <text id="_1965" data-name="1965" transform="matrix(0.716, -0.698, 0.698, 0.716, 64.928, 41.303)" font-size="10" font-family="MuseoSans-500, Museo Sans" font-weight="500"><tspan x="0" y="0">1965</tspan></text>
      <text id="_1964" data-name="1964" transform="matrix(0.716, -0.698, 0.698, 0.716, 47.928, 41.303)" font-size="10" font-family="MuseoSans-500, Museo Sans" font-weight="500"><tspan x="0" y="0">1964</tspan></text>
      <text id="_1963" data-name="1963" transform="matrix(0.716, -0.698, 0.698, 0.716, 31.928, 41.303)" font-size="10" font-family="MuseoSans-500, Museo Sans" font-weight="500"><tspan x="0" y="0">1963</tspan></text>
      <text id="_1962" data-name="1962" transform="matrix(0.716, -0.698, 0.698, 0.716, 14.928, 41.303)" font-size="10" font-family="MuseoSans-500, Museo Sans" font-weight="500"><tspan x="0" y="0">1962</tspan></text>
      <text id="_1961" data-name="1961" transform="matrix(0.716, -0.698, 0.698, 0.716, -1.072, 40.604)" font-size="10" font-family="MuseoSans-500, Museo Sans" font-weight="500"><tspan x="0" y="0">1961</tspan></text>
      <text id="_1966" data-name="1966" transform="matrix(0.716, -0.698, 0.698, 0.716, 81.928, 41.303)" font-size="10" font-family="MuseoSans-500, Museo Sans" font-weight="500"><tspan x="0" y="0">1966</tspan></text>
      <text id="_1967" data-name="1967" transform="matrix(0.716, -0.698, 0.698, 0.716, 97.928, 40.604)" font-size="10" font-family="MuseoSans-500, Museo Sans" font-weight="500"><tspan x="0" y="0">1967</tspan></text>
      <text id="_1968" data-name="1968" transform="matrix(0.716, -0.698, 0.698, 0.716, 113.928, 41.303)" font-size="10" font-family="MuseoSans-500, Museo Sans" font-weight="500"><tspan x="0" y="0">1968</tspan></text>
      <text id="_1969" data-name="1969" transform="matrix(0.716, -0.698, 0.698, 0.716, 130.928, 41.303)" font-size="10" font-family="MuseoSans-500, Museo Sans" font-weight="500"><tspan x="0" y="0">1969</tspan></text>
      <text id="_1970" data-name="1970" transform="matrix(0.716, -0.698, 0.698, 0.716, 147.928, 40.604)" font-size="10" font-family="MuseoSans-500, Museo Sans" font-weight="500"><tspan x="0" y="0">1970</tspan></text>
      <text id="_1971" data-name="1971" transform="matrix(0.716, -0.698, 0.698, 0.716, 163.928, 40.905)" font-size="10" font-family="MuseoSans-500, Museo Sans" font-weight="500"><tspan x="0" y="0">1971</tspan></text>
      <text id="_1972" data-name="1972" transform="matrix(0.716, -0.698, 0.698, 0.716, 178.928, 40.604)" font-size="10" font-family="MuseoSans-500, Museo Sans" font-weight="500"><tspan x="0" y="0">1972</tspan></text>
      <text id="_1973_" data-name="1973 " transform="matrix(0.716, -0.698, 0.698, 0.716, 194.928, 42.001)" font-size="10" font-family="MuseoSans-500, Museo Sans" font-weight="500"><tspan x="0" y="0">1973 </tspan></text>
      <text id="_1974" data-name="1974" transform="matrix(0.716, -0.698, 0.698, 0.716, 212.928, 40.604)" font-size="10" font-family="MuseoSans-500, Museo Sans" font-weight="500"><tspan x="0" y="0">1974</tspan></text>
      <text id="_1975" data-name="1975" transform="matrix(0.716, -0.698, 0.698, 0.716, 228.928, 40.604)" font-size="10" font-family="MuseoSans-500, Museo Sans" font-weight="500"><tspan x="0" y="0">1975</tspan></text>
      <text id="_1976" data-name="1976" transform="matrix(0.716, -0.698, 0.698, 0.716, 244.928, 40.604)" font-size="10" font-family="MuseoSans-500, Museo Sans" font-weight="500"><tspan x="0" y="0">1976</tspan></text>
      <text id="_1977" data-name="1977" transform="matrix(0.716, -0.698, 0.698, 0.716, 260.928, 40.905)" font-size="10" font-family="MuseoSans-500, Museo Sans" font-weight="500"><tspan x="0" y="0">1977</tspan></text>
      <text id="_1978" data-name="1978" transform="matrix(0.716, -0.698, 0.698, 0.716, 275.928, 40.604)" font-size="10" font-family="MuseoSans-500, Museo Sans" font-weight="500"><tspan x="0" y="0">1978</tspan></text>
      <text id="_1979" data-name="1979" transform="matrix(0.716, -0.698, 0.698, 0.716, 291.928, 40.604)" font-size="10" font-family="MuseoSans-500, Museo Sans" font-weight="500"><tspan x="0" y="0">1979</tspan></text>
      <text id="_1980" data-name="1980" transform="matrix(0.716, -0.698, 0.698, 0.716, 307.928, 41.303)" font-size="10" font-family="MuseoSans-500, Museo Sans" font-weight="500"><tspan x="0" y="0">1980</tspan></text>
      <text id="_1981" data-name="1981" transform="matrix(0.716, -0.698, 0.698, 0.716, 324.928, 40.604)" font-size="10" font-family="MuseoSans-500, Museo Sans" font-weight="500"><tspan x="0" y="0">1981</tspan></text>
      <text id="_1982" data-name="1982" transform="matrix(0.716, -0.698, 0.698, 0.716, 340.928, 41.303)" font-size="10" font-family="MuseoSans-500, Museo Sans" font-weight="500"><tspan x="0" y="0">1982</tspan></text>
      <text id="_1983" data-name="1983" transform="matrix(0.716, -0.698, 0.698, 0.716, 356.928, 41.303)" font-size="10" font-family="MuseoSans-500, Museo Sans" font-weight="500"><tspan x="0" y="0">1983</tspan></text>
      <text id="_1984" data-name="1984" transform="matrix(0.716, -0.698, 0.698, 0.716, 373.928, 41.303)" font-size="10" font-family="MuseoSans-500, Museo Sans" font-weight="500"><tspan x="0" y="0">1984</tspan></text>
      <text id="_1985" data-name="1985" transform="matrix(0.716, -0.698, 0.698, 0.716, 390.928, 41.303)" font-size="10" font-family="MuseoSans-500, Museo Sans" font-weight="500"><tspan x="0" y="0">1985</tspan></text>
      <text id="_1986" data-name="1986" transform="matrix(0.716, -0.698, 0.698, 0.716, 406.928, 41.303)" font-size="10" font-family="MuseoSans-500, Museo Sans" font-weight="500"><tspan x="0" y="0">1986</tspan></text>
      <text id="_1987" data-name="1987" transform="matrix(0.716, -0.698, 0.698, 0.716, 423.928, 40.604)" font-size="10" font-family="MuseoSans-500, Museo Sans" font-weight="500"><tspan x="0" y="0">1987</tspan></text>
      <text id="_1988" data-name="1988" transform="matrix(0.716, -0.698, 0.698, 0.716, 439.928, 41.303)" font-size="10" font-family="MuseoSans-500, Museo Sans" font-weight="500"><tspan x="0" y="0">1988</tspan></text>
      <text id="_1989" data-name="1989" transform="matrix(0.716, -0.698, 0.698, 0.716, 456.928, 41.303)" font-size="10" font-family="MuseoSans-500, Museo Sans" font-weight="500"><tspan x="0" y="0">1989</tspan></text>
      <text id="_1990_" data-name="1990 " transform="matrix(0.716, -0.698, 0.698, 0.716, 473.928, 42.398)" font-size="10" font-family="MuseoSans-500, Museo Sans" font-weight="500"><tspan x="0" y="0">1990 </tspan></text>
      <text id="_1991" data-name="1991" transform="matrix(0.716, -0.698, 0.698, 0.716, 491.928, 40.604)" font-size="10" font-family="MuseoSans-500, Museo Sans" font-weight="500"><tspan x="0" y="0">1991</tspan></text>
      <text id="_1992" data-name="1992" transform="matrix(0.716, -0.698, 0.698, 0.716, 507.928, 41.303)" font-size="10" font-family="MuseoSans-500, Museo Sans" font-weight="500"><tspan x="0" y="0">1992</tspan></text>
      <text id="_1993" data-name="1993" transform="matrix(0.716, -0.698, 0.698, 0.716, 524.928, 41.303)" font-size="10" font-family="MuseoSans-500, Museo Sans" font-weight="500"><tspan x="0" y="0">1993</tspan></text>
      <text id="_1994" data-name="1994" transform="matrix(0.716, -0.698, 0.698, 0.716, 541.928, 41.303)" font-size="10" font-family="MuseoSans-500, Museo Sans" font-weight="500"><tspan x="0" y="0">1994</tspan></text>
      <text id="_1995" data-name="1995" transform="matrix(0.716, -0.698, 0.698, 0.716, 558.928, 41.303)" font-size="10" font-family="MuseoSans-500, Museo Sans" font-weight="500"><tspan x="0" y="0">1995</tspan></text>
      <text id="_1996" data-name="1996" transform="matrix(0.716, -0.698, 0.698, 0.716, 574.928, 41.303)" font-size="10" font-family="MuseoSans-500, Museo Sans" font-weight="500"><tspan x="0" y="0">1996</tspan></text>
      <text id="_1997" data-name="1997" transform="matrix(0.716, -0.698, 0.698, 0.716, 591.928, 40.604)" font-size="10" font-family="MuseoSans-500, Museo Sans" font-weight="500"><tspan x="0" y="0">1997</tspan></text>
      <text id="_1998" data-name="1998" transform="matrix(0.716, -0.698, 0.698, 0.716, 607.928, 41.303)" font-size="10" font-family="MuseoSans-500, Museo Sans" font-weight="500"><tspan x="0" y="0">1998</tspan></text>
      <text id="_1999" data-name="1999" transform="matrix(0.716, -0.698, 0.698, 0.716, 624.928, 41.303)" font-size="10" font-family="MuseoSans-500, Museo Sans" font-weight="500"><tspan x="0" y="0">1999</tspan></text>
      <text id="_2000" data-name="2000" transform="matrix(0.716, -0.698, 0.698, 0.716, 640.928, 42.001)" font-size="10" font-family="MuseoSans-500, Museo Sans" font-weight="500"><tspan x="0" y="0">2000</tspan></text>
      <text id="_2001" data-name="2001" transform="matrix(0.716, -0.698, 0.698, 0.716, 658.928, 41.303)" font-size="10" font-family="MuseoSans-500, Museo Sans" font-weight="500"><tspan x="0" y="0">2001</tspan></text>
      <text id="_2002" data-name="2002" transform="matrix(0.716, -0.698, 0.698, 0.716, 675.928, 42.001)" font-size="10" font-family="MuseoSans-500, Museo Sans" font-weight="500"><tspan x="0" y="0">2002</tspan></text>
      <text id="_2003" data-name="2003" transform="matrix(0.716, -0.698, 0.698, 0.716, 692.928, 42.001)" font-size="10" font-family="MuseoSans-500, Museo Sans" font-weight="500"><tspan x="0" y="0">2003</tspan></text>
      <text id="_2004" data-name="2004" transform="matrix(0.716, -0.698, 0.698, 0.716, 709.928, 42.001)" font-size="10" font-family="MuseoSans-500, Museo Sans" font-weight="500"><tspan x="0" y="0">2004</tspan></text>
      <text id="_2005" data-name="2005" transform="matrix(0.716, -0.698, 0.698, 0.716, 727.928, 42.001)" font-size="10" font-family="MuseoSans-500, Museo Sans" font-weight="500"><tspan x="0" y="0">2005</tspan></text>
      <text id="_2006" data-name="2006" transform="matrix(0.716, -0.698, 0.698, 0.716, 744.928, 42.001)" font-size="10" font-family="MuseoSans-500, Museo Sans" font-weight="500"><tspan x="0" y="0">2006</tspan></text>
      <text id="_2007" data-name="2007" transform="matrix(0.716, -0.698, 0.698, 0.716, 762.928, 42.001)" font-size="10" font-family="MuseoSans-500, Museo Sans" font-weight="500"><tspan x="0" y="0">2007</tspan></text>
      <text id="_2008" data-name="2008" transform="matrix(0.716, -0.698, 0.698, 0.716, 779.928, 42.001)" font-size="10" font-family="MuseoSans-500, Museo Sans" font-weight="500"><tspan x="0" y="0">2008</tspan></text>
      <text id="_2009" data-name="2009" transform="matrix(0.716, -0.698, 0.698, 0.716, 797.928, 42.001)" font-size="10" font-family="MuseoSans-500, Museo Sans" font-weight="500"><tspan x="0" y="0">2009</tspan></text>
      <text id="_2010" data-name="2010" transform="matrix(0.716, -0.698, 0.698, 0.716, 814.928, 41.303)" font-size="10" font-family="MuseoSans-500, Museo Sans" font-weight="500"><tspan x="0" y="0">2010</tspan></text>
      <text id="_2011" data-name="2011" transform="matrix(0.716, -0.698, 0.698, 0.716, 831.928, 40.604)" font-size="10" font-family="MuseoSans-500, Museo Sans" font-weight="500"><tspan x="0" y="0">2011</tspan></text>
      <text id="_2012" data-name="2012" transform="matrix(0.716, -0.698, 0.698, 0.716, 847.928, 41.303)" font-size="10" font-family="MuseoSans-500, Museo Sans" font-weight="500"><tspan x="0" y="0">2012</tspan></text>
      <text id="_2013" data-name="2013" transform="matrix(0.716, -0.698, 0.698, 0.716, 863.928, 41.303)" font-size="10" font-family="MuseoSans-500, Museo Sans" font-weight="500"><tspan x="0" y="0">2013</tspan></text>
      <text id="_2014" data-name="2014" transform="matrix(0.716, -0.698, 0.698, 0.716, 880.928, 41.303)" font-size="10" font-family="MuseoSans-500, Museo Sans" font-weight="500"><tspan x="0" y="0">2014</tspan></text>
    </g>
    <text id="_200000" data-name="200000" transform="translate(342.195 752.386)" font-size="12" font-family="MuseoSans-500, Museo Sans" font-weight="500"><tspan x="0" y="0">200000</tspan></text>
    <text id="_220000" data-name="220000" transform="translate(342.195 704.791)" font-size="12" font-family="MuseoSans-500, Museo Sans" font-weight="500"><tspan x="0" y="0">220000</tspan></text>
    <text id="_240000" data-name="240000" transform="translate(342.195 657.196)" font-size="12" font-family="MuseoSans-500, Museo Sans" font-weight="500"><tspan x="0" y="0">240000</tspan></text>
    <text id="_260000" data-name="260000" transform="translate(342.195 609.601)" font-size="12" font-family="MuseoSans-500, Museo Sans" font-weight="500"><tspan x="0" y="0">260000</tspan></text>
    <text id="_280000" data-name="280000" transform="translate(342.195 562.006)" font-size="12" font-family="MuseoSans-500, Museo Sans" font-weight="500"><tspan x="0" y="0">280000</tspan></text>
    <text id="_300000" data-name="300000" transform="translate(342.195 514.411)" font-size="12" font-family="MuseoSans-500, Museo Sans" font-weight="500"><tspan x="0" y="0">300000</tspan></text>
    <text id="_320000" data-name="320000" transform="translate(342.195 466.817)" font-size="12" font-family="MuseoSans-500, Museo Sans" font-weight="500"><tspan x="0" y="0">320000</tspan></text>
    <text id="_340000" data-name="340000" transform="translate(342.195 419.222)" font-size="12" font-family="MuseoSans-500, Museo Sans" font-weight="500"><tspan x="0" y="0">340000</tspan></text>
    <text id="_360000" data-name="360000" transform="translate(342.195 371.627)" font-size="12" font-family="MuseoSans-500, Museo Sans" font-weight="500"><tspan x="0" y="0">360000</tspan></text>
    <text id="_380000" data-name="380000" transform="translate(342.195 324.032)" font-size="12" font-family="MuseoSans-500, Museo Sans" font-weight="500"><tspan x="0" y="0">380000</tspan></text>
    <g id="Group_173" data-name="Group 173" transform="translate(416.893 421.089)">
      <line id="Line_868" data-name="Line 868" y1="1.797" x2="10.892" transform="translate(0 123.99)" fill="none" stroke="#df928e" stroke-miterlimit="10" stroke-width="2"/>
      <line id="Line_869" data-name="Line 869" y1="1.797" x2="10.892" transform="translate(12.707 122.193)" fill="none" stroke="#df928e" stroke-miterlimit="10" stroke-width="2"/>
      <line id="Line_870" data-name="Line 870" y1="1.797" x2="10.892" transform="translate(25.414 120.396)" fill="none" stroke="#df928e" stroke-miterlimit="10" stroke-width="2"/>
      <line id="Line_871" data-name="Line 871" y1="1.797" x2="10.892" transform="translate(38.121 118.599)" fill="none" stroke="#df928e" stroke-miterlimit="10" stroke-width="2"/>
      <line id="Line_872" data-name="Line 872" y1="1.797" x2="10.892" transform="translate(50.828 116.802)" fill="none" stroke="#df928e" stroke-miterlimit="10" stroke-width="2"/>
      <line id="Line_873" data-name="Line 873" y1="1.797" x2="10.892" transform="translate(63.535 115.005)" fill="none" stroke="#df928e" stroke-miterlimit="10" stroke-width="2"/>
      <line id="Line_874" data-name="Line 874" y1="1.797" x2="10.892" transform="translate(76.242 113.208)" fill="none" stroke="#df928e" stroke-miterlimit="10" stroke-width="2"/>
      <line id="Line_875" data-name="Line 875" y1="1.797" x2="10.892" transform="translate(88.949 111.411)" fill="none" stroke="#df928e" stroke-miterlimit="10" stroke-width="2"/>
      <line id="Line_876" data-name="Line 876" y1="1.797" x2="10.892" transform="translate(101.656 109.614)" fill="none" stroke="#df928e" stroke-miterlimit="10" stroke-width="2"/>
      <line id="Line_877" data-name="Line 877" y1="1.797" x2="10.892" transform="translate(114.363 107.817)" fill="none" stroke="#df928e" stroke-miterlimit="10" stroke-width="2"/>
      <line id="Line_878" data-name="Line 878" y1="1.797" x2="10.892" transform="translate(127.069 106.02)" fill="none" stroke="#df928e" stroke-miterlimit="10" stroke-width="2"/>
      <line id="Line_879" data-name="Line 879" y1="1.797" x2="10.892" transform="translate(139.776 104.223)" fill="none" stroke="#df928e" stroke-miterlimit="10" stroke-width="2"/>
      <line id="Line_880" data-name="Line 880" y1="1.797" x2="10.892" transform="translate(152.483 102.426)" fill="none" stroke="#df928e" stroke-miterlimit="10" stroke-width="2"/>
      <line id="Line_881" data-name="Line 881" y1="1.797" x2="10.892" transform="translate(165.19 100.629)" fill="none" stroke="#df928e" stroke-miterlimit="10" stroke-width="2"/>
      <line id="Line_882" data-name="Line 882" y1="1.797" x2="10.892" transform="translate(177.897 98.832)" fill="none" stroke="#df928e" stroke-miterlimit="10" stroke-width="2"/>
      <line id="Line_883" data-name="Line 883" y1="1.797" x2="10.892" transform="translate(190.604 97.035)" fill="none" stroke="#df928e" stroke-miterlimit="10" stroke-width="2"/>
      <line id="Line_884" data-name="Line 884" y1="1.797" x2="10.892" transform="translate(203.311 95.238)" fill="none" stroke="#df928e" stroke-miterlimit="10" stroke-width="2"/>
      <line id="Line_885" data-name="Line 885" y1="1.797" x2="10.892" transform="translate(216.018 93.441)" fill="none" stroke="#df928e" stroke-miterlimit="10" stroke-width="2"/>
      <line id="Line_886" data-name="Line 886" y1="1.797" x2="10.892" transform="translate(228.725 91.645)" fill="none" stroke="#df928e" stroke-miterlimit="10" stroke-width="2"/>
      <line id="Line_887" data-name="Line 887" y1="1.797" x2="10.892" transform="translate(241.432 89.848)" fill="none" stroke="#df928e" stroke-miterlimit="10" stroke-width="2"/>
      <line id="Line_888" data-name="Line 888" y1="1.797" x2="10.892" transform="translate(254.139 88.051)" fill="none" stroke="#df928e" stroke-miterlimit="10" stroke-width="2"/>
      <line id="Line_889" data-name="Line 889" y1="1.797" x2="10.892" transform="translate(266.846 86.254)" fill="none" stroke="#df928e" stroke-miterlimit="10" stroke-width="2"/>
      <line id="Line_890" data-name="Line 890" y1="1.797" x2="10.892" transform="translate(279.553 84.457)" fill="none" stroke="#df928e" stroke-miterlimit="10" stroke-width="2"/>
      <line id="Line_891" data-name="Line 891" y1="1.797" x2="10.892" transform="translate(292.26 82.66)" fill="none" stroke="#df928e" stroke-miterlimit="10" stroke-width="2"/>
      <line id="Line_892" data-name="Line 892" y1="1.797" x2="10.892" transform="translate(304.967 80.863)" fill="none" stroke="#df928e" stroke-miterlimit="10" stroke-width="2"/>
      <line id="Line_893" data-name="Line 893" y1="1.797" x2="10.892" transform="translate(317.674 79.066)" fill="none" stroke="#df928e" stroke-miterlimit="10" stroke-width="2"/>
      <line id="Line_894" data-name="Line 894" y1="1.797" x2="10.892" transform="translate(330.381 77.269)" fill="none" stroke="#df928e" stroke-miterlimit="10" stroke-width="2"/>
      <line id="Line_895" data-name="Line 895" y1="1.797" x2="10.892" transform="translate(343.088 75.472)" fill="none" stroke="#df928e" stroke-miterlimit="10" stroke-width="2"/>
      <line id="Line_896" data-name="Line 896" y1="1.797" x2="10.892" transform="translate(355.794 73.675)" fill="none" stroke="#df928e" stroke-miterlimit="10" stroke-width="2"/>
      <line id="Line_897" data-name="Line 897" y1="1.797" x2="10.892" transform="translate(368.501 71.878)" fill="none" stroke="#df928e" stroke-miterlimit="10" stroke-width="2"/>
      <line id="Line_898" data-name="Line 898" y1="1.797" x2="10.892" transform="translate(381.208 70.081)" fill="none" stroke="#df928e" stroke-miterlimit="10" stroke-width="2"/>
      <line id="Line_899" data-name="Line 899" y1="1.797" x2="10.892" transform="translate(393.915 68.284)" fill="none" stroke="#df928e" stroke-miterlimit="10" stroke-width="2"/>
      <line id="Line_900" data-name="Line 900" y1="1.797" x2="10.892" transform="translate(406.622 66.487)" fill="none" stroke="#df928e" stroke-miterlimit="10" stroke-width="2"/>
      <line id="Line_901" data-name="Line 901" y1="1.797" x2="10.892" transform="translate(419.329 64.69)" fill="none" stroke="#df928e" stroke-miterlimit="10" stroke-width="2"/>
      <line id="Line_902" data-name="Line 902" y1="1.797" x2="10.892" transform="translate(432.036 62.893)" fill="none" stroke="#df928e" stroke-miterlimit="10" stroke-width="2"/>
      <line id="Line_903" data-name="Line 903" y1="1.797" x2="10.892" transform="translate(444.743 61.096)" fill="none" stroke="#df928e" stroke-miterlimit="10" stroke-width="2"/>
      <line id="Line_904" data-name="Line 904" y1="1.797" x2="10.892" transform="translate(457.45 59.299)" fill="none" stroke="#df928e" stroke-miterlimit="10" stroke-width="2"/>
      <line id="Line_905" data-name="Line 905" y1="1.797" x2="10.892" transform="translate(470.157 57.502)" fill="none" stroke="#df928e" stroke-miterlimit="10" stroke-width="2"/>
      <line id="Line_906" data-name="Line 906" y1="1.797" x2="10.892" transform="translate(482.864 55.705)" fill="none" stroke="#df928e" stroke-miterlimit="10" stroke-width="2"/>
      <line id="Line_907" data-name="Line 907" y1="1.797" x2="10.892" transform="translate(495.571 53.909)" fill="none" stroke="#df928e" stroke-miterlimit="10" stroke-width="2"/>
      <line id="Line_908" data-name="Line 908" y1="1.797" x2="10.892" transform="translate(508.278 52.112)" fill="none" stroke="#df928e" stroke-miterlimit="10" stroke-width="2"/>
      <line id="Line_909" data-name="Line 909" y1="1.797" x2="10.892" transform="translate(520.985 50.315)" fill="none" stroke="#df928e" stroke-miterlimit="10" stroke-width="2"/>
      <line id="Line_910" data-name="Line 910" y1="1.797" x2="10.892" transform="translate(533.692 48.518)" fill="none" stroke="#df928e" stroke-miterlimit="10" stroke-width="2"/>
      <line id="Line_911" data-name="Line 911" y1="1.797" x2="10.892" transform="translate(546.399 46.721)" fill="none" stroke="#df928e" stroke-miterlimit="10" stroke-width="2"/>
      <line id="Line_912" data-name="Line 912" y1="1.797" x2="10.892" transform="translate(559.106 44.924)" fill="none" stroke="#df928e" stroke-miterlimit="10" stroke-width="2"/>
      <line id="Line_913" data-name="Line 913" y1="1.797" x2="10.892" transform="translate(571.813 43.127)" fill="none" stroke="#df928e" stroke-miterlimit="10" stroke-width="2"/>
      <line id="Line_914" data-name="Line 914" y1="1.797" x2="10.892" transform="translate(584.52 41.33)" fill="none" stroke="#df928e" stroke-miterlimit="10" stroke-width="2"/>
      <line id="Line_915" data-name="Line 915" y1="1.797" x2="10.892" transform="translate(597.227 39.533)" fill="none" stroke="#df928e" stroke-miterlimit="10" stroke-width="2"/>
      <line id="Line_916" data-name="Line 916" y1="1.797" x2="10.892" transform="translate(609.933 37.736)" fill="none" stroke="#df928e" stroke-miterlimit="10" stroke-width="2"/>
      <line id="Line_917" data-name="Line 917" y1="1.797" x2="10.892" transform="translate(622.64 35.939)" fill="none" stroke="#df928e" stroke-miterlimit="10" stroke-width="2"/>
      <line id="Line_918" data-name="Line 918" y1="1.797" x2="10.892" transform="translate(635.347 34.142)" fill="none" stroke="#df928e" stroke-miterlimit="10" stroke-width="2"/>
      <line id="Line_919" data-name="Line 919" y1="1.797" x2="10.892" transform="translate(648.054 32.345)" fill="none" stroke="#df928e" stroke-miterlimit="10" stroke-width="2"/>
      <line id="Line_920" data-name="Line 920" y1="1.797" x2="10.892" transform="translate(660.761 30.548)" fill="none" stroke="#df928e" stroke-miterlimit="10" stroke-width="2"/>
      <line id="Line_921" data-name="Line 921" y1="1.797" x2="10.892" transform="translate(673.468 28.751)" fill="none" stroke="#df928e" stroke-miterlimit="10" stroke-width="2"/>
      <line id="Line_922" data-name="Line 922" y1="1.797" x2="10.892" transform="translate(686.175 26.954)" fill="none" stroke="#df928e" stroke-miterlimit="10" stroke-width="2"/>
      <line id="Line_923" data-name="Line 923" y1="1.797" x2="10.892" transform="translate(698.882 25.157)" fill="none" stroke="#df928e" stroke-miterlimit="10" stroke-width="2"/>
      <line id="Line_924" data-name="Line 924" y1="1.797" x2="10.892" transform="translate(711.589 23.36)" fill="none" stroke="#df928e" stroke-miterlimit="10" stroke-width="2"/>
      <line id="Line_925" data-name="Line 925" y1="1.797" x2="10.892" transform="translate(724.296 21.563)" fill="none" stroke="#df928e" stroke-miterlimit="10" stroke-width="2"/>
      <line id="Line_926" data-name="Line 926" y1="1.797" x2="10.892" transform="translate(737.003 19.766)" fill="none" stroke="#df928e" stroke-miterlimit="10" stroke-width="2"/>
      <line id="Line_927" data-name="Line 927" y1="1.797" x2="10.892" transform="translate(749.71 17.97)" fill="none" stroke="#df928e" stroke-miterlimit="10" stroke-width="2"/>
      <line id="Line_928" data-name="Line 928" y1="1.797" x2="10.892" transform="translate(762.417 16.173)" fill="none" stroke="#df928e" stroke-miterlimit="10" stroke-width="2"/>
      <line id="Line_929" data-name="Line 929" y1="1.797" x2="10.892" transform="translate(775.124 14.376)" fill="none" stroke="#df928e" stroke-miterlimit="10" stroke-width="2"/>
      <line id="Line_930" data-name="Line 930" y1="1.797" x2="10.892" transform="translate(787.831 12.579)" fill="none" stroke="#df928e" stroke-miterlimit="10" stroke-width="2"/>
      <line id="Line_931" data-name="Line 931" y1="1.797" x2="10.892" transform="translate(800.538 10.782)" fill="none" stroke="#df928e" stroke-miterlimit="10" stroke-width="2"/>
      <line id="Line_932" data-name="Line 932" y1="1.797" x2="10.892" transform="translate(813.245 8.985)" fill="none" stroke="#df928e" stroke-miterlimit="10" stroke-width="2"/>
      <line id="Line_933" data-name="Line 933" y1="1.797" x2="10.892" transform="translate(825.952 7.188)" fill="none" stroke="#df928e" stroke-miterlimit="10" stroke-width="2"/>
      <line id="Line_934" data-name="Line 934" y1="1.797" x2="10.892" transform="translate(838.658 5.391)" fill="none" stroke="#df928e" stroke-miterlimit="10" stroke-width="2"/>
      <line id="Line_935" data-name="Line 935" y1="1.797" x2="10.892" transform="translate(851.365 3.594)" fill="none" stroke="#df928e" stroke-miterlimit="10" stroke-width="2"/>
      <line id="Line_936" data-name="Line 936" y1="1.797" x2="10.892" transform="translate(864.072 1.797)" fill="none" stroke="#df928e" stroke-miterlimit="10" stroke-width="2"/>
      <line id="Line_937" data-name="Line 937" y1="1.797" x2="10.892" transform="translate(876.779)" fill="none" stroke="#df928e" stroke-miterlimit="10" stroke-width="2"/>
    </g>
    <line id="Line_938" data-name="Line 938" y1="430" transform="translate(409.695 321.438)" fill="none" stroke="#333" stroke-width="1"/>
    <line id="Line_939" data-name="Line 939" x1="13" transform="translate(409.695 321.438)" fill="none" stroke="#333" stroke-linecap="square" stroke-width="1"/>
    <line id="Line_940" data-name="Line 940" x1="13" transform="translate(409.695 370.938)" fill="none" stroke="#333" stroke-linecap="square" stroke-width="1"/>
    <line id="Line_941" data-name="Line 941" x1="13" transform="translate(409.695 416.938)" fill="none" stroke="#333" stroke-linecap="square" stroke-width="1"/>
    <line id="Line_942" data-name="Line 942" x1="13" transform="translate(409.695 464.438)" fill="none" stroke="#333" stroke-linecap="square" stroke-width="1"/>
    <line id="Line_943" data-name="Line 943" x1="13" transform="translate(409.695 512.037)" fill="none" stroke="#333" stroke-linecap="square" stroke-width="1"/>
    <line id="Line_944" data-name="Line 944" x1="13" transform="translate(409.695 561.338)" fill="none" stroke="#333" stroke-linecap="square" stroke-width="1"/>
    <line id="Line_945" data-name="Line 945" x1="13" transform="translate(409.695 607.237)" fill="none" stroke="#333" stroke-linecap="square" stroke-width="1"/>
    <line id="Line_946" data-name="Line 946" x1="13" transform="translate(409.695 656.537)" fill="none" stroke="#333" stroke-linecap="square" stroke-width="1"/>
    <line id="Line_947" data-name="Line 947" x1="13" transform="translate(409.695 705.837)" fill="none" stroke="#333" stroke-linecap="square" stroke-width="1"/>
  </g>
</svg>
