<svg xmlns="http://www.w3.org/2000/svg" xmlns:xlink="http://www.w3.org/1999/xlink" viewBox="0 0 375 667"><defs><style>.cls-1{fill:none;}.cls-2{clip-path:url(#clip-path);}.cls-3{fill:url(#linear-gradient);}.cls-4{fill:#fcee21;}.cls-5{fill:#f7931e;opacity:0.23;isolation:isolate;}.cls-6{fill:#326886;}.cls-7{fill:#2a5973;}.cls-8{fill:#4694be;}.cls-9{fill:#b5de8c;}.cls-10{fill:#72af90;}.cls-11{fill:#fff;}.cls-12{fill:#dbafae;}.cls-13{fill:#824c4f;}.cls-14{fill:#4d4d4d;}.cls-15{fill:#896157;}.cls-16{fill:#006837;}.cls-17{fill:#473e2f;}</style><clipPath id="clip-path"><rect class="cls-1" width="375" height="666"/></clipPath><linearGradient id="linear-gradient" x1="-2955.5" y1="-5195.34" x2="-2955.5" y2="-5195.98" gradientTransform="matrix(1956, 0, 0, -817, 5781154.23, -4244593.5)" gradientUnits="userSpaceOnUse"><stop offset="0" stop-color="#deeef6"/><stop offset="0.03" stop-color="#deeef6"/><stop offset="1" stop-color="#deeef6"/></linearGradient></defs><g id="Layer_6" data-name="Layer 6"><g class="cls-2"><rect id="Rectangle_209" data-name="Rectangle 209" class="cls-3" width="375" height="519"/><g id="Group_177" data-name="Group 177"><g id="Group_169" data-name="Group 169"><circle id="Ellipse_48" data-name="Ellipse 48" class="cls-4" cx="355.1" cy="105.37" r="50.13"/><circle id="Ellipse_49" data-name="Ellipse 49" class="cls-5" cx="364.28" cy="113.03" r="50.13"/></g></g><g id="Group_159" data-name="Group 159"><path id="Path_383" data-name="Path 383" class="cls-6" d="M289.66,181.89l-92.44,249H474.29l-92.44-249C366.18,139.69,305.33,139.69,289.66,181.89Z"/><path id="Path_384" data-name="Path 384" class="cls-7" d="M361.33,136.17,238.82,430.86H568L445.48,136.17C429.44,97.6,377.37,97.6,361.33,136.17Z"/><path id="Path_385" data-name="Path 385" class="cls-8" d="M375.76,315.65l-33.22,99.63H502l-33.21-99.63C453.89,270.88,390.69,270.88,375.76,315.65Z"/></g><path id="Path_425" data-name="Path 425" class="cls-9" d="M-286.71,412.69-472,389.52V663.21L799,619.14V555H493.77A341.07,341.07,0,0,1,426,548.21L2.53,462.52Z"/><path class="cls-10" d="M-66,452.38S140,395,201,397s102.66-25.06,250.17-7.91,203.38,2.64,338.54,42.21v126H461.6Z"/><path id="Path_388" data-name="Path 388" class="cls-11" d="M339,192.38l21.81-56.09s10.91-31.08,41.81-31.76,44.84,25.68,44.84,25.68l20.85,57.39s-20.24-2.66-27.52-10.76a31.46,31.46,0,0,0-17.57-9.46l-9.09,14.19s-10.9.67-13.93-7.44c0,0-9.7,34.47-23.63,33.11S339,192.38,339,192.38Z"/><g id="Group_170" data-name="Group 170"><path id="Path_401" data-name="Path 401" class="cls-12" d="M208.47,377l-11,48h38.44l-9.23-48C222.66,365,212.53,365,208.47,377Z"/><g id="Group_164" data-name="Group 164"><path id="Path_402" data-name="Path 402" class="cls-13" d="M235.24,398.4,221,383.54l3.72-3.89L239,394.51Z"/><path id="Path_403" data-name="Path 403" class="cls-13" d="M207.81,386.47l19.09-20,.94,1-19.09,20Z"/><path id="Path_404" data-name="Path 404" class="cls-13" d="M209.5,366.62l19.09,20-.94,1-19.09-20Z"/><path id="Path_405" data-name="Path 405" class="cls-13" d="M197.29,394.08l14.21-14.87,3.72,3.9L201,398Z"/><path id="Path_406" data-name="Path 406" class="cls-13" d="M211.76,373.44l-14.21-14.87,3.73-3.89,14.21,14.86Z"/><path id="Path_407" data-name="Path 407" class="cls-13" d="M221.25,369.54l14.21-14.86,3.72,3.9L225,373.44Z"/></g><rect id="Rectangle_197" data-name="Rectangle 197" class="cls-14" x="213.3" y="408.29" width="8" height="13"/><path id="Path_408" data-name="Path 408" class="cls-15" d="M235.94,425H197.5l1.17-4.34h36.1Z"/></g><path id="Path_396" data-name="Path 396" class="cls-16" d="M309.37,381.7s-6.54,11.67-6.22,22.86,6.22,21.27,6.22,21.27a15.37,15.37,0,0,0,10.53,0c5.74-2.08,5.42-21.59,5.42-21.59s-2.55-31.5-6.54-33.57S309.37,381.7,309.37,381.7Z"/><path id="Rectangle_195" data-name="Rectangle 195" class="cls-17" d="M317.44,426.05H312v4.3a2.48,2.48,0,0,0,2.71,2.15h0a2.49,2.49,0,0,0,2.72-2.15h0v-4.3Z"/><path id="Path_396-2" data-name="Path 396" class="cls-16" d="M61.65,436s-6.54,11.67-6.23,22.86,6.23,21.26,6.23,21.26a15.25,15.25,0,0,0,10.53,0c5.74-2.07,5.42-21.58,5.42-21.58S75.05,427,71.06,425,61.65,436,61.65,436Z"/><path id="Rectangle_195-2" data-name="Rectangle 195" class="cls-17" d="M69.72,480.33H64.29v4.31A2.48,2.48,0,0,0,67,486.78h0a2.49,2.49,0,0,0,2.72-2.14h0v-4.31Z"/></g></g></svg>