<svg xmlns="http://www.w3.org/2000/svg" viewBox="0 0 210 210"><defs><style>.cls-1{fill:#00825c;}.cls-2{fill:#fff;}.cls-3{fill:#006837;}.cls-4{fill:#ffd17a;}</style></defs><g id="Layer_4" data-name="Layer 4"><path class="cls-1" d="M166.59,122.71s1.85,10.52,15.94,21.7S203.1,164,203.1,164s5.55,8.26-2.31,16.91-22.42,10.92-22.42,10.92-12.7,3.73-28.65-1.33-19.18-13-19.18-13-6.24-6.79,0-14.91a69.44,69.44,0,0,1,15-13.85s11.52-7.1,16.64-15.31S166.59,122.71,166.59,122.71Z"/><rect class="cls-2" x="164.31" y="148.53" width="4.16" height="37.62"/><path class="cls-3" d="M152.17,176.46a35.78,35.78,0,0,0,11.41,1.85c6.5,0,10.31-2,10.31-4.83,0-2.65-2.64-4.16-9.29-5.63-8-1.64-13-4-13-8,0-4.42,6.37-7.7,15.94-7.7a36.64,36.64,0,0,1,10.9,1.39l-1.76,3a31.28,31.28,0,0,0-9.36-1.35c-6.72,0-9.28,2.31-9.28,4.25,0,2.64,3,3.95,9.8,5.46,8.33,1.85,12.57,4.16,12.57,8.32,0,4.38-5.63,8.16-17.25,8.16a41,41,0,0,1-12.58-1.81Z"/><path class="cls-1" d="M121,53.7s2.2,12.73,19,26.26,24.53,23.68,24.53,23.68,6.61,10-2.76,20.46-26.73,13.21-26.73,13.21-15.16,4.51-34.17-1.61S78,119.91,78,119.91s-7.44-8.22,0-18A82.89,82.89,0,0,1,95.94,85.12s13.73-8.59,19.84-18.53S121,53.7,121,53.7Z"/><rect class="cls-2" x="117.58" y="82.95" width="6.37" height="45.51"/><path class="cls-3" d="M101.3,117.32a68.31,68.31,0,0,0,17.48,2.24c10,0,15.8-2.39,15.8-5.85,0-3.21-4-5-14.23-6.82-12.33-2-19.94-4.88-19.94-9.71,0-5.34,9.74-9.31,24.42-9.31a70.15,70.15,0,0,1,16.69,1.68l-2.69,3.61a60.18,60.18,0,0,0-14.34-1.63c-10.3,0-14.23,2.8-14.23,5.14,0,3.2,4.6,4.78,15,6.61,12.77,2.24,19.27,5,19.27,10.07,0,5.29-8.63,9.87-26.44,9.87-7.29,0-15.24-1-19.27-2.19Z"/><path class="cls-1" d="M88.85,138.91s1.6,9.87,13.85,20.36,17.88,18.37,17.88,18.37,4.82,7.75-2,15.87-19.48,10.25-19.48,10.25-11,3.5-24.9-1.25-16.67-12.25-16.67-12.25a11.41,11.41,0,0,1,0-14,62.15,62.15,0,0,1,13-13s10-6.66,14.46-14.37S88.85,138.91,88.85,138.91Z"/><rect class="cls-2" x="86.86" y="163.14" width="3.61" height="35.31"/><path class="cls-3" d="M76.31,189.35a29,29,0,0,0,9.92,1.74c5.65,0,9-1.85,9-4.54,0-2.48-2.29-3.9-8.07-5.28-7-1.54-11.32-3.79-11.32-7.54,0-4.14,5.53-7.22,13.86-7.22a29.63,29.63,0,0,1,9.47,1.3l-1.53,2.8a25.7,25.7,0,0,0-8.13-1.26c-5.85,0-8.07,2.17-8.07,4,0,2.49,2.6,3.71,8.51,5.13,7.25,1.74,10.93,3.91,10.93,7.82,0,4.1-4.89,7.65-15,7.65a33.49,33.49,0,0,1-10.93-1.69Z"/><rect class="cls-4" x="107.88" y="20.71" width="23.9" height="30.85"/><path class="cls-4" d="M5,5H120.2a11.58,11.58,0,0,1,11.58,11.58v4.13a0,0,0,0,1,0,0H5a0,0,0,0,1,0,0V5A0,0,0,0,1,5,5Z"/></g></svg>