<svg id="Layer_1" data-name="Layer 1" xmlns="http://www.w3.org/2000/svg" viewBox="0 0 117.66 189.23"><defs><style>.cls-1{fill:#00825c;}.cls-2{fill:#fff;}.cls-3{fill:#006837;}.cls-4{fill:#ffd17a;}</style></defs><title>olje_icon</title><g id="Layer_4" data-name="Layer 4"><path class="cls-1" d="M103.56,116.73s1,9.43,8.91,19.46A107.31,107.31,0,0,1,124,153.74a18.38,18.38,0,0,1-1.29,15.16,21.84,21.84,0,0,1-12.53,9.79s-7.1,3.34-16-1.19-10.71-11.7-10.71-11.7a15.1,15.1,0,0,1,0-13.37A53.17,53.17,0,0,1,91.81,140s6.44-6.36,9.3-13.73S103.56,116.73,103.56,116.73Z" transform="translate(-7.4 -6.6)"/><rect class="cls-2" x="94.89" y="133.28" width="2.32" height="33.73"/><path class="cls-3" d="M95.5,164.93a13.31,13.31,0,0,0,6.38,1.66c3.63,0,5.76-1.77,5.76-4.33,0-2.38-1.47-3.74-5.19-5-4.5-1.47-7.28-3.62-7.28-7.2,0-4,3.56-6.9,8.91-6.9a13.31,13.31,0,0,1,6.09,1.24l-1,2.68a11.73,11.73,0,0,0-5.23-1.21c-3.76,0-5.19,2.08-5.19,3.81,0,2.37,1.68,3.54,5.48,4.9,4.65,1.66,7,3.73,7,7.46,0,3.92-3.14,7.31-9.64,7.31a15.18,15.18,0,0,1-7-1.62Z" transform="translate(-7.4 -6.6)"/><path class="cls-1" d="M76.05,58.93S77.3,70.34,86.83,82.47s13.91,21.23,13.91,21.23A22.25,22.25,0,0,1,99.18,122,26.41,26.41,0,0,1,84,133.88s-8.59,4.05-19.38-1.44-13-14.15-13-14.15a18.32,18.32,0,0,1,0-16.18,63.91,63.91,0,0,1,10.15-15S69.56,79.41,73,70.5,76.05,58.93,76.05,58.93Z" transform="translate(-7.4 -6.6)"/><rect class="cls-2" x="67.11" y="80.33" width="2.81" height="40.81"/><path class="cls-3" d="M66.3,117.24a16.22,16.22,0,0,0,7.71,2c4.4,0,7-2.15,7-5.25,0-2.87-1.78-4.51-6.28-6.11-5.44-1.78-8.8-4.37-8.8-8.71,0-4.78,4.3-8.34,10.78-8.34a16.15,16.15,0,0,1,7.37,1.51l-1.19,3.23a14.19,14.19,0,0,0-6.33-1.46c-4.55,0-6.28,2.51-6.28,4.61,0,2.87,2,4.29,6.63,5.93,5.63,2,8.5,4.51,8.5,9,0,4.75-3.81,8.85-11.67,8.85a18.45,18.45,0,0,1-8.5-2Z" transform="translate(-7.4 -6.6)"/><path class="cls-1" d="M60.39,136.57s1,8.85,8.37,18.26A99.53,99.53,0,0,1,79.54,171.3a17.26,17.26,0,0,1-1.21,14.23,20.46,20.46,0,0,1-11.76,9.18s-6.66,3.14-15-1.12-10.06-11-10.06-11a14.26,14.26,0,0,1,0-12.55,49.78,49.78,0,0,1,7.88-11.65s6-6,8.73-12.89S60.39,136.57,60.39,136.57Z" transform="translate(-7.4 -6.6)"/><rect class="cls-2" x="51.79" y="151.69" width="2.18" height="31.65"/><path class="cls-3" d="M52.83,181.8a12.59,12.59,0,0,0,6,1.56c3.41,0,5.41-1.67,5.41-4.07,0-2.23-1.38-3.5-4.87-4.74-4.22-1.38-6.83-3.4-6.83-6.76,0-3.71,3.34-6.47,8.36-6.47a12.68,12.68,0,0,1,5.72,1.17L65.68,165a11,11,0,0,0-4.91-1.13c-3.53,0-4.87,1.94-4.87,3.57,0,2.23,1.57,3.33,5.14,4.6,4.37,1.56,6.59,3.5,6.59,7,0,3.68-2.95,6.86-9,6.86a14.27,14.27,0,0,1-6.6-1.52Z" transform="translate(-7.4 -6.6)"/><path class="cls-4" d="M67.94,56.78H88.15V30.2s1.37-4.52-6.84-15.55S40.94,7.13,40.94,7.13L7.4,6.6V22.67H62s5.85,0,6,5.52S67.94,56.78,67.94,56.78Z" transform="translate(-7.4 -6.6)"/></g></svg>