<svg id="Layer_1" data-name="Layer 1" xmlns="http://www.w3.org/2000/svg" xmlns:xlink="http://www.w3.org/1999/xlink" viewBox="0 0 288.97 479.27"><defs><style>.cls-1{fill:none;}.cls-2{clip-path:url(#clip-path);}.cls-3{fill:#bd6328;}.cls-4{fill:#f7cb9f;}.cls-5{fill:#cf6b28;}.cls-6{fill:#141033;}.cls-7{fill:#cd1f26;}.cls-8{fill:#c75627;}.cls-9{fill:#d71f27;}.cls-10{fill:#ece826;}.cls-11{fill:#650e0f;}.cls-12,.cls-14{fill:#df928e;}.cls-13{fill:#ffeac0;}.cls-14{stroke:#df928e;stroke-miterlimit:10;}.cls-15{fill:#fae2e0;}.cls-16{fill:#b6d98d;}</style><clipPath id="clip-path" transform="translate(-109.85 -8.05)"><rect class="cls-1" x="109.85" y="8.05" width="480.67" height="479.27"/></clipPath></defs><title>people</title><g class="cls-2"><g id="重复网格_97" data-name="重复网格 97"><g id="组_27" data-name="组 27"><g id="组_16" data-name="组 16"><g id="组_15" data-name="组 15"><path id="路径_13" data-name="路径 13" class="cls-3" d="M306.88,367.89l-14-1.4s-9.26-4.78-19.89,36.27c0,0,1.48,7.21,23.28,6.18A165.54,165.54,0,0,1,306.88,367.89Z" transform="translate(-109.85 -8.05)"/></g></g><g id="组_18" data-name="组 18"><g id="组_17" data-name="组 17"><circle id="椭圆_2" data-name="椭圆 2" class="cls-4" cx="197.49" cy="391.78" r="2.52"/></g></g><g id="组_20" data-name="组 20"><g id="组_19" data-name="组 19"><path id="路径_14" data-name="路径 14" class="cls-5" d="M310.52,398.28s-1.89-2.09-6.55,2.8l-14-27.93L288.18,369l3-1.69,1.7.17Z" transform="translate(-109.85 -8.05)"/></g></g><g id="组_22" data-name="组 22"><g id="组_21" data-name="组 21"><path id="路径_15" data-name="路径 15" class="cls-6" d="M273,402.77s12.28,8.16,23.58,4.08l.69,18.14-23.74.33S268.05,408.79,273,402.77Z" transform="translate(-109.85 -8.05)"/></g></g><g id="组_24" data-name="组 24"><g id="组_23" data-name="组 23"><path id="路径_16" data-name="路径 16" class="cls-4" d="M300.5,357.31c.05.52.51.89.89,1.25A5.91,5.91,0,0,1,302.9,361a7.17,7.17,0,0,0,1,2.48,5.28,5.28,0,0,1,.67.75.7.7,0,0,1-.08.91,4.28,4.28,0,0,0,3-.62,3.05,3.05,0,0,0,.9-1.5,9.57,9.57,0,0,1,.76-2.6c.41-.63,1.12-1.08,1.35-1.8a2.59,2.59,0,0,0-.75-2.33c-.84-1-2-1.79-2.45-3s-.9-2-2.21-2.26a2.12,2.12,0,0,0-2.14.61,6.58,6.58,0,0,0-1.5,2.95A4.61,4.61,0,0,1,301,356,2.44,2.44,0,0,0,300.5,357.31Z" transform="translate(-109.85 -8.05)"/></g></g><g id="组_26" data-name="组 26"><g id="组_25" data-name="组 25"><path id="路径_17" data-name="路径 17" class="cls-7" d="M308.53,350.75a1.23,1.23,0,0,1,.15,1.36c-.18.33-.36.15-.65,0a5,5,0,0,0-.9-.24,1.7,1.7,0,0,0-.55,0,1.37,1.37,0,0,0-.4.09,2.24,2.24,0,0,0-.52.16,1.53,1.53,0,0,0-.32.35c-.22.26-.45.51-.67.78a5.74,5.74,0,0,0-1.22,1.89,2,2,0,0,0,.49,2.09,1.1,1.1,0,0,0-.58,1,3.56,3.56,0,0,0,.33,1.28c.52,1.31,1,2.63,1.55,4a9.88,9.88,0,0,0,.84,1.77,10.57,10.57,0,0,1,.94,1.54,5,5,0,0,1,.06,2.6c0,.22-.24.52-.4.36s0-.27,0-.4c-1.22.08-2.28,1.07-3.49,1a9.41,9.41,0,0,1-2.17-.79,4.41,4.41,0,0,0-3.12.09,3.67,3.67,0,0,1-1.51.48,2.51,2.51,0,0,1-.67-.15l-1.5-.49c-.12-.29-.18-.43-.32-.73a4.61,4.61,0,0,0-.22-4.41c-.56-.9-1.55-1.43-2.25-2.21a4.56,4.56,0,0,1-.85-4.53c.46-1.22,1.44-2.22,1.7-3.5a9.46,9.46,0,0,1,2.36-5.06,7.39,7.39,0,0,1,5-2c.85,0,1.72.14,2.57.06s2-.3,2.48.44a2.09,2.09,0,0,0,1,.75,5.93,5.93,0,0,1,1.13.36c.68.39.86,1.32,1.44,1.85C308.31,350.57,308.43,350.65,308.53,350.75Z" transform="translate(-109.85 -8.05)"/></g></g></g><g id="组_41" data-name="组 41"><g id="组_30" data-name="组 30"><g id="组_29" data-name="组 29"><g id="组_28" data-name="组 28"><path id="路径_18" data-name="路径 18" class="cls-4" d="M183.71,385.61h0s-6-1.26-7.67-4.86,0-5.31,0-5.31.87-3.33,5.61,2.41c0,0,3.54-4.34,3.64.6l.92,5.29h0Z" transform="translate(-109.85 -8.05)"/></g></g></g><g id="组_40" data-name="组 40"><g id="组_33" data-name="组 33"><g id="组_32" data-name="组 32"><g id="组_31" data-name="组 31"><path id="路径_19" data-name="路径 19" class="cls-4" d="M195.76,373.46c1.68-1.8,3.79-3.63,6.41-3.7a3.07,3.07,0,0,1,.91.1,4.12,4.12,0,0,1,1,.54l3.2,2.14a.08.08,0,0,0,.1,0,3,3,0,0,1,1.25-1.08,1.73,1.73,0,0,1,1.73.17,1.8,1.8,0,0,1,.54,1c.43,1.81-.17,3.69-.76,5.47a10.5,10.5,0,0,1,1.57,2.18c.48.77.5,2.35-.37,2.76a2.19,2.19,0,0,1-1.59-.09,4.62,4.62,0,0,1-2.26-1.18c-.33-.39-.57-.94-1.1-1a2,2,0,0,0-1,.21c-2.12.72-4.44-.45-6.14-1.79-1.92-1.51-3.66-3.56-3.44-5.84C196.12,373.28,195.47,373.49,195.76,373.46Z" transform="translate(-109.85 -8.05)"/></g></g></g><g id="组_36" data-name="组 36"><g id="组_35" data-name="组 35"><g id="组_34" data-name="组 34"><path id="路径_20" data-name="路径 20" class="cls-8" d="M181.63,387.14h0l10.69,12.66s2,1.92,4.9,0,11.52-6.22,11.52-6.22,14.9,18.67,11.35,24.24A172.48,172.48,0,0,1,209.3,432l-2.2,2.45h0l41.34,3.34h0s12.3-11.89-6.65-34.66l-18.95-22.77s-3.67-6-13.29,1.17-11.64,13.42-21.63.93h0l-4.22,3.12Z" transform="translate(-109.85 -8.05)"/></g></g></g><g id="组_39" data-name="组 39"><g id="组_38" data-name="组 38"><g id="组_37" data-name="组 37"><path id="路径_21" data-name="路径 21" class="cls-7" d="M207.34,372.58a1.59,1.59,0,0,1,.68-.68,2.3,2.3,0,0,1,1.48-.55,1.57,1.57,0,0,1,.52.16,1,1,0,0,1,.77.84,6,6,0,0,1,.23,1.25,5.65,5.65,0,0,1-.25,1.63c-.19.79-.39,1.57-.58,2.36a.77.77,0,0,0,0,.45,1,1,0,0,0,.23.37,5.12,5.12,0,0,1,.87,1.43c.07.18.21.41.4.35.59-.75,1.66-.87,2.56-1.2.36-.13.71-.28,1.08-.4a8.29,8.29,0,0,1,2.16-.26,5.83,5.83,0,0,1,2.08.16,5.25,5.25,0,0,1,.77.33,15.62,15.62,0,0,1,3.38,2.38,2.64,2.64,0,0,0-.88-1.13l-1.35-1.2a2.25,2.25,0,0,1-.55-.64,2,2,0,0,1-.13-.9.91.91,0,0,1,.08-.49,1.71,1.71,0,0,0,.13-.23.74.74,0,0,0,0-.21,12.44,12.44,0,0,0-.28-1.35.51.51,0,0,0-.1-.24.49.49,0,0,0-.3-.14c-1.19-.25-2.42.12-3.64,0a.79.79,0,0,1-.22-.06.44.44,0,0,1-.15-.3,5.34,5.34,0,0,1-.08-1.44,1.41,1.41,0,0,0-.11-1c-.25-.36-.76-.35-1.19-.3a9.2,9.2,0,0,0,0-4.91,1.16,1.16,0,0,0-.32-.63c-.13-.1-.29-.15-.41-.25-.27-.23-.27-.64-.32-1-.23-1.56-1.79-2.62-2.24-4.13a2.53,2.53,0,0,0-.12-.36,1.32,1.32,0,0,0-.48-.46,6.11,6.11,0,0,0-2.16-.71,32.68,32.68,0,0,0-6.7-.51,4,4,0,0,0-1.57.26,4.63,4.63,0,0,0-1.38,1.15c-.35.65-.89,1.61-1.24,2.26a3.08,3.08,0,0,1-.69,1.4,9,9,0,0,1-1,.83,13,13,0,0,0-1.88,2,7.07,7.07,0,0,0-.93,1.31,2.49,2.49,0,0,0-.25,1.56,5,5,0,0,0,.35.94c.32,0,.56.34.61.65a3.45,3.45,0,0,1-.1,1,3.77,3.77,0,0,0,2.11,3.91c.07,0,.14,0,.22,0a6.69,6.69,0,0,1-.43-2,1.27,1.27,0,0,1,.24-.86,5.11,5.11,0,0,1,2.33-1.39,3.18,3.18,0,0,0,1.16-.66,4.24,4.24,0,0,1,2.84-.41,7.49,7.49,0,0,1,2,.45,7.85,7.85,0,0,1,.77.38l.91.49A3.62,3.62,0,0,1,207.34,372.58Z" transform="translate(-109.85 -8.05)"/></g></g></g></g></g><g id="组_48" data-name="组 48"><g id="组_44" data-name="组 44"><g id="组_43" data-name="组 43"><g id="组_42" data-name="组 42"><path id="路径_22" data-name="路径 22" class="cls-9" d="M252.58,351.38a9.28,9.28,0,0,1-.87,3.26c-.59,1.1-1.6,2-2.31,3.1a6.46,6.46,0,0,0-1.07,4.64.64.64,0,0,0,.16.39,1.26,1.26,0,0,0,.73.23,75.8,75.8,0,0,0,10.85.75,6.89,6.89,0,0,0,2.62-.42c.78-.35,1.36-1,1.16-1.7-.26-.84-1.54-1.21-2.54-1.66-3.2-1.44-4.23-4.49-5-7.23L254,344.32c.12.47-.74,2.1-.85,2.74C252.94,348.5,252.78,350,252.58,351.38Z" transform="translate(-109.85 -8.05)"/></g></g></g><g id="组_47" data-name="组 47"><g id="组_46" data-name="组 46"><g id="组_45" data-name="组 45"><path id="路径_23" data-name="路径 23" class="cls-10" d="M249.71,359.7a10.87,10.87,0,0,0,9.53.61,3.3,3.3,0,0,0,2.12-2.21,3.74,3.74,0,0,0-.55-2.89,6.07,6.07,0,0,1-.59-.9,12,12,0,0,1-.25-1.7,5.69,5.69,0,0,0-1.7-2.21,6.88,6.88,0,0,1-1.69-3.14c-.23-1-.24-1.95-.46-2.91a3.53,3.53,0,0,0-1.49-2.4c-1.46,0-2.4,1.65-2.6,3.1s0,3-.63,4.34a13.65,13.65,0,0,1-2.16,2.75,8.6,8.6,0,0,0-1.84,5.9c.52.48,1.71,1.72,2.45,1.53s1.22-1.74,1.38-2.42a5.08,5.08,0,0,1,1.17-2.68c.3-.27.7-.48.89-.85a2.35,2.35,0,0,0,.14-1.05,7.35,7.35,0,0,1,.21-1.87,1.86,1.86,0,0,1,.53-1.05.74.74,0,0,1,1.05.07h0a1.41,1.41,0,0,1,.09.86,5.76,5.76,0,0,0,.94,3l1.15,2.15c.81,1.51,1.64,3.16,1.38,4.85a1.37,1.37,0,0,1-.18.56,1.73,1.73,0,0,1-.62.55,6,6,0,0,1-8.17-1.95" transform="translate(-109.85 -8.05)"/></g></g></g></g><g id="组_123" data-name="组 123"><g id="组_51" data-name="组 51"><g id="组_50" data-name="组 50"><g id="组_49" data-name="组 49"><path id="路径_24" data-name="路径 24" class="cls-11" d="M275.15,420.7l-44.26-.22L220,336.12l.83-.1,10.8,83.62,42.79.22,12.12-83.51.83.12Z" transform="translate(-109.85 -8.05)"/></g></g></g><g id="组_54" data-name="组 54"><g id="组_53" data-name="组 53"><g id="组_52" data-name="组 52"><rect id="矩形_60" data-name="矩形 60" class="cls-11" x="224.08" y="332.31" width="0.84" height="30.07" transform="translate(-281.26 219.69) rotate(-40.31)"/></g></g></g><g id="组_57" data-name="组 57"><g id="组_56" data-name="组 56"><g id="组_55" data-name="组 55"><rect id="矩形_61" data-name="矩形 61" class="cls-11" x="269.03" y="346.12" width="29.94" height="0.84" transform="translate(-273.33 316.06) rotate(-47.8)"/></g></g></g><g id="组_60" data-name="组 60"><g id="组_59" data-name="组 59"><g id="组_58" data-name="组 58"><path id="路径_25" data-name="路径 25" class="cls-11" d="M274.37,371.06l-42.09-.21.34-14.31,42.09.22Z" transform="translate(-109.85 -8.05)"/></g></g></g><g id="组_63" data-name="组 63"><g id="组_62" data-name="组 62"><g id="组_61" data-name="组 61"><rect id="矩形_62" data-name="矩形 62" class="cls-11" x="242.78" y="338.74" width="166.71" height="0.85" transform="translate(-204.23 542.22) rotate(-72.78)"/></g></g></g><g id="组_66" data-name="组 66"><g id="组_65" data-name="组 65"><g id="组_64" data-name="组 64"><path id="路径_26" data-name="路径 26" class="cls-11" d="M206.83,422.8,132,229.4l.79-.3,71.88,185.71-44-160.64.81-.23,46.16,168.6Z" transform="translate(-109.85 -8.05)"/></g></g></g><g id="组_122" data-name="组 122"><g id="组_71" data-name="组 71"><g id="组_68" data-name="组 68"><g id="组_67" data-name="组 67"><path id="路径_27" data-name="路径 27" class="cls-12" d="M255.07,8.47A144.07,144.07,0,1,0,398.4,153.27h0A144.08,144.08,0,0,0,255.07,8.47Zm-4.23,279.17,10.1,0-10.1,0Z" transform="translate(-109.85 -8.05)"/></g></g><g id="组_70" data-name="组 70"><g id="组_69" data-name="组 69"><path id="路径_28" data-name="路径 28" class="cls-12" d="M253.6,297c-79.67-.41-144.16-65.55-143.75-145.22S175.41,7.65,255.07,8.06,399.22,73.61,398.81,153.28,333.26,297.42,253.6,297ZM255.06,8.89c-79.21-.4-144,63.71-144.37,142.91s63.71,144,142.91,144.37,144-63.71,144.37-142.9S334.27,9.29,255.06,8.89Zm5.73,279.64-10.1,0v-.83l10.1,0Z" transform="translate(-109.85 -8.05)"/></g></g></g><g id="组_97" data-name="组 97"><g id="组_76" data-name="组 76"><g id="组_73" data-name="组 73"><g id="组_72" data-name="组 72"><path id="路径_29" data-name="路径 29" class="cls-12" d="M211.11,295.86l-.17,32.8,83.3.43.18-33.66Z" transform="translate(-109.85 -8.05)"/></g></g><g id="组_75" data-name="组 75"><g id="组_74" data-name="组 74"><path id="路径_30" data-name="路径 30" class="cls-12" d="M294.24,329.92l-84.14-.42.17-33.66,84.14-.43Zm-83.3-1.26,82.46.42.17-32.81-82.46.42Z" transform="translate(-109.85 -8.05)"/></g></g></g><g id="组_81" data-name="组 81"><g id="组_78" data-name="组 78"><g id="组_77" data-name="组 77"><rect id="矩形_63" data-name="矩形 63" class="cls-11" x="251.49" y="253.99" width="2.52" height="88.34" transform="translate(-156.55 541.33) rotate(-89.71)"/></g></g><g id="组_80" data-name="组 80"><g id="组_79" data-name="组 79"><path id="路径_31" data-name="路径 31" class="cls-11" d="M296.91,300.49,207.72,300l0-3.36,89.19.45Zm-88.34-1.28,87.51.44V298l-87.51-.45Z" transform="translate(-109.85 -8.05)"/></g></g></g><g id="组_86" data-name="组 86"><g id="组_83" data-name="组 83"><g id="组_82" data-name="组 82"><rect id="矩形_64" data-name="矩形 64" class="cls-11" x="251.35" y="281.76" width="2.52" height="88.34" transform="translate(-184.45 568.82) rotate(-89.71)"/></g></g><g id="组_85" data-name="组 85"><g id="组_84" data-name="组 84"><path id="路径_32" data-name="路径 32" class="cls-11" d="M296.77,328.26l-89.19-.45,0-3.37,89.19.46ZM208.43,327l87.5.45v-1.68l-87.51-.45Z" transform="translate(-109.85 -8.05)"/></g></g></g><g id="组_91" data-name="组 91"><g id="组_88" data-name="组 88"><g id="组_87" data-name="组 87"><rect id="矩形_65" data-name="矩形 65" class="cls-11" x="248.37" y="288.91" width="6.73" height="88.34" transform="translate(-192.47 575.05) rotate(-89.71)"/></g></g><g id="组_90" data-name="组 90"><g id="组_89" data-name="组 89"><path id="路径_33" data-name="路径 33" class="cls-11" d="M296.72,336.68l-89.19-.46,0-7.57,89.19.46Zm-88.33-1.3,87.51.45,0-5.89-87.5-.44Z" transform="translate(-109.85 -8.05)"/></g></g></g><g id="组_96" data-name="组 96"><g id="组_93" data-name="组 93"><g id="组_92" data-name="组 92"><rect id="矩形_66" data-name="矩形 66" class="cls-11" x="249.41" y="247.69" width="6.73" height="88.34" transform="translate(-150.22 535.09) rotate(-89.71)"/></g></g><g id="组_95" data-name="组 95"><g id="组_94" data-name="组 94"><path id="路径_34" data-name="路径 34" class="cls-11" d="M296.93,296.29l-89.19-.46,0-7.57,89.19.46ZM208.59,295l87.51.45,0-5.88-87.5-.45Z" transform="translate(-109.85 -8.05)"/></g></g></g></g><g id="组_119" data-name="组 119"><g id="组_100" data-name="组 100"><g id="组_99" data-name="组 99"><g id="组_98" data-name="组 98"><rect id="矩形_67" data-name="矩形 67" class="cls-13" x="226.72" y="406.71" width="51.32" height="94.24" transform="translate(-312.58 695.84) rotate(-89.71)"/></g></g></g><g id="组_105" data-name="组 105"><g id="组_102" data-name="组 102"><g id="组_101" data-name="组 101"><rect id="矩形_68" data-name="矩形 68" class="cls-11" x="247.9" y="373.9" width="8.41" height="98.44" transform="translate(-282.14 665.02) rotate(-89.71)"/></g></g><g id="组_104" data-name="组 104"><g id="组_103" data-name="组 103"><path id="路径_35" data-name="路径 35" class="cls-11" d="M301.31,427.57l-99.28-.5,0-9.25,99.29.5Zm-98.44-1.34,98,.5-98-8.22Z" transform="translate(-109.85 -8.05)"/></g></g></g><g id="组_108" data-name="组 108"><g id="组_107" data-name="组 107"><g id="组_106" data-name="组 106"><rect id="矩形_69" data-name="矩形 69" class="cls-11" x="247.61" y="433.64" width="8.41" height="98.44" transform="translate(-342.18 724.16) rotate(-89.71)"/></g></g></g><g id="组_113" data-name="组 113"><g id="组_110" data-name="组 110"><g id="组_109" data-name="组 109"><path id="路径_36" data-name="路径 36" class="cls-12" d="M301.26,427.26l-16.65-.09h-.94l-15.2-.07H267L251.86,427h-1l-15.51-.07h-1.09l-15-.08h-1.56l-16-.09a8.13,8.13,0,0,0-.07,1.1,8.86,8.86,0,0,0,16.86,3.87,8.87,8.87,0,0,0,16.28-.46,8.86,8.86,0,0,0,16.55-.06,8.86,8.86,0,0,0,16.37.65,8.86,8.86,0,0,0,16.4-.54,8.86,8.86,0,0,0,17.21-3A9.77,9.77,0,0,0,301.26,427.26Z" transform="translate(-109.85 -8.05)"/></g></g><g id="组_112" data-name="组 112"><g id="组_111" data-name="组 111"><path id="路径_37" data-name="路径 37" class="cls-12" d="M298.26,435.23a9.38,9.38,0,0,1-13.17-1.71,9.87,9.87,0,0,1-1-1.57,9.28,9.28,0,0,1-16.39.4,9.27,9.27,0,0,1-16.36-.53,9.31,9.31,0,0,1-8.33,5.1,9.21,9.21,0,0,1-8.22-5.06,9.24,9.24,0,0,1-8.28,5,9.35,9.35,0,0,1-8-4.65,9.34,9.34,0,0,1-12.79,3.27,8.46,8.46,0,0,1-3.76-4.59,8.58,8.58,0,0,1-.65-4.58l0-.38,100.27.52.05.37a9.07,9.07,0,0,1-.13,3A8.38,8.38,0,0,1,298.26,435.23Zm-14.14-5.57,1.24,3.43a1.1,1.1,0,0,0,.33.49c7,6.08,15.18,1.17,15.22-5.65,0-.21,0-.43,0-.67l-98.76-.5c-.17,1.81.28,2.63,1.16,5.32a1.44,1.44,0,0,0,.23.42c5,5.64,12.21,3.7,14.65-1.39l.38-.8.38.81c2.38,5.12,9.61,7.13,14.65,1.51a1.34,1.34,0,0,0,.22-.36l1-2.58,1.05,2.7a1.17,1.17,0,0,0,.24.38c5.32,5.77,12.8,3.33,14.87-2.14l.4-1.05,1,2.88a1.63,1.63,0,0,0,.24.4c5.13,5.54,12.31,3.54,14.68-1.6l.39-.84.38.85a8.43,8.43,0,0,0,15.62-.52Z" transform="translate(-109.85 -8.05)"/></g></g></g><g id="组_192" data-name="组 192"><g id="组_110-2" data-name="组 110-2"><g id="组_109-2" data-name="组 109-2"><path id="路径_36-2" data-name="路径 36-2" class="cls-12" d="M301.26,468.26l-16.65-.09h-.94l-15.2-.07H267L251.86,468h-1l-15.51-.07h-1.09l-15-.08h-1.56l-16-.09a8.13,8.13,0,0,0-.07,1.1,8.86,8.86,0,0,0,16.86,3.87,8.87,8.87,0,0,0,16.28-.46,8.86,8.86,0,0,0,16.55-.06,8.86,8.86,0,0,0,16.37.65,8.86,8.86,0,0,0,16.4-.54,8.86,8.86,0,0,0,17.21-3A9.77,9.77,0,0,0,301.26,468.26Z" transform="translate(-109.85 -8.05)"/></g></g><g id="组_112-2" data-name="组 112-2"><g id="组_111-2" data-name="组 111-2"><path id="路径_37-2" data-name="路径 37-2" class="cls-12" d="M298.26,476.23a9.38,9.38,0,0,1-13.17-1.71,9.87,9.87,0,0,1-1-1.57,9.28,9.28,0,0,1-16.39.4,9.27,9.27,0,0,1-16.36-.53,9.31,9.31,0,0,1-8.33,5.1,9.21,9.21,0,0,1-8.22-5.06,9.24,9.24,0,0,1-8.28,5,9.35,9.35,0,0,1-8-4.65,9.34,9.34,0,0,1-12.79,3.27,8.46,8.46,0,0,1-3.76-4.59,8.58,8.58,0,0,1-.65-4.58l0-.38,100.27.52.05.37a9.07,9.07,0,0,1-.13,3A8.38,8.38,0,0,1,298.26,476.23Zm-14.14-5.57,1.24,3.43a1.1,1.1,0,0,0,.33.49c7,6.08,15.18,1.17,15.22-5.65,0-.21,0-.43,0-.67l-98.76-.5c-.17,1.81.28,2.63,1.16,5.32a1.44,1.44,0,0,0,.23.42c5,5.64,12.21,3.7,14.65-1.39l.38-.8.38.81c2.38,5.12,9.61,7.13,14.65,1.51a1.34,1.34,0,0,0,.22-.36l1-2.58,1.05,2.7a1.17,1.17,0,0,0,.24.38c5.32,5.77,12.8,3.33,14.87-2.14l.4-1.05,1,2.88a1.63,1.63,0,0,0,.24.4c5.13,5.54,12.31,3.54,14.68-1.6l.39-.84.38.85a8.43,8.43,0,0,0,15.62-.52Z" transform="translate(-109.85 -8.05)"/></g></g></g></g><g id="组_121" data-name="组 121"><g id="组_120" data-name="组 120"><path id="路径_40" data-name="路径 40" class="cls-14" d="M590.52,435.36" transform="translate(-109.85 -8.05)"/></g></g></g></g><g id="组_133" data-name="组 133"><g id="组_126" data-name="组 126"><g id="组_125" data-name="组 125"><g id="组_124" data-name="组 124"><circle id="椭圆_3" data-name="椭圆 3" class="cls-11" cx="111.28" cy="303.83" r="6.73"/></g></g></g><g id="组_129" data-name="组 129"><g id="组_128" data-name="组 128"><g id="组_127" data-name="组 127"><circle id="椭圆_4" data-name="椭圆 4" class="cls-11" cx="142.41" cy="303.99" r="6.73"/></g></g></g><g id="组_132" data-name="组 132"><g id="组_131" data-name="组 131"><g id="组_130" data-name="组 130"><circle id="椭圆_5" data-name="椭圆 5" class="cls-11" cx="172.7" cy="304.15" r="6.73"/></g></g></g></g><g id="组_137" data-name="组 137"><g id="组_136" data-name="组 136"><g id="组_135" data-name="组 135"><g id="组_134" data-name="组 134"><path id="路径_41" data-name="路径 41" class="cls-15" d="M255.35,288.5C332.79,55,259.27,11.16,253,8.31V8.16c.91,0,.86,0,.76.08s-.15-.08.08-.08v.16c-5.65,2.8-79.32,45.93-4.25,280.16Z" transform="translate(-109.85 -8.05)"/></g></g></g></g><g id="组_148" data-name="组 148"><g id="组_142" data-name="组 142"><g id="组_139" data-name="组 139"><g id="组_138" data-name="组 138"><path id="路径_42" data-name="路径 42" class="cls-16" d="M253.08,8.29l-.43,0,1.18,0Z" transform="translate(-109.85 -8.05)"/></g></g><g id="组_141" data-name="组 141"><g id="组_140" data-name="组 140"><path id="路径_43" data-name="路径 43" class="cls-16" d="M252.64,9.18l0-.84.43,0h.78v.85l-.64,0Z" transform="translate(-109.85 -8.05)"/></g></g></g><g id="组_147" data-name="组 147"><g id="组_144" data-name="组 144"><g id="组_143" data-name="组 143"><path id="路径_44" data-name="路径 44" class="cls-15" d="M253.52,8.45c-195.17,4.58-38.25,279-38.25,279l10.4.05C110,27,244.93,9.3,253.52,8.45Z" transform="translate(-109.85 -8.05)"/></g></g><g id="组_146" data-name="组 146"><g id="组_145" data-name="组 145"><path id="路径_45" data-name="路径 45" class="cls-15" d="M226.32,288.36,215,288.3l-.12-.21a610.57,610.57,0,0,1-40.36-89.88C164.41,169.29,158.19,143,156,120c-2.69-28.77,1-52.38,11.07-70.17,14.94-26.46,44-40.38,86.39-41.37l.05.84c-3.89.39-38.62,4.81-59.08,40-12.26,21.08-17.05,49.07-14.23,83.18,3.52,42.53,18.92,94.78,45.81,155.31Zm-10.81-.9,9.51.05c-26.76-60.36-42.1-112.5-45.61-155-2.83-34.29,2-62.44,14.34-83.67A82.26,82.26,0,0,1,247,9.55c-38.54,2.21-65.15,15.88-79.15,40.68-10,17.64-13.65,41.08-11,69.67,2.13,22.92,8.34,49.17,18.45,78a613,613,0,0,0,40.19,89.54Z" transform="translate(-109.85 -8.05)"/></g></g></g></g><g id="组_162" data-name="组 162"><g id="组_159" data-name="组 159"><g id="组_158" data-name="组 158"><path id="路径_49" data-name="路径 49" class="cls-15" d="M254.93,8.46C450,15,290.33,287.84,290.33,287.84l-10.4,0C398.25,28.5,263.5,9.4,254.93,8.46Z" transform="translate(-109.85 -8.05)"/></g></g><g id="组_161" data-name="组 161"><g id="组_160" data-name="组 160"><path id="路径_50" data-name="路径 50" class="cls-15" d="M290.57,288.69l-11.3-.06.27-.59C307,227.79,323,175.7,326.92,133.21c3.17-34.09-1.33-62.12-13.37-83.33C293.46,14.51,258.77,9.73,254.88,9.31l.06-.84c42.38,1.43,71.3,15.64,86,42.25,9.86,17.89,13.35,41.53,10.36,70.27-2.38,23-8.88,49.21-19.3,78a612.33,612.33,0,0,1-41.27,89.47Zm-10-.9,9.51,0a612.24,612.24,0,0,0,41.09-89.13c10.4-28.76,16.87-54.94,19.25-77.83,3-28.57-.48-52-10.26-69.78-13.75-25-40.22-38.89-78.73-41.48a82.3,82.3,0,0,1,52.84,39.83C326.41,70.81,331,99,327.76,133.27c-3.94,42.45-19.82,94.44-47.18,154.52Z" transform="translate(-109.85 -8.05)"/></g></g></g></g></g></svg>
