<svg xmlns="http://www.w3.org/2000/svg" width="345.519" height="226.502" viewBox="0 0 345.519 226.502">
  <g id="Graf" transform="translate(-323.195 -312.032)">
    <g id="Group_171" data-name="Group 171" transform="translate(364.053 317.219)">
      <line id="Line_858" data-name="Line 858" x2="304.156" opacity="0.1" stroke="#333" stroke-linecap="square" stroke-miterlimit="10" stroke-width="1" fill="none"/>
      <line id="Line_859" data-name="Line 859" x2="304.156" transform="translate(0 23.948)" fill="none" stroke="#333" stroke-linecap="square" stroke-miterlimit="10" stroke-width="1" opacity="0.1"/>
      <line id="Line_860" data-name="Line 860" x2="304.156" transform="translate(0 46.245)" fill="none" stroke="#333" stroke-linecap="square" stroke-miterlimit="10" stroke-width="1" opacity="0.1"/>
      <line id="Line_861" data-name="Line 861" x2="304.156" transform="translate(0 69.367)" fill="none" stroke="#333" stroke-linecap="square" stroke-miterlimit="10" stroke-width="1" opacity="0.1"/>
      <line id="Line_862" data-name="Line 862" x2="304.156" transform="translate(0 92.49)" fill="none" stroke="#333" stroke-linecap="square" stroke-miterlimit="10" stroke-width="1" opacity="0.1"/>
      <line id="Line_863" data-name="Line 863" x2="304.156" transform="translate(0 116.438)" fill="none" stroke="#333" stroke-linecap="square" stroke-miterlimit="10" stroke-width="1" opacity="0.1"/>
      <line id="Line_864" data-name="Line 864" x2="304.156" transform="translate(0 138.735)" fill="none" stroke="#333" stroke-linecap="square" stroke-miterlimit="10" stroke-width="1" opacity="0.1"/>
      <line id="Line_865" data-name="Line 865" x2="304.156" transform="translate(0 162.683)" fill="none" stroke="#333" stroke-linecap="square" stroke-miterlimit="10" stroke-width="1" opacity="0.1"/>
      <line id="Line_866" data-name="Line 866" x2="304.156" transform="translate(0 186.631)" fill="none" stroke="#333" stroke-linecap="square" stroke-miterlimit="10" stroke-width="1" opacity="0.1"/>
      <line id="Line_867" data-name="Line 867" x2="304.156" transform="translate(0 208.928)" fill="none" stroke="#333" stroke-linecap="square" stroke-miterlimit="10" stroke-width="1"/>
    </g>
    <path id="Path_412" data-name="Path 412" d="M392,398.609l11.061,4.129,5.53-4.129h6.76l4.916-10.735,5.53,7.432,11.676,24.774,6.145,18.993,4.916,8.258,5.53,4.955,6.145-4.129s7.988,2.477,11.061,6.606l5.53-3.3,6.145-17.342,5.531-8.258,6.145-14.039,4.916-5.781,6.145-22.3,5.53-8.258,6.145-3.3L527.8,358.145l6.145,9.084,5.53,14.039,6.145,5.781h6.145s8.6-5.781,10.446-4.955l5.53-18.993,5.531,6.606,5.53-18.168,5.53-9.084,6.145-4.955,5.53,11.561,5.531,3.3,5.531,9.084,6.145,2.477,5.53-11.561,4.916,2.477,6.759-2.477s8.6-.826,22.122,29.729l6.145,4.955s9.218-6.606,11.061-4.955l5.531,1.652,5.53,9.084,5.531-4.955,6.759,1.652" transform="translate(-25.51 6.97)" fill="none" stroke="#4da2d1" stroke-miterlimit="10" stroke-width="2"/>
    <g id="Group_172" data-name="Group 172" transform="translate(362.492 528.384)">
      <text id="_1965" data-name="1965" transform="matrix(0.716, -0.698, 0.698, 0.716, 23.799, 8.735)" font-size="3.5" font-family="MuseoSans-500, Museo Sans" font-weight="500"><tspan x="0" y="0">1965</tspan></text>
      <text id="_1964" data-name="1964" transform="matrix(0.716, -0.698, 0.698, 0.716, 17.799, 8.736)" font-size="3.5" font-family="MuseoSans-500, Museo Sans" font-weight="500"><tspan x="0" y="0">1964</tspan></text>
      <text id="_1963" data-name="1963" transform="matrix(0.716, -0.698, 0.698, 0.716, 12.799, 8.735)" font-size="3.5" font-family="MuseoSans-500, Museo Sans" font-weight="500"><tspan x="0" y="0">1963</tspan></text>
      <text id="_1962" data-name="1962" transform="matrix(0.716, -0.698, 0.698, 0.716, 6.799, 8.735)" font-size="3.5" font-family="MuseoSans-500, Museo Sans" font-weight="500"><tspan x="0" y="0">1962</tspan></text>
      <text id="_1961" data-name="1961" transform="matrix(0.716, -0.698, 0.698, 0.716, 1.799, 8.735)" font-size="3.5" font-family="MuseoSans-500, Museo Sans" font-weight="500"><tspan x="0" y="0">1961</tspan></text>
      <text id="_1966" data-name="1966" transform="matrix(0.716, -0.698, 0.698, 0.716, 29.799, 8.735)" font-size="3.5" font-family="MuseoSans-500, Museo Sans" font-weight="500"><tspan x="0" y="0">1966</tspan></text>
      <text id="_1967" data-name="1967" transform="matrix(0.716, -0.698, 0.698, 0.716, 34.799, 8.735)" font-size="3.5" font-family="MuseoSans-500, Museo Sans" font-weight="500"><tspan x="0" y="0">1967</tspan></text>
      <text id="_1968" data-name="1968" transform="matrix(0.716, -0.698, 0.698, 0.716, 40.799, 8.735)" font-size="3.5" font-family="MuseoSans-500, Museo Sans" font-weight="500"><tspan x="0" y="0">1968</tspan></text>
      <text id="_1969" data-name="1969" transform="matrix(0.716, -0.698, 0.698, 0.716, 46.799, 8.735)" font-size="3.5" font-family="MuseoSans-500, Museo Sans" font-weight="500"><tspan x="0" y="0">1969</tspan></text>
      <text id="_1970" data-name="1970" transform="matrix(0.716, -0.698, 0.698, 0.716, 51.799, 8.736)" font-size="3.5" font-family="MuseoSans-500, Museo Sans" font-weight="500"><tspan x="0" y="0">1970</tspan></text>
      <text id="_1971" data-name="1971" transform="matrix(0.716, -0.698, 0.698, 0.716, 57.799, 8.037)" font-size="3.5" font-family="MuseoSans-500, Museo Sans" font-weight="500"><tspan x="0" y="0">1971</tspan></text>
      <text id="_1972" data-name="1972" transform="matrix(0.716, -0.698, 0.698, 0.716, 62.799, 8.735)" font-size="3.5" font-family="MuseoSans-500, Museo Sans" font-weight="500"><tspan x="0" y="0">1972</tspan></text>
      <text id="_1973" data-name="1973" transform="matrix(0.716, -0.698, 0.698, 0.716, 67.799, 8.735)" font-size="3.5" font-family="MuseoSans-500, Museo Sans" font-weight="500"><tspan x="0" y="0">1973</tspan></text>
      <text id="_1974" data-name="1974" transform="matrix(0.716, -0.698, 0.698, 0.716, 73.799, 8.735)" font-size="3.5" font-family="MuseoSans-500, Museo Sans" font-weight="500"><tspan x="0" y="0">1974</tspan></text>
      <text id="_1975" data-name="1975" transform="matrix(0.716, -0.698, 0.698, 0.716, 79.799, 8.736)" font-size="3.5" font-family="MuseoSans-500, Museo Sans" font-weight="500"><tspan x="0" y="0">1975</tspan></text>
      <text id="_1976" data-name="1976" transform="matrix(0.716, -0.698, 0.698, 0.716, 84.799, 8.735)" font-size="3.5" font-family="MuseoSans-500, Museo Sans" font-weight="500"><tspan x="0" y="0">1976</tspan></text>
      <text id="_1977" data-name="1977" transform="matrix(0.716, -0.698, 0.698, 0.716, 90.799, 8.735)" font-size="3.5" font-family="MuseoSans-500, Museo Sans" font-weight="500"><tspan x="0" y="0">1977</tspan></text>
      <text id="_1978" data-name="1978" transform="matrix(0.716, -0.698, 0.698, 0.716, 95.799, 8.736)" font-size="3.5" font-family="MuseoSans-500, Museo Sans" font-weight="500"><tspan x="0" y="0">1978</tspan></text>
      <text id="_1979" data-name="1979" transform="matrix(0.716, -0.698, 0.698, 0.716, 101.799, 8.735)" font-size="3.5" font-family="MuseoSans-500, Museo Sans" font-weight="500"><tspan x="0" y="0">1979</tspan></text>
      <text id="_1980" data-name="1980" transform="matrix(0.716, -0.698, 0.698, 0.716, 107.799, 8.735)" font-size="3.5" font-family="MuseoSans-500, Museo Sans" font-weight="500"><tspan x="0" y="0">1980</tspan></text>
      <text id="_1981" data-name="1981" transform="matrix(0.716, -0.698, 0.698, 0.716, 112.799, 8.735)" font-size="3.5" font-family="MuseoSans-500, Museo Sans" font-weight="500"><tspan x="0" y="0">1981</tspan></text>
      <text id="_1982" data-name="1982" transform="matrix(0.716, -0.698, 0.698, 0.716, 118.799, 8.735)" font-size="3.5" font-family="MuseoSans-500, Museo Sans" font-weight="500"><tspan x="0" y="0">1982</tspan></text>
      <text id="_1983" data-name="1983" transform="matrix(0.716, -0.698, 0.698, 0.716, 124.799, 8.735)" font-size="3.5" font-family="MuseoSans-500, Museo Sans" font-weight="500"><tspan x="0" y="0">1983</tspan></text>
      <text id="_1984" data-name="1984" transform="matrix(0.716, -0.698, 0.698, 0.716, 129.799, 8.735)" font-size="3.5" font-family="MuseoSans-500, Museo Sans" font-weight="500"><tspan x="0" y="0">1984</tspan></text>
      <text id="_1985" data-name="1985" transform="matrix(0.716, -0.698, 0.698, 0.716, 135.799, 8.735)" font-size="3.5" font-family="MuseoSans-500, Museo Sans" font-weight="500"><tspan x="0" y="0">1985</tspan></text>
      <text id="_1986" data-name="1986" transform="matrix(0.716, -0.698, 0.698, 0.716, 140.799, 8.736)" font-size="3.5" font-family="MuseoSans-500, Museo Sans" font-weight="500"><tspan x="0" y="0">1986</tspan></text>
      <text id="_1987" data-name="1987" transform="matrix(0.716, -0.698, 0.698, 0.716, 146.799, 8.735)" font-size="3.5" font-family="MuseoSans-500, Museo Sans" font-weight="500"><tspan x="0" y="0">1987</tspan></text>
      <text id="_1988" data-name="1988" transform="matrix(0.716, -0.698, 0.698, 0.716, 152.799, 8.735)" font-size="3.5" font-family="MuseoSans-500, Museo Sans" font-weight="500"><tspan x="0" y="0">1988</tspan></text>
      <text id="_1989" data-name="1989" transform="matrix(0.716, -0.698, 0.698, 0.716, 157.799, 8.735)" font-size="3.5" font-family="MuseoSans-500, Museo Sans" font-weight="500"><tspan x="0" y="0">1989</tspan></text>
      <text id="_1990" data-name="1990" transform="matrix(0.716, -0.698, 0.698, 0.716, 163.799, 8.736)" font-size="3.5" font-family="MuseoSans-500, Museo Sans" font-weight="500"><tspan x="0" y="0">1990</tspan></text>
      <text id="_1991" data-name="1991" transform="matrix(0.716, -0.698, 0.698, 0.716, 168.799, 8.735)" font-size="3.5" font-family="MuseoSans-500, Museo Sans" font-weight="500"><tspan x="0" y="0">1991</tspan></text>
      <text id="_1992" data-name="1992" transform="matrix(0.716, -0.698, 0.698, 0.716, 174.799, 8.735)" font-size="3.5" font-family="MuseoSans-500, Museo Sans" font-weight="500"><tspan x="0" y="0">1992</tspan></text>
      <text id="_1993" data-name="1993" transform="matrix(0.716, -0.698, 0.698, 0.716, 180.799, 8.735)" font-size="3.5" font-family="MuseoSans-500, Museo Sans" font-weight="500"><tspan x="0" y="0">1993</tspan></text>
      <text id="_1994" data-name="1994" transform="matrix(0.716, -0.698, 0.698, 0.716, 185.799, 8.736)" font-size="3.5" font-family="MuseoSans-500, Museo Sans" font-weight="500"><tspan x="0" y="0">1994</tspan></text>
      <text id="_1995" data-name="1995" transform="matrix(0.716, -0.698, 0.698, 0.716, 191.799, 8.735)" font-size="3.5" font-family="MuseoSans-500, Museo Sans" font-weight="500"><tspan x="0" y="0">1995</tspan></text>
      <text id="_1996" data-name="1996" transform="matrix(0.716, -0.698, 0.698, 0.716, 197.799, 8.735)" font-size="3.5" font-family="MuseoSans-500, Museo Sans" font-weight="500"><tspan x="0" y="0">1996</tspan></text>
      <text id="_1997" data-name="1997" transform="matrix(0.716, -0.698, 0.698, 0.716, 202.799, 8.736)" font-size="3.5" font-family="MuseoSans-500, Museo Sans" font-weight="500"><tspan x="0" y="0">1997</tspan></text>
      <text id="_1998" data-name="1998" transform="matrix(0.716, -0.698, 0.698, 0.716, 208.799, 8.735)" font-size="3.5" font-family="MuseoSans-500, Museo Sans" font-weight="500"><tspan x="0" y="0">1998</tspan></text>
      <text id="_1999" data-name="1999" transform="matrix(0.716, -0.698, 0.698, 0.716, 213.799, 8.735)" font-size="3.5" font-family="MuseoSans-500, Museo Sans" font-weight="500"><tspan x="0" y="0">1999</tspan></text>
      <text id="_2000" data-name="2000" transform="matrix(0.716, -0.698, 0.698, 0.716, 219.799, 9.434)" font-size="3.5" font-family="MuseoSans-500, Museo Sans" font-weight="500"><tspan x="0" y="0">2000</tspan></text>
      <text id="_2001" data-name="2001" transform="matrix(0.716, -0.698, 0.698, 0.716, 225.799, 8.735)" font-size="3.5" font-family="MuseoSans-500, Museo Sans" font-weight="500"><tspan x="0" y="0">2001</tspan></text>
      <text id="_2002" data-name="2002" transform="matrix(0.716, -0.698, 0.698, 0.716, 231.799, 8.735)" font-size="3.5" font-family="MuseoSans-500, Museo Sans" font-weight="500"><tspan x="0" y="0">2002</tspan></text>
      <text id="_2003" data-name="2003" transform="matrix(0.716, -0.698, 0.698, 0.716, 237.799, 8.736)" font-size="3.5" font-family="MuseoSans-500, Museo Sans" font-weight="500"><tspan x="0" y="0">2003</tspan></text>
      <text id="_2004" data-name="2004" transform="matrix(0.716, -0.698, 0.698, 0.716, 242.799, 8.735)" font-size="3.5" font-family="MuseoSans-500, Museo Sans" font-weight="500"><tspan x="0" y="0">2004</tspan></text>
      <text id="_2005" data-name="2005" transform="matrix(0.716, -0.698, 0.698, 0.716, 248.799, 8.735)" font-size="3.5" font-family="MuseoSans-500, Museo Sans" font-weight="500"><tspan x="0" y="0">2005</tspan></text>
      <text id="_2006" data-name="2006" transform="matrix(0.716, -0.698, 0.698, 0.716, 253.799, 8.735)" font-size="3.5" font-family="MuseoSans-500, Museo Sans" font-weight="500"><tspan x="0" y="0">2006</tspan></text>
      <text id="_2007" data-name="2007" transform="matrix(0.716, -0.698, 0.698, 0.716, 259.799, 8.735)" font-size="3.5" font-family="MuseoSans-500, Museo Sans" font-weight="500"><tspan x="0" y="0">2007</tspan></text>
      <text id="_2008" data-name="2008" transform="matrix(0.716, -0.698, 0.698, 0.716, 265.799, 9.433)" font-size="3.5" font-family="MuseoSans-500, Museo Sans" font-weight="500"><tspan x="0" y="0">2008</tspan></text>
      <text id="_2009" data-name="2009" transform="matrix(0.716, -0.698, 0.698, 0.716, 271.799, 8.735)" font-size="3.5" font-family="MuseoSans-500, Museo Sans" font-weight="500"><tspan x="0" y="0">2009</tspan></text>
      <text id="_2010" data-name="2010" transform="matrix(0.716, -0.698, 0.698, 0.716, 277.799, 8.736)" font-size="3.5" font-family="MuseoSans-500, Museo Sans" font-weight="500"><tspan x="0" y="0">2010</tspan></text>
      <text id="_2011" data-name="2011" transform="matrix(0.716, -0.698, 0.698, 0.716, 282.799, 8.735)" font-size="3.5" font-family="MuseoSans-500, Museo Sans" font-weight="500"><tspan x="0" y="0">2011</tspan></text>
      <text id="_2012" data-name="2012" transform="matrix(0.716, -0.698, 0.698, 0.716, 288.799, 8.735)" font-size="3.5" font-family="MuseoSans-500, Museo Sans" font-weight="500"><tspan x="0" y="0">2012</tspan></text>
      <text id="_2013" data-name="2013" transform="matrix(0.716, -0.698, 0.698, 0.716, 294.799, 8.735)" font-size="3.5" font-family="MuseoSans-500, Museo Sans" font-weight="500"><tspan x="0" y="0">2013</tspan></text>
      <text id="_2014" data-name="2014" transform="matrix(0.716, -0.698, 0.698, 0.716, 299.799, 8.736)" font-size="3.5" font-family="MuseoSans-500, Museo Sans" font-weight="500"><tspan x="0" y="0">2014</tspan></text>
    </g>
    <text id="_200000" data-name="200000" transform="translate(323.195 528.134)" font-size="8" font-family="MuseoSans-500, Museo Sans" font-weight="500"><tspan x="0" y="0">200000</tspan></text>
    <text id="_220000" data-name="220000" transform="translate(323.195 505.012)" font-size="8" font-family="MuseoSans-500, Museo Sans" font-weight="500"><tspan x="0" y="0">220000</tspan></text>
    <text id="_240000" data-name="240000" transform="translate(323.195 481.889)" font-size="8" font-family="MuseoSans-500, Museo Sans" font-weight="500"><tspan x="0" y="0">240000</tspan></text>
    <text id="_260000" data-name="260000" transform="translate(323.195 458.767)" font-size="8" font-family="MuseoSans-500, Museo Sans" font-weight="500"><tspan x="0" y="0">260000</tspan></text>
    <text id="_280000" data-name="280000" transform="translate(323.195 435.644)" font-size="8" font-family="MuseoSans-500, Museo Sans" font-weight="500"><tspan x="0" y="0">280000</tspan></text>
    <text id="_300000" data-name="300000" transform="translate(323.195 412.522)" font-size="8" font-family="MuseoSans-500, Museo Sans" font-weight="500"><tspan x="0" y="0">300000</tspan></text>
    <text id="_320000" data-name="320000" transform="translate(323.195 389.399)" font-size="8" font-family="MuseoSans-500, Museo Sans" font-weight="500"><tspan x="0" y="0">320000</tspan></text>
    <text id="_340000" data-name="340000" transform="translate(323.195 366.277)" font-size="8" font-family="MuseoSans-500, Museo Sans" font-weight="500"><tspan x="0" y="0">340000</tspan></text>
    <text id="_360000" data-name="360000" transform="translate(323.195 343.154)" font-size="8" font-family="MuseoSans-500, Museo Sans" font-weight="500"><tspan x="0" y="0">360000</tspan></text>
    <text id="_380000" data-name="380000" transform="translate(323.195 320.032)" font-size="8" font-family="MuseoSans-500, Museo Sans" font-weight="500"><tspan x="0" y="0">380000</tspan></text>
    <g id="Group_173" data-name="Group 173" transform="translate(366.49 365.528)">
      <line id="Line_868" data-name="Line 868" y1="0.873" x2="3.687" transform="translate(0 60.236)" fill="none" stroke="#df928e" stroke-miterlimit="10" stroke-width="1"/>
      <line id="Line_869" data-name="Line 869" y1="0.873" x2="3.687" transform="translate(4.301 59.363)" fill="none" stroke="#df928e" stroke-miterlimit="10" stroke-width="1"/>
      <line id="Line_870" data-name="Line 870" y1="0.873" x2="3.687" transform="translate(8.603 58.49)" fill="none" stroke="#df928e" stroke-miterlimit="10" stroke-width="1"/>
      <line id="Line_871" data-name="Line 871" y1="0.873" x2="3.687" transform="translate(12.904 57.617)" fill="none" stroke="#df928e" stroke-miterlimit="10" stroke-width="1"/>
      <line id="Line_872" data-name="Line 872" y1="0.873" x2="3.687" transform="translate(17.206 56.744)" fill="none" stroke="#df928e" stroke-miterlimit="10" stroke-width="1"/>
      <line id="Line_873" data-name="Line 873" y1="0.873" x2="3.687" transform="translate(21.507 55.871)" fill="none" stroke="#df928e" stroke-miterlimit="10" stroke-width="1"/>
      <line id="Line_874" data-name="Line 874" y1="0.873" x2="3.687" transform="translate(25.809 54.998)" fill="none" stroke="#df928e" stroke-miterlimit="10" stroke-width="1"/>
      <line id="Line_875" data-name="Line 875" y1="0.873" x2="3.687" transform="translate(30.11 54.125)" fill="none" stroke="#df928e" stroke-miterlimit="10" stroke-width="1"/>
      <line id="Line_876" data-name="Line 876" y1="0.873" x2="3.687" transform="translate(34.412 53.253)" fill="none" stroke="#df928e" stroke-miterlimit="10" stroke-width="1"/>
      <line id="Line_877" data-name="Line 877" y1="0.873" x2="3.687" transform="translate(38.713 52.379)" fill="none" stroke="#df928e" stroke-miterlimit="10" stroke-width="1"/>
      <line id="Line_878" data-name="Line 878" y1="0.873" x2="3.687" transform="translate(43.015 51.507)" fill="none" stroke="#df928e" stroke-miterlimit="10" stroke-width="1"/>
      <line id="Line_879" data-name="Line 879" y1="0.873" x2="3.687" transform="translate(47.316 50.634)" fill="none" stroke="#df928e" stroke-miterlimit="10" stroke-width="1"/>
      <line id="Line_880" data-name="Line 880" y1="0.873" x2="3.687" transform="translate(51.618 49.761)" fill="none" stroke="#df928e" stroke-miterlimit="10" stroke-width="1"/>
      <line id="Line_881" data-name="Line 881" y1="0.873" x2="3.687" transform="translate(55.919 48.888)" fill="none" stroke="#df928e" stroke-miterlimit="10" stroke-width="1"/>
      <line id="Line_882" data-name="Line 882" y1="0.873" x2="3.687" transform="translate(60.221 48.015)" fill="none" stroke="#df928e" stroke-miterlimit="10" stroke-width="1"/>
      <line id="Line_883" data-name="Line 883" y1="0.873" x2="3.687" transform="translate(64.522 47.142)" fill="none" stroke="#df928e" stroke-miterlimit="10" stroke-width="1"/>
      <line id="Line_884" data-name="Line 884" y1="0.873" x2="3.687" transform="translate(68.824 46.269)" fill="none" stroke="#df928e" stroke-miterlimit="10" stroke-width="1"/>
      <line id="Line_885" data-name="Line 885" y1="0.873" x2="3.687" transform="translate(73.125 45.396)" fill="none" stroke="#df928e" stroke-miterlimit="10" stroke-width="1"/>
      <line id="Line_886" data-name="Line 886" y1="0.873" x2="3.687" transform="translate(77.427 44.523)" fill="none" stroke="#df928e" stroke-miterlimit="10" stroke-width="1"/>
      <line id="Line_887" data-name="Line 887" y1="0.873" x2="3.687" transform="translate(81.728 43.65)" fill="none" stroke="#df928e" stroke-miterlimit="10" stroke-width="1"/>
      <line id="Line_888" data-name="Line 888" y1="0.873" x2="3.687" transform="translate(86.03 42.777)" fill="none" stroke="#df928e" stroke-miterlimit="10" stroke-width="1"/>
      <line id="Line_889" data-name="Line 889" y1="0.873" x2="3.687" transform="translate(90.331 41.904)" fill="none" stroke="#df928e" stroke-miterlimit="10" stroke-width="1"/>
      <line id="Line_890" data-name="Line 890" y1="0.873" x2="3.687" transform="translate(94.633 41.031)" fill="none" stroke="#df928e" stroke-miterlimit="10" stroke-width="1"/>
      <line id="Line_891" data-name="Line 891" y1="0.873" x2="3.687" transform="translate(98.934 40.158)" fill="none" stroke="#df928e" stroke-miterlimit="10" stroke-width="1"/>
      <line id="Line_892" data-name="Line 892" y1="0.873" x2="3.687" transform="translate(103.236 39.285)" fill="none" stroke="#df928e" stroke-miterlimit="10" stroke-width="1"/>
      <line id="Line_893" data-name="Line 893" y1="0.873" x2="3.687" transform="translate(107.537 38.412)" fill="none" stroke="#df928e" stroke-miterlimit="10" stroke-width="1"/>
      <line id="Line_894" data-name="Line 894" y1="0.873" x2="3.687" transform="translate(111.839 37.539)" fill="none" stroke="#df928e" stroke-miterlimit="10" stroke-width="1"/>
      <line id="Line_895" data-name="Line 895" y1="0.873" x2="3.687" transform="translate(116.14 36.666)" fill="none" stroke="#df928e" stroke-miterlimit="10" stroke-width="1"/>
      <line id="Line_896" data-name="Line 896" y1="0.873" x2="3.687" transform="translate(120.442 35.793)" fill="none" stroke="#df928e" stroke-miterlimit="10" stroke-width="1"/>
      <line id="Line_897" data-name="Line 897" y1="0.873" x2="3.687" transform="translate(124.743 34.92)" fill="none" stroke="#df928e" stroke-miterlimit="10" stroke-width="1"/>
      <line id="Line_898" data-name="Line 898" y1="0.873" x2="3.687" transform="translate(129.045 34.047)" fill="none" stroke="#df928e" stroke-miterlimit="10" stroke-width="1"/>
      <line id="Line_899" data-name="Line 899" y1="0.873" x2="3.687" transform="translate(133.346 33.174)" fill="none" stroke="#df928e" stroke-miterlimit="10" stroke-width="1"/>
      <line id="Line_900" data-name="Line 900" y1="0.873" x2="3.687" transform="translate(137.648 32.301)" fill="none" stroke="#df928e" stroke-miterlimit="10" stroke-width="1"/>
      <line id="Line_901" data-name="Line 901" y1="0.873" x2="3.687" transform="translate(141.949 31.428)" fill="none" stroke="#df928e" stroke-miterlimit="10" stroke-width="1"/>
      <line id="Line_902" data-name="Line 902" y1="0.873" x2="3.687" transform="translate(146.251 30.555)" fill="none" stroke="#df928e" stroke-miterlimit="10" stroke-width="1"/>
      <line id="Line_903" data-name="Line 903" y1="0.873" x2="3.687" transform="translate(150.552 29.682)" fill="none" stroke="#df928e" stroke-miterlimit="10" stroke-width="1"/>
      <line id="Line_904" data-name="Line 904" y1="0.873" x2="3.687" transform="translate(154.854 28.809)" fill="none" stroke="#df928e" stroke-miterlimit="10" stroke-width="1"/>
      <line id="Line_905" data-name="Line 905" y1="0.873" x2="3.687" transform="translate(159.155 27.936)" fill="none" stroke="#df928e" stroke-miterlimit="10" stroke-width="1"/>
      <line id="Line_906" data-name="Line 906" y1="0.873" x2="3.687" transform="translate(163.457 27.063)" fill="none" stroke="#df928e" stroke-miterlimit="10" stroke-width="1"/>
      <line id="Line_907" data-name="Line 907" y1="0.873" x2="3.687" transform="translate(167.758 26.19)" fill="none" stroke="#df928e" stroke-miterlimit="10" stroke-width="1"/>
      <line id="Line_908" data-name="Line 908" y1="0.873" x2="3.687" transform="translate(172.06 25.317)" fill="none" stroke="#df928e" stroke-miterlimit="10" stroke-width="1"/>
      <line id="Line_909" data-name="Line 909" y1="0.873" x2="3.687" transform="translate(176.361 24.444)" fill="none" stroke="#df928e" stroke-miterlimit="10" stroke-width="1"/>
      <line id="Line_910" data-name="Line 910" y1="0.873" x2="3.687" transform="translate(180.663 23.571)" fill="none" stroke="#df928e" stroke-miterlimit="10" stroke-width="1"/>
      <line id="Line_911" data-name="Line 911" y1="0.873" x2="3.687" transform="translate(184.964 22.698)" fill="none" stroke="#df928e" stroke-miterlimit="10" stroke-width="1"/>
      <line id="Line_912" data-name="Line 912" y1="0.873" x2="3.687" transform="translate(189.266 21.825)" fill="none" stroke="#df928e" stroke-miterlimit="10" stroke-width="1"/>
      <line id="Line_913" data-name="Line 913" y1="0.873" x2="3.687" transform="translate(193.567 20.952)" fill="none" stroke="#df928e" stroke-miterlimit="10" stroke-width="1"/>
      <line id="Line_914" data-name="Line 914" y1="0.873" x2="3.687" transform="translate(197.869 20.079)" fill="none" stroke="#df928e" stroke-miterlimit="10" stroke-width="1"/>
      <line id="Line_915" data-name="Line 915" y1="0.873" x2="3.687" transform="translate(202.17 19.206)" fill="none" stroke="#df928e" stroke-miterlimit="10" stroke-width="1"/>
      <line id="Line_916" data-name="Line 916" y1="0.873" x2="3.687" transform="translate(206.472 18.333)" fill="none" stroke="#df928e" stroke-miterlimit="10" stroke-width="1"/>
      <line id="Line_917" data-name="Line 917" y1="0.873" x2="3.687" transform="translate(210.773 17.46)" fill="none" stroke="#df928e" stroke-miterlimit="10" stroke-width="1"/>
      <line id="Line_918" data-name="Line 918" y1="0.873" x2="3.687" transform="translate(215.075 16.587)" fill="none" stroke="#df928e" stroke-miterlimit="10" stroke-width="1"/>
      <line id="Line_919" data-name="Line 919" y1="0.873" x2="3.687" transform="translate(219.376 15.714)" fill="none" stroke="#df928e" stroke-miterlimit="10" stroke-width="1"/>
      <line id="Line_920" data-name="Line 920" y1="0.873" x2="3.687" transform="translate(223.678 14.841)" fill="none" stroke="#df928e" stroke-miterlimit="10" stroke-width="1"/>
      <line id="Line_921" data-name="Line 921" y1="0.873" x2="3.687" transform="translate(227.979 13.968)" fill="none" stroke="#df928e" stroke-miterlimit="10" stroke-width="1"/>
      <line id="Line_922" data-name="Line 922" y1="0.873" x2="3.687" transform="translate(232.281 13.095)" fill="none" stroke="#df928e" stroke-miterlimit="10" stroke-width="1"/>
      <line id="Line_923" data-name="Line 923" y1="0.873" x2="3.687" transform="translate(236.582 12.222)" fill="none" stroke="#df928e" stroke-miterlimit="10" stroke-width="1"/>
      <line id="Line_924" data-name="Line 924" y1="0.873" x2="3.687" transform="translate(240.884 11.349)" fill="none" stroke="#df928e" stroke-miterlimit="10" stroke-width="1"/>
      <line id="Line_925" data-name="Line 925" y1="0.873" x2="3.687" transform="translate(245.185 10.476)" fill="none" stroke="#df928e" stroke-miterlimit="10" stroke-width="1"/>
      <line id="Line_926" data-name="Line 926" y1="0.873" x2="3.687" transform="translate(249.487 9.603)" fill="none" stroke="#df928e" stroke-miterlimit="10" stroke-width="1"/>
      <line id="Line_927" data-name="Line 927" y1="0.873" x2="3.687" transform="translate(253.788 8.73)" fill="none" stroke="#df928e" stroke-miterlimit="10" stroke-width="1"/>
      <line id="Line_928" data-name="Line 928" y1="0.873" x2="3.687" transform="translate(258.09 7.857)" fill="none" stroke="#df928e" stroke-miterlimit="10" stroke-width="1"/>
      <line id="Line_929" data-name="Line 929" y1="0.873" x2="3.687" transform="translate(262.391 6.984)" fill="none" stroke="#df928e" stroke-miterlimit="10" stroke-width="1"/>
      <line id="Line_930" data-name="Line 930" y1="0.873" x2="3.687" transform="translate(266.693 6.111)" fill="none" stroke="#df928e" stroke-miterlimit="10" stroke-width="1"/>
      <line id="Line_931" data-name="Line 931" y1="0.873" x2="3.687" transform="translate(270.994 5.238)" fill="none" stroke="#df928e" stroke-miterlimit="10" stroke-width="1"/>
      <line id="Line_932" data-name="Line 932" y1="0.873" x2="3.687" transform="translate(275.296 4.365)" fill="none" stroke="#df928e" stroke-miterlimit="10" stroke-width="1"/>
      <line id="Line_933" data-name="Line 933" y1="0.873" x2="3.687" transform="translate(279.597 3.492)" fill="none" stroke="#df928e" stroke-miterlimit="10" stroke-width="1"/>
      <line id="Line_934" data-name="Line 934" y1="0.873" x2="3.687" transform="translate(283.898 2.619)" fill="none" stroke="#df928e" stroke-miterlimit="10" stroke-width="1"/>
      <line id="Line_935" data-name="Line 935" y1="0.873" x2="3.687" transform="translate(288.2 1.746)" fill="none" stroke="#df928e" stroke-miterlimit="10" stroke-width="1"/>
      <line id="Line_936" data-name="Line 936" y1="0.873" x2="3.687" transform="translate(292.502 0.873)" fill="none" stroke="#df928e" stroke-miterlimit="10" stroke-width="1"/>
      <line id="Line_937" data-name="Line 937" y1="0.873" x2="3.687" transform="translate(296.803)" fill="none" stroke="#df928e" stroke-miterlimit="10" stroke-width="1"/>
    </g>
    <line id="Line_938" data-name="Line 938" y1="208.902" transform="translate(364.053 317.116)" fill="none" stroke="#333" stroke-width="1"/>
    <line id="Line_939" data-name="Line 939" x1="4.401" transform="translate(364.053 317.116)" fill="none" stroke="#333" stroke-linecap="square" stroke-width="1"/>
    <line id="Line_940" data-name="Line 940" x1="4.401" transform="translate(364.053 341.164)" fill="none" stroke="#333" stroke-linecap="square" stroke-width="1"/>
    <line id="Line_941" data-name="Line 941" x1="4.401" transform="translate(364.053 363.511)" fill="none" stroke="#333" stroke-linecap="square" stroke-width="1"/>
    <line id="Line_942" data-name="Line 942" x1="4.401" transform="translate(364.053 386.588)" fill="none" stroke="#333" stroke-linecap="square" stroke-width="1"/>
    <line id="Line_943" data-name="Line 943" x1="4.401" transform="translate(364.053 409.712)" fill="none" stroke="#333" stroke-linecap="square" stroke-width="1"/>
    <line id="Line_944" data-name="Line 944" x1="4.401" transform="translate(364.053 433.663)" fill="none" stroke="#333" stroke-linecap="square" stroke-width="1"/>
    <line id="Line_945" data-name="Line 945" x1="4.401" transform="translate(364.053 455.962)" fill="none" stroke="#333" stroke-linecap="square" stroke-width="1"/>
    <line id="Line_946" data-name="Line 946" x1="4.401" transform="translate(364.053 479.913)" fill="none" stroke="#333" stroke-linecap="square" stroke-width="1"/>
    <line id="Line_947" data-name="Line 947" x1="4.401" transform="translate(364.053 503.864)" fill="none" stroke="#333" stroke-linecap="square" stroke-width="1"/>
  </g>
</svg>
