<svg id="Layer_1" data-name="Layer 1" xmlns="http://www.w3.org/2000/svg" viewBox="0 0 1223 1259"><defs><style>.cls-1{fill:#292929;}.cls-2{fill:#fff;}</style></defs><path class="cls-1" d="M912.32,420.69a248.64,248.64,0,0,1-77.91,29.78,122.83,122.83,0,0,0-212.33,84,112.1,112.1,0,0,0,3.31,28c-102.1-5.09-192.48-54-253.08-128.32A122.71,122.71,0,0,0,410.5,597.89,120.56,120.56,0,0,1,355,582.61v1.53a122.88,122.88,0,0,0,98.53,120.42,122,122,0,0,1-32.33,4.33A117,117,0,0,1,398,706.6,122.59,122.59,0,0,0,512.6,791.89a246.76,246.76,0,0,1-152.51,52.45,223.83,223.83,0,0,1-29.28-1.78,342.08,342.08,0,0,0,187.64,55.5c225.83,0,349.31-187.13,349.31-349.31,0-5.35,0-10.69-.25-15.79a251.47,251.47,0,0,0,61.36-63.65,248.92,248.92,0,0,1-70.53,19.35A122.69,122.69,0,0,0,912.32,420.69Z"/><path class="cls-2" d="M611.84,120.75c-281.12,0-509,227.89-509,509,0,228.37,150.39,421.61,357.53,486.08a509.26,509.26,0,0,0,151.27,22.83c281.28,0,509.12-227.79,509.2-509.06C1120.76,348.56,892.9,120.75,611.84,120.75ZM867.51,533c.25,5.1.25,10.44.25,15.79,0,162.18-123.48,349.31-349.31,349.31a342.08,342.08,0,0,1-187.64-55.5,223.83,223.83,0,0,0,29.28,1.78A246.76,246.76,0,0,0,512.6,791.89,122.59,122.59,0,0,1,398,706.6a117,117,0,0,0,23.17,2.29,122,122,0,0,0,32.33-4.33A122.88,122.88,0,0,1,355,584.14v-1.53a120.56,120.56,0,0,0,55.5,15.28,122.71,122.71,0,0,1-38.19-163.71c60.6,74.34,151,123.23,253.08,128.32a112.1,112.1,0,0,1-3.31-28,122.83,122.83,0,0,1,212.33-84,248.64,248.64,0,0,0,77.91-29.78,122.69,122.69,0,0,1-54,68,248.92,248.92,0,0,0,70.53-19.35A251.47,251.47,0,0,1,867.51,533Z"/></svg>