<svg xmlns="http://www.w3.org/2000/svg" width="345" height="220" viewBox="0 0 345 220">
  <g id="Group_350" data-name="Group 350" transform="translate(-4627 -1851)">
    <g id="Group_305" data-name="Group 305" transform="translate(4627 1851)">
      <text id="_0_0" data-name="0,0" transform="translate(0 217)" fill="#333" font-size="10" font-family="MuseoSans-500, Museo Sans" font-weight="500"><tspan x="0" y="0">0,0</tspan></text>
      <text id="_0_5" data-name="0,5" transform="translate(1 191)" fill="#333" font-size="10" font-family="MuseoSans-500, Museo Sans" font-weight="500"><tspan x="0" y="0">0,5</tspan></text>
      <text id="_1_0" data-name="1,0" transform="translate(1 165)" fill="#333" font-size="10" font-family="MuseoSans-500, Museo Sans" font-weight="500"><tspan x="0" y="0">1,0</tspan></text>
      <text id="_1_5" data-name="1,5" transform="translate(2 139)" fill="#333" font-size="10" font-family="MuseoSans-500, Museo Sans" font-weight="500"><tspan x="0" y="0">1,5</tspan></text>
      <text id="_2_0" data-name="2,0" transform="translate(1 113)" fill="#333" font-size="10" font-family="MuseoSans-500, Museo Sans" font-weight="500"><tspan x="0" y="0">2,0</tspan></text>
      <text id="_2_5" data-name="2,5" transform="translate(1 87)" fill="#333" font-size="10" font-family="MuseoSans-500, Museo Sans" font-weight="500"><tspan x="0" y="0">2,5</tspan></text>
      <text id="_3_0" data-name="3,0" transform="translate(1 61)" fill="#333" font-size="10" font-family="MuseoSans-500, Museo Sans" font-weight="500"><tspan x="0" y="0">3,0</tspan></text>
      <text id="_3_5" data-name="3,5" transform="translate(1 35)" fill="#333" font-size="10" font-family="MuseoSans-500, Museo Sans" font-weight="500"><tspan x="0" y="0">3,5</tspan></text>
      <text id="_4_0" data-name="4,0" transform="translate(0 9)" fill="#333" font-size="10" font-family="MuseoSans-500, Museo Sans" font-weight="500"><tspan x="0" y="0">4,0</tspan></text>
    </g>
    <g id="Group_343" data-name="Group 343" transform="translate(4649.5 1855.721)">
      <line id="Line_9" data-name="Line 9" y1="5.271" x2="0.004" transform="translate(0 205.598)" fill="none" stroke="#333" stroke-linecap="square" stroke-miterlimit="10" stroke-width="1"/>
      <line id="Line_10" data-name="Line 10" y1="5.272" transform="translate(227.488 205.598)" fill="none" stroke="#333" stroke-miterlimit="10" stroke-width="1"/>
      <line id="Line_20" data-name="Line 20" x2="227.576" transform="translate(0.003)" fill="none" stroke="#333" stroke-miterlimit="10" stroke-width="1" opacity="0.1"/>
      <line id="Line_13" data-name="Line 13" x2="227.576" transform="translate(0.003 184.976)" fill="none" stroke="#333" stroke-miterlimit="10" stroke-width="1" opacity="0.1"/>
      <line id="Line_14" data-name="Line 14" x2="227.576" transform="translate(0.003 158.617)" fill="none" stroke="#333" stroke-miterlimit="10" stroke-width="1" opacity="0.1"/>
      <line id="Line_15" data-name="Line 15" x2="227.576" transform="translate(0.003 132.259)" fill="none" stroke="#333" stroke-miterlimit="10" stroke-width="1" opacity="0.1"/>
      <line id="Line_16" data-name="Line 16" x2="227.576" transform="translate(0.003 105.9)" fill="none" stroke="#333" stroke-miterlimit="10" stroke-width="1" opacity="0.1"/>
      <line id="Line_17" data-name="Line 17" x2="227.576" transform="translate(0.003 79.541)" fill="none" stroke="#333" stroke-miterlimit="10" stroke-width="1" opacity="0.1"/>
      <line id="Line_18" data-name="Line 18" x2="227.576" transform="translate(0.003 53.183)" fill="none" stroke="#333" stroke-miterlimit="10" stroke-width="1" opacity="0.1"/>
      <line id="Line_19" data-name="Line 19" x2="227.576" transform="translate(0.003 26.824)" fill="none" stroke="#333" stroke-miterlimit="10" stroke-width="1" opacity="0.1"/>
      <line id="Line_21" data-name="Line 21" x2="227.576" transform="translate(0.003 198.155)" fill="none" stroke="#333" stroke-miterlimit="10" stroke-width="1" opacity="0.1"/>
      <line id="Line_22" data-name="Line 22" x2="227.576" transform="translate(0.003 171.797)" fill="none" stroke="#333" stroke-miterlimit="10" stroke-width="1" opacity="0.1"/>
      <line id="Line_23" data-name="Line 23" x2="227.576" transform="translate(0.003 145.438)" fill="none" stroke="#333" stroke-miterlimit="10" stroke-width="1" opacity="0.1"/>
      <line id="Line_24" data-name="Line 24" x2="227.576" transform="translate(0.003 119.079)" fill="none" stroke="#333" stroke-miterlimit="10" stroke-width="1" opacity="0.1"/>
      <line id="Line_25" data-name="Line 25" x2="227.576" transform="translate(0.003 92.721)" fill="none" stroke="#333" stroke-miterlimit="10" stroke-width="1" opacity="0.1"/>
      <line id="Line_26" data-name="Line 26" x2="227.576" transform="translate(0.003 66.362)" fill="none" stroke="#333" stroke-miterlimit="10" stroke-width="1" opacity="0.1"/>
      <line id="Line_27" data-name="Line 27" x2="227.576" transform="translate(0.003 40.003)" fill="none" stroke="#333" stroke-miterlimit="10" stroke-width="1" opacity="0.1"/>
      <line id="Line_28" data-name="Line 28" x2="227.576" transform="translate(0.003 13.645)" fill="none" stroke="#333" stroke-miterlimit="10" stroke-width="1" opacity="0.1"/>
      <rect id="Rectangle_51" data-name="Rectangle 51" width="26.25" height="210.869" transform="translate(164.5 0.465)" fill="#1a3a4b"/>
      <rect id="Rectangle_53" data-name="Rectangle 53" width="26.25" height="168.696" transform="translate(101.5 42.639)" fill="#326581"/>
      <rect id="Rectangle_55" data-name="Rectangle 55" width="26.25" height="142.337" transform="translate(38.5 68.998)" fill="#4d99c4"/>
      <path id="Path_693" data-name="Path 693" d="M0,0H228" transform="translate(0.003 210.87)" fill="none" stroke="#333" stroke-width="1"/>
    </g>
    <g id="Group_349" data-name="Group 349" transform="translate(4885.509 1861.368)">
      <rect id="Rectangle_50" data-name="Rectangle 50" width="25.491" height="18.029" transform="translate(0 46.524)" fill="#1a3a4b"/>
      <path id="Path_278" data-name="Path 278" d="M0,0H25.413V18.5H0Z" transform="translate(0.078 81.444)" fill="#326581"/>
      <path id="Path_692" data-name="Path 692" d="M0,0H25.413V18.5H0Z" transform="translate(0.078 116.444)" fill="#4d99c4"/>
      <text id="Filterkaffe" transform="translate(33.491 58.632)" fill="#231815" font-size="10" font-family="MuseoSans-500, Museo Sans" font-weight="500"><tspan x="0" y="0">Filterkaffe</tspan></text>
      <text id="Kapselkaffe" transform="translate(33.491 93.632)" fill="#231815" font-size="10" font-family="MuseoSans-500, Museo Sans" font-weight="500"><tspan x="0" y="0">Kapselkaffe</tspan></text>
      <text id="Pulverkaffe" transform="translate(33.491 128.632)" fill="#231815" font-size="10" font-family="MuseoSans-500, Museo Sans" font-weight="500"><tspan x="0" y="0">Pulverkaffe</tspan></text>
      <path id="Path_694" data-name="Path 694" d="M403.68,25.84c-3.358-.052-6.047-3.09-6.021-6.8a.683.683,0,0,0-.3-.59.553.553,0,0,0-.611,0,.683.683,0,0,0-.3.59c-.032,4.452,3.2,8.1,7.224,8.16a.683.683,0,0,0,0-1.36Zm0-25.84c-1.2,0-9.633,11.56-9.633,19.04,0,5.88,4.311,10.646,9.633,10.646s9.635-4.767,9.635-10.646C413.312,11.56,404.884,0,403.68,0Zm0,28.56c-4.636,0-8.429-4.42-8.429-9.86,0-6.46,7.827-17.068,8.429-17.068s8.429,10.608,8.429,17.068c0,5.44-3.793,9.86-8.429,9.86Zm0,0" transform="translate(-391.245)" fill="#1a3a4b"/>
    </g>
  </g>
</svg>
