<svg id="Layer_1" data-name="Layer 1" xmlns="http://www.w3.org/2000/svg" viewBox="0 0 1223 1259"><defs><style>.cls-1{fill:#fff;}.cls-2{fill:#292929;}</style></defs><circle class="cls-1" cx="610.41" cy="654.7" r="509"/><path class="cls-2" d="M919.91,498.31a81.19,81.19,0,0,0-57.13-57.49c-50.39-13.59-252.44-13.59-252.44-13.59s-202,0-252.44,13.59a81.19,81.19,0,0,0-57.13,57.49c-13.5,50.72-13.5,156.53-13.5,156.53s0,105.82,13.5,156.53a81.2,81.2,0,0,0,57.13,57.5c50.39,13.59,252.44,13.59,252.44,13.59s202,0,252.44-13.59a81.2,81.2,0,0,0,57.13-57.5c13.5-50.71,13.5-156.53,13.5-156.53S933.41,549,919.91,498.31ZM544.26,750.91V558.77l168.87,96.08Z"/></svg>